999
dxfrw 0.6.3
  0
SECTION
  2
HEADER
  9
$ACADVER
  1
AC1021
  9
$DWGCODEPAGE
  3
ANSI_1252
  9
$INSBASE
 10
0
 20
0
 30
0
  9
$EXTMIN
 10
-2.26
 20
-2.26
 30
0
  9
$EXTMAX
 10
440
 20
41
 30
0
  9
$LIMMIN
 10
0
 20
0
  9
$LIMMAX
 10
420
 20
297
  9
$ORTHOMODE
 70
    0
  9
$REGENMODE
 70
    1
  9
$FILLMODE
 70
    1
  9
$QTEXTMODE
 70
    0
  9
$MIRRTEXT
 70
    0
  9
$LTSCALE
 40
1
  9
$ATTMODE
 70
    0
  9
$TEXTSIZE
 40
2.5
  9
$TRACEWID
 40
15.68
  9
$TEXTSTYLE
  7
STANDARD
  9
$CLAYER
  8
0
  9
$CELTYPE
  6
BYLAYER
  9
$CECOLOR
 62
  256
  9
$CELTSCALE
 40
1
  9
$DISPSILH
 70
    0
  9
$DIMSCALE
 40
2.5
  9
$DIMASZ
 40
2.5
  9
$DIMEXO
 40
0.625
  9
$DIMDLI
 40
3.75
  9
$DIMRND
 40
0
  9
$DIMDLE
 40
0
  9
$DIMEXE
 40
1.25
  9
$DIMTP
 40
0
  9
$DIMTM
 40
0
  9
$DIMTXT
 40
2.5
  9
$DIMCEN
 40
2.5
  9
$DIMTSZ
 40
0
  9
$DIMTOL
 70
    0
  9
$DIMLIM
 70
    0
  9
$DIMTIH
 70
    0
  9
$DIMTOH
 70
    0
  9
$DIMSE1
 70
    0
  9
$DIMSE2
 70
    0
  9
$DIMTAD
 70
    1
  9
$DIMZIN
 70
    8
  9
$DIMBLK
  1

  9
$DIMASO
 70
    1
  9
$DIMSHO
 70
    1
  9
$DIMPOST
  1

  9
$DIMAPOST
  1

  9
$DIMALT
 70
    0
  9
$DIMALTD
 70
    3
  9
$DIMALTF
 40
0.03937
  9
$DIMLFAC
 40
1
  9
$DIMTOFL
 70
    1
  9
$DIMTVP
 40
0
  9
$DIMTIX
 70
    0
  9
$DIMSOXD
 70
    0
  9
$DIMSAH
 70
    0
  9
$DIMBLK1
  1

  9
$DIMBLK2
  1

  9
$DIMSTYLE
  2
Standard
  9
$DIMCLRD
 70
    0
  9
$DIMCLRE
 70
    0
  9
$DIMCLRT
 70
    0
  9
$DIMTFAC
 40
1
  9
$DIMGAP
 40
0.625
  9
$DIMJUST
 70
    0
  9
$DIMSD1
 70
    0
  9
$DIMSD2
 70
    0
  9
$DIMTOLJ
 70
    0
  9
$DIMTZIN
 70
    8
  9
$DIMALTZ
 70
    0
  9
$DIMALTTZ
 70
    0
  9
$DIMUPT
 70
    0
  9
$DIMDEC
 70
    2
  9
$DIMTDEC
 70
    2
  9
$DIMALTU
 70
    2
  9
$DIMALTTD
 70
    3
  9
$DIMTXSTY
  7
STANDARD
  9
$DIMAUNIT
 70
    0
  9
$DIMADEC
 70
    0
  9
$DIMALTRND
 40
0
  9
$DIMAZIN
 70
    0
  9
$DIMDSEP
 70
   44
  9
$DIMATFIT
 70
    3
  9
$DIMFRAC
 70
    0
  9
$DIMLDRBLK
  1
STANDARD
  9
$DIMLUNIT
 70
    2
  9
$DIMLWD
 70
   -2
  9
$DIMLWE
 70
   -2
  9
$DIMTMOVE
 70
    0
  9
$DIMFXL
 40
1
  9
$DIMFXLON
 70
    0
  9
$DIMJOGANG
 40
0.7854
  9
$DIMTFILL
 70
    0
  9
$DIMTFILLCLR
 70
    0
  9
$DIMARCSYM
 70
    0
  9
$DIMLTYPE
  6

  9
$DIMLTEX1
  6

  9
$DIMLTEX2
  6

  9
$LUNITS
 70
    2
  9
$LUPREC
 70
    4
  9
$SKETCHINC
 40
1
  9
$FILLETRAD
 40
0
  9
$AUNITS
 70
    0
  9
$AUPREC
 70
    2
  9
$MENU
  1
.
  9
$ELEVATION
 40
0
  9
$PELEVATION
 40
0
  9
$THICKNESS
 40
0
  9
$LIMCHECK
 70
    0
  9
$CHAMFERA
 40
0
  9
$CHAMFERB
 40
0
  9
$CHAMFERC
 40
0
  9
$CHAMFERD
 40
0
  9
$SKPOLY
 70
    0
  9
$USRTIMER
 70
    1
  9
$ANGBASE
 50
0
  9
$ANGDIR
 70
    0
  9
$PDMODE
 70
   34
  9
$PDSIZE
 40
0
  9
$PLINEWID
 40
0
  9
$SPLFRAME
 70
    0
  9
$SPLINETYPE
 70
    2
  9
$SPLINESEGS
 70
    8
  9
$HANDSEED
  5
20000
  9
$SURFTAB1
 70
    6
  9
$SURFTAB2
 70
    6
  9
$SURFTYPE
 70
    6
  9
$SURFU
 70
    6
  9
$SURFV
 70
    6
  9
$UCSBASE
  2

  9
$UCSNAME
  2

  9
$UCSORG
 10
0
 20
0
 30
0
  9
$UCSXDIR
 10
1
 20
0
 30
0
  9
$UCSYDIR
 10
0
 20
1
 30
0
  9
$UCSORTHOREF
  2

  9
$UCSORTHOVIEW
 70
    0
  9
$UCSORGTOP
 10
0
 20
0
 30
0
  9
$UCSORGBOTTOM
 10
0
 20
0
 30
0
  9
$UCSORGLEFT
 10
0
 20
0
 30
0
  9
$UCSORGRIGHT
 10
0
 20
0
 30
0
  9
$UCSORGFRONT
 10
0
 20
0
 30
0
  9
$UCSORGBACK
 10
0
 20
0
 30
0
  9
$PUCSBASE
  2

  9
$PUCSNAME
  2

  9
$PUCSORG
 10
0
 20
0
 30
0
  9
$PUCSXDIR
 10
1
 20
0
 30
0
  9
$PUCSYDIR
 10
0
 20
1
 30
0
  9
$PUCSORTHOREF
  2

  9
$PUCSORTHOVIEW
 70
    0
  9
$PUCSORGTOP
 10
0
 20
0
 30
0
  9
$PUCSORGBOTTOM
 10
0
 20
0
 30
0
  9
$PUCSORGLEFT
 10
0
 20
0
 30
0
  9
$PUCSORGRIGHT
 10
0
 20
0
 30
0
  9
$PUCSORGFRONT
 10
0
 20
0
 30
0
  9
$PUCSORGBACK
 10
0
 20
0
 30
0
  9
$USERI1
 70
    0
  9
$USERI2
 70
    0
  9
$USERI3
 70
    0
  9
$USERI4
 70
    0
  9
$USERI5
 70
    0
  9
$USERR1
 40
0
  9
$USERR2
 40
0
  9
$USERR3
 40
0
  9
$USERR4
 40
0
  9
$USERR5
 40
0
  9
$WORLDVIEW
 70
    1
  9
$SHADEDGE
 70
    3
  9
$SHADEDIF
 70
   70
  9
$TILEMODE
 70
    1
  9
$MAXACTVP
 70
   64
  9
$PINSBASE
 10
5.044445557664545
 20
83.20389194672696
 30
0
  9
$PLIMCHECK
 70
    0
  9
$PEXTMIN
 10
0
 20
0
 30
0
  9
$PEXTMAX
 10
0
 20
0
 30
0
  9
$SNAPSTYLE
 70
    0
  9
$PLIMMIN
 10
0
 20
0
  9
$PLIMMAX
 10
297
 20
210
  9
$UNITMODE
 70
    0
  9
$VISRETAIN
 70
    1
  9
$PLINEGEN
 70
    0
  9
$PSLTSCALE
 70
    1
  9
$TREEDEPTH
 70
 3020
  9
$CMLSTYLE
  2
Standard
  9
$CMLJUST
 70
    0
  9
$CMLSCALE
 40
20
  9
$PROXYGRAPHICS
 70
    1
  9
$MEASUREMENT
 70
    1
  9
$CELWEIGHT
370
   -1
  9
$ENDCAPS
280
    0
  9
$JOINSTYLE
280
    0
  9
$LWDISPLAY
290
    0
  9
$INSUNITS
 70
    4
  9
$HYPERLINKBASE
  1

  9
$STYLESHEET
  1

  9
$XEDIT
290
    1
  9
$CEPSNTYPE
380
    0
  9
$PSTYLEMODE
290
    1
  9
$EXTNAMES
290
    1
  9
$PSVPSCALE
 40
0.6150212797362788
  9
$OLESTARTUP
290
    0
  9
$SORTENTS
280
  127
  9
$INDEXCTL
280
    0
  9
$HIDETEXT
280
    1
  9
$XCLIPFRAME
290
    0
  9
$HALOGAP
280
    0
  9
$OBSCOLOR
 70
  257
  9
$OBSLTYPE
280
    0
  9
$INTERSECTIONDISPLAY
280
    0
  9
$INTERSECTIONCOLOR
 70
  257
  9
$DIMASSOC
280
    1
  9
$PROJECTNAME
  1

  9
$CAMERADISPLAY
290
    0
  9
$LENSLENGTH
 40
50
  9
$CAMERAHEIGHT
 40
0
  9
$STEPSPERSEC
 40
2
  9
$STEPSIZE
 40
50
  9
$3DDWFPREC
 40
2
  9
$PSOLWIDTH
 40
5
  9
$PSOLHEIGHT
 40
80
  9
$LOFTANG1
 40
1.570796326794897
  9
$LOFTANG2
 40
1.570796326794897
  9
$LOFTMAG1
 40
0
  9
$LOFTMAG2
 40
0
  9
$LOFTPARAM
 70
    7
  9
$LOFTNORMALS
280
    1
  9
$LATITUDE
 40
1
  9
$LONGITUDE
 40
1
  9
$NORTHDIRECTION
 40
0
  9
$TIMEZONE
 70
-8000
  9
$LIGHTGLYPHDISPLAY
280
    1
  9
$TILEMODELIGHTSYNCH
280
    1
  9
$SOLIDHIST
280
    1
  9
$SHOWHIST
280
    1
  9
$DWFFRAME
280
    2
  9
$DGNFRAME
280
    0
  9
$REALWORLDSCALE
290
    1
  9
$INTERFERECOLOR
 62
    1
  9
$CSHADOW
280
    0
  9
$SHADOWPLANELOCATION
 40
0
  0
ENDSEC
  0
SECTION
  2
CLASSES
  0
ENDSEC
  0
SECTION
  2
TABLES
  0
TABLE
  2
VPORT
  5
8
330
0
100
AcDbSymbolTable
 70
    1
  0
VPORT
  5
31
330
2
100
AcDbSymbolTableRecord
100
AcDbViewportTableRecord
  2
*ACTIVE
 70
    0
 10
0
 20
0
 11
1
 21
1
 12
334.5260397868405
 22
121.6697222476883
 13
0
 23
0
 14
10
 24
10
 15
10
 25
10
 16
0
 26
0
 36
1
 17
0
 27
0
 37
0
 40
452.5167639536051
 41
1.880371660859466
 42
50
 43
0
 44
0
 50
0
 51
0
 71
    0
 72
  100
 73
    1
 74
    3
 75
    0
 76
    1
 77
    0
 78
    0
281
    0
 65
    1
110
0
120
0
130
0
111
1
121
0
131
0
112
0
122
1
132
0
 79
    0
146
0
348
10020
 60
    7
 61
    5
292
1
282
    1
141
0
142
0
 63
  250
421
3358443
  0
ENDTAB
  0
TABLE
  2
LTYPE
  5
5
330
0
100
AcDbSymbolTable
 70
    4
  0
LTYPE
  5
14
330
5
100
AcDbSymbolTableRecord
100
AcDbLinetypeTableRecord
  2
ByBlock
 70
    0
  3

 72
   65
 73
    0
 40
0
  0
LTYPE
  5
15
330
5
100
AcDbSymbolTableRecord
100
AcDbLinetypeTableRecord
  2
ByLayer
 70
    0
  3

 72
   65
 73
    0
 40
0
  0
LTYPE
  5
16
330
5
100
AcDbSymbolTableRecord
100
AcDbLinetypeTableRecord
  2
Continuous
 70
    0
  3
Solid line
 72
   65
 73
    0
 40
0
  0
LTYPE
  5
32
330
5
100
AcDbSymbolTableRecord
100
AcDbLinetypeTableRecord
  2
DOT
 70
    0
  3
Dot . . . . . . . . . . . . . . . . . . . . . .
 72
   65
 73
    2
 40
6.35
 49
0
 74
    0
 49
-6.35
 74
    0
  0
LTYPE
  5
33
330
5
100
AcDbSymbolTableRecord
100
AcDbLinetypeTableRecord
  2
DOTTINY
 70
    0
  3
Dot (.15x) .....................................
 72
   65
 73
    2
 40
0.9525
 49
0
 74
    0
 49
-0.9525
 74
    0
  0
LTYPE
  5
34
330
5
100
AcDbSymbolTableRecord
100
AcDbLinetypeTableRecord
  2
DOT2
 70
    0
  3
Dot (.5x) .....................................
 72
   65
 73
    2
 40
3.175
 49
0
 74
    0
 49
-3.175
 74
    0
  0
LTYPE
  5
35
330
5
100
AcDbSymbolTableRecord
100
AcDbLinetypeTableRecord
  2
DOTX2
 70
    0
  3
Dot (2x) .  .  .  .  .  .  .  .  .  .  .  .  .
 72
   65
 73
    2
 40
12.7
 49
0
 74
    0
 49
-12.7
 74
    0
  0
LTYPE
  5
36
330
5
100
AcDbSymbolTableRecord
100
AcDbLinetypeTableRecord
  2
DASHED
 70
    0
  3
Dashed _ _ _ _ _ _ _ _ _ _ _ _ _ _ _ _ _
 72
   65
 73
    2
 40
19.05
 49
12.7
 74
    0
 49
-6.35
 74
    0
  0
LTYPE
  5
37
330
5
100
AcDbSymbolTableRecord
100
AcDbLinetypeTableRecord
  2
DASHEDTINY
 70
    0
  3
Dashed (.15x) _ _ _ _ _ _ _ _ _ _ _ _ _ _ _ _ _
 72
   65
 73
    2
 40
2.8575
 49
1.905
 74
    0
 49
-0.9525
 74
    0
  0
LTYPE
  5
38
330
5
100
AcDbSymbolTableRecord
100
AcDbLinetypeTableRecord
  2
DASHED2
 70
    0
  3
Dashed (.5x) _ _ _ _ _ _ _ _ _ _ _ _ _ _ _ _ _
 72
   65
 73
    2
 40
9.524999999999999
 49
6.35
 74
    0
 49
-3.175
 74
    0
  0
LTYPE
  5
39
330
5
100
AcDbSymbolTableRecord
100
AcDbLinetypeTableRecord
  2
DASHEDX2
 70
    0
  3
Dashed (2x) ____  ____  ____  ____  ____  ___
 72
   65
 73
    2
 40
38.09999999999999
 49
25.4
 74
    0
 49
-12.7
 74
    0
  0
LTYPE
  5
3A
330
5
100
AcDbSymbolTableRecord
100
AcDbLinetypeTableRecord
  2
DASHDOT
 70
    0
  3
Dash dot __ . __ . __ . __ . __ . __ . __ . __
 72
   65
 73
    4
 40
25.4
 49
12.7
 74
    0
 49
-6.35
 74
    0
 49
0
 74
    0
 49
-6.35
 74
    0
  0
LTYPE
  5
3B
330
5
100
AcDbSymbolTableRecord
100
AcDbLinetypeTableRecord
  2
DASHDOTTINY
 70
    0
  3
Dash dot (.15x) _._._._._._._._._._._._._._._.
 72
   65
 73
    4
 40
3.81
 49
1.905
 74
    0
 49
-0.9525
 74
    0
 49
0
 74
    0
 49
-0.9525
 74
    0
  0
LTYPE
  5
3C
330
5
100
AcDbSymbolTableRecord
100
AcDbLinetypeTableRecord
  2
DASHDOT2
 70
    0
  3
Dash dot (.5x) _._._._._._._._._._._._._._._.
 72
   65
 73
    4
 40
12.7
 49
6.35
 74
    0
 49
-3.175
 74
    0
 49
0
 74
    0
 49
-3.175
 74
    0
  0
LTYPE
  5
3D
330
5
100
AcDbSymbolTableRecord
100
AcDbLinetypeTableRecord
  2
DASHDOTX2
 70
    0
  3
Dash dot (2x) ____  .  ____  .  ____  .  ___
 72
   65
 73
    4
 40
50.8
 49
25.4
 74
    0
 49
-12.7
 74
    0
 49
0
 74
    0
 49
-12.7
 74
    0
  0
LTYPE
  5
3E
330
5
100
AcDbSymbolTableRecord
100
AcDbLinetypeTableRecord
  2
DIVIDE
 70
    0
  3
Divide ____ . . ____ . . ____ . . ____ . . ____
 72
   65
 73
    6
 40
31.75
 49
12.7
 74
    0
 49
-6.35
 74
    0
 49
0
 74
    0
 49
-6.35
 74
    0
 49
0
 74
    0
 49
-6.35
 74
    0
  0
LTYPE
  5
3F
330
5
100
AcDbSymbolTableRecord
100
AcDbLinetypeTableRecord
  2
DIVIDETINY
 70
    0
  3
Divide (.15x) __..__..__..__..__..__..__..__.._
 72
   65
 73
    6
 40
4.7625
 49
1.905
 74
    0
 49
-0.9525
 74
    0
 49
0
 74
    0
 49
-0.9525
 74
    0
 49
0
 74
    0
 49
-0.9525
 74
    0
  0
LTYPE
  5
40
330
5
100
AcDbSymbolTableRecord
100
AcDbLinetypeTableRecord
  2
DIVIDE2
 70
    0
  3
Divide (.5x) __..__..__..__..__..__..__..__.._
 72
   65
 73
    6
 40
15.875
 49
6.35
 74
    0
 49
-3.175
 74
    0
 49
0
 74
    0
 49
-3.175
 74
    0
 49
0
 74
    0
 49
-3.175
 74
    0
  0
LTYPE
  5
41
330
5
100
AcDbSymbolTableRecord
100
AcDbLinetypeTableRecord
  2
DIVIDEX2
 70
    0
  3
Divide (2x) ________  .  .  ________  .  .  _
 72
   65
 73
    6
 40
63.5
 49
25.4
 74
    0
 49
-12.7
 74
    0
 49
0
 74
    0
 49
-12.7
 74
    0
 49
0
 74
    0
 49
-12.7
 74
    0
  0
LTYPE
  5
42
330
5
100
AcDbSymbolTableRecord
100
AcDbLinetypeTableRecord
  2
BORDER
 70
    0
  3
Border __ __ . __ __ . __ __ . __ __ . __ __ .
 72
   65
 73
    6
 40
44.45
 49
12.7
 74
    0
 49
-6.35
 74
    0
 49
12.7
 74
    0
 49
-6.35
 74
    0
 49
0
 74
    0
 49
-6.35
 74
    0
  0
LTYPE
  5
43
330
5
100
AcDbSymbolTableRecord
100
AcDbLinetypeTableRecord
  2
BORDERTINY
 70
    0
  3
Border (.15x) __.__.__.__.__.__.__.__.__.__.__.
 72
   65
 73
    6
 40
6.6675
 49
1.905
 74
    0
 49
-0.9525
 74
    0
 49
1.905
 74
    0
 49
-0.9525
 74
    0
 49
0
 74
    0
 49
-0.9525
 74
    0
  0
LTYPE
  5
44
330
5
100
AcDbSymbolTableRecord
100
AcDbLinetypeTableRecord
  2
BORDER2
 70
    0
  3
Border (.5x) __.__.__.__.__.__.__.__.__.__.__.
 72
   65
 73
    6
 40
22.225
 49
6.35
 74
    0
 49
-3.175
 74
    0
 49
6.35
 74
    0
 49
-3.175
 74
    0
 49
0
 74
    0
 49
-3.175
 74
    0
  0
LTYPE
  5
45
330
5
100
AcDbSymbolTableRecord
100
AcDbLinetypeTableRecord
  2
BORDERX2
 70
    0
  3
Border (2x) ____  ____  .  ____  ____  .  ___
 72
   65
 73
    6
 40
88.89999999999999
 49
25.4
 74
    0
 49
-12.7
 74
    0
 49
25.4
 74
    0
 49
-12.7
 74
    0
 49
0
 74
    0
 49
-12.7
 74
    0
  0
LTYPE
  5
46
330
5
100
AcDbSymbolTableRecord
100
AcDbLinetypeTableRecord
  2
CENTER
 70
    0
  3
Center ____ _ ____ _ ____ _ ____ _ ____ _ ____
 72
   65
 73
    4
 40
50.8
 49
31.75
 74
    0
 49
-6.35
 74
    0
 49
6.35
 74
    0
 49
-6.35
 74
    0
  0
LTYPE
  5
47
330
5
100
AcDbSymbolTableRecord
100
AcDbLinetypeTableRecord
  2
CENTERTINY
 70
    0
  3
Center (.15x) ___ _ ___ _ ___ _ ___ _ ___ _ ___
 72
   65
 73
    4
 40
7.62
 49
4.7625
 74
    0
 49
-0.9525
 74
    0
 49
0.9525
 74
    0
 49
-0.9525
 74
    0
  0
LTYPE
  5
48
330
5
100
AcDbSymbolTableRecord
100
AcDbLinetypeTableRecord
  2
CENTER2
 70
    0
  3
Center (.5x) ___ _ ___ _ ___ _ ___ _ ___ _ ___
 72
   65
 73
    4
 40
28.575
 49
19.05
 74
    0
 49
-3.175
 74
    0
 49
3.175
 74
    0
 49
-3.175
 74
    0
  0
LTYPE
  5
49
330
5
100
AcDbSymbolTableRecord
100
AcDbLinetypeTableRecord
  2
CENTERX2
 70
    0
  3
Center (2x) ________  __  ________  __  _____
 72
   65
 73
    4
 40
101.6
 49
63.5
 74
    0
 49
-12.7
 74
    0
 49
12.7
 74
    0
 49
-12.7
 74
    0
  0
ENDTAB
  0
TABLE
  2
LAYER
  5
2
330
0
100
AcDbSymbolTable
 70
    1
  0
LAYER
  5
10
330
2
100
AcDbSymbolTableRecord
100
AcDbLayerTableRecord
  2
0
 70
    0
 62
    7
  6
CONTINUOUS
370
    0
390
F
  0
LAYER
  5
4A
330
2
100
AcDbSymbolTableRecord
100
AcDbLayerTableRecord
  2
Bezugspunkte
 70
    0
 62
    1
  6
CONTINUOUS
370
   -3
390
F
  0
LAYER
  5
4B
330
2
100
AcDbSymbolTableRecord
100
AcDbLayerTableRecord
  2
Gravur
 70
    0
 62
    7
  6
CONTINUOUS
370
   -3
390
F
  0
LAYER
  5
4C
330
2
100
AcDbSymbolTableRecord
100
AcDbLayerTableRecord
  2
Kontur
 70
    0
 62
    7
  6
CONTINUOUS
370
   -3
390
F
  0
ENDTAB
  0
TABLE
  2
STYLE
  5
3
330
0
100
AcDbSymbolTable
 70
    3
  0
STYLE
  5
4D
330
2
100
AcDbSymbolTableRecord
100
AcDbTextStyleTableRecord
  2
Standard
 70
    0
 40
0
 41
1
 50
0
 71
    0
 42
1
  3
txt
  4

  0
ENDTAB
  0
TABLE
  2
VIEW
  5
6
330
0
100
AcDbSymbolTable
 70
    0
  0
ENDTAB
  0
TABLE
  2
UCS
  5
7
330
0
100
AcDbSymbolTable
 70
    0
  0
ENDTAB
  0
TABLE
  2
APPID
  5
9
330
0
100
AcDbSymbolTable
 70
    1
  0
APPID
  5
12
330
9
100
AcDbSymbolTableRecord
100
AcDbRegAppTableRecord
  2
ACAD
 70
    0
  0
APPID
  5
4E
330
9
100
AcDbSymbolTableRecord
100
AcDbRegAppTableRecord
  2
LibreCad
 70
    0
  0
ENDTAB
  0
TABLE
  2
DIMSTYLE
  5
A
330
0
100
AcDbSymbolTable
 70
    1
100
AcDbDimStyleTable
 71
    1
  0
DIMSTYLE
105
4F
330
A
100
AcDbSymbolTableRecord
100
AcDbDimStyleTableRecord
  2
Standard
 70
    0
 40
1
 41
2.5
 42
0.625
 43
0.38
 44
1.25
 45
0
 46
0
 47
0
 48
0
 49
1
140
2.5
141
0.09
142
2.5
143
25.4
144
1
145
0
146
1
147
0.625
148
0
 71
    0
 72
    0
 73
    0
 74
    1
 75
    0
 76
    0
 77
    0
 78
    1
 79
    0
170
    0
171
    2
172
    0
173
    0
174
    0
175
    0
176
    0
177
    0
178
    0
179
    0
271
    2
272
    4
273
    2
274
    2
275
    0
276
    0
277
    2
278
    0
279
    0
280
    0
281
    0
282
    0
283
    1
284
    0
285
    0
286
    0
288
    0
289
    3
340
standard
341

371
   -2
372
   -2
  0
ENDTAB
  0
TABLE
  2
BLOCK_RECORD
  5
1
330
0
100
AcDbSymbolTable
 70
    2
  0
BLOCK_RECORD
  5
1F
330
1
100
AcDbSymbolTableRecord
100
AcDbBlockTableRecord
  2
*Model_Space
 70
    0
280
    1
281
    0
  0
BLOCK_RECORD
  5
1E
330
1
100
AcDbSymbolTableRecord
100
AcDbBlockTableRecord
  2
*Paper_Space
 70
    0
280
    1
281
    0
  0
ENDTAB
  0
ENDSEC
  0
SECTION
  2
BLOCKS
  0
BLOCK
  5
20
330
1F
100
AcDbEntity
  8
0
100
AcDbBlockBegin
  2
*Model_Space
 70
    0
 10
0
 20
0
 30
0
  3
*Model_Space
  1

  0
ENDBLK
  5
21
330
1F
100
AcDbEntity
  8
0
100
AcDbBlockEnd
  0
BLOCK
  5
1C
330
1B
100
AcDbEntity
  8
0
100
AcDbBlockBegin
  2
*Paper_Space
 70
    0
 10
0
 20
0
 30
0
  3
*Paper_Space
  1

  0
ENDBLK
  5
1D
330
1F
100
AcDbEntity
  8
0
100
AcDbBlockEnd
  0
ENDSEC
  0
SECTION
  2
ENTITIES
  0
LINE
  5
50
100
AcDbEntity
  8
Kontur
  6
CONTINUOUS
 62
    7
370
   -1
100
AcDbLine
 10
440
 20
41
 11
440
 21
0
  0
LINE
  5
51
100
AcDbEntity
  8
Kontur
  6
CONTINUOUS
 62
    7
370
   -1
100
AcDbLine
 10
440
 20
0
 11
0
 21
0
  0
LINE
  5
52
100
AcDbEntity
  8
Kontur
  6
CONTINUOUS
 62
    7
370
   -1
100
AcDbLine
 10
0
 20
0
 11
0
 21
41
  0
LINE
  5
53
100
AcDbEntity
  8
Kontur
  6
CONTINUOUS
 62
    7
370
   -1
100
AcDbLine
 10
0
 20
41
 11
440
 21
41
  0
LINE
  5
54
100
AcDbEntity
  8
Gravur
  6
CONTINUOUS
 62
  255
370
   -1
100
AcDbLine
 10
24.36173
 20
6.229
 11
25.21607
 21
3.666
  0
LINE
  5
55
100
AcDbEntity
  8
Gravur
  6
CONTINUOUS
 62
  255
370
   -1
100
AcDbLine
 10
25.21607
 20
3.666
 11
26.0704
 21
6.229
  0
LINE
  5
56
100
AcDbEntity
  8
Gravur
  6
CONTINUOUS
 62
  255
370
   -1
100
AcDbLine
 10
26.75373
 20
6.229
 11
26.75373
 21
6.08661
  0
LINE
  5
57
100
AcDbEntity
  8
Gravur
  6
CONTINUOUS
 62
  255
370
   -1
100
AcDbLine
 10
26.75373
 20
5.37467
 11
26.75373
 21
3.666
  0
LINE
  5
58
100
AcDbEntity
  8
Gravur
  6
CONTINUOUS
 62
  255
370
   -1
100
AcDbLine
 10
27.43673
 20
3.666
 11
27.43673
 21
5.37467
  0
LINE
  5
59
100
AcDbEntity
  8
Gravur
  6
CONTINUOUS
 62
  255
370
   -1
100
AcDbLine
 10
27.43673
 20
5.37467
 11
27.43673
 21
4.66272
  0
ARC
  5
5A
100
AcDbEntity
  8
Gravur
  6
CONTINUOUS
 62
  255
370
   -1
100
AcDbCircle
 10
28.14868
 20
4.66272
 40
0.71194
100
AcDbArc
 50
0
 51
180
  0
LINE
  5
5B
100
AcDbEntity
  8
Gravur
  6
CONTINUOUS
 62
  255
370
   -1
100
AcDbLine
 10
28.86062
 20
4.66272
 11
28.86062
 21
3.666
  0
LINE
  5
5C
100
AcDbEntity
  8
Gravur
  6
CONTINUOUS
 62
  255
370
   -1
100
AcDbLine
 10
31.36573
 20
5.65944
 11
31.93529
 21
6.229
  0
LINE
  5
5D
100
AcDbEntity
  8
Gravur
  6
CONTINUOUS
 62
  255
370
   -1
100
AcDbLine
 10
31.93529
 20
6.229
 11
31.93529
 21
3.666
  0
LINE
  5
5E
100
AcDbEntity
  8
Gravur
  6
CONTINUOUS
 62
  255
370
   -1
100
AcDbLine
 10
32.64721
 20
5.9727
 11
32.81808
 21
6.11509
  0
ARC
  5
5F
100
AcDbEntity
  8
Gravur
  6
CONTINUOUS
 62
  255
370
   -1
100
AcDbCircle
 10
33.27978
 20
5.58006
 40
0.70669
100
AcDbArc
 50
-40.79241
 51
130.79241
  0
LINE
  5
60
100
AcDbEntity
  8
Gravur
  6
CONTINUOUS
 62
  255
370
   -1
100
AcDbLine
 10
33.8148
 20
5.11837
 11
32.61873
 21
3.666
  0
LINE
  5
61
100
AcDbEntity
  8
Gravur
  6
CONTINUOUS
 62
  255
370
   -1
100
AcDbLine
 10
32.61873
 20
3.666
 11
34.04262
 21
3.666
  0
LINE
  5
62
100
AcDbEntity
  8
Gravur
  6
CONTINUOUS
 62
  255
370
   -1
100
AcDbLine
 10
34.72573
 20
6.228
 11
35.58007
 21
3.665
  0
LINE
  5
63
100
AcDbEntity
  8
Gravur
  6
CONTINUOUS
 62
  255
370
   -1
100
AcDbLine
 10
35.58007
 20
3.665
 11
36.4344
 21
6.228
  0
LINE
  5
64
100
AcDbEntity
  8
Gravur
  6
CONTINUOUS
 62
  255
370
   -1
100
AcDbLine
 10
71.64273
 20
3.9755
 11
73.06662
 21
3.9755
  0
LINE
  5
65
100
AcDbEntity
  8
Gravur
  6
CONTINUOUS
 62
  255
370
   -1
100
AcDbLine
 10
73.3514
 20
5.257
 11
71.64273
 21
5.257
  0
LINE
  5
66
100
AcDbEntity
  8
Gravur
  6
CONTINUOUS
 62
  255
370
   -1
100
AcDbLine
 10
71.64273
 20
5.257
 11
71.64273
 21
2.694
  0
LINE
  5
67
100
AcDbEntity
  8
Gravur
  6
CONTINUOUS
 62
  255
370
   -1
100
AcDbLine
 10
71.64273
 20
2.694
 11
73.3514
 21
2.694
  0
LINE
  5
68
100
AcDbEntity
  8
Gravur
  6
CONTINUOUS
 62
  255
370
   -1
100
AcDbLine
 10
74.29103000000001
 20
5.257
 11
74.29103000000001
 21
4.40267
  0
LINE
  5
69
100
AcDbEntity
  8
Gravur
  6
CONTINUOUS
 62
  255
370
   -1
100
AcDbLine
 10
74.29103000000001
 20
4.40267
 11
74.7182
 21
4.40267
  0
LINE
  5
6A
100
AcDbEntity
  8
Gravur
  6
CONTINUOUS
 62
  255
370
   -1
100
AcDbLine
 10
74.7182
 20
4.40267
 11
74.00626
 21
4.40267
  0
LINE
  5
6B
100
AcDbEntity
  8
Gravur
  6
CONTINUOUS
 62
  255
370
   -1
100
AcDbLine
 10
74.00626
 20
4.40267
 11
74.29103000000001
 21
4.40267
  0
LINE
  5
6C
100
AcDbEntity
  8
Gravur
  6
CONTINUOUS
 62
  255
370
   -1
100
AcDbLine
 10
74.29103000000001
 20
4.40267
 11
74.29103000000001
 21
3.03573
  0
ARC
  5
6D
100
AcDbEntity
  8
Gravur
  6
CONTINUOUS
 62
  255
370
   -1
100
AcDbCircle
 10
74.63835
 20
3.03564
 40
0.34731
100
AcDbArc
 50
179.98432
 51
259.62682
  0
LINE
  5
6E
100
AcDbEntity
  8
Gravur
  6
CONTINUOUS
 62
  255
370
   -1
100
AcDbLine
 10
75.40073
 20
5.256
 11
75.40073
 21
2.693
  0
LINE
  5
6F
100
AcDbEntity
  8
Gravur
  6
CONTINUOUS
 62
  255
370
   -1
100
AcDbLine
 10
75.40073
 20
2.693
 11
75.40073
 21
3.68972
  0
ARC
  5
70
100
AcDbEntity
  8
Gravur
  6
CONTINUOUS
 62
  255
370
   -1
100
AcDbCircle
 10
76.11268
 20
3.68972
 40
0.71194
100
AcDbArc
 50
0
 51
180
  0
LINE
  5
71
100
AcDbEntity
  8
Gravur
  6
CONTINUOUS
 62
  255
370
   -1
100
AcDbLine
 10
76.82462
 20
3.68972
 11
76.82462
 21
2.693
  0
LINE
  5
72
100
AcDbEntity
  8
Gravur
  6
CONTINUOUS
 62
  255
370
   -1
100
AcDbLine
 10
77.50773
 20
3.54733
 11
78.93162
 21
3.54733
  0
LINE
  5
73
100
AcDbEntity
  8
Gravur
  6
CONTINUOUS
 62
  255
370
   -1
100
AcDbLine
 10
78.93162
 20
3.54733
 11
78.93162
 21
3.68972
  0
ARC
  5
74
100
AcDbEntity
  8
Gravur
  6
CONTINUOUS
 62
  255
370
   -1
100
AcDbCircle
 10
78.21968
 20
3.68972
 40
0.71194
100
AcDbArc
 50
0
 51
180
  0
LINE
  5
75
100
AcDbEntity
  8
Gravur
  6
CONTINUOUS
 62
  255
370
   -1
100
AcDbLine
 10
77.50773
 20
3.68972
 11
77.50773
 21
3.40494
  0
ARC
  5
76
100
AcDbEntity
  8
Gravur
  6
CONTINUOUS
 62
  255
370
   -1
100
AcDbCircle
 10
78.25431
 20
3.40435
 40
0.74658
100
AcDbArc
 50
179.95424
 51
322.44599
  0
LINE
  5
77
100
AcDbEntity
  8
Gravur
  6
CONTINUOUS
 62
  255
370
   -1
100
AcDbLine
 10
79.61472999999999
 20
2.693
 11
79.61472999999999
 21
4.40167
  0
LINE
  5
78
100
AcDbEntity
  8
Gravur
  6
CONTINUOUS
 62
  255
370
   -1
100
AcDbLine
 10
79.61472999999999
 20
4.40167
 11
79.61472999999999
 21
3.83211
  0
ARC
  5
79
100
AcDbEntity
  8
Gravur
  6
CONTINUOUS
 62
  255
370
   -1
100
AcDbCircle
 10
80.24404
 20
3.83213
 40
0.62931
100
AcDbArc
 50
140.69073
 51
180.00162
  0
ARC
  5
7A
100
AcDbEntity
  8
Gravur
  6
CONTINUOUS
 62
  255
370
   -1
100
AcDbCircle
 10
80.07038
 20
3.97327
 40
0.40553
100
AcDbArc
 50
39.42406
 51
140.57594
  0
LINE
  5
7B
100
AcDbEntity
  8
Gravur
  6
CONTINUOUS
 62
  255
370
   -1
100
AcDbLine
 10
81.03773
 20
2.693
 11
81.03773
 21
4.40167
  0
LINE
  5
7C
100
AcDbEntity
  8
Gravur
  6
CONTINUOUS
 62
  255
370
   -1
100
AcDbLine
 10
81.03773
 20
4.40167
 11
81.03773
 21
3.68972
  0
ARC
  5
7D
100
AcDbEntity
  8
Gravur
  6
CONTINUOUS
 62
  255
370
   -1
100
AcDbCircle
 10
81.74968
 20
3.68972
 40
0.71194
100
AcDbArc
 50
1e-005
 51
180
  0
LINE
  5
7E
100
AcDbEntity
  8
Gravur
  6
CONTINUOUS
 62
  255
370
   -1
100
AcDbLine
 10
82.46162
 20
3.68972
 11
82.46162
 21
2.693
  0
LINE
  5
7F
100
AcDbEntity
  8
Gravur
  6
CONTINUOUS
 62
  255
370
   -1
100
AcDbLine
 10
83.14473
 20
3.54733
 11
84.56862
 21
3.54733
  0
LINE
  5
80
100
AcDbEntity
  8
Gravur
  6
CONTINUOUS
 62
  255
370
   -1
100
AcDbLine
 10
84.56862
 20
3.54733
 11
84.56862
 21
3.68972
  0
ARC
  5
81
100
AcDbEntity
  8
Gravur
  6
CONTINUOUS
 62
  255
370
   -1
100
AcDbCircle
 10
83.85668
 20
3.68972
 40
0.71194
100
AcDbArc
 50
0
 51
180
  0
LINE
  5
82
100
AcDbEntity
  8
Gravur
  6
CONTINUOUS
 62
  255
370
   -1
100
AcDbLine
 10
83.14473
 20
3.68972
 11
83.14473
 21
3.40494
  0
ARC
  5
83
100
AcDbEntity
  8
Gravur
  6
CONTINUOUS
 62
  255
370
   -1
100
AcDbCircle
 10
83.89131
 20
3.40435
 40
0.74658
100
AcDbArc
 50
179.95424
 51
322.44599
  0
LINE
  5
84
100
AcDbEntity
  8
Gravur
  6
CONTINUOUS
 62
  255
370
   -1
100
AcDbLine
 10
85.50803000000001
 20
5.256
 11
85.50803000000001
 21
4.40167
  0
LINE
  5
85
100
AcDbEntity
  8
Gravur
  6
CONTINUOUS
 62
  255
370
   -1
100
AcDbLine
 10
85.50803000000001
 20
4.40167
 11
85.93519999999999
 21
4.40167
  0
LINE
  5
86
100
AcDbEntity
  8
Gravur
  6
CONTINUOUS
 62
  255
370
   -1
100
AcDbLine
 10
85.93519999999999
 20
4.40167
 11
85.22326
 21
4.40167
  0
LINE
  5
87
100
AcDbEntity
  8
Gravur
  6
CONTINUOUS
 62
  255
370
   -1
100
AcDbLine
 10
85.22326
 20
4.40167
 11
85.50803000000001
 21
4.40167
  0
LINE
  5
88
100
AcDbEntity
  8
Gravur
  6
CONTINUOUS
 62
  255
370
   -1
100
AcDbLine
 10
85.50803000000001
 20
4.40167
 11
85.50803000000001
 21
3.03473
  0
ARC
  5
89
100
AcDbEntity
  8
Gravur
  6
CONTINUOUS
 62
  255
370
   -1
100
AcDbCircle
 10
85.85535
 20
3.03464
 40
0.34731
100
AcDbArc
 50
179.98432
 51
259.62682
  0
LINE
  5
8A
100
AcDbEntity
  8
Gravur
  6
CONTINUOUS
 62
  255
370
   -1
100
AcDbLine
 10
181.67373
 20
6.376
 11
183.3824
 21
6.376
  0
LINE
  5
8B
100
AcDbEntity
  8
Gravur
  6
CONTINUOUS
 62
  255
370
   -1
100
AcDbLine
 10
183.3824
 20
6.376
 11
182.52807
 21
6.376
  0
LINE
  5
8C
100
AcDbEntity
  8
Gravur
  6
CONTINUOUS
 62
  255
370
   -1
100
AcDbLine
 10
182.52807
 20
6.376
 11
182.52807
 21
3.813
  0
LINE
  5
8D
100
AcDbEntity
  8
Gravur
  6
CONTINUOUS
 62
  255
370
   -1
100
AcDbLine
 10
185.54758
 20
5.52167
 11
185.54758
 21
4.52494
  0
ARC
  5
8E
100
AcDbEntity
  8
Gravur
  6
CONTINUOUS
 62
  255
370
   -1
100
AcDbCircle
 10
184.80716
 20
4.52494
 40
0.74042
100
AcDbArc
 50
-180
 51
0
  0
LINE
  5
8F
100
AcDbEntity
  8
Gravur
  6
CONTINUOUS
 62
  255
370
   -1
100
AcDbLine
 10
184.06673
 20
4.52494
 11
184.06673
 21
4.80972
  0
ARC
  5
90
100
AcDbEntity
  8
Gravur
  6
CONTINUOUS
 62
  255
370
   -1
100
AcDbCircle
 10
184.80716
 20
4.80972
 40
0.74042
100
AcDbArc
 50
0
 51
180
  0
LINE
  5
91
100
AcDbEntity
  8
Gravur
  6
CONTINUOUS
 62
  255
370
   -1
100
AcDbLine
 10
185.54758
 20
4.80972
 11
185.54758
 21
4.12626
  0
ARC
  5
92
100
AcDbEntity
  8
Gravur
  6
CONTINUOUS
 62
  255
370
   -1
100
AcDbCircle
 10
185.96046
 20
4.16455
 40
0.41466
100
AcDbArc
 50
185.29897
 51
260.11981
  0
LINE
  5
93
100
AcDbEntity
  8
Gravur
  6
CONTINUOUS
 62
  255
370
   -1
100
AcDbLine
 10
186.57373
 20
6.376
 11
186.57373
 21
4.15473
  0
ARC
  5
94
100
AcDbEntity
  8
Gravur
  6
CONTINUOUS
 62
  255
370
   -1
100
AcDbCircle
 10
186.92105
 20
4.15464
 40
0.34731
100
AcDbArc
 50
179.98432
 51
259.62682
  0
LINE
  5
95
100
AcDbEntity
  8
Gravur
  6
CONTINUOUS
 62
  255
370
   -1
100
AcDbLine
 10
187.54273
 20
6.375
 11
187.54273
 21
4.15373
  0
ARC
  5
96
100
AcDbEntity
  8
Gravur
  6
CONTINUOUS
 62
  255
370
   -1
100
AcDbCircle
 10
187.89005
 20
4.15364
 40
0.34731
100
AcDbArc
 50
179.98432
 51
259.62682
  0
LINE
  5
97
100
AcDbEntity
  8
Gravur
  6
CONTINUOUS
 62
  255
370
   -1
100
AcDbLine
 10
188.51073
 20
5.51967
 11
189.1942
 21
3.89643
  0
LINE
  5
98
100
AcDbEntity
  8
Gravur
  6
CONTINUOUS
 62
  255
370
   -1
100
AcDbLine
 10
189.93462
 20
5.51967
 11
188.90942
 21
3.21297
  0
ARC
  5
99
100
AcDbEntity
  8
Gravur
  6
CONTINUOUS
 62
  255
370
   -1
100
AcDbCircle
 10
188.5151
 20
3.38811
 40
0.43146
100
AcDbArc
 50
269.41954
 51
336.05092
  0
LINE
  5
9A
100
AcDbEntity
  8
Gravur
  6
CONTINUOUS
 62
  255
370
   -1
100
AcDbLine
 10
192.43973
 20
5.80444
 11
193.00929
 21
6.374
  0
LINE
  5
9B
100
AcDbEntity
  8
Gravur
  6
CONTINUOUS
 62
  255
370
   -1
100
AcDbLine
 10
193.00929
 20
6.374
 11
193.00929
 21
3.811
  0
LINE
  5
9C
100
AcDbEntity
  8
Gravur
  6
CONTINUOUS
 62
  255
370
   -1
100
AcDbLine
 10
213.34073
 20
6.376
 11
215.0494
 21
6.376
  0
LINE
  5
9D
100
AcDbEntity
  8
Gravur
  6
CONTINUOUS
 62
  255
370
   -1
100
AcDbLine
 10
215.0494
 20
6.376
 11
214.19507
 21
6.376
  0
LINE
  5
9E
100
AcDbEntity
  8
Gravur
  6
CONTINUOUS
 62
  255
370
   -1
100
AcDbLine
 10
214.19507
 20
6.376
 11
214.19507
 21
3.813
  0
LINE
  5
9F
100
AcDbEntity
  8
Gravur
  6
CONTINUOUS
 62
  255
370
   -1
100
AcDbLine
 10
217.21458
 20
5.52167
 11
217.21458
 21
4.52494
  0
ARC
  5
A0
100
AcDbEntity
  8
Gravur
  6
CONTINUOUS
 62
  255
370
   -1
100
AcDbCircle
 10
216.47416
 20
4.52494
 40
0.74042
100
AcDbArc
 50
-180
 51
0
  0
LINE
  5
A1
100
AcDbEntity
  8
Gravur
  6
CONTINUOUS
 62
  255
370
   -1
100
AcDbLine
 10
215.73373
 20
4.52494
 11
215.73373
 21
4.80972
  0
ARC
  5
A2
100
AcDbEntity
  8
Gravur
  6
CONTINUOUS
 62
  255
370
   -1
100
AcDbCircle
 10
216.47416
 20
4.80972
 40
0.74042
100
AcDbArc
 50
0
 51
180
  0
LINE
  5
A3
100
AcDbEntity
  8
Gravur
  6
CONTINUOUS
 62
  255
370
   -1
100
AcDbLine
 10
217.21458
 20
4.80972
 11
217.21458
 21
4.12626
  0
ARC
  5
A4
100
AcDbEntity
  8
Gravur
  6
CONTINUOUS
 62
  255
370
   -1
100
AcDbCircle
 10
217.62746
 20
4.16455
 40
0.41466
100
AcDbArc
 50
185.29897
 51
260.11981
  0
LINE
  5
A5
100
AcDbEntity
  8
Gravur
  6
CONTINUOUS
 62
  255
370
   -1
100
AcDbLine
 10
218.24073
 20
6.376
 11
218.24073
 21
4.15473
  0
ARC
  5
A6
100
AcDbEntity
  8
Gravur
  6
CONTINUOUS
 62
  255
370
   -1
100
AcDbCircle
 10
218.58805
 20
4.15464
 40
0.34731
100
AcDbArc
 50
179.98432
 51
259.62682
  0
LINE
  5
A7
100
AcDbEntity
  8
Gravur
  6
CONTINUOUS
 62
  255
370
   -1
100
AcDbLine
 10
219.20973
 20
6.375
 11
219.20973
 21
4.15373
  0
ARC
  5
A8
100
AcDbEntity
  8
Gravur
  6
CONTINUOUS
 62
  255
370
   -1
100
AcDbCircle
 10
219.55705
 20
4.15364
 40
0.34731
100
AcDbArc
 50
179.98432
 51
259.62682
  0
LINE
  5
A9
100
AcDbEntity
  8
Gravur
  6
CONTINUOUS
 62
  255
370
   -1
100
AcDbLine
 10
220.17773
 20
5.51967
 11
220.8612
 21
3.89643
  0
LINE
  5
AA
100
AcDbEntity
  8
Gravur
  6
CONTINUOUS
 62
  255
370
   -1
100
AcDbLine
 10
221.60162
 20
5.51967
 11
220.57642
 21
3.21297
  0
ARC
  5
AB
100
AcDbEntity
  8
Gravur
  6
CONTINUOUS
 62
  255
370
   -1
100
AcDbCircle
 10
220.1821
 20
3.38811
 40
0.43146
100
AcDbArc
 50
269.41954
 51
336.05092
  0
LINE
  5
AC
100
AcDbEntity
  8
Gravur
  6
CONTINUOUS
 62
  255
370
   -1
100
AcDbLine
 10
224.13521
 20
6.1177
 11
224.30608
 21
6.26009
  0
ARC
  5
AD
100
AcDbEntity
  8
Gravur
  6
CONTINUOUS
 62
  255
370
   -1
100
AcDbCircle
 10
224.76778
 20
5.72506
 40
0.70669
100
AcDbArc
 50
-40.79241
 51
130.79241
  0
LINE
  5
AE
100
AcDbEntity
  8
Gravur
  6
CONTINUOUS
 62
  255
370
   -1
100
AcDbLine
 10
225.3028
 20
5.26337
 11
224.10673
 21
3.811
  0
LINE
  5
AF
100
AcDbEntity
  8
Gravur
  6
CONTINUOUS
 62
  255
370
   -1
100
AcDbLine
 10
224.10673
 20
3.811
 11
225.53062
 21
3.811
  0
LINE
  5
B0
100
AcDbEntity
  8
Gravur
  6
CONTINUOUS
 62
  255
370
   -1
100
AcDbLine
 10
277.52973
 20
6.376
 11
279.2384
 21
6.376
  0
LINE
  5
B1
100
AcDbEntity
  8
Gravur
  6
CONTINUOUS
 62
  255
370
   -1
100
AcDbLine
 10
279.2384
 20
6.376
 11
278.38407
 21
6.376
  0
LINE
  5
B2
100
AcDbEntity
  8
Gravur
  6
CONTINUOUS
 62
  255
370
   -1
100
AcDbLine
 10
278.38407
 20
6.376
 11
278.38407
 21
3.813
  0
LINE
  5
B3
100
AcDbEntity
  8
Gravur
  6
CONTINUOUS
 62
  255
370
   -1
100
AcDbLine
 10
281.40358
 20
5.52167
 11
281.40358
 21
4.52494
  0
ARC
  5
B4
100
AcDbEntity
  8
Gravur
  6
CONTINUOUS
 62
  255
370
   -1
100
AcDbCircle
 10
280.66316
 20
4.52494
 40
0.74042
100
AcDbArc
 50
-180
 51
0
  0
LINE
  5
B5
100
AcDbEntity
  8
Gravur
  6
CONTINUOUS
 62
  255
370
   -1
100
AcDbLine
 10
279.92273
 20
4.52494
 11
279.92273
 21
4.80972
  0
ARC
  5
B6
100
AcDbEntity
  8
Gravur
  6
CONTINUOUS
 62
  255
370
   -1
100
AcDbCircle
 10
280.66316
 20
4.80972
 40
0.74042
100
AcDbArc
 50
0
 51
180
  0
LINE
  5
B7
100
AcDbEntity
  8
Gravur
  6
CONTINUOUS
 62
  255
370
   -1
100
AcDbLine
 10
281.40358
 20
4.80972
 11
281.40358
 21
4.12626
  0
ARC
  5
B8
100
AcDbEntity
  8
Gravur
  6
CONTINUOUS
 62
  255
370
   -1
100
AcDbCircle
 10
281.81646
 20
4.16455
 40
0.41466
100
AcDbArc
 50
185.29897
 51
260.11981
  0
LINE
  5
B9
100
AcDbEntity
  8
Gravur
  6
CONTINUOUS
 62
  255
370
   -1
100
AcDbLine
 10
282.42973
 20
6.376
 11
282.42973
 21
4.15473
  0
ARC
  5
BA
100
AcDbEntity
  8
Gravur
  6
CONTINUOUS
 62
  255
370
   -1
100
AcDbCircle
 10
282.77705
 20
4.15464
 40
0.34731
100
AcDbArc
 50
179.98432
 51
259.62682
  0
LINE
  5
BB
100
AcDbEntity
  8
Gravur
  6
CONTINUOUS
 62
  255
370
   -1
100
AcDbLine
 10
283.39873
 20
6.375
 11
283.39873
 21
4.15373
  0
ARC
  5
BC
100
AcDbEntity
  8
Gravur
  6
CONTINUOUS
 62
  255
370
   -1
100
AcDbCircle
 10
283.74605
 20
4.15364
 40
0.34731
100
AcDbArc
 50
179.98432
 51
259.62682
  0
LINE
  5
BD
100
AcDbEntity
  8
Gravur
  6
CONTINUOUS
 62
  255
370
   -1
100
AcDbLine
 10
284.36673
 20
5.51967
 11
285.0502
 21
3.89643
  0
LINE
  5
BE
100
AcDbEntity
  8
Gravur
  6
CONTINUOUS
 62
  255
370
   -1
100
AcDbLine
 10
285.79062
 20
5.51967
 11
284.76542
 21
3.21297
  0
ARC
  5
BF
100
AcDbEntity
  8
Gravur
  6
CONTINUOUS
 62
  255
370
   -1
100
AcDbCircle
 10
284.3711
 20
3.38811
 40
0.43146
100
AcDbArc
 50
269.41954
 51
336.05092
  0
LINE
  5
C0
100
AcDbEntity
  8
Gravur
  6
CONTINUOUS
 62
  255
370
   -1
100
AcDbLine
 10
289.15007
 20
6.374
 11
288.29573
 21
4.23817
  0
LINE
  5
C1
100
AcDbEntity
  8
Gravur
  6
CONTINUOUS
 62
  255
370
   -1
100
AcDbLine
 10
288.29573
 20
4.23817
 11
289.71962
 21
4.23817
  0
LINE
  5
C2
100
AcDbEntity
  8
Gravur
  6
CONTINUOUS
 62
  255
370
   -1
100
AcDbLine
 10
289.71962
 20
4.23817
 11
289.43484
 21
4.23817
  0
LINE
  5
C3
100
AcDbEntity
  8
Gravur
  6
CONTINUOUS
 62
  255
370
   -1
100
AcDbLine
 10
289.43484
 20
4.23817
 11
289.43484
 21
4.66533
  0
LINE
  5
C4
100
AcDbEntity
  8
Gravur
  6
CONTINUOUS
 62
  255
370
   -1
100
AcDbLine
 10
289.43484
 20
4.66533
 11
289.43484
 21
3.811
  0
LINE
  5
C5
100
AcDbEntity
  8
Gravur
  6
CONTINUOUS
 62
  255
370
   -1
100
AcDbLine
 10
341.68873
 20
6.376
 11
343.3974
 21
6.376
  0
LINE
  5
C6
100
AcDbEntity
  8
Gravur
  6
CONTINUOUS
 62
  255
370
   -1
100
AcDbLine
 10
343.3974
 20
6.376
 11
342.54307
 21
6.376
  0
LINE
  5
C7
100
AcDbEntity
  8
Gravur
  6
CONTINUOUS
 62
  255
370
   -1
100
AcDbLine
 10
342.54307
 20
6.376
 11
342.54307
 21
3.813
  0
LINE
  5
C8
100
AcDbEntity
  8
Gravur
  6
CONTINUOUS
 62
  255
370
   -1
100
AcDbLine
 10
345.56258
 20
5.52167
 11
345.56258
 21
4.52494
  0
ARC
  5
C9
100
AcDbEntity
  8
Gravur
  6
CONTINUOUS
 62
  255
370
   -1
100
AcDbCircle
 10
344.82216
 20
4.52494
 40
0.74042
100
AcDbArc
 50
-180
 51
0
  0
LINE
  5
CA
100
AcDbEntity
  8
Gravur
  6
CONTINUOUS
 62
  255
370
   -1
100
AcDbLine
 10
344.08173
 20
4.52494
 11
344.08173
 21
4.80972
  0
ARC
  5
CB
100
AcDbEntity
  8
Gravur
  6
CONTINUOUS
 62
  255
370
   -1
100
AcDbCircle
 10
344.82216
 20
4.80972
 40
0.74042
100
AcDbArc
 50
0
 51
180
  0
LINE
  5
CC
100
AcDbEntity
  8
Gravur
  6
CONTINUOUS
 62
  255
370
   -1
100
AcDbLine
 10
345.56258
 20
4.80972
 11
345.56258
 21
4.12626
  0
ARC
  5
CD
100
AcDbEntity
  8
Gravur
  6
CONTINUOUS
 62
  255
370
   -1
100
AcDbCircle
 10
345.97546
 20
4.16455
 40
0.41466
100
AcDbArc
 50
185.29897
 51
260.11981
  0
LINE
  5
CE
100
AcDbEntity
  8
Gravur
  6
CONTINUOUS
 62
  255
370
   -1
100
AcDbLine
 10
346.58873
 20
6.376
 11
346.58873
 21
4.15473
  0
ARC
  5
CF
100
AcDbEntity
  8
Gravur
  6
CONTINUOUS
 62
  255
370
   -1
100
AcDbCircle
 10
346.93605
 20
4.15464
 40
0.34731
100
AcDbArc
 50
179.98432
 51
259.62682
  0
LINE
  5
D0
100
AcDbEntity
  8
Gravur
  6
CONTINUOUS
 62
  255
370
   -1
100
AcDbLine
 10
347.55773
 20
6.375
 11
347.55773
 21
4.15373
  0
ARC
  5
D1
100
AcDbEntity
  8
Gravur
  6
CONTINUOUS
 62
  255
370
   -1
100
AcDbCircle
 10
347.90505
 20
4.15364
 40
0.34731
100
AcDbArc
 50
179.98432
 51
259.62682
  0
LINE
  5
D2
100
AcDbEntity
  8
Gravur
  6
CONTINUOUS
 62
  255
370
   -1
100
AcDbLine
 10
348.52573
 20
5.51967
 11
349.2092
 21
3.89643
  0
LINE
  5
D3
100
AcDbEntity
  8
Gravur
  6
CONTINUOUS
 62
  255
370
   -1
100
AcDbLine
 10
349.94962
 20
5.51967
 11
348.92442
 21
3.21297
  0
ARC
  5
D4
100
AcDbEntity
  8
Gravur
  6
CONTINUOUS
 62
  255
370
   -1
100
AcDbCircle
 10
348.5301
 20
3.38811
 40
0.43146
100
AcDbArc
 50
269.41954
 51
336.05092
  0
ARC
  5
D5
100
AcDbEntity
  8
Gravur
  6
CONTINUOUS
 62
  255
370
   -1
100
AcDbCircle
 10
353.19516
 20
4.63686
 40
0.74042
100
AcDbArc
 50
0
 51
180
  0
LINE
  5
D6
100
AcDbEntity
  8
Gravur
  6
CONTINUOUS
 62
  255
370
   -1
100
AcDbLine
 10
353.93558
 20
4.63686
 11
353.93558
 21
4.49447
  0
ARC
  5
D7
100
AcDbEntity
  8
Gravur
  6
CONTINUOUS
 62
  255
370
   -1
100
AcDbCircle
 10
353.19516
 20
4.49447
 40
0.74042
100
AcDbArc
 50
-180
 51
0
  0
LINE
  5
D8
100
AcDbEntity
  8
Gravur
  6
CONTINUOUS
 62
  255
370
   -1
100
AcDbLine
 10
352.45473
 20
4.49447
 11
352.45473
 21
5.6051
  0
ARC
  5
D9
100
AcDbEntity
  8
Gravur
  6
CONTINUOUS
 62
  255
370
   -1
100
AcDbCircle
 10
353.2435
 20
5.63657
 40
0.7894
100
AcDbArc
 50
45.86651
 51
182.28449
  0
LINE
  5
DA
100
AcDbEntity
  8
Gravur
  6
CONTINUOUS
 62
  255
370
   -1
100
AcDbLine
 10
373.81273
 20
6.376
 11
375.5214
 21
6.376
  0
LINE
  5
DB
100
AcDbEntity
  8
Gravur
  6
CONTINUOUS
 62
  255
370
   -1
100
AcDbLine
 10
375.5214
 20
6.376
 11
374.66707
 21
6.376
  0
LINE
  5
DC
100
AcDbEntity
  8
Gravur
  6
CONTINUOUS
 62
  255
370
   -1
100
AcDbLine
 10
374.66707
 20
6.376
 11
374.66707
 21
3.813
  0
LINE
  5
DD
100
AcDbEntity
  8
Gravur
  6
CONTINUOUS
 62
  255
370
   -1
100
AcDbLine
 10
377.68658
 20
5.52167
 11
377.68658
 21
4.52494
  0
ARC
  5
DE
100
AcDbEntity
  8
Gravur
  6
CONTINUOUS
 62
  255
370
   -1
100
AcDbCircle
 10
376.94616
 20
4.52494
 40
0.74042
100
AcDbArc
 50
-180
 51
0
  0
LINE
  5
DF
100
AcDbEntity
  8
Gravur
  6
CONTINUOUS
 62
  255
370
   -1
100
AcDbLine
 10
376.20573
 20
4.52494
 11
376.20573
 21
4.80972
  0
ARC
  5
E0
100
AcDbEntity
  8
Gravur
  6
CONTINUOUS
 62
  255
370
   -1
100
AcDbCircle
 10
376.94616
 20
4.80972
 40
0.74042
100
AcDbArc
 50
0
 51
180
  0
LINE
  5
E1
100
AcDbEntity
  8
Gravur
  6
CONTINUOUS
 62
  255
370
   -1
100
AcDbLine
 10
377.68658
 20
4.80972
 11
377.68658
 21
4.12626
  0
ARC
  5
E2
100
AcDbEntity
  8
Gravur
  6
CONTINUOUS
 62
  255
370
   -1
100
AcDbCircle
 10
378.09946
 20
4.16455
 40
0.41466
100
AcDbArc
 50
185.29897
 51
260.11981
  0
LINE
  5
E3
100
AcDbEntity
  8
Gravur
  6
CONTINUOUS
 62
  255
370
   -1
100
AcDbLine
 10
378.71273
 20
6.376
 11
378.71273
 21
4.15473
  0
ARC
  5
E4
100
AcDbEntity
  8
Gravur
  6
CONTINUOUS
 62
  255
370
   -1
100
AcDbCircle
 10
379.06005
 20
4.15464
 40
0.34731
100
AcDbArc
 50
179.98432
 51
259.62682
  0
LINE
  5
E5
100
AcDbEntity
  8
Gravur
  6
CONTINUOUS
 62
  255
370
   -1
100
AcDbLine
 10
379.68173
 20
6.375
 11
379.68173
 21
4.15373
  0
ARC
  5
E6
100
AcDbEntity
  8
Gravur
  6
CONTINUOUS
 62
  255
370
   -1
100
AcDbCircle
 10
380.02905
 20
4.15364
 40
0.34731
100
AcDbArc
 50
179.98432
 51
259.62682
  0
LINE
  5
E7
100
AcDbEntity
  8
Gravur
  6
CONTINUOUS
 62
  255
370
   -1
100
AcDbLine
 10
380.64973
 20
5.51967
 11
381.3332
 21
3.89643
  0
LINE
  5
E8
100
AcDbEntity
  8
Gravur
  6
CONTINUOUS
 62
  255
370
   -1
100
AcDbLine
 10
382.07362
 20
5.51967
 11
381.04842
 21
3.21297
  0
ARC
  5
E9
100
AcDbEntity
  8
Gravur
  6
CONTINUOUS
 62
  255
370
   -1
100
AcDbCircle
 10
380.6541
 20
3.38811
 40
0.43146
100
AcDbArc
 50
269.41954
 51
336.05092
  0
LINE
  5
EA
100
AcDbEntity
  8
Gravur
  6
CONTINUOUS
 62
  255
370
   -1
100
AcDbLine
 10
384.57873
 20
5.94683
 11
384.57873
 21
6.374
  0
LINE
  5
EB
100
AcDbEntity
  8
Gravur
  6
CONTINUOUS
 62
  255
370
   -1
100
AcDbLine
 10
384.57873
 20
6.374
 11
386.00262
 21
6.374
  0
LINE
  5
EC
100
AcDbEntity
  8
Gravur
  6
CONTINUOUS
 62
  255
370
   -1
100
AcDbLine
 10
386.00262
 20
6.374
 11
384.86351
 21
3.811
  0
LINE
  5
ED
100
AcDbEntity
  8
Gravur
  6
CONTINUOUS
 62
  255
370
   -1
100
AcDbLine
 10
309.60673
 20
6.376
 11
311.3154
 21
6.376
  0
LINE
  5
EE
100
AcDbEntity
  8
Gravur
  6
CONTINUOUS
 62
  255
370
   -1
100
AcDbLine
 10
311.3154
 20
6.376
 11
310.46107
 21
6.376
  0
LINE
  5
EF
100
AcDbEntity
  8
Gravur
  6
CONTINUOUS
 62
  255
370
   -1
100
AcDbLine
 10
310.46107
 20
6.376
 11
310.46107
 21
3.813
  0
LINE
  5
F0
100
AcDbEntity
  8
Gravur
  6
CONTINUOUS
 62
  255
370
   -1
100
AcDbLine
 10
313.48058
 20
5.52167
 11
313.48058
 21
4.52494
  0
ARC
  5
F1
100
AcDbEntity
  8
Gravur
  6
CONTINUOUS
 62
  255
370
   -1
100
AcDbCircle
 10
312.74016
 20
4.52494
 40
0.74042
100
AcDbArc
 50
-180
 51
0
  0
LINE
  5
F2
100
AcDbEntity
  8
Gravur
  6
CONTINUOUS
 62
  255
370
   -1
100
AcDbLine
 10
311.99973
 20
4.52494
 11
311.99973
 21
4.80972
  0
ARC
  5
F3
100
AcDbEntity
  8
Gravur
  6
CONTINUOUS
 62
  255
370
   -1
100
AcDbCircle
 10
312.74016
 20
4.80972
 40
0.74042
100
AcDbArc
 50
0
 51
180
  0
LINE
  5
F4
100
AcDbEntity
  8
Gravur
  6
CONTINUOUS
 62
  255
370
   -1
100
AcDbLine
 10
313.48058
 20
4.80972
 11
313.48058
 21
4.12626
  0
ARC
  5
F5
100
AcDbEntity
  8
Gravur
  6
CONTINUOUS
 62
  255
370
   -1
100
AcDbCircle
 10
313.89346
 20
4.16455
 40
0.41466
100
AcDbArc
 50
185.29897
 51
260.11981
  0
LINE
  5
F6
100
AcDbEntity
  8
Gravur
  6
CONTINUOUS
 62
  255
370
   -1
100
AcDbLine
 10
314.50673
 20
6.376
 11
314.50673
 21
4.15473
  0
ARC
  5
F7
100
AcDbEntity
  8
Gravur
  6
CONTINUOUS
 62
  255
370
   -1
100
AcDbCircle
 10
314.85405
 20
4.15464
 40
0.34731
100
AcDbArc
 50
179.98432
 51
259.62682
  0
LINE
  5
F8
100
AcDbEntity
  8
Gravur
  6
CONTINUOUS
 62
  255
370
   -1
100
AcDbLine
 10
315.47573
 20
6.375
 11
315.47573
 21
4.15373
  0
ARC
  5
F9
100
AcDbEntity
  8
Gravur
  6
CONTINUOUS
 62
  255
370
   -1
100
AcDbCircle
 10
315.82305
 20
4.15364
 40
0.34731
100
AcDbArc
 50
179.98432
 51
259.62682
  0
LINE
  5
FA
100
AcDbEntity
  8
Gravur
  6
CONTINUOUS
 62
  255
370
   -1
100
AcDbLine
 10
316.44373
 20
5.51967
 11
317.1272
 21
3.89643
  0
LINE
  5
FB
100
AcDbEntity
  8
Gravur
  6
CONTINUOUS
 62
  255
370
   -1
100
AcDbLine
 10
317.86762
 20
5.51967
 11
316.84242
 21
3.21297
  0
ARC
  5
FC
100
AcDbEntity
  8
Gravur
  6
CONTINUOUS
 62
  255
370
   -1
100
AcDbCircle
 10
316.4481
 20
3.38811
 40
0.43146
100
AcDbArc
 50
269.41954
 51
336.05092
  0
LINE
  5
FD
100
AcDbEntity
  8
Gravur
  6
CONTINUOUS
 62
  255
370
   -1
100
AcDbLine
 10
321.68271
 20
6.374
 11
320.40121
 21
6.374
  0
LINE
  5
FE
100
AcDbEntity
  8
Gravur
  6
CONTINUOUS
 62
  255
370
   -1
100
AcDbLine
 10
320.40121
 20
6.374
 11
320.40121
 21
5.17793
  0
ARC
  5
FF
100
AcDbEntity
  8
Gravur
  6
CONTINUOUS
 62
  255
370
   -1
100
AcDbCircle
 10
320.99724
 20
4.40573
 40
0.97548
100
AcDbArc
 50
84.8575
 51
127.66291
  0
ARC
  5
100
100
AcDbEntity
  8
Gravur
  6
CONTINUOUS
 62
  255
370
   -1
100
AcDbCircle
 10
321.00692
 20
4.55686
 40
0.8241000000000001
100
AcDbArc
 50
-44.24474
 51
84.58605
  0
ARC
  5
101
100
AcDbEntity
  8
Gravur
  6
CONTINUOUS
 62
  255
370
   -1
100
AcDbCircle
 10
321.04824
 20
4.52052
 40
0.76914
100
AcDbArc
 50
208.56608
 51
315.54698
  0
LINE
  5
102
100
AcDbEntity
  8
Gravur
  6
CONTINUOUS
 62
  255
370
   -1
100
AcDbLine
 10
245.47173
 20
6.376
 11
247.1804
 21
6.376
  0
LINE
  5
103
100
AcDbEntity
  8
Gravur
  6
CONTINUOUS
 62
  255
370
   -1
100
AcDbLine
 10
247.1804
 20
6.376
 11
246.32607
 21
6.376
  0
LINE
  5
104
100
AcDbEntity
  8
Gravur
  6
CONTINUOUS
 62
  255
370
   -1
100
AcDbLine
 10
246.32607
 20
6.376
 11
246.32607
 21
3.813
  0
LINE
  5
105
100
AcDbEntity
  8
Gravur
  6
CONTINUOUS
 62
  255
370
   -1
100
AcDbLine
 10
249.34558
 20
5.52167
 11
249.34558
 21
4.52494
  0
ARC
  5
106
100
AcDbEntity
  8
Gravur
  6
CONTINUOUS
 62
  255
370
   -1
100
AcDbCircle
 10
248.60516
 20
4.52494
 40
0.74042
100
AcDbArc
 50
-180
 51
0
  0
LINE
  5
107
100
AcDbEntity
  8
Gravur
  6
CONTINUOUS
 62
  255
370
   -1
100
AcDbLine
 10
247.86473
 20
4.52494
 11
247.86473
 21
4.80972
  0
ARC
  5
108
100
AcDbEntity
  8
Gravur
  6
CONTINUOUS
 62
  255
370
   -1
100
AcDbCircle
 10
248.60516
 20
4.80972
 40
0.74042
100
AcDbArc
 50
0
 51
180
  0
LINE
  5
109
100
AcDbEntity
  8
Gravur
  6
CONTINUOUS
 62
  255
370
   -1
100
AcDbLine
 10
249.34558
 20
4.80972
 11
249.34558
 21
4.12626
  0
ARC
  5
10A
100
AcDbEntity
  8
Gravur
  6
CONTINUOUS
 62
  255
370
   -1
100
AcDbCircle
 10
249.75846
 20
4.16455
 40
0.41466
100
AcDbArc
 50
185.29897
 51
260.11981
  0
LINE
  5
10B
100
AcDbEntity
  8
Gravur
  6
CONTINUOUS
 62
  255
370
   -1
100
AcDbLine
 10
250.37173
 20
6.376
 11
250.37173
 21
4.15473
  0
ARC
  5
10C
100
AcDbEntity
  8
Gravur
  6
CONTINUOUS
 62
  255
370
   -1
100
AcDbCircle
 10
250.71905
 20
4.15464
 40
0.34731
100
AcDbArc
 50
179.98432
 51
259.62682
  0
LINE
  5
10D
100
AcDbEntity
  8
Gravur
  6
CONTINUOUS
 62
  255
370
   -1
100
AcDbLine
 10
251.34073
 20
6.375
 11
251.34073
 21
4.15373
  0
ARC
  5
10E
100
AcDbEntity
  8
Gravur
  6
CONTINUOUS
 62
  255
370
   -1
100
AcDbCircle
 10
251.68805
 20
4.15364
 40
0.34731
100
AcDbArc
 50
179.98432
 51
259.62682
  0
LINE
  5
10F
100
AcDbEntity
  8
Gravur
  6
CONTINUOUS
 62
  255
370
   -1
100
AcDbLine
 10
252.30873
 20
5.51967
 11
252.9922
 21
3.89643
  0
LINE
  5
110
100
AcDbEntity
  8
Gravur
  6
CONTINUOUS
 62
  255
370
   -1
100
AcDbLine
 10
253.73262
 20
5.51967
 11
252.70742
 21
3.21297
  0
ARC
  5
111
100
AcDbEntity
  8
Gravur
  6
CONTINUOUS
 62
  255
370
   -1
100
AcDbCircle
 10
252.3131
 20
3.38811
 40
0.43146
100
AcDbArc
 50
269.41954
 51
336.05092
  0
ARC
  5
112
100
AcDbEntity
  8
Gravur
  6
CONTINUOUS
 62
  255
370
   -1
100
AcDbCircle
 10
256.92609
 20
5.6832
 40
0.74777
100
AcDbArc
 50
90.37438
 51
157.00576
  0
ARC
  5
113
100
AcDbEntity
  8
Gravur
  6
CONTINUOUS
 62
  255
370
   -1
100
AcDbCircle
 10
256.9212
 20
5.76173
 40
0.66923
100
AcDbArc
 50
-90
 51
90
  0
ARC
  5
114
100
AcDbEntity
  8
Gravur
  6
CONTINUOUS
 62
  255
370
   -1
100
AcDbCircle
 10
256.9212
 20
4.42327
 40
0.66923
100
AcDbArc
 50
-90
 51
90
  0
ARC
  5
115
100
AcDbEntity
  8
Gravur
  6
CONTINUOUS
 62
  255
370
   -1
100
AcDbCircle
 10
256.92509
 20
4.54588
 40
0.7918500000000001
100
AcDbArc
 50
209.76844
 51
269.71869
  0
LINE
  5
116
100
AcDbEntity
  8
Gravur
  6
CONTINUOUS
 62
  255
370
   -1
100
AcDbLine
 10
405.89273
 20
6.376
 11
407.6014
 21
6.376
  0
LINE
  5
117
100
AcDbEntity
  8
Gravur
  6
CONTINUOUS
 62
  255
370
   -1
100
AcDbLine
 10
407.6014
 20
6.376
 11
406.74707
 21
6.376
  0
LINE
  5
118
100
AcDbEntity
  8
Gravur
  6
CONTINUOUS
 62
  255
370
   -1
100
AcDbLine
 10
406.74707
 20
6.376
 11
406.74707
 21
3.813
  0
LINE
  5
119
100
AcDbEntity
  8
Gravur
  6
CONTINUOUS
 62
  255
370
   -1
100
AcDbLine
 10
409.76658
 20
5.52167
 11
409.76658
 21
4.52494
  0
ARC
  5
11A
100
AcDbEntity
  8
Gravur
  6
CONTINUOUS
 62
  255
370
   -1
100
AcDbCircle
 10
409.02616
 20
4.52494
 40
0.74042
100
AcDbArc
 50
-180
 51
0
  0
LINE
  5
11B
100
AcDbEntity
  8
Gravur
  6
CONTINUOUS
 62
  255
370
   -1
100
AcDbLine
 10
408.28573
 20
4.52494
 11
408.28573
 21
4.80972
  0
ARC
  5
11C
100
AcDbEntity
  8
Gravur
  6
CONTINUOUS
 62
  255
370
   -1
100
AcDbCircle
 10
409.02616
 20
4.80972
 40
0.74042
100
AcDbArc
 50
0
 51
180
  0
LINE
  5
11D
100
AcDbEntity
  8
Gravur
  6
CONTINUOUS
 62
  255
370
   -1
100
AcDbLine
 10
409.76658
 20
4.80972
 11
409.76658
 21
4.12626
  0
ARC
  5
11E
100
AcDbEntity
  8
Gravur
  6
CONTINUOUS
 62
  255
370
   -1
100
AcDbCircle
 10
410.17946
 20
4.16455
 40
0.41466
100
AcDbArc
 50
185.29897
 51
260.11981
  0
LINE
  5
11F
100
AcDbEntity
  8
Gravur
  6
CONTINUOUS
 62
  255
370
   -1
100
AcDbLine
 10
410.79273
 20
6.376
 11
410.79273
 21
4.15473
  0
ARC
  5
120
100
AcDbEntity
  8
Gravur
  6
CONTINUOUS
 62
  255
370
   -1
100
AcDbCircle
 10
411.14005
 20
4.15464
 40
0.34731
100
AcDbArc
 50
179.98432
 51
259.62682
  0
LINE
  5
121
100
AcDbEntity
  8
Gravur
  6
CONTINUOUS
 62
  255
370
   -1
100
AcDbLine
 10
411.76173
 20
6.375
 11
411.76173
 21
4.15373
  0
ARC
  5
122
100
AcDbEntity
  8
Gravur
  6
CONTINUOUS
 62
  255
370
   -1
100
AcDbCircle
 10
412.10905
 20
4.15364
 40
0.34731
100
AcDbArc
 50
179.98432
 51
259.62682
  0
LINE
  5
123
100
AcDbEntity
  8
Gravur
  6
CONTINUOUS
 62
  255
370
   -1
100
AcDbLine
 10
412.72973
 20
5.51967
 11
413.4132
 21
3.89643
  0
LINE
  5
124
100
AcDbEntity
  8
Gravur
  6
CONTINUOUS
 62
  255
370
   -1
100
AcDbLine
 10
414.15362
 20
5.51967
 11
413.12842
 21
3.21297
  0
ARC
  5
125
100
AcDbEntity
  8
Gravur
  6
CONTINUOUS
 62
  255
370
   -1
100
AcDbCircle
 10
412.7341
 20
3.38811
 40
0.43146
100
AcDbArc
 50
269.41954
 51
336.05092
  0
ARC
  5
126
100
AcDbEntity
  8
Gravur
  6
CONTINUOUS
 62
  255
370
   -1
100
AcDbCircle
 10
417.39916
 20
4.49447
 40
0.74042
100
AcDbArc
 50
-90
 51
90
  0
ARC
  5
127
100
AcDbEntity
  8
Gravur
  6
CONTINUOUS
 62
  255
370
   -1
100
AcDbCircle
 10
417.39916
 20
4.49447
 40
0.74042
100
AcDbArc
 50
90
 51
270
  0
ARC
  5
128
100
AcDbEntity
  8
Gravur
  6
CONTINUOUS
 62
  255
370
   -1
100
AcDbCircle
 10
417.39916
 20
5.83292
 40
0.59803
100
AcDbArc
 50
270
 51
450
  0
ARC
  5
129
100
AcDbEntity
  8
Gravur
  6
CONTINUOUS
 62
  255
370
   -1
100
AcDbCircle
 10
417.39916
 20
5.83292
 40
0.59803
100
AcDbArc
 50
90
 51
270
  0
CIRCLE
  5
12A
100
AcDbEntity
  8
Kontur
  6
CONTINUOUS
 62
    7
370
   -1
100
AcDbCircle
 10
30.5
 20
22.827
 40
11.8
  0
CIRCLE
  5
12B
100
AcDbEntity
  8
Kontur
  6
CONTINUOUS
 62
    7
370
   -1
100
AcDbCircle
 10
40
 20
10.826
 40
1.55
  0
CIRCLE
  5
12C
100
AcDbEntity
  8
Kontur
  6
CONTINUOUS
 62
    7
370
   -1
100
AcDbCircle
 10
21
 20
34.828
 40
1.55
  0
CIRCLE
  5
12D
100
AcDbEntity
  8
Kontur
  6
CONTINUOUS
 62
    7
370
   -1
100
AcDbCircle
 10
78.667
 20
22.827
 40
11.8
  0
CIRCLE
  5
12E
100
AcDbEntity
  8
Kontur
  6
CONTINUOUS
 62
    7
370
   -1
100
AcDbCircle
 10
88.167
 20
10.826
 40
1.55
  0
CIRCLE
  5
12F
100
AcDbEntity
  8
Kontur
  6
CONTINUOUS
 62
    7
370
   -1
100
AcDbCircle
 10
69.167
 20
34.828
 40
1.55
  0
CIRCLE
  5
130
100
AcDbEntity
  8
Kontur
  6
CONTINUOUS
 62
    7
370
   -1
100
AcDbCircle
 10
187.333
 20
22.827
 40
11.8
  0
CIRCLE
  5
131
100
AcDbEntity
  8
Kontur
  6
CONTINUOUS
 62
    7
370
   -1
100
AcDbCircle
 10
196.833
 20
10.826
 40
1.55
  0
CIRCLE
  5
132
100
AcDbEntity
  8
Kontur
  6
CONTINUOUS
 62
    7
370
   -1
100
AcDbCircle
 10
177.833
 20
34.828
 40
1.55
  0
CIRCLE
  5
133
100
AcDbEntity
  8
Kontur
  6
CONTINUOUS
 62
    7
370
   -1
100
AcDbCircle
 10
219.428
 20
22.827
 40
11.8
  0
CIRCLE
  5
134
100
AcDbEntity
  8
Kontur
  6
CONTINUOUS
 62
    7
370
   -1
100
AcDbCircle
 10
228.928
 20
10.826
 40
1.55
  0
CIRCLE
  5
135
100
AcDbEntity
  8
Kontur
  6
CONTINUOUS
 62
    7
370
   -1
100
AcDbCircle
 10
209.928
 20
34.828
 40
1.55
  0
CIRCLE
  5
136
100
AcDbEntity
  8
Kontur
  6
CONTINUOUS
 62
    7
370
   -1
100
AcDbCircle
 10
315.714
 20
22.827
 40
11.8
  0
CIRCLE
  5
137
100
AcDbEntity
  8
Kontur
  6
CONTINUOUS
 62
    7
370
   -1
100
AcDbCircle
 10
325.214
 20
10.826
 40
1.55
  0
CIRCLE
  5
138
100
AcDbEntity
  8
Kontur
  6
CONTINUOUS
 62
    7
370
   -1
100
AcDbCircle
 10
306.214
 20
34.828
 40
1.55
  0
CIRCLE
  5
139
100
AcDbEntity
  8
Kontur
  6
CONTINUOUS
 62
    7
370
   -1
100
AcDbCircle
 10
283.619
 20
22.827
 40
11.8
  0
CIRCLE
  5
13A
100
AcDbEntity
  8
Kontur
  6
CONTINUOUS
 62
    7
370
   -1
100
AcDbCircle
 10
293.119
 20
10.826
 40
1.55
  0
CIRCLE
  5
13B
100
AcDbEntity
  8
Kontur
  6
CONTINUOUS
 62
    7
370
   -1
100
AcDbCircle
 10
274.119
 20
34.828
 40
1.55
  0
CIRCLE
  5
13C
100
AcDbEntity
  8
Kontur
  6
CONTINUOUS
 62
    7
370
   -1
100
AcDbCircle
 10
251.524
 20
22.827
 40
11.8
  0
CIRCLE
  5
13D
100
AcDbEntity
  8
Kontur
  6
CONTINUOUS
 62
    7
370
   -1
100
AcDbCircle
 10
261.024
 20
10.826
 40
1.55
  0
CIRCLE
  5
13E
100
AcDbEntity
  8
Kontur
  6
CONTINUOUS
 62
    7
370
   -1
100
AcDbCircle
 10
242.024
 20
34.828
 40
1.55
  0
CIRCLE
  5
13F
100
AcDbEntity
  8
Kontur
  6
CONTINUOUS
 62
    7
370
   -1
100
AcDbCircle
 10
347.809
 20
22.827
 40
11.8
  0
CIRCLE
  5
140
100
AcDbEntity
  8
Kontur
  6
CONTINUOUS
 62
    7
370
   -1
100
AcDbCircle
 10
357.309
 20
10.826
 40
1.55
  0
CIRCLE
  5
141
100
AcDbEntity
  8
Kontur
  6
CONTINUOUS
 62
    7
370
   -1
100
AcDbCircle
 10
338.309
 20
34.828
 40
1.55
  0
CIRCLE
  5
142
100
AcDbEntity
  8
Kontur
  6
CONTINUOUS
 62
    7
370
   -1
100
AcDbCircle
 10
379.905
 20
22.827
 40
11.8
  0
CIRCLE
  5
143
100
AcDbEntity
  8
Kontur
  6
CONTINUOUS
 62
    7
370
   -1
100
AcDbCircle
 10
389.405
 20
10.826
 40
1.55
  0
CIRCLE
  5
144
100
AcDbEntity
  8
Kontur
  6
CONTINUOUS
 62
    7
370
   -1
100
AcDbCircle
 10
370.405
 20
34.828
 40
1.55
  0
CIRCLE
  5
145
100
AcDbEntity
  8
Kontur
  6
CONTINUOUS
 62
    7
370
   -1
100
AcDbCircle
 10
412
 20
22.827
 40
11.8
  0
CIRCLE
  5
146
100
AcDbEntity
  8
Kontur
  6
CONTINUOUS
 62
    7
370
   -1
100
AcDbCircle
 10
421.5
 20
10.826
 40
1.55
  0
CIRCLE
  5
147
100
AcDbEntity
  8
Kontur
  6
CONTINUOUS
 62
    7
370
   -1
100
AcDbCircle
 10
402.5
 20
34.828
 40
1.55
  0
LINE
  5
148
100
AcDbEntity
  8
Bezugspunkte
  6
CONTINUOUS
 62
    1
370
   -1
100
AcDbLine
 10
-2.26
 20
0
 11
2.26
 21
0
  0
LINE
  5
149
100
AcDbEntity
  8
Bezugspunkte
  6
CONTINUOUS
 62
    1
370
   -1
100
AcDbLine
 10
0
 20
-2.26
 11
0
 21
2.26
  0
LINE
  5
14A
100
AcDbEntity
  8
Bezugspunkte
  6
CONTINUOUS
 62
    1
370
   -1
100
AcDbLine
 10
28.24
 20
22.827
 11
32.76
 21
22.827
  0
LINE
  5
14B
100
AcDbEntity
  8
Bezugspunkte
  6
CONTINUOUS
 62
    1
370
   -1
100
AcDbLine
 10
30.5
 20
20.567
 11
30.5
 21
25.087
  0
LINE
  5
14C
100
AcDbEntity
  8
Bezugspunkte
  6
CONTINUOUS
 62
    1
370
   -1
100
AcDbLine
 10
37.74
 20
10.826
 11
42.26
 21
10.826
  0
LINE
  5
14D
100
AcDbEntity
  8
Bezugspunkte
  6
CONTINUOUS
 62
    1
370
   -1
100
AcDbLine
 10
40
 20
8.566000000000001
 11
40
 21
13.086
  0
LINE
  5
14E
100
AcDbEntity
  8
Bezugspunkte
  6
CONTINUOUS
 62
    1
370
   -1
100
AcDbLine
 10
18.74
 20
34.828
 11
23.26
 21
34.828
  0
LINE
  5
14F
100
AcDbEntity
  8
Bezugspunkte
  6
CONTINUOUS
 62
    1
370
   -1
100
AcDbLine
 10
21
 20
32.568
 11
21
 21
37.088
  0
LINE
  5
150
100
AcDbEntity
  8
Bezugspunkte
  6
CONTINUOUS
 62
    1
370
   -1
100
AcDbLine
 10
28.24
 20
22.827
 11
32.76
 21
22.827
  0
LINE
  5
151
100
AcDbEntity
  8
Bezugspunkte
  6
CONTINUOUS
 62
    1
370
   -1
100
AcDbLine
 10
30.5
 20
20.567
 11
30.5
 21
25.087
  0
LINE
  5
152
100
AcDbEntity
  8
Bezugspunkte
  6
CONTINUOUS
 62
    1
370
   -1
100
AcDbLine
 10
28.24
 20
22.827
 11
32.76
 21
22.827
  0
LINE
  5
153
100
AcDbEntity
  8
Bezugspunkte
  6
CONTINUOUS
 62
    1
370
   -1
100
AcDbLine
 10
30.5
 20
20.567
 11
30.5
 21
25.087
  0
LINE
  5
154
100
AcDbEntity
  8
Bezugspunkte
  6
CONTINUOUS
 62
    1
370
   -1
100
AcDbLine
 10
76.407
 20
22.827
 11
80.92700000000001
 21
22.827
  0
LINE
  5
155
100
AcDbEntity
  8
Bezugspunkte
  6
CONTINUOUS
 62
    1
370
   -1
100
AcDbLine
 10
78.667
 20
20.567
 11
78.667
 21
25.087
  0
LINE
  5
156
100
AcDbEntity
  8
Bezugspunkte
  6
CONTINUOUS
 62
    1
370
   -1
100
AcDbLine
 10
85.907
 20
10.826
 11
90.42700000000001
 21
10.826
  0
LINE
  5
157
100
AcDbEntity
  8
Bezugspunkte
  6
CONTINUOUS
 62
    1
370
   -1
100
AcDbLine
 10
88.167
 20
8.566000000000001
 11
88.167
 21
13.086
  0
LINE
  5
158
100
AcDbEntity
  8
Bezugspunkte
  6
CONTINUOUS
 62
    1
370
   -1
100
AcDbLine
 10
66.907
 20
34.828
 11
71.42700000000001
 21
34.828
  0
LINE
  5
159
100
AcDbEntity
  8
Bezugspunkte
  6
CONTINUOUS
 62
    1
370
   -1
100
AcDbLine
 10
69.167
 20
32.568
 11
69.167
 21
37.088
  0
LINE
  5
15A
100
AcDbEntity
  8
Bezugspunkte
  6
CONTINUOUS
 62
    1
370
   -1
100
AcDbLine
 10
76.407
 20
22.827
 11
80.92700000000001
 21
22.827
  0
LINE
  5
15B
100
AcDbEntity
  8
Bezugspunkte
  6
CONTINUOUS
 62
    1
370
   -1
100
AcDbLine
 10
78.667
 20
20.567
 11
78.667
 21
25.087
  0
LINE
  5
15C
100
AcDbEntity
  8
Bezugspunkte
  6
CONTINUOUS
 62
    1
370
   -1
100
AcDbLine
 10
76.407
 20
22.827
 11
80.92700000000001
 21
22.827
  0
LINE
  5
15D
100
AcDbEntity
  8
Bezugspunkte
  6
CONTINUOUS
 62
    1
370
   -1
100
AcDbLine
 10
78.667
 20
20.567
 11
78.667
 21
25.087
  0
LINE
  5
15E
100
AcDbEntity
  8
Bezugspunkte
  6
CONTINUOUS
 62
    1
370
   -1
100
AcDbLine
 10
185.073
 20
22.827
 11
189.593
 21
22.827
  0
LINE
  5
15F
100
AcDbEntity
  8
Bezugspunkte
  6
CONTINUOUS
 62
    1
370
   -1
100
AcDbLine
 10
187.333
 20
20.567
 11
187.333
 21
25.087
  0
LINE
  5
160
100
AcDbEntity
  8
Bezugspunkte
  6
CONTINUOUS
 62
    1
370
   -1
100
AcDbLine
 10
194.573
 20
10.826
 11
199.093
 21
10.826
  0
LINE
  5
161
100
AcDbEntity
  8
Bezugspunkte
  6
CONTINUOUS
 62
    1
370
   -1
100
AcDbLine
 10
196.833
 20
8.566000000000001
 11
196.833
 21
13.086
  0
LINE
  5
162
100
AcDbEntity
  8
Bezugspunkte
  6
CONTINUOUS
 62
    1
370
   -1
100
AcDbLine
 10
175.573
 20
34.828
 11
180.093
 21
34.828
  0
LINE
  5
163
100
AcDbEntity
  8
Bezugspunkte
  6
CONTINUOUS
 62
    1
370
   -1
100
AcDbLine
 10
177.833
 20
32.568
 11
177.833
 21
37.088
  0
LINE
  5
164
100
AcDbEntity
  8
Bezugspunkte
  6
CONTINUOUS
 62
    1
370
   -1
100
AcDbLine
 10
185.073
 20
22.827
 11
189.593
 21
22.827
  0
LINE
  5
165
100
AcDbEntity
  8
Bezugspunkte
  6
CONTINUOUS
 62
    1
370
   -1
100
AcDbLine
 10
187.333
 20
20.567
 11
187.333
 21
25.087
  0
LINE
  5
166
100
AcDbEntity
  8
Bezugspunkte
  6
CONTINUOUS
 62
    1
370
   -1
100
AcDbLine
 10
185.073
 20
22.827
 11
189.593
 21
22.827
  0
LINE
  5
167
100
AcDbEntity
  8
Bezugspunkte
  6
CONTINUOUS
 62
    1
370
   -1
100
AcDbLine
 10
187.333
 20
20.567
 11
187.333
 21
25.087
  0
LINE
  5
168
100
AcDbEntity
  8
Bezugspunkte
  6
CONTINUOUS
 62
    1
370
   -1
100
AcDbLine
 10
217.168
 20
22.827
 11
221.688
 21
22.827
  0
LINE
  5
169
100
AcDbEntity
  8
Bezugspunkte
  6
CONTINUOUS
 62
    1
370
   -1
100
AcDbLine
 10
219.428
 20
20.567
 11
219.428
 21
25.087
  0
LINE
  5
16A
100
AcDbEntity
  8
Bezugspunkte
  6
CONTINUOUS
 62
    1
370
   -1
100
AcDbLine
 10
226.668
 20
10.826
 11
231.188
 21
10.826
  0
LINE
  5
16B
100
AcDbEntity
  8
Bezugspunkte
  6
CONTINUOUS
 62
    1
370
   -1
100
AcDbLine
 10
228.928
 20
8.566000000000001
 11
228.928
 21
13.086
  0
LINE
  5
16C
100
AcDbEntity
  8
Bezugspunkte
  6
CONTINUOUS
 62
    1
370
   -1
100
AcDbLine
 10
207.668
 20
34.828
 11
212.188
 21
34.828
  0
LINE
  5
16D
100
AcDbEntity
  8
Bezugspunkte
  6
CONTINUOUS
 62
    1
370
   -1
100
AcDbLine
 10
209.928
 20
32.568
 11
209.928
 21
37.088
  0
LINE
  5
16E
100
AcDbEntity
  8
Bezugspunkte
  6
CONTINUOUS
 62
    1
370
   -1
100
AcDbLine
 10
217.168
 20
22.827
 11
221.688
 21
22.827
  0
LINE
  5
16F
100
AcDbEntity
  8
Bezugspunkte
  6
CONTINUOUS
 62
    1
370
   -1
100
AcDbLine
 10
219.428
 20
20.567
 11
219.428
 21
25.087
  0
LINE
  5
170
100
AcDbEntity
  8
Bezugspunkte
  6
CONTINUOUS
 62
    1
370
   -1
100
AcDbLine
 10
217.168
 20
22.827
 11
221.688
 21
22.827
  0
LINE
  5
171
100
AcDbEntity
  8
Bezugspunkte
  6
CONTINUOUS
 62
    1
370
   -1
100
AcDbLine
 10
219.428
 20
20.567
 11
219.428
 21
25.087
  0
LINE
  5
172
100
AcDbEntity
  8
Bezugspunkte
  6
CONTINUOUS
 62
    1
370
   -1
100
AcDbLine
 10
313.454
 20
22.827
 11
317.974
 21
22.827
  0
LINE
  5
173
100
AcDbEntity
  8
Bezugspunkte
  6
CONTINUOUS
 62
    1
370
   -1
100
AcDbLine
 10
315.714
 20
20.567
 11
315.714
 21
25.087
  0
LINE
  5
174
100
AcDbEntity
  8
Bezugspunkte
  6
CONTINUOUS
 62
    1
370
   -1
100
AcDbLine
 10
322.954
 20
10.826
 11
327.474
 21
10.826
  0
LINE
  5
175
100
AcDbEntity
  8
Bezugspunkte
  6
CONTINUOUS
 62
    1
370
   -1
100
AcDbLine
 10
325.214
 20
8.566000000000001
 11
325.214
 21
13.086
  0
LINE
  5
176
100
AcDbEntity
  8
Bezugspunkte
  6
CONTINUOUS
 62
    1
370
   -1
100
AcDbLine
 10
303.954
 20
34.828
 11
308.474
 21
34.828
  0
LINE
  5
177
100
AcDbEntity
  8
Bezugspunkte
  6
CONTINUOUS
 62
    1
370
   -1
100
AcDbLine
 10
306.214
 20
32.568
 11
306.214
 21
37.088
  0
LINE
  5
178
100
AcDbEntity
  8
Bezugspunkte
  6
CONTINUOUS
 62
    1
370
   -1
100
AcDbLine
 10
313.454
 20
22.827
 11
317.974
 21
22.827
  0
LINE
  5
179
100
AcDbEntity
  8
Bezugspunkte
  6
CONTINUOUS
 62
    1
370
   -1
100
AcDbLine
 10
315.714
 20
20.567
 11
315.714
 21
25.087
  0
LINE
  5
17A
100
AcDbEntity
  8
Bezugspunkte
  6
CONTINUOUS
 62
    1
370
   -1
100
AcDbLine
 10
313.454
 20
22.827
 11
317.974
 21
22.827
  0
LINE
  5
17B
100
AcDbEntity
  8
Bezugspunkte
  6
CONTINUOUS
 62
    1
370
   -1
100
AcDbLine
 10
315.714
 20
20.567
 11
315.714
 21
25.087
  0
LINE
  5
17C
100
AcDbEntity
  8
Bezugspunkte
  6
CONTINUOUS
 62
    1
370
   -1
100
AcDbLine
 10
281.359
 20
22.827
 11
285.879
 21
22.827
  0
LINE
  5
17D
100
AcDbEntity
  8
Bezugspunkte
  6
CONTINUOUS
 62
    1
370
   -1
100
AcDbLine
 10
283.619
 20
20.567
 11
283.619
 21
25.087
  0
LINE
  5
17E
100
AcDbEntity
  8
Bezugspunkte
  6
CONTINUOUS
 62
    1
370
   -1
100
AcDbLine
 10
290.859
 20
10.826
 11
295.379
 21
10.826
  0
LINE
  5
17F
100
AcDbEntity
  8
Bezugspunkte
  6
CONTINUOUS
 62
    1
370
   -1
100
AcDbLine
 10
293.119
 20
8.566000000000001
 11
293.119
 21
13.086
  0
LINE
  5
180
100
AcDbEntity
  8
Bezugspunkte
  6
CONTINUOUS
 62
    1
370
   -1
100
AcDbLine
 10
271.859
 20
34.828
 11
276.379
 21
34.828
  0
LINE
  5
181
100
AcDbEntity
  8
Bezugspunkte
  6
CONTINUOUS
 62
    1
370
   -1
100
AcDbLine
 10
274.119
 20
32.568
 11
274.119
 21
37.088
  0
LINE
  5
182
100
AcDbEntity
  8
Bezugspunkte
  6
CONTINUOUS
 62
    1
370
   -1
100
AcDbLine
 10
281.359
 20
22.827
 11
285.879
 21
22.827
  0
LINE
  5
183
100
AcDbEntity
  8
Bezugspunkte
  6
CONTINUOUS
 62
    1
370
   -1
100
AcDbLine
 10
283.619
 20
20.567
 11
283.619
 21
25.087
  0
LINE
  5
184
100
AcDbEntity
  8
Bezugspunkte
  6
CONTINUOUS
 62
    1
370
   -1
100
AcDbLine
 10
281.359
 20
22.827
 11
285.879
 21
22.827
  0
LINE
  5
185
100
AcDbEntity
  8
Bezugspunkte
  6
CONTINUOUS
 62
    1
370
   -1
100
AcDbLine
 10
283.619
 20
20.567
 11
283.619
 21
25.087
  0
LINE
  5
186
100
AcDbEntity
  8
Bezugspunkte
  6
CONTINUOUS
 62
    1
370
   -1
100
AcDbLine
 10
249.264
 20
22.827
 11
253.784
 21
22.827
  0
LINE
  5
187
100
AcDbEntity
  8
Bezugspunkte
  6
CONTINUOUS
 62
    1
370
   -1
100
AcDbLine
 10
251.524
 20
20.567
 11
251.524
 21
25.087
  0
LINE
  5
188
100
AcDbEntity
  8
Bezugspunkte
  6
CONTINUOUS
 62
    1
370
   -1
100
AcDbLine
 10
258.764
 20
10.826
 11
263.284
 21
10.826
  0
LINE
  5
189
100
AcDbEntity
  8
Bezugspunkte
  6
CONTINUOUS
 62
    1
370
   -1
100
AcDbLine
 10
261.024
 20
8.566000000000001
 11
261.024
 21
13.086
  0
LINE
  5
18A
100
AcDbEntity
  8
Bezugspunkte
  6
CONTINUOUS
 62
    1
370
   -1
100
AcDbLine
 10
239.764
 20
34.828
 11
244.284
 21
34.828
  0
LINE
  5
18B
100
AcDbEntity
  8
Bezugspunkte
  6
CONTINUOUS
 62
    1
370
   -1
100
AcDbLine
 10
242.024
 20
32.568
 11
242.024
 21
37.088
  0
LINE
  5
18C
100
AcDbEntity
  8
Bezugspunkte
  6
CONTINUOUS
 62
    1
370
   -1
100
AcDbLine
 10
249.264
 20
22.827
 11
253.784
 21
22.827
  0
LINE
  5
18D
100
AcDbEntity
  8
Bezugspunkte
  6
CONTINUOUS
 62
    1
370
   -1
100
AcDbLine
 10
251.524
 20
20.567
 11
251.524
 21
25.087
  0
LINE
  5
18E
100
AcDbEntity
  8
Bezugspunkte
  6
CONTINUOUS
 62
    1
370
   -1
100
AcDbLine
 10
249.264
 20
22.827
 11
253.784
 21
22.827
  0
LINE
  5
18F
100
AcDbEntity
  8
Bezugspunkte
  6
CONTINUOUS
 62
    1
370
   -1
100
AcDbLine
 10
251.524
 20
20.567
 11
251.524
 21
25.087
  0
LINE
  5
190
100
AcDbEntity
  8
Bezugspunkte
  6
CONTINUOUS
 62
    1
370
   -1
100
AcDbLine
 10
345.549
 20
22.827
 11
350.069
 21
22.827
  0
LINE
  5
191
100
AcDbEntity
  8
Bezugspunkte
  6
CONTINUOUS
 62
    1
370
   -1
100
AcDbLine
 10
347.809
 20
20.567
 11
347.809
 21
25.087
  0
LINE
  5
192
100
AcDbEntity
  8
Bezugspunkte
  6
CONTINUOUS
 62
    1
370
   -1
100
AcDbLine
 10
355.049
 20
10.826
 11
359.569
 21
10.826
  0
LINE
  5
193
100
AcDbEntity
  8
Bezugspunkte
  6
CONTINUOUS
 62
    1
370
   -1
100
AcDbLine
 10
357.309
 20
8.566000000000001
 11
357.309
 21
13.086
  0
LINE
  5
194
100
AcDbEntity
  8
Bezugspunkte
  6
CONTINUOUS
 62
    1
370
   -1
100
AcDbLine
 10
336.049
 20
34.828
 11
340.569
 21
34.828
  0
LINE
  5
195
100
AcDbEntity
  8
Bezugspunkte
  6
CONTINUOUS
 62
    1
370
   -1
100
AcDbLine
 10
338.309
 20
32.568
 11
338.309
 21
37.088
  0
LINE
  5
196
100
AcDbEntity
  8
Bezugspunkte
  6
CONTINUOUS
 62
    1
370
   -1
100
AcDbLine
 10
345.549
 20
22.827
 11
350.069
 21
22.827
  0
LINE
  5
197
100
AcDbEntity
  8
Bezugspunkte
  6
CONTINUOUS
 62
    1
370
   -1
100
AcDbLine
 10
347.809
 20
20.567
 11
347.809
 21
25.087
  0
LINE
  5
198
100
AcDbEntity
  8
Bezugspunkte
  6
CONTINUOUS
 62
    1
370
   -1
100
AcDbLine
 10
345.549
 20
22.827
 11
350.069
 21
22.827
  0
LINE
  5
199
100
AcDbEntity
  8
Bezugspunkte
  6
CONTINUOUS
 62
    1
370
   -1
100
AcDbLine
 10
347.809
 20
20.567
 11
347.809
 21
25.087
  0
LINE
  5
19A
100
AcDbEntity
  8
Bezugspunkte
  6
CONTINUOUS
 62
    1
370
   -1
100
AcDbLine
 10
377.645
 20
22.827
 11
382.165
 21
22.827
  0
LINE
  5
19B
100
AcDbEntity
  8
Bezugspunkte
  6
CONTINUOUS
 62
    1
370
   -1
100
AcDbLine
 10
379.905
 20
20.567
 11
379.905
 21
25.087
  0
LINE
  5
19C
100
AcDbEntity
  8
Bezugspunkte
  6
CONTINUOUS
 62
    1
370
   -1
100
AcDbLine
 10
387.145
 20
10.826
 11
391.665
 21
10.826
  0
LINE
  5
19D
100
AcDbEntity
  8
Bezugspunkte
  6
CONTINUOUS
 62
    1
370
   -1
100
AcDbLine
 10
389.405
 20
8.566000000000001
 11
389.405
 21
13.086
  0
LINE
  5
19E
100
AcDbEntity
  8
Bezugspunkte
  6
CONTINUOUS
 62
    1
370
   -1
100
AcDbLine
 10
368.145
 20
34.828
 11
372.665
 21
34.828
  0
LINE
  5
19F
100
AcDbEntity
  8
Bezugspunkte
  6
CONTINUOUS
 62
    1
370
   -1
100
AcDbLine
 10
370.405
 20
32.568
 11
370.405
 21
37.088
  0
LINE
  5
1A0
100
AcDbEntity
  8
Bezugspunkte
  6
CONTINUOUS
 62
    1
370
   -1
100
AcDbLine
 10
377.645
 20
22.827
 11
382.165
 21
22.827
  0
LINE
  5
1A1
100
AcDbEntity
  8
Bezugspunkte
  6
CONTINUOUS
 62
    1
370
   -1
100
AcDbLine
 10
379.905
 20
20.567
 11
379.905
 21
25.087
  0
LINE
  5
1A2
100
AcDbEntity
  8
Bezugspunkte
  6
CONTINUOUS
 62
    1
370
   -1
100
AcDbLine
 10
377.645
 20
22.827
 11
382.165
 21
22.827
  0
LINE
  5
1A3
100
AcDbEntity
  8
Bezugspunkte
  6
CONTINUOUS
 62
    1
370
   -1
100
AcDbLine
 10
379.905
 20
20.567
 11
379.905
 21
25.087
  0
LINE
  5
1A4
100
AcDbEntity
  8
Bezugspunkte
  6
CONTINUOUS
 62
    1
370
   -1
100
AcDbLine
 10
409.74
 20
22.827
 11
414.26
 21
22.827
  0
LINE
  5
1A5
100
AcDbEntity
  8
Bezugspunkte
  6
CONTINUOUS
 62
    1
370
   -1
100
AcDbLine
 10
412
 20
20.567
 11
412
 21
25.087
  0
LINE
  5
1A6
100
AcDbEntity
  8
Bezugspunkte
  6
CONTINUOUS
 62
    1
370
   -1
100
AcDbLine
 10
419.24
 20
10.826
 11
423.76
 21
10.826
  0
LINE
  5
1A7
100
AcDbEntity
  8
Bezugspunkte
  6
CONTINUOUS
 62
    1
370
   -1
100
AcDbLine
 10
421.5
 20
8.566000000000001
 11
421.5
 21
13.086
  0
LINE
  5
1A8
100
AcDbEntity
  8
Bezugspunkte
  6
CONTINUOUS
 62
    1
370
   -1
100
AcDbLine
 10
400.24
 20
34.828
 11
404.76
 21
34.828
  0
LINE
  5
1A9
100
AcDbEntity
  8
Bezugspunkte
  6
CONTINUOUS
 62
    1
370
   -1
100
AcDbLine
 10
402.5
 20
32.568
 11
402.5
 21
37.088
  0
LINE
  5
1AA
100
AcDbEntity
  8
Bezugspunkte
  6
CONTINUOUS
 62
    1
370
   -1
100
AcDbLine
 10
409.74
 20
22.827
 11
414.26
 21
22.827
  0
LINE
  5
1AB
100
AcDbEntity
  8
Bezugspunkte
  6
CONTINUOUS
 62
    1
370
   -1
100
AcDbLine
 10
412
 20
20.567
 11
412
 21
25.087
  0
LINE
  5
1AC
100
AcDbEntity
  8
Bezugspunkte
  6
CONTINUOUS
 62
    1
370
   -1
100
AcDbLine
 10
409.74
 20
22.827
 11
414.26
 21
22.827
  0
LINE
  5
1AD
100
AcDbEntity
  8
Bezugspunkte
  6
CONTINUOUS
 62
    1
370
   -1
100
AcDbLine
 10
412
 20
20.567
 11
412
 21
25.087
  0
LINE
  5
1AE
100
AcDbEntity
  8
Bezugspunkte
  6
CONTINUOUS
 62
    1
370
   -1
100
AcDbLine
 10
22.101
 20
3.466
 11
26.621
 21
3.466
  0
LINE
  5
1AF
100
AcDbEntity
  8
Bezugspunkte
  6
CONTINUOUS
 62
    1
370
   -1
100
AcDbLine
 10
24.361
 20
1.206
 11
24.361
 21
5.726
  0
LINE
  5
1B0
100
AcDbEntity
  8
Bezugspunkte
  6
CONTINUOUS
 62
    1
370
   -1
100
AcDbLine
 10
69.38200000000001
 20
2.494
 11
73.902
 21
2.494
  0
LINE
  5
1B1
100
AcDbEntity
  8
Bezugspunkte
  6
CONTINUOUS
 62
    1
370
   -1
100
AcDbLine
 10
71.642
 20
0.234
 11
71.642
 21
4.754
  0
LINE
  5
1B2
100
AcDbEntity
  8
Bezugspunkte
  6
CONTINUOUS
 62
    1
370
   -1
100
AcDbLine
 10
185.08
 20
3.613
 11
189.6
 21
3.613
  0
LINE
  5
1B3
100
AcDbEntity
  8
Bezugspunkte
  6
CONTINUOUS
 62
    1
370
   -1
100
AcDbLine
 10
187.34
 20
1.353
 11
187.34
 21
5.873
  0
LINE
  5
1B4
100
AcDbEntity
  8
Bezugspunkte
  6
CONTINUOUS
 62
    1
370
   -1
100
AcDbLine
 10
217.174
 20
3.613
 11
221.694
 21
3.613
  0
LINE
  5
1B5
100
AcDbEntity
  8
Bezugspunkte
  6
CONTINUOUS
 62
    1
370
   -1
100
AcDbLine
 10
219.434
 20
1.353
 11
219.434
 21
5.873
  0
LINE
  5
1B6
100
AcDbEntity
  8
Bezugspunkte
  6
CONTINUOUS
 62
    1
370
   -1
100
AcDbLine
 10
281.363
 20
3.613
 11
285.883
 21
3.613
  0
LINE
  5
1B7
100
AcDbEntity
  8
Bezugspunkte
  6
CONTINUOUS
 62
    1
370
   -1
100
AcDbLine
 10
283.623
 20
1.353
 11
283.623
 21
5.873
  0
LINE
  5
1B8
100
AcDbEntity
  8
Bezugspunkte
  6
CONTINUOUS
 62
    1
370
   -1
100
AcDbLine
 10
345.551
 20
3.613
 11
350.071
 21
3.613
  0
LINE
  5
1B9
100
AcDbEntity
  8
Bezugspunkte
  6
CONTINUOUS
 62
    1
370
   -1
100
AcDbLine
 10
347.811
 20
1.353
 11
347.811
 21
5.873
  0
LINE
  5
1BA
100
AcDbEntity
  8
Bezugspunkte
  6
CONTINUOUS
 62
    1
370
   -1
100
AcDbLine
 10
377.646
 20
3.613
 11
382.166
 21
3.613
  0
LINE
  5
1BB
100
AcDbEntity
  8
Bezugspunkte
  6
CONTINUOUS
 62
    1
370
   -1
100
AcDbLine
 10
379.906
 20
1.353
 11
379.906
 21
5.873
  0
LINE
  5
1BC
100
AcDbEntity
  8
Bezugspunkte
  6
CONTINUOUS
 62
    1
370
   -1
100
AcDbLine
 10
313.457
 20
3.613
 11
317.977
 21
3.613
  0
LINE
  5
1BD
100
AcDbEntity
  8
Bezugspunkte
  6
CONTINUOUS
 62
    1
370
   -1
100
AcDbLine
 10
315.717
 20
1.353
 11
315.717
 21
5.873
  0
LINE
  5
1BE
100
AcDbEntity
  8
Bezugspunkte
  6
CONTINUOUS
 62
    1
370
   -1
100
AcDbLine
 10
249.269
 20
3.613
 11
253.789
 21
3.613
  0
LINE
  5
1BF
100
AcDbEntity
  8
Bezugspunkte
  6
CONTINUOUS
 62
    1
370
   -1
100
AcDbLine
 10
251.529
 20
1.353
 11
251.529
 21
5.873
  0
LINE
  5
1C0
100
AcDbEntity
  8
Bezugspunkte
  6
CONTINUOUS
 62
    1
370
   -1
100
AcDbLine
 10
409.74
 20
3.613
 11
414.26
 21
3.613
  0
LINE
  5
1C1
100
AcDbEntity
  8
Bezugspunkte
  6
CONTINUOUS
 62
    1
370
   -1
100
AcDbLine
 10
412
 20
1.353
 11
412
 21
5.873
  0
ENDSEC
  0
SECTION
  2
OBJECTS
  0
DICTIONARY
  5
C
330
0
100
AcDbDictionary
281
    1
  3
ACAD_GROUP
350
D
  0
DICTIONARY
  5
D
330
C
100
AcDbDictionary
281
    1
  0
ENDSEC
  0
EOF
