  0
SECTION
  2
HEADER
  9
$MEASUREMENT
  70
  1
  9
$INSUNITS
  70
  4
  0
ENDSEC
  0
SECTION
  2
TABLES
  0
TABLE
  2
LTYPE
 70
     1
  0
LTYPE
  2
CONTINUOUS
 70
    64
  3
Ausgezogene Linie
 72
    65
 73
     0
 40
0.0
  0
ENDTAB
  0
TABLE
  2
LAYER
 70
     3
  0
LAYER
  2
Kontur
 70
    64
 62
     7
  6
CONTINUOUS
  0
LAYER
  2
Gravur
 70
    64
 62
     7
  6
CONTINUOUS
  0
LAYER
  2
Bezugspunkte
 70
    64
 62
     1
  6
CONTINUOUS
  0
ENDTAB
  0
TABLE
  2
STYLE
 70
     1
  0
STYLE
  2
TXT
 70
    64
 40
0.0
 41
1.0
 50
0.0
 71
     0
 42
3.500000
  3
TXT
  0
ENDTAB
  0
ENDSEC
  0
SECTION
  2
BLOCKS
  0
ENDSEC
  0
SECTION
  2
ENTITIES
  0
LINE
  8
Kontur
 62
   7
 39
0.100
  6
CONTINUOUS
 10
440.00000
 20
41.00000
 30
 0
 11
440.00000
 21
0.00000
  0
LINE
  8
Kontur
 62
   7
 39
0.100
  6
CONTINUOUS
 10
440.00000
 20
0.00000
 30
 0
 11
0.00000
 21
0.00000
  0
LINE
  8
Kontur
 62
   7
 39
0.100
  6
CONTINUOUS
 10
0.00000
 20
0.00000
 30
 0
 11
0.00000
 21
41.00000
  0
LINE
  8
Kontur
 62
   7
 39
0.100
  6
CONTINUOUS
 10
0.00000
 20
41.00000
 30
 0
 11
440.00000
 21
41.00000
  0
LINE
  8
Gravur
 62
   255
 39
0.400
  6
CONTINUOUS
 10
24.36173
 20
6.22900
 30
 0
 11
25.21607
 21
3.66600
  0
LINE
  8
Gravur
 62
   255
 39
0.400
  6
CONTINUOUS
 10
25.21607
 20
3.66600
 30
 0
 11
26.07040
 21
6.22900
  0
LINE
  8
Gravur
 62
   255
 39
0.400
  6
CONTINUOUS
 10
26.75373
 20
6.22900
 30
 0
 11
26.75373
 21
6.08661
  0
LINE
  8
Gravur
 62
   255
 39
0.400
  6
CONTINUOUS
 10
26.75373
 20
5.37467
 30
 0
 11
26.75373
 21
3.66600
  0
LINE
  8
Gravur
 62
   255
 39
0.400
  6
CONTINUOUS
 10
27.43673
 20
3.66600
 30
 0
 11
27.43673
 21
5.37467
  0
LINE
  8
Gravur
 62
   255
 39
0.400
  6
CONTINUOUS
 10
27.43673
 20
5.37467
 30
 0
 11
27.43673
 21
4.66272
  0
ARC
  8
Gravur
 62
   255
 39
0.400
  6
CONTINUOUS
 10
28.14868
 20
4.66272
 30
 0
 40
0.71194
 50
0.00000
 51
180.00000
  0
LINE
  8
Gravur
 62
   255
 39
0.400
  6
CONTINUOUS
 10
28.86062
 20
4.66272
 30
 0
 11
28.86062
 21
3.66600
  0
LINE
  8
Gravur
 62
   255
 39
0.400
  6
CONTINUOUS
 10
31.36573
 20
5.65944
 30
 0
 11
31.93529
 21
6.22900
  0
LINE
  8
Gravur
 62
   255
 39
0.400
  6
CONTINUOUS
 10
31.93529
 20
6.22900
 30
 0
 11
31.93529
 21
3.66600
  0
LINE
  8
Gravur
 62
   255
 39
0.400
  6
CONTINUOUS
 10
32.64721
 20
5.97270
 30
 0
 11
32.81808
 21
6.11509
  0
ARC
  8
Gravur
 62
   255
 39
0.400
  6
CONTINUOUS
 10
33.27978
 20
5.58006
 30
 0
 40
0.70669
 50
-40.79241
 51
130.79241
  0
LINE
  8
Gravur
 62
   255
 39
0.400
  6
CONTINUOUS
 10
33.81480
 20
5.11837
 30
 0
 11
32.61873
 21
3.66600
  0
LINE
  8
Gravur
 62
   255
 39
0.400
  6
CONTINUOUS
 10
32.61873
 20
3.66600
 30
 0
 11
34.04262
 21
3.66600
  0
LINE
  8
Gravur
 62
   255
 39
0.400
  6
CONTINUOUS
 10
34.72573
 20
6.22800
 30
 0
 11
35.58007
 21
3.66500
  0
LINE
  8
Gravur
 62
   255
 39
0.400
  6
CONTINUOUS
 10
35.58007
 20
3.66500
 30
 0
 11
36.43440
 21
6.22800
  0
LINE
  8
Gravur
 62
   255
 39
0.400
  6
CONTINUOUS
 10
71.64273
 20
3.97550
 30
 0
 11
73.06662
 21
3.97550
  0
LINE
  8
Gravur
 62
   255
 39
0.400
  6
CONTINUOUS
 10
73.35140
 20
5.25700
 30
 0
 11
71.64273
 21
5.25700
  0
LINE
  8
Gravur
 62
   255
 39
0.400
  6
CONTINUOUS
 10
71.64273
 20
5.25700
 30
 0
 11
71.64273
 21
2.69400
  0
LINE
  8
Gravur
 62
   255
 39
0.400
  6
CONTINUOUS
 10
71.64273
 20
2.69400
 30
 0
 11
73.35140
 21
2.69400
  0
LINE
  8
Gravur
 62
   255
 39
0.400
  6
CONTINUOUS
 10
74.29103
 20
5.25700
 30
 0
 11
74.29103
 21
4.40267
  0
LINE
  8
Gravur
 62
   255
 39
0.400
  6
CONTINUOUS
 10
74.29103
 20
4.40267
 30
 0
 11
74.71820
 21
4.40267
  0
LINE
  8
Gravur
 62
   255
 39
0.400
  6
CONTINUOUS
 10
74.71820
 20
4.40267
 30
 0
 11
74.00626
 21
4.40267
  0
LINE
  8
Gravur
 62
   255
 39
0.400
  6
CONTINUOUS
 10
74.00626
 20
4.40267
 30
 0
 11
74.29103
 21
4.40267
  0
LINE
  8
Gravur
 62
   255
 39
0.400
  6
CONTINUOUS
 10
74.29103
 20
4.40267
 30
 0
 11
74.29103
 21
3.03573
  0
ARC
  8
Gravur
 62
   255
 39
0.400
  6
CONTINUOUS
 10
74.63835
 20
3.03564
 30
 0
 40
0.34731
 50
179.98432
 51
259.62682
  0
LINE
  8
Gravur
 62
   255
 39
0.400
  6
CONTINUOUS
 10
75.40073
 20
5.25600
 30
 0
 11
75.40073
 21
2.69300
  0
LINE
  8
Gravur
 62
   255
 39
0.400
  6
CONTINUOUS
 10
75.40073
 20
2.69300
 30
 0
 11
75.40073
 21
3.68972
  0
ARC
  8
Gravur
 62
   255
 39
0.400
  6
CONTINUOUS
 10
76.11268
 20
3.68972
 30
 0
 40
0.71194
 50
0.00000
 51
180.00000
  0
LINE
  8
Gravur
 62
   255
 39
0.400
  6
CONTINUOUS
 10
76.82462
 20
3.68972
 30
 0
 11
76.82462
 21
2.69300
  0
LINE
  8
Gravur
 62
   255
 39
0.400
  6
CONTINUOUS
 10
77.50773
 20
3.54733
 30
 0
 11
78.93162
 21
3.54733
  0
LINE
  8
Gravur
 62
   255
 39
0.400
  6
CONTINUOUS
 10
78.93162
 20
3.54733
 30
 0
 11
78.93162
 21
3.68972
  0
ARC
  8
Gravur
 62
   255
 39
0.400
  6
CONTINUOUS
 10
78.21968
 20
3.68972
 30
 0
 40
0.71194
 50
0.00000
 51
180.00000
  0
LINE
  8
Gravur
 62
   255
 39
0.400
  6
CONTINUOUS
 10
77.50773
 20
3.68972
 30
 0
 11
77.50773
 21
3.40494
  0
ARC
  8
Gravur
 62
   255
 39
0.400
  6
CONTINUOUS
 10
78.25431
 20
3.40435
 30
 0
 40
0.74658
 50
179.95424
 51
322.44599
  0
LINE
  8
Gravur
 62
   255
 39
0.400
  6
CONTINUOUS
 10
79.61473
 20
2.69300
 30
 0
 11
79.61473
 21
4.40167
  0
LINE
  8
Gravur
 62
   255
 39
0.400
  6
CONTINUOUS
 10
79.61473
 20
4.40167
 30
 0
 11
79.61473
 21
3.83211
  0
ARC
  8
Gravur
 62
   255
 39
0.400
  6
CONTINUOUS
 10
80.24404
 20
3.83213
 30
 0
 40
0.62931
 50
140.69073
 51
180.00162
  0
ARC
  8
Gravur
 62
   255
 39
0.400
  6
CONTINUOUS
 10
80.07038
 20
3.97327
 30
 0
 40
0.40553
 50
39.42406
 51
140.57594
  0
LINE
  8
Gravur
 62
   255
 39
0.400
  6
CONTINUOUS
 10
81.03773
 20
2.69300
 30
 0
 11
81.03773
 21
4.40167
  0
LINE
  8
Gravur
 62
   255
 39
0.400
  6
CONTINUOUS
 10
81.03773
 20
4.40167
 30
 0
 11
81.03773
 21
3.68972
  0
ARC
  8
Gravur
 62
   255
 39
0.400
  6
CONTINUOUS
 10
81.74968
 20
3.68972
 30
 0
 40
0.71194
 50
0.00001
 51
180.00000
  0
LINE
  8
Gravur
 62
   255
 39
0.400
  6
CONTINUOUS
 10
82.46162
 20
3.68972
 30
 0
 11
82.46162
 21
2.69300
  0
LINE
  8
Gravur
 62
   255
 39
0.400
  6
CONTINUOUS
 10
83.14473
 20
3.54733
 30
 0
 11
84.56862
 21
3.54733
  0
LINE
  8
Gravur
 62
   255
 39
0.400
  6
CONTINUOUS
 10
84.56862
 20
3.54733
 30
 0
 11
84.56862
 21
3.68972
  0
ARC
  8
Gravur
 62
   255
 39
0.400
  6
CONTINUOUS
 10
83.85668
 20
3.68972
 30
 0
 40
0.71194
 50
0.00000
 51
180.00000
  0
LINE
  8
Gravur
 62
   255
 39
0.400
  6
CONTINUOUS
 10
83.14473
 20
3.68972
 30
 0
 11
83.14473
 21
3.40494
  0
ARC
  8
Gravur
 62
   255
 39
0.400
  6
CONTINUOUS
 10
83.89131
 20
3.40435
 30
 0
 40
0.74658
 50
179.95424
 51
322.44599
  0
LINE
  8
Gravur
 62
   255
 39
0.400
  6
CONTINUOUS
 10
85.50803
 20
5.25600
 30
 0
 11
85.50803
 21
4.40167
  0
LINE
  8
Gravur
 62
   255
 39
0.400
  6
CONTINUOUS
 10
85.50803
 20
4.40167
 30
 0
 11
85.93520
 21
4.40167
  0
LINE
  8
Gravur
 62
   255
 39
0.400
  6
CONTINUOUS
 10
85.93520
 20
4.40167
 30
 0
 11
85.22326
 21
4.40167
  0
LINE
  8
Gravur
 62
   255
 39
0.400
  6
CONTINUOUS
 10
85.22326
 20
4.40167
 30
 0
 11
85.50803
 21
4.40167
  0
LINE
  8
Gravur
 62
   255
 39
0.400
  6
CONTINUOUS
 10
85.50803
 20
4.40167
 30
 0
 11
85.50803
 21
3.03473
  0
ARC
  8
Gravur
 62
   255
 39
0.400
  6
CONTINUOUS
 10
85.85535
 20
3.03464
 30
 0
 40
0.34731
 50
179.98432
 51
259.62682
  0
LINE
  8
Gravur
 62
   255
 39
0.400
  6
CONTINUOUS
 10
181.67373
 20
6.37600
 30
 0
 11
183.38240
 21
6.37600
  0
LINE
  8
Gravur
 62
   255
 39
0.400
  6
CONTINUOUS
 10
183.38240
 20
6.37600
 30
 0
 11
182.52807
 21
6.37600
  0
LINE
  8
Gravur
 62
   255
 39
0.400
  6
CONTINUOUS
 10
182.52807
 20
6.37600
 30
 0
 11
182.52807
 21
3.81300
  0
LINE
  8
Gravur
 62
   255
 39
0.400
  6
CONTINUOUS
 10
185.54758
 20
5.52167
 30
 0
 11
185.54758
 21
4.52494
  0
ARC
  8
Gravur
 62
   255
 39
0.400
  6
CONTINUOUS
 10
184.80716
 20
4.52494
 30
 0
 40
0.74042
 50
-180.00000
 51
0.00000
  0
LINE
  8
Gravur
 62
   255
 39
0.400
  6
CONTINUOUS
 10
184.06673
 20
4.52494
 30
 0
 11
184.06673
 21
4.80972
  0
ARC
  8
Gravur
 62
   255
 39
0.400
  6
CONTINUOUS
 10
184.80716
 20
4.80972
 30
 0
 40
0.74042
 50
0.00000
 51
180.00000
  0
LINE
  8
Gravur
 62
   255
 39
0.400
  6
CONTINUOUS
 10
185.54758
 20
4.80972
 30
 0
 11
185.54758
 21
4.12626
  0
ARC
  8
Gravur
 62
   255
 39
0.400
  6
CONTINUOUS
 10
185.96046
 20
4.16455
 30
 0
 40
0.41466
 50
185.29897
 51
260.11981
  0
LINE
  8
Gravur
 62
   255
 39
0.400
  6
CONTINUOUS
 10
186.57373
 20
6.37600
 30
 0
 11
186.57373
 21
4.15473
  0
ARC
  8
Gravur
 62
   255
 39
0.400
  6
CONTINUOUS
 10
186.92105
 20
4.15464
 30
 0
 40
0.34731
 50
179.98432
 51
259.62682
  0
LINE
  8
Gravur
 62
   255
 39
0.400
  6
CONTINUOUS
 10
187.54273
 20
6.37500
 30
 0
 11
187.54273
 21
4.15373
  0
ARC
  8
Gravur
 62
   255
 39
0.400
  6
CONTINUOUS
 10
187.89005
 20
4.15364
 30
 0
 40
0.34731
 50
179.98432
 51
259.62682
  0
LINE
  8
Gravur
 62
   255
 39
0.400
  6
CONTINUOUS
 10
188.51073
 20
5.51967
 30
 0
 11
189.19420
 21
3.89643
  0
LINE
  8
Gravur
 62
   255
 39
0.400
  6
CONTINUOUS
 10
189.93462
 20
5.51967
 30
 0
 11
188.90942
 21
3.21297
  0
ARC
  8
Gravur
 62
   255
 39
0.400
  6
CONTINUOUS
 10
188.51510
 20
3.38811
 30
 0
 40
0.43146
 50
269.41954
 51
336.05092
  0
LINE
  8
Gravur
 62
   255
 39
0.400
  6
CONTINUOUS
 10
192.43973
 20
5.80444
 30
 0
 11
193.00929
 21
6.37400
  0
LINE
  8
Gravur
 62
   255
 39
0.400
  6
CONTINUOUS
 10
193.00929
 20
6.37400
 30
 0
 11
193.00929
 21
3.81100
  0
LINE
  8
Gravur
 62
   255
 39
0.400
  6
CONTINUOUS
 10
213.34073
 20
6.37600
 30
 0
 11
215.04940
 21
6.37600
  0
LINE
  8
Gravur
 62
   255
 39
0.400
  6
CONTINUOUS
 10
215.04940
 20
6.37600
 30
 0
 11
214.19507
 21
6.37600
  0
LINE
  8
Gravur
 62
   255
 39
0.400
  6
CONTINUOUS
 10
214.19507
 20
6.37600
 30
 0
 11
214.19507
 21
3.81300
  0
LINE
  8
Gravur
 62
   255
 39
0.400
  6
CONTINUOUS
 10
217.21458
 20
5.52167
 30
 0
 11
217.21458
 21
4.52494
  0
ARC
  8
Gravur
 62
   255
 39
0.400
  6
CONTINUOUS
 10
216.47416
 20
4.52494
 30
 0
 40
0.74042
 50
-180.00000
 51
0.00000
  0
LINE
  8
Gravur
 62
   255
 39
0.400
  6
CONTINUOUS
 10
215.73373
 20
4.52494
 30
 0
 11
215.73373
 21
4.80972
  0
ARC
  8
Gravur
 62
   255
 39
0.400
  6
CONTINUOUS
 10
216.47416
 20
4.80972
 30
 0
 40
0.74042
 50
0.00000
 51
180.00000
  0
LINE
  8
Gravur
 62
   255
 39
0.400
  6
CONTINUOUS
 10
217.21458
 20
4.80972
 30
 0
 11
217.21458
 21
4.12626
  0
ARC
  8
Gravur
 62
   255
 39
0.400
  6
CONTINUOUS
 10
217.62746
 20
4.16455
 30
 0
 40
0.41466
 50
185.29897
 51
260.11981
  0
LINE
  8
Gravur
 62
   255
 39
0.400
  6
CONTINUOUS
 10
218.24073
 20
6.37600
 30
 0
 11
218.24073
 21
4.15473
  0
ARC
  8
Gravur
 62
   255
 39
0.400
  6
CONTINUOUS
 10
218.58805
 20
4.15464
 30
 0
 40
0.34731
 50
179.98432
 51
259.62682
  0
LINE
  8
Gravur
 62
   255
 39
0.400
  6
CONTINUOUS
 10
219.20973
 20
6.37500
 30
 0
 11
219.20973
 21
4.15373
  0
ARC
  8
Gravur
 62
   255
 39
0.400
  6
CONTINUOUS
 10
219.55705
 20
4.15364
 30
 0
 40
0.34731
 50
179.98432
 51
259.62682
  0
LINE
  8
Gravur
 62
   255
 39
0.400
  6
CONTINUOUS
 10
220.17773
 20
5.51967
 30
 0
 11
220.86120
 21
3.89643
  0
LINE
  8
Gravur
 62
   255
 39
0.400
  6
CONTINUOUS
 10
221.60162
 20
5.51967
 30
 0
 11
220.57642
 21
3.21297
  0
ARC
  8
Gravur
 62
   255
 39
0.400
  6
CONTINUOUS
 10
220.18210
 20
3.38811
 30
 0
 40
0.43146
 50
269.41954
 51
336.05092
  0
LINE
  8
Gravur
 62
   255
 39
0.400
  6
CONTINUOUS
 10
224.13521
 20
6.11770
 30
 0
 11
224.30608
 21
6.26009
  0
ARC
  8
Gravur
 62
   255
 39
0.400
  6
CONTINUOUS
 10
224.76778
 20
5.72506
 30
 0
 40
0.70669
 50
-40.79241
 51
130.79241
  0
LINE
  8
Gravur
 62
   255
 39
0.400
  6
CONTINUOUS
 10
225.30280
 20
5.26337
 30
 0
 11
224.10673
 21
3.81100
  0
LINE
  8
Gravur
 62
   255
 39
0.400
  6
CONTINUOUS
 10
224.10673
 20
3.81100
 30
 0
 11
225.53062
 21
3.81100
  0
LINE
  8
Gravur
 62
   255
 39
0.400
  6
CONTINUOUS
 10
277.52973
 20
6.37600
 30
 0
 11
279.23840
 21
6.37600
  0
LINE
  8
Gravur
 62
   255
 39
0.400
  6
CONTINUOUS
 10
279.23840
 20
6.37600
 30
 0
 11
278.38407
 21
6.37600
  0
LINE
  8
Gravur
 62
   255
 39
0.400
  6
CONTINUOUS
 10
278.38407
 20
6.37600
 30
 0
 11
278.38407
 21
3.81300
  0
LINE
  8
Gravur
 62
   255
 39
0.400
  6
CONTINUOUS
 10
281.40358
 20
5.52167
 30
 0
 11
281.40358
 21
4.52494
  0
ARC
  8
Gravur
 62
   255
 39
0.400
  6
CONTINUOUS
 10
280.66316
 20
4.52494
 30
 0
 40
0.74042
 50
-180.00000
 51
0.00000
  0
LINE
  8
Gravur
 62
   255
 39
0.400
  6
CONTINUOUS
 10
279.92273
 20
4.52494
 30
 0
 11
279.92273
 21
4.80972
  0
ARC
  8
Gravur
 62
   255
 39
0.400
  6
CONTINUOUS
 10
280.66316
 20
4.80972
 30
 0
 40
0.74042
 50
0.00000
 51
180.00000
  0
LINE
  8
Gravur
 62
   255
 39
0.400
  6
CONTINUOUS
 10
281.40358
 20
4.80972
 30
 0
 11
281.40358
 21
4.12626
  0
ARC
  8
Gravur
 62
   255
 39
0.400
  6
CONTINUOUS
 10
281.81646
 20
4.16455
 30
 0
 40
0.41466
 50
185.29897
 51
260.11981
  0
LINE
  8
Gravur
 62
   255
 39
0.400
  6
CONTINUOUS
 10
282.42973
 20
6.37600
 30
 0
 11
282.42973
 21
4.15473
  0
ARC
  8
Gravur
 62
   255
 39
0.400
  6
CONTINUOUS
 10
282.77705
 20
4.15464
 30
 0
 40
0.34731
 50
179.98432
 51
259.62682
  0
LINE
  8
Gravur
 62
   255
 39
0.400
  6
CONTINUOUS
 10
283.39873
 20
6.37500
 30
 0
 11
283.39873
 21
4.15373
  0
ARC
  8
Gravur
 62
   255
 39
0.400
  6
CONTINUOUS
 10
283.74605
 20
4.15364
 30
 0
 40
0.34731
 50
179.98432
 51
259.62682
  0
LINE
  8
Gravur
 62
   255
 39
0.400
  6
CONTINUOUS
 10
284.36673
 20
5.51967
 30
 0
 11
285.05020
 21
3.89643
  0
LINE
  8
Gravur
 62
   255
 39
0.400
  6
CONTINUOUS
 10
285.79062
 20
5.51967
 30
 0
 11
284.76542
 21
3.21297
  0
ARC
  8
Gravur
 62
   255
 39
0.400
  6
CONTINUOUS
 10
284.37110
 20
3.38811
 30
 0
 40
0.43146
 50
269.41954
 51
336.05092
  0
LINE
  8
Gravur
 62
   255
 39
0.400
  6
CONTINUOUS
 10
289.15007
 20
6.37400
 30
 0
 11
288.29573
 21
4.23817
  0
LINE
  8
Gravur
 62
   255
 39
0.400
  6
CONTINUOUS
 10
288.29573
 20
4.23817
 30
 0
 11
289.71962
 21
4.23817
  0
LINE
  8
Gravur
 62
   255
 39
0.400
  6
CONTINUOUS
 10
289.71962
 20
4.23817
 30
 0
 11
289.43484
 21
4.23817
  0
LINE
  8
Gravur
 62
   255
 39
0.400
  6
CONTINUOUS
 10
289.43484
 20
4.23817
 30
 0
 11
289.43484
 21
4.66533
  0
LINE
  8
Gravur
 62
   255
 39
0.400
  6
CONTINUOUS
 10
289.43484
 20
4.66533
 30
 0
 11
289.43484
 21
3.81100
  0
LINE
  8
Gravur
 62
   255
 39
0.400
  6
CONTINUOUS
 10
341.68873
 20
6.37600
 30
 0
 11
343.39740
 21
6.37600
  0
LINE
  8
Gravur
 62
   255
 39
0.400
  6
CONTINUOUS
 10
343.39740
 20
6.37600
 30
 0
 11
342.54307
 21
6.37600
  0
LINE
  8
Gravur
 62
   255
 39
0.400
  6
CONTINUOUS
 10
342.54307
 20
6.37600
 30
 0
 11
342.54307
 21
3.81300
  0
LINE
  8
Gravur
 62
   255
 39
0.400
  6
CONTINUOUS
 10
345.56258
 20
5.52167
 30
 0
 11
345.56258
 21
4.52494
  0
ARC
  8
Gravur
 62
   255
 39
0.400
  6
CONTINUOUS
 10
344.82216
 20
4.52494
 30
 0
 40
0.74042
 50
-180.00000
 51
0.00000
  0
LINE
  8
Gravur
 62
   255
 39
0.400
  6
CONTINUOUS
 10
344.08173
 20
4.52494
 30
 0
 11
344.08173
 21
4.80972
  0
ARC
  8
Gravur
 62
   255
 39
0.400
  6
CONTINUOUS
 10
344.82216
 20
4.80972
 30
 0
 40
0.74042
 50
0.00000
 51
180.00000
  0
LINE
  8
Gravur
 62
   255
 39
0.400
  6
CONTINUOUS
 10
345.56258
 20
4.80972
 30
 0
 11
345.56258
 21
4.12626
  0
ARC
  8
Gravur
 62
   255
 39
0.400
  6
CONTINUOUS
 10
345.97546
 20
4.16455
 30
 0
 40
0.41466
 50
185.29897
 51
260.11981
  0
LINE
  8
Gravur
 62
   255
 39
0.400
  6
CONTINUOUS
 10
346.58873
 20
6.37600
 30
 0
 11
346.58873
 21
4.15473
  0
ARC
  8
Gravur
 62
   255
 39
0.400
  6
CONTINUOUS
 10
346.93605
 20
4.15464
 30
 0
 40
0.34731
 50
179.98432
 51
259.62682
  0
LINE
  8
Gravur
 62
   255
 39
0.400
  6
CONTINUOUS
 10
347.55773
 20
6.37500
 30
 0
 11
347.55773
 21
4.15373
  0
ARC
  8
Gravur
 62
   255
 39
0.400
  6
CONTINUOUS
 10
347.90505
 20
4.15364
 30
 0
 40
0.34731
 50
179.98432
 51
259.62682
  0
LINE
  8
Gravur
 62
   255
 39
0.400
  6
CONTINUOUS
 10
348.52573
 20
5.51967
 30
 0
 11
349.20920
 21
3.89643
  0
LINE
  8
Gravur
 62
   255
 39
0.400
  6
CONTINUOUS
 10
349.94962
 20
5.51967
 30
 0
 11
348.92442
 21
3.21297
  0
ARC
  8
Gravur
 62
   255
 39
0.400
  6
CONTINUOUS
 10
348.53010
 20
3.38811
 30
 0
 40
0.43146
 50
269.41954
 51
336.05092
  0
ARC
  8
Gravur
 62
   255
 39
0.400
  6
CONTINUOUS
 10
353.19516
 20
4.63686
 30
 0
 40
0.74042
 50
0.00000
 51
180.00000
  0
LINE
  8
Gravur
 62
   255
 39
0.400
  6
CONTINUOUS
 10
353.93558
 20
4.63686
 30
 0
 11
353.93558
 21
4.49447
  0
ARC
  8
Gravur
 62
   255
 39
0.400
  6
CONTINUOUS
 10
353.19516
 20
4.49447
 30
 0
 40
0.74042
 50
-180.00000
 51
0.00000
  0
LINE
  8
Gravur
 62
   255
 39
0.400
  6
CONTINUOUS
 10
352.45473
 20
4.49447
 30
 0
 11
352.45473
 21
5.60510
  0
ARC
  8
Gravur
 62
   255
 39
0.400
  6
CONTINUOUS
 10
353.24350
 20
5.63657
 30
 0
 40
0.78940
 50
45.86651
 51
182.28449
  0
LINE
  8
Gravur
 62
   255
 39
0.400
  6
CONTINUOUS
 10
373.81273
 20
6.37600
 30
 0
 11
375.52140
 21
6.37600
  0
LINE
  8
Gravur
 62
   255
 39
0.400
  6
CONTINUOUS
 10
375.52140
 20
6.37600
 30
 0
 11
374.66707
 21
6.37600
  0
LINE
  8
Gravur
 62
   255
 39
0.400
  6
CONTINUOUS
 10
374.66707
 20
6.37600
 30
 0
 11
374.66707
 21
3.81300
  0
LINE
  8
Gravur
 62
   255
 39
0.400
  6
CONTINUOUS
 10
377.68658
 20
5.52167
 30
 0
 11
377.68658
 21
4.52494
  0
ARC
  8
Gravur
 62
   255
 39
0.400
  6
CONTINUOUS
 10
376.94616
 20
4.52494
 30
 0
 40
0.74042
 50
-180.00000
 51
0.00000
  0
LINE
  8
Gravur
 62
   255
 39
0.400
  6
CONTINUOUS
 10
376.20573
 20
4.52494
 30
 0
 11
376.20573
 21
4.80972
  0
ARC
  8
Gravur
 62
   255
 39
0.400
  6
CONTINUOUS
 10
376.94616
 20
4.80972
 30
 0
 40
0.74042
 50
0.00000
 51
180.00000
  0
LINE
  8
Gravur
 62
   255
 39
0.400
  6
CONTINUOUS
 10
377.68658
 20
4.80972
 30
 0
 11
377.68658
 21
4.12626
  0
ARC
  8
Gravur
 62
   255
 39
0.400
  6
CONTINUOUS
 10
378.09946
 20
4.16455
 30
 0
 40
0.41466
 50
185.29897
 51
260.11981
  0
LINE
  8
Gravur
 62
   255
 39
0.400
  6
CONTINUOUS
 10
378.71273
 20
6.37600
 30
 0
 11
378.71273
 21
4.15473
  0
ARC
  8
Gravur
 62
   255
 39
0.400
  6
CONTINUOUS
 10
379.06005
 20
4.15464
 30
 0
 40
0.34731
 50
179.98432
 51
259.62682
  0
LINE
  8
Gravur
 62
   255
 39
0.400
  6
CONTINUOUS
 10
379.68173
 20
6.37500
 30
 0
 11
379.68173
 21
4.15373
  0
ARC
  8
Gravur
 62
   255
 39
0.400
  6
CONTINUOUS
 10
380.02905
 20
4.15364
 30
 0
 40
0.34731
 50
179.98432
 51
259.62682
  0
LINE
  8
Gravur
 62
   255
 39
0.400
  6
CONTINUOUS
 10
380.64973
 20
5.51967
 30
 0
 11
381.33320
 21
3.89643
  0
LINE
  8
Gravur
 62
   255
 39
0.400
  6
CONTINUOUS
 10
382.07362
 20
5.51967
 30
 0
 11
381.04842
 21
3.21297
  0
ARC
  8
Gravur
 62
   255
 39
0.400
  6
CONTINUOUS
 10
380.65410
 20
3.38811
 30
 0
 40
0.43146
 50
269.41954
 51
336.05092
  0
LINE
  8
Gravur
 62
   255
 39
0.400
  6
CONTINUOUS
 10
384.57873
 20
5.94683
 30
 0
 11
384.57873
 21
6.37400
  0
LINE
  8
Gravur
 62
   255
 39
0.400
  6
CONTINUOUS
 10
384.57873
 20
6.37400
 30
 0
 11
386.00262
 21
6.37400
  0
LINE
  8
Gravur
 62
   255
 39
0.400
  6
CONTINUOUS
 10
386.00262
 20
6.37400
 30
 0
 11
384.86351
 21
3.81100
  0
LINE
  8
Gravur
 62
   255
 39
0.400
  6
CONTINUOUS
 10
309.60673
 20
6.37600
 30
 0
 11
311.31540
 21
6.37600
  0
LINE
  8
Gravur
 62
   255
 39
0.400
  6
CONTINUOUS
 10
311.31540
 20
6.37600
 30
 0
 11
310.46107
 21
6.37600
  0
LINE
  8
Gravur
 62
   255
 39
0.400
  6
CONTINUOUS
 10
310.46107
 20
6.37600
 30
 0
 11
310.46107
 21
3.81300
  0
LINE
  8
Gravur
 62
   255
 39
0.400
  6
CONTINUOUS
 10
313.48058
 20
5.52167
 30
 0
 11
313.48058
 21
4.52494
  0
ARC
  8
Gravur
 62
   255
 39
0.400
  6
CONTINUOUS
 10
312.74016
 20
4.52494
 30
 0
 40
0.74042
 50
-180.00000
 51
0.00000
  0
LINE
  8
Gravur
 62
   255
 39
0.400
  6
CONTINUOUS
 10
311.99973
 20
4.52494
 30
 0
 11
311.99973
 21
4.80972
  0
ARC
  8
Gravur
 62
   255
 39
0.400
  6
CONTINUOUS
 10
312.74016
 20
4.80972
 30
 0
 40
0.74042
 50
0.00000
 51
180.00000
  0
LINE
  8
Gravur
 62
   255
 39
0.400
  6
CONTINUOUS
 10
313.48058
 20
4.80972
 30
 0
 11
313.48058
 21
4.12626
  0
ARC
  8
Gravur
 62
   255
 39
0.400
  6
CONTINUOUS
 10
313.89346
 20
4.16455
 30
 0
 40
0.41466
 50
185.29897
 51
260.11981
  0
LINE
  8
Gravur
 62
   255
 39
0.400
  6
CONTINUOUS
 10
314.50673
 20
6.37600
 30
 0
 11
314.50673
 21
4.15473
  0
ARC
  8
Gravur
 62
   255
 39
0.400
  6
CONTINUOUS
 10
314.85405
 20
4.15464
 30
 0
 40
0.34731
 50
179.98432
 51
259.62682
  0
LINE
  8
Gravur
 62
   255
 39
0.400
  6
CONTINUOUS
 10
315.47573
 20
6.37500
 30
 0
 11
315.47573
 21
4.15373
  0
ARC
  8
Gravur
 62
   255
 39
0.400
  6
CONTINUOUS
 10
315.82305
 20
4.15364
 30
 0
 40
0.34731
 50
179.98432
 51
259.62682
  0
LINE
  8
Gravur
 62
   255
 39
0.400
  6
CONTINUOUS
 10
316.44373
 20
5.51967
 30
 0
 11
317.12720
 21
3.89643
  0
LINE
  8
Gravur
 62
   255
 39
0.400
  6
CONTINUOUS
 10
317.86762
 20
5.51967
 30
 0
 11
316.84242
 21
3.21297
  0
ARC
  8
Gravur
 62
   255
 39
0.400
  6
CONTINUOUS
 10
316.44810
 20
3.38811
 30
 0
 40
0.43146
 50
269.41954
 51
336.05092
  0
LINE
  8
Gravur
 62
   255
 39
0.400
  6
CONTINUOUS
 10
321.68271
 20
6.37400
 30
 0
 11
320.40121
 21
6.37400
  0
LINE
  8
Gravur
 62
   255
 39
0.400
  6
CONTINUOUS
 10
320.40121
 20
6.37400
 30
 0
 11
320.40121
 21
5.17793
  0
ARC
  8
Gravur
 62
   255
 39
0.400
  6
CONTINUOUS
 10
320.99724
 20
4.40573
 30
 0
 40
0.97548
 50
84.85750
 51
127.66291
  0
ARC
  8
Gravur
 62
   255
 39
0.400
  6
CONTINUOUS
 10
321.00692
 20
4.55686
 30
 0
 40
0.82410
 50
-44.24474
 51
84.58605
  0
ARC
  8
Gravur
 62
   255
 39
0.400
  6
CONTINUOUS
 10
321.04824
 20
4.52052
 30
 0
 40
0.76914
 50
208.56608
 51
315.54698
  0
LINE
  8
Gravur
 62
   255
 39
0.400
  6
CONTINUOUS
 10
245.47173
 20
6.37600
 30
 0
 11
247.18040
 21
6.37600
  0
LINE
  8
Gravur
 62
   255
 39
0.400
  6
CONTINUOUS
 10
247.18040
 20
6.37600
 30
 0
 11
246.32607
 21
6.37600
  0
LINE
  8
Gravur
 62
   255
 39
0.400
  6
CONTINUOUS
 10
246.32607
 20
6.37600
 30
 0
 11
246.32607
 21
3.81300
  0
LINE
  8
Gravur
 62
   255
 39
0.400
  6
CONTINUOUS
 10
249.34558
 20
5.52167
 30
 0
 11
249.34558
 21
4.52494
  0
ARC
  8
Gravur
 62
   255
 39
0.400
  6
CONTINUOUS
 10
248.60516
 20
4.52494
 30
 0
 40
0.74042
 50
-180.00000
 51
0.00000
  0
LINE
  8
Gravur
 62
   255
 39
0.400
  6
CONTINUOUS
 10
247.86473
 20
4.52494
 30
 0
 11
247.86473
 21
4.80972
  0
ARC
  8
Gravur
 62
   255
 39
0.400
  6
CONTINUOUS
 10
248.60516
 20
4.80972
 30
 0
 40
0.74042
 50
0.00000
 51
180.00000
  0
LINE
  8
Gravur
 62
   255
 39
0.400
  6
CONTINUOUS
 10
249.34558
 20
4.80972
 30
 0
 11
249.34558
 21
4.12626
  0
ARC
  8
Gravur
 62
   255
 39
0.400
  6
CONTINUOUS
 10
249.75846
 20
4.16455
 30
 0
 40
0.41466
 50
185.29897
 51
260.11981
  0
LINE
  8
Gravur
 62
   255
 39
0.400
  6
CONTINUOUS
 10
250.37173
 20
6.37600
 30
 0
 11
250.37173
 21
4.15473
  0
ARC
  8
Gravur
 62
   255
 39
0.400
  6
CONTINUOUS
 10
250.71905
 20
4.15464
 30
 0
 40
0.34731
 50
179.98432
 51
259.62682
  0
LINE
  8
Gravur
 62
   255
 39
0.400
  6
CONTINUOUS
 10
251.34073
 20
6.37500
 30
 0
 11
251.34073
 21
4.15373
  0
ARC
  8
Gravur
 62
   255
 39
0.400
  6
CONTINUOUS
 10
251.68805
 20
4.15364
 30
 0
 40
0.34731
 50
179.98432
 51
259.62682
  0
LINE
  8
Gravur
 62
   255
 39
0.400
  6
CONTINUOUS
 10
252.30873
 20
5.51967
 30
 0
 11
252.99220
 21
3.89643
  0
LINE
  8
Gravur
 62
   255
 39
0.400
  6
CONTINUOUS
 10
253.73262
 20
5.51967
 30
 0
 11
252.70742
 21
3.21297
  0
ARC
  8
Gravur
 62
   255
 39
0.400
  6
CONTINUOUS
 10
252.31310
 20
3.38811
 30
 0
 40
0.43146
 50
269.41954
 51
336.05092
  0
ARC
  8
Gravur
 62
   255
 39
0.400
  6
CONTINUOUS
 10
256.92609
 20
5.68320
 30
 0
 40
0.74777
 50
90.37438
 51
157.00576
  0
ARC
  8
Gravur
 62
   255
 39
0.400
  6
CONTINUOUS
 10
256.92120
 20
5.76173
 30
 0
 40
0.66923
 50
-90.00000
 51
90.00000
  0
ARC
  8
Gravur
 62
   255
 39
0.400
  6
CONTINUOUS
 10
256.92120
 20
4.42327
 30
 0
 40
0.66923
 50
-90.00000
 51
90.00000
  0
ARC
  8
Gravur
 62
   255
 39
0.400
  6
CONTINUOUS
 10
256.92509
 20
4.54588
 30
 0
 40
0.79185
 50
209.76844
 51
269.71869
  0
LINE
  8
Gravur
 62
   255
 39
0.400
  6
CONTINUOUS
 10
405.89273
 20
6.37600
 30
 0
 11
407.60140
 21
6.37600
  0
LINE
  8
Gravur
 62
   255
 39
0.400
  6
CONTINUOUS
 10
407.60140
 20
6.37600
 30
 0
 11
406.74707
 21
6.37600
  0
LINE
  8
Gravur
 62
   255
 39
0.400
  6
CONTINUOUS
 10
406.74707
 20
6.37600
 30
 0
 11
406.74707
 21
3.81300
  0
LINE
  8
Gravur
 62
   255
 39
0.400
  6
CONTINUOUS
 10
409.76658
 20
5.52167
 30
 0
 11
409.76658
 21
4.52494
  0
ARC
  8
Gravur
 62
   255
 39
0.400
  6
CONTINUOUS
 10
409.02616
 20
4.52494
 30
 0
 40
0.74042
 50
-180.00000
 51
0.00000
  0
LINE
  8
Gravur
 62
   255
 39
0.400
  6
CONTINUOUS
 10
408.28573
 20
4.52494
 30
 0
 11
408.28573
 21
4.80972
  0
ARC
  8
Gravur
 62
   255
 39
0.400
  6
CONTINUOUS
 10
409.02616
 20
4.80972
 30
 0
 40
0.74042
 50
0.00000
 51
180.00000
  0
LINE
  8
Gravur
 62
   255
 39
0.400
  6
CONTINUOUS
 10
409.76658
 20
4.80972
 30
 0
 11
409.76658
 21
4.12626
  0
ARC
  8
Gravur
 62
   255
 39
0.400
  6
CONTINUOUS
 10
410.17946
 20
4.16455
 30
 0
 40
0.41466
 50
185.29897
 51
260.11981
  0
LINE
  8
Gravur
 62
   255
 39
0.400
  6
CONTINUOUS
 10
410.79273
 20
6.37600
 30
 0
 11
410.79273
 21
4.15473
  0
ARC
  8
Gravur
 62
   255
 39
0.400
  6
CONTINUOUS
 10
411.14005
 20
4.15464
 30
 0
 40
0.34731
 50
179.98432
 51
259.62682
  0
LINE
  8
Gravur
 62
   255
 39
0.400
  6
CONTINUOUS
 10
411.76173
 20
6.37500
 30
 0
 11
411.76173
 21
4.15373
  0
ARC
  8
Gravur
 62
   255
 39
0.400
  6
CONTINUOUS
 10
412.10905
 20
4.15364
 30
 0
 40
0.34731
 50
179.98432
 51
259.62682
  0
LINE
  8
Gravur
 62
   255
 39
0.400
  6
CONTINUOUS
 10
412.72973
 20
5.51967
 30
 0
 11
413.41320
 21
3.89643
  0
LINE
  8
Gravur
 62
   255
 39
0.400
  6
CONTINUOUS
 10
414.15362
 20
5.51967
 30
 0
 11
413.12842
 21
3.21297
  0
ARC
  8
Gravur
 62
   255
 39
0.400
  6
CONTINUOUS
 10
412.73410
 20
3.38811
 30
 0
 40
0.43146
 50
269.41954
 51
336.05092
  0
ARC
  8
Gravur
 62
   255
 39
0.400
  6
CONTINUOUS
 10
417.39916
 20
4.49447
 30
 0
 40
0.74042
 50
-90.00000
 51
90.00000
  0
ARC
  8
Gravur
 62
   255
 39
0.400
  6
CONTINUOUS
 10
417.39916
 20
4.49447
 30
 0
 40
0.74042
 50
90.00000
 51
270.00000
  0
ARC
  8
Gravur
 62
   255
 39
0.400
  6
CONTINUOUS
 10
417.39916
 20
5.83292
 30
 0
 40
0.59803
 50
270.00000
 51
450.00000
  0
ARC
  8
Gravur
 62
   255
 39
0.400
  6
CONTINUOUS
 10
417.39916
 20
5.83292
 30
 0
 40
0.59803
 50
90.00000
 51
270.00000
  0
CIRCLE
  8
Kontur
 62
   7
 39
0.100
  6
CONTINUOUS
 10
30.50000
 20
22.82700
 30
 0
 40
11.80000
  0
CIRCLE
  8
Kontur
 62
   7
 39
0.100
  6
CONTINUOUS
 10
40.00000
 20
10.82600
 30
 0
 40
1.55000
  0
CIRCLE
  8
Kontur
 62
   7
 39
0.100
  6
CONTINUOUS
 10
21.00000
 20
34.82800
 30
 0
 40
1.55000
  0
CIRCLE
  8
Kontur
 62
   7
 39
0.100
  6
CONTINUOUS
 10
78.66700
 20
22.82700
 30
 0
 40
11.80000
  0
CIRCLE
  8
Kontur
 62
   7
 39
0.100
  6
CONTINUOUS
 10
88.16700
 20
10.82600
 30
 0
 40
1.55000
  0
CIRCLE
  8
Kontur
 62
   7
 39
0.100
  6
CONTINUOUS
 10
69.16700
 20
34.82800
 30
 0
 40
1.55000
  0
CIRCLE
  8
Kontur
 62
   7
 39
0.100
  6
CONTINUOUS
 10
187.33300
 20
22.82700
 30
 0
 40
11.80000
  0
CIRCLE
  8
Kontur
 62
   7
 39
0.100
  6
CONTINUOUS
 10
196.83300
 20
10.82600
 30
 0
 40
1.55000
  0
CIRCLE
  8
Kontur
 62
   7
 39
0.100
  6
CONTINUOUS
 10
177.83300
 20
34.82800
 30
 0
 40
1.55000
  0
CIRCLE
  8
Kontur
 62
   7
 39
0.100
  6
CONTINUOUS
 10
219.42800
 20
22.82700
 30
 0
 40
11.80000
  0
CIRCLE
  8
Kontur
 62
   7
 39
0.100
  6
CONTINUOUS
 10
228.92800
 20
10.82600
 30
 0
 40
1.55000
  0
CIRCLE
  8
Kontur
 62
   7
 39
0.100
  6
CONTINUOUS
 10
209.92800
 20
34.82800
 30
 0
 40
1.55000
  0
CIRCLE
  8
Kontur
 62
   7
 39
0.100
  6
CONTINUOUS
 10
315.71400
 20
22.82700
 30
 0
 40
11.80000
  0
CIRCLE
  8
Kontur
 62
   7
 39
0.100
  6
CONTINUOUS
 10
325.21400
 20
10.82600
 30
 0
 40
1.55000
  0
CIRCLE
  8
Kontur
 62
   7
 39
0.100
  6
CONTINUOUS
 10
306.21400
 20
34.82800
 30
 0
 40
1.55000
  0
CIRCLE
  8
Kontur
 62
   7
 39
0.100
  6
CONTINUOUS
 10
283.61900
 20
22.82700
 30
 0
 40
11.80000
  0
CIRCLE
  8
Kontur
 62
   7
 39
0.100
  6
CONTINUOUS
 10
293.11900
 20
10.82600
 30
 0
 40
1.55000
  0
CIRCLE
  8
Kontur
 62
   7
 39
0.100
  6
CONTINUOUS
 10
274.11900
 20
34.82800
 30
 0
 40
1.55000
  0
CIRCLE
  8
Kontur
 62
   7
 39
0.100
  6
CONTINUOUS
 10
251.52400
 20
22.82700
 30
 0
 40
11.80000
  0
CIRCLE
  8
Kontur
 62
   7
 39
0.100
  6
CONTINUOUS
 10
261.02400
 20
10.82600
 30
 0
 40
1.55000
  0
CIRCLE
  8
Kontur
 62
   7
 39
0.100
  6
CONTINUOUS
 10
242.02400
 20
34.82800
 30
 0
 40
1.55000
  0
CIRCLE
  8
Kontur
 62
   7
 39
0.100
  6
CONTINUOUS
 10
347.80900
 20
22.82700
 30
 0
 40
11.80000
  0
CIRCLE
  8
Kontur
 62
   7
 39
0.100
  6
CONTINUOUS
 10
357.30900
 20
10.82600
 30
 0
 40
1.55000
  0
CIRCLE
  8
Kontur
 62
   7
 39
0.100
  6
CONTINUOUS
 10
338.30900
 20
34.82800
 30
 0
 40
1.55000
  0
CIRCLE
  8
Kontur
 62
   7
 39
0.100
  6
CONTINUOUS
 10
379.90500
 20
22.82700
 30
 0
 40
11.80000
  0
CIRCLE
  8
Kontur
 62
   7
 39
0.100
  6
CONTINUOUS
 10
389.40500
 20
10.82600
 30
 0
 40
1.55000
  0
CIRCLE
  8
Kontur
 62
   7
 39
0.100
  6
CONTINUOUS
 10
370.40500
 20
34.82800
 30
 0
 40
1.55000
  0
CIRCLE
  8
Kontur
 62
   7
 39
0.100
  6
CONTINUOUS
 10
412.00000
 20
22.82700
 30
 0
 40
11.80000
  0
CIRCLE
  8
Kontur
 62
   7
 39
0.100
  6
CONTINUOUS
 10
421.50000
 20
10.82600
 30
 0
 40
1.55000
  0
CIRCLE
  8
Kontur
 62
   7
 39
0.100
  6
CONTINUOUS
 10
402.50000
 20
34.82800
 30
 0
 40
1.55000
  0
LINE
  8
Bezugspunkte
 62
   1
 39
0.100
  6
CONTINUOUS
 10
-2.26000
 20
0.00000
 30
 0
 11
2.26000
 21
0.00000
  0
LINE
  8
Bezugspunkte
 62
   1
 39
0.100
  6
CONTINUOUS
 10
0.00000
 20
-2.26000
 30
 0
 11
0.00000
 21
2.26000
  0
LINE
  8
Bezugspunkte
 62
   1
 39
0.100
  6
CONTINUOUS
 10
28.24000
 20
22.82700
 30
 0
 11
32.76000
 21
22.82700
  0
LINE
  8
Bezugspunkte
 62
   1
 39
0.100
  6
CONTINUOUS
 10
30.50000
 20
20.56700
 30
 0
 11
30.50000
 21
25.08700
  0
LINE
  8
Bezugspunkte
 62
   1
 39
0.100
  6
CONTINUOUS
 10
37.74000
 20
10.82600
 30
 0
 11
42.26000
 21
10.82600
  0
LINE
  8
Bezugspunkte
 62
   1
 39
0.100
  6
CONTINUOUS
 10
40.00000
 20
8.56600
 30
 0
 11
40.00000
 21
13.08600
  0
LINE
  8
Bezugspunkte
 62
   1
 39
0.100
  6
CONTINUOUS
 10
18.74000
 20
34.82800
 30
 0
 11
23.26000
 21
34.82800
  0
LINE
  8
Bezugspunkte
 62
   1
 39
0.100
  6
CONTINUOUS
 10
21.00000
 20
32.56800
 30
 0
 11
21.00000
 21
37.08800
  0
LINE
  8
Bezugspunkte
 62
   1
 39
0.100
  6
CONTINUOUS
 10
28.24000
 20
22.82700
 30
 0
 11
32.76000
 21
22.82700
  0
LINE
  8
Bezugspunkte
 62
   1
 39
0.100
  6
CONTINUOUS
 10
30.50000
 20
20.56700
 30
 0
 11
30.50000
 21
25.08700
  0
LINE
  8
Bezugspunkte
 62
   1
 39
0.100
  6
CONTINUOUS
 10
28.24000
 20
22.82700
 30
 0
 11
32.76000
 21
22.82700
  0
LINE
  8
Bezugspunkte
 62
   1
 39
0.100
  6
CONTINUOUS
 10
30.50000
 20
20.56700
 30
 0
 11
30.50000
 21
25.08700
  0
LINE
  8
Bezugspunkte
 62
   1
 39
0.100
  6
CONTINUOUS
 10
76.40700
 20
22.82700
 30
 0
 11
80.92700
 21
22.82700
  0
LINE
  8
Bezugspunkte
 62
   1
 39
0.100
  6
CONTINUOUS
 10
78.66700
 20
20.56700
 30
 0
 11
78.66700
 21
25.08700
  0
LINE
  8
Bezugspunkte
 62
   1
 39
0.100
  6
CONTINUOUS
 10
85.90700
 20
10.82600
 30
 0
 11
90.42700
 21
10.82600
  0
LINE
  8
Bezugspunkte
 62
   1
 39
0.100
  6
CONTINUOUS
 10
88.16700
 20
8.56600
 30
 0
 11
88.16700
 21
13.08600
  0
LINE
  8
Bezugspunkte
 62
   1
 39
0.100
  6
CONTINUOUS
 10
66.90700
 20
34.82800
 30
 0
 11
71.42700
 21
34.82800
  0
LINE
  8
Bezugspunkte
 62
   1
 39
0.100
  6
CONTINUOUS
 10
69.16700
 20
32.56800
 30
 0
 11
69.16700
 21
37.08800
  0
LINE
  8
Bezugspunkte
 62
   1
 39
0.100
  6
CONTINUOUS
 10
76.40700
 20
22.82700
 30
 0
 11
80.92700
 21
22.82700
  0
LINE
  8
Bezugspunkte
 62
   1
 39
0.100
  6
CONTINUOUS
 10
78.66700
 20
20.56700
 30
 0
 11
78.66700
 21
25.08700
  0
LINE
  8
Bezugspunkte
 62
   1
 39
0.100
  6
CONTINUOUS
 10
76.40700
 20
22.82700
 30
 0
 11
80.92700
 21
22.82700
  0
LINE
  8
Bezugspunkte
 62
   1
 39
0.100
  6
CONTINUOUS
 10
78.66700
 20
20.56700
 30
 0
 11
78.66700
 21
25.08700
  0
LINE
  8
Bezugspunkte
 62
   1
 39
0.100
  6
CONTINUOUS
 10
185.07300
 20
22.82700
 30
 0
 11
189.59300
 21
22.82700
  0
LINE
  8
Bezugspunkte
 62
   1
 39
0.100
  6
CONTINUOUS
 10
187.33300
 20
20.56700
 30
 0
 11
187.33300
 21
25.08700
  0
LINE
  8
Bezugspunkte
 62
   1
 39
0.100
  6
CONTINUOUS
 10
194.57300
 20
10.82600
 30
 0
 11
199.09300
 21
10.82600
  0
LINE
  8
Bezugspunkte
 62
   1
 39
0.100
  6
CONTINUOUS
 10
196.83300
 20
8.56600
 30
 0
 11
196.83300
 21
13.08600
  0
LINE
  8
Bezugspunkte
 62
   1
 39
0.100
  6
CONTINUOUS
 10
175.57300
 20
34.82800
 30
 0
 11
180.09300
 21
34.82800
  0
LINE
  8
Bezugspunkte
 62
   1
 39
0.100
  6
CONTINUOUS
 10
177.83300
 20
32.56800
 30
 0
 11
177.83300
 21
37.08800
  0
LINE
  8
Bezugspunkte
 62
   1
 39
0.100
  6
CONTINUOUS
 10
185.07300
 20
22.82700
 30
 0
 11
189.59300
 21
22.82700
  0
LINE
  8
Bezugspunkte
 62
   1
 39
0.100
  6
CONTINUOUS
 10
187.33300
 20
20.56700
 30
 0
 11
187.33300
 21
25.08700
  0
LINE
  8
Bezugspunkte
 62
   1
 39
0.100
  6
CONTINUOUS
 10
185.07300
 20
22.82700
 30
 0
 11
189.59300
 21
22.82700
  0
LINE
  8
Bezugspunkte
 62
   1
 39
0.100
  6
CONTINUOUS
 10
187.33300
 20
20.56700
 30
 0
 11
187.33300
 21
25.08700
  0
LINE
  8
Bezugspunkte
 62
   1
 39
0.100
  6
CONTINUOUS
 10
217.16800
 20
22.82700
 30
 0
 11
221.68800
 21
22.82700
  0
LINE
  8
Bezugspunkte
 62
   1
 39
0.100
  6
CONTINUOUS
 10
219.42800
 20
20.56700
 30
 0
 11
219.42800
 21
25.08700
  0
LINE
  8
Bezugspunkte
 62
   1
 39
0.100
  6
CONTINUOUS
 10
226.66800
 20
10.82600
 30
 0
 11
231.18800
 21
10.82600
  0
LINE
  8
Bezugspunkte
 62
   1
 39
0.100
  6
CONTINUOUS
 10
228.92800
 20
8.56600
 30
 0
 11
228.92800
 21
13.08600
  0
LINE
  8
Bezugspunkte
 62
   1
 39
0.100
  6
CONTINUOUS
 10
207.66800
 20
34.82800
 30
 0
 11
212.18800
 21
34.82800
  0
LINE
  8
Bezugspunkte
 62
   1
 39
0.100
  6
CONTINUOUS
 10
209.92800
 20
32.56800
 30
 0
 11
209.92800
 21
37.08800
  0
LINE
  8
Bezugspunkte
 62
   1
 39
0.100
  6
CONTINUOUS
 10
217.16800
 20
22.82700
 30
 0
 11
221.68800
 21
22.82700
  0
LINE
  8
Bezugspunkte
 62
   1
 39
0.100
  6
CONTINUOUS
 10
219.42800
 20
20.56700
 30
 0
 11
219.42800
 21
25.08700
  0
LINE
  8
Bezugspunkte
 62
   1
 39
0.100
  6
CONTINUOUS
 10
217.16800
 20
22.82700
 30
 0
 11
221.68800
 21
22.82700
  0
LINE
  8
Bezugspunkte
 62
   1
 39
0.100
  6
CONTINUOUS
 10
219.42800
 20
20.56700
 30
 0
 11
219.42800
 21
25.08700
  0
LINE
  8
Bezugspunkte
 62
   1
 39
0.100
  6
CONTINUOUS
 10
313.45400
 20
22.82700
 30
 0
 11
317.97400
 21
22.82700
  0
LINE
  8
Bezugspunkte
 62
   1
 39
0.100
  6
CONTINUOUS
 10
315.71400
 20
20.56700
 30
 0
 11
315.71400
 21
25.08700
  0
LINE
  8
Bezugspunkte
 62
   1
 39
0.100
  6
CONTINUOUS
 10
322.95400
 20
10.82600
 30
 0
 11
327.47400
 21
10.82600
  0
LINE
  8
Bezugspunkte
 62
   1
 39
0.100
  6
CONTINUOUS
 10
325.21400
 20
8.56600
 30
 0
 11
325.21400
 21
13.08600
  0
LINE
  8
Bezugspunkte
 62
   1
 39
0.100
  6
CONTINUOUS
 10
303.95400
 20
34.82800
 30
 0
 11
308.47400
 21
34.82800
  0
LINE
  8
Bezugspunkte
 62
   1
 39
0.100
  6
CONTINUOUS
 10
306.21400
 20
32.56800
 30
 0
 11
306.21400
 21
37.08800
  0
LINE
  8
Bezugspunkte
 62
   1
 39
0.100
  6
CONTINUOUS
 10
313.45400
 20
22.82700
 30
 0
 11
317.97400
 21
22.82700
  0
LINE
  8
Bezugspunkte
 62
   1
 39
0.100
  6
CONTINUOUS
 10
315.71400
 20
20.56700
 30
 0
 11
315.71400
 21
25.08700
  0
LINE
  8
Bezugspunkte
 62
   1
 39
0.100
  6
CONTINUOUS
 10
313.45400
 20
22.82700
 30
 0
 11
317.97400
 21
22.82700
  0
LINE
  8
Bezugspunkte
 62
   1
 39
0.100
  6
CONTINUOUS
 10
315.71400
 20
20.56700
 30
 0
 11
315.71400
 21
25.08700
  0
LINE
  8
Bezugspunkte
 62
   1
 39
0.100
  6
CONTINUOUS
 10
281.35900
 20
22.82700
 30
 0
 11
285.87900
 21
22.82700
  0
LINE
  8
Bezugspunkte
 62
   1
 39
0.100
  6
CONTINUOUS
 10
283.61900
 20
20.56700
 30
 0
 11
283.61900
 21
25.08700
  0
LINE
  8
Bezugspunkte
 62
   1
 39
0.100
  6
CONTINUOUS
 10
290.85900
 20
10.82600
 30
 0
 11
295.37900
 21
10.82600
  0
LINE
  8
Bezugspunkte
 62
   1
 39
0.100
  6
CONTINUOUS
 10
293.11900
 20
8.56600
 30
 0
 11
293.11900
 21
13.08600
  0
LINE
  8
Bezugspunkte
 62
   1
 39
0.100
  6
CONTINUOUS
 10
271.85900
 20
34.82800
 30
 0
 11
276.37900
 21
34.82800
  0
LINE
  8
Bezugspunkte
 62
   1
 39
0.100
  6
CONTINUOUS
 10
274.11900
 20
32.56800
 30
 0
 11
274.11900
 21
37.08800
  0
LINE
  8
Bezugspunkte
 62
   1
 39
0.100
  6
CONTINUOUS
 10
281.35900
 20
22.82700
 30
 0
 11
285.87900
 21
22.82700
  0
LINE
  8
Bezugspunkte
 62
   1
 39
0.100
  6
CONTINUOUS
 10
283.61900
 20
20.56700
 30
 0
 11
283.61900
 21
25.08700
  0
LINE
  8
Bezugspunkte
 62
   1
 39
0.100
  6
CONTINUOUS
 10
281.35900
 20
22.82700
 30
 0
 11
285.87900
 21
22.82700
  0
LINE
  8
Bezugspunkte
 62
   1
 39
0.100
  6
CONTINUOUS
 10
283.61900
 20
20.56700
 30
 0
 11
283.61900
 21
25.08700
  0
LINE
  8
Bezugspunkte
 62
   1
 39
0.100
  6
CONTINUOUS
 10
249.26400
 20
22.82700
 30
 0
 11
253.78400
 21
22.82700
  0
LINE
  8
Bezugspunkte
 62
   1
 39
0.100
  6
CONTINUOUS
 10
251.52400
 20
20.56700
 30
 0
 11
251.52400
 21
25.08700
  0
LINE
  8
Bezugspunkte
 62
   1
 39
0.100
  6
CONTINUOUS
 10
258.76400
 20
10.82600
 30
 0
 11
263.28400
 21
10.82600
  0
LINE
  8
Bezugspunkte
 62
   1
 39
0.100
  6
CONTINUOUS
 10
261.02400
 20
8.56600
 30
 0
 11
261.02400
 21
13.08600
  0
LINE
  8
Bezugspunkte
 62
   1
 39
0.100
  6
CONTINUOUS
 10
239.76400
 20
34.82800
 30
 0
 11
244.28400
 21
34.82800
  0
LINE
  8
Bezugspunkte
 62
   1
 39
0.100
  6
CONTINUOUS
 10
242.02400
 20
32.56800
 30
 0
 11
242.02400
 21
37.08800
  0
LINE
  8
Bezugspunkte
 62
   1
 39
0.100
  6
CONTINUOUS
 10
249.26400
 20
22.82700
 30
 0
 11
253.78400
 21
22.82700
  0
LINE
  8
Bezugspunkte
 62
   1
 39
0.100
  6
CONTINUOUS
 10
251.52400
 20
20.56700
 30
 0
 11
251.52400
 21
25.08700
  0
LINE
  8
Bezugspunkte
 62
   1
 39
0.100
  6
CONTINUOUS
 10
249.26400
 20
22.82700
 30
 0
 11
253.78400
 21
22.82700
  0
LINE
  8
Bezugspunkte
 62
   1
 39
0.100
  6
CONTINUOUS
 10
251.52400
 20
20.56700
 30
 0
 11
251.52400
 21
25.08700
  0
LINE
  8
Bezugspunkte
 62
   1
 39
0.100
  6
CONTINUOUS
 10
345.54900
 20
22.82700
 30
 0
 11
350.06900
 21
22.82700
  0
LINE
  8
Bezugspunkte
 62
   1
 39
0.100
  6
CONTINUOUS
 10
347.80900
 20
20.56700
 30
 0
 11
347.80900
 21
25.08700
  0
LINE
  8
Bezugspunkte
 62
   1
 39
0.100
  6
CONTINUOUS
 10
355.04900
 20
10.82600
 30
 0
 11
359.56900
 21
10.82600
  0
LINE
  8
Bezugspunkte
 62
   1
 39
0.100
  6
CONTINUOUS
 10
357.30900
 20
8.56600
 30
 0
 11
357.30900
 21
13.08600
  0
LINE
  8
Bezugspunkte
 62
   1
 39
0.100
  6
CONTINUOUS
 10
336.04900
 20
34.82800
 30
 0
 11
340.56900
 21
34.82800
  0
LINE
  8
Bezugspunkte
 62
   1
 39
0.100
  6
CONTINUOUS
 10
338.30900
 20
32.56800
 30
 0
 11
338.30900
 21
37.08800
  0
LINE
  8
Bezugspunkte
 62
   1
 39
0.100
  6
CONTINUOUS
 10
345.54900
 20
22.82700
 30
 0
 11
350.06900
 21
22.82700
  0
LINE
  8
Bezugspunkte
 62
   1
 39
0.100
  6
CONTINUOUS
 10
347.80900
 20
20.56700
 30
 0
 11
347.80900
 21
25.08700
  0
LINE
  8
Bezugspunkte
 62
   1
 39
0.100
  6
CONTINUOUS
 10
345.54900
 20
22.82700
 30
 0
 11
350.06900
 21
22.82700
  0
LINE
  8
Bezugspunkte
 62
   1
 39
0.100
  6
CONTINUOUS
 10
347.80900
 20
20.56700
 30
 0
 11
347.80900
 21
25.08700
  0
LINE
  8
Bezugspunkte
 62
   1
 39
0.100
  6
CONTINUOUS
 10
377.64500
 20
22.82700
 30
 0
 11
382.16500
 21
22.82700
  0
LINE
  8
Bezugspunkte
 62
   1
 39
0.100
  6
CONTINUOUS
 10
379.90500
 20
20.56700
 30
 0
 11
379.90500
 21
25.08700
  0
LINE
  8
Bezugspunkte
 62
   1
 39
0.100
  6
CONTINUOUS
 10
387.14500
 20
10.82600
 30
 0
 11
391.66500
 21
10.82600
  0
LINE
  8
Bezugspunkte
 62
   1
 39
0.100
  6
CONTINUOUS
 10
389.40500
 20
8.56600
 30
 0
 11
389.40500
 21
13.08600
  0
LINE
  8
Bezugspunkte
 62
   1
 39
0.100
  6
CONTINUOUS
 10
368.14500
 20
34.82800
 30
 0
 11
372.66500
 21
34.82800
  0
LINE
  8
Bezugspunkte
 62
   1
 39
0.100
  6
CONTINUOUS
 10
370.40500
 20
32.56800
 30
 0
 11
370.40500
 21
37.08800
  0
LINE
  8
Bezugspunkte
 62
   1
 39
0.100
  6
CONTINUOUS
 10
377.64500
 20
22.82700
 30
 0
 11
382.16500
 21
22.82700
  0
LINE
  8
Bezugspunkte
 62
   1
 39
0.100
  6
CONTINUOUS
 10
379.90500
 20
20.56700
 30
 0
 11
379.90500
 21
25.08700
  0
LINE
  8
Bezugspunkte
 62
   1
 39
0.100
  6
CONTINUOUS
 10
377.64500
 20
22.82700
 30
 0
 11
382.16500
 21
22.82700
  0
LINE
  8
Bezugspunkte
 62
   1
 39
0.100
  6
CONTINUOUS
 10
379.90500
 20
20.56700
 30
 0
 11
379.90500
 21
25.08700
  0
LINE
  8
Bezugspunkte
 62
   1
 39
0.100
  6
CONTINUOUS
 10
409.74000
 20
22.82700
 30
 0
 11
414.26000
 21
22.82700
  0
LINE
  8
Bezugspunkte
 62
   1
 39
0.100
  6
CONTINUOUS
 10
412.00000
 20
20.56700
 30
 0
 11
412.00000
 21
25.08700
  0
LINE
  8
Bezugspunkte
 62
   1
 39
0.100
  6
CONTINUOUS
 10
419.24000
 20
10.82600
 30
 0
 11
423.76000
 21
10.82600
  0
LINE
  8
Bezugspunkte
 62
   1
 39
0.100
  6
CONTINUOUS
 10
421.50000
 20
8.56600
 30
 0
 11
421.50000
 21
13.08600
  0
LINE
  8
Bezugspunkte
 62
   1
 39
0.100
  6
CONTINUOUS
 10
400.24000
 20
34.82800
 30
 0
 11
404.76000
 21
34.82800
  0
LINE
  8
Bezugspunkte
 62
   1
 39
0.100
  6
CONTINUOUS
 10
402.50000
 20
32.56800
 30
 0
 11
402.50000
 21
37.08800
  0
LINE
  8
Bezugspunkte
 62
   1
 39
0.100
  6
CONTINUOUS
 10
409.74000
 20
22.82700
 30
 0
 11
414.26000
 21
22.82700
  0
LINE
  8
Bezugspunkte
 62
   1
 39
0.100
  6
CONTINUOUS
 10
412.00000
 20
20.56700
 30
 0
 11
412.00000
 21
25.08700
  0
LINE
  8
Bezugspunkte
 62
   1
 39
0.100
  6
CONTINUOUS
 10
409.74000
 20
22.82700
 30
 0
 11
414.26000
 21
22.82700
  0
LINE
  8
Bezugspunkte
 62
   1
 39
0.100
  6
CONTINUOUS
 10
412.00000
 20
20.56700
 30
 0
 11
412.00000
 21
25.08700
  0
LINE
  8
Bezugspunkte
 62
   1
 39
0.100
  6
CONTINUOUS
 10
22.10100
 20
3.46600
 30
 0
 11
26.62100
 21
3.46600
  0
LINE
  8
Bezugspunkte
 62
   1
 39
0.100
  6
CONTINUOUS
 10
24.36100
 20
1.20600
 30
 0
 11
24.36100
 21
5.72600
  0
LINE
  8
Bezugspunkte
 62
   1
 39
0.100
  6
CONTINUOUS
 10
69.38200
 20
2.49400
 30
 0
 11
73.90200
 21
2.49400
  0
LINE
  8
Bezugspunkte
 62
   1
 39
0.100
  6
CONTINUOUS
 10
71.64200
 20
0.23400
 30
 0
 11
71.64200
 21
4.75400
  0
LINE
  8
Bezugspunkte
 62
   1
 39
0.100
  6
CONTINUOUS
 10
185.08000
 20
3.61300
 30
 0
 11
189.60000
 21
3.61300
  0
LINE
  8
Bezugspunkte
 62
   1
 39
0.100
  6
CONTINUOUS
 10
187.34000
 20
1.35300
 30
 0
 11
187.34000
 21
5.87300
  0
LINE
  8
Bezugspunkte
 62
   1
 39
0.100
  6
CONTINUOUS
 10
217.17400
 20
3.61300
 30
 0
 11
221.69400
 21
3.61300
  0
LINE
  8
Bezugspunkte
 62
   1
 39
0.100
  6
CONTINUOUS
 10
219.43400
 20
1.35300
 30
 0
 11
219.43400
 21
5.87300
  0
LINE
  8
Bezugspunkte
 62
   1
 39
0.100
  6
CONTINUOUS
 10
281.36300
 20
3.61300
 30
 0
 11
285.88300
 21
3.61300
  0
LINE
  8
Bezugspunkte
 62
   1
 39
0.100
  6
CONTINUOUS
 10
283.62300
 20
1.35300
 30
 0
 11
283.62300
 21
5.87300
  0
LINE
  8
Bezugspunkte
 62
   1
 39
0.100
  6
CONTINUOUS
 10
345.55100
 20
3.61300
 30
 0
 11
350.07100
 21
3.61300
  0
LINE
  8
Bezugspunkte
 62
   1
 39
0.100
  6
CONTINUOUS
 10
347.81100
 20
1.35300
 30
 0
 11
347.81100
 21
5.87300
  0
LINE
  8
Bezugspunkte
 62
   1
 39
0.100
  6
CONTINUOUS
 10
377.64600
 20
3.61300
 30
 0
 11
382.16600
 21
3.61300
  0
LINE
  8
Bezugspunkte
 62
   1
 39
0.100
  6
CONTINUOUS
 10
379.90600
 20
1.35300
 30
 0
 11
379.90600
 21
5.87300
  0
LINE
  8
Bezugspunkte
 62
   1
 39
0.100
  6
CONTINUOUS
 10
313.45700
 20
3.61300
 30
 0
 11
317.97700
 21
3.61300
  0
LINE
  8
Bezugspunkte
 62
   1
 39
0.100
  6
CONTINUOUS
 10
315.71700
 20
1.35300
 30
 0
 11
315.71700
 21
5.87300
  0
LINE
  8
Bezugspunkte
 62
   1
 39
0.100
  6
CONTINUOUS
 10
249.26900
 20
3.61300
 30
 0
 11
253.78900
 21
3.61300
  0
LINE
  8
Bezugspunkte
 62
   1
 39
0.100
  6
CONTINUOUS
 10
251.52900
 20
1.35300
 30
 0
 11
251.52900
 21
5.87300
  0
LINE
  8
Bezugspunkte
 62
   1
 39
0.100
  6
CONTINUOUS
 10
409.74000
 20
3.61300
 30
 0
 11
414.26000
 21
3.61300
  0
LINE
  8
Bezugspunkte
 62
   1
 39
0.100
  6
CONTINUOUS
 10
412.00000
 20
1.35300
 30
 0
 11
412.00000
 21
5.87300
  0
ENDSEC
  0
EOF
