  0
SECTION
  2
HEADER
  9
$ACADVER
  1
AC1009
  9
$INSBASE
 10
0.0
 20
0.0
 30
0.0
  9
$EXTMIN
 10
0.0
 20
0.0
 30
0.0
  9
$EXTMAX
 10
420.0
 20
297.0
 30
0.0
  9
$LIMMIN
 10
0.0
 20
0.0
  9
$LIMMAX
 10
410.0
 20
287.0
  9
$ORTHOMODE
 70
     1
  9
$REGENMODE
 70
     1
  9
$FILLMODE
 70
     1
  9
$QTEXTMODE
 70
     0
  9
$MIRRTEXT
 70
     1
  9
$DRAGMODE
 70
     2
  9
$LTSCALE
 40
3.0
  9
$OSMODE
 70
    32
  9
$ATTMODE
 70
     1
  9
$TEXTSIZE
 40
2.5
  9
$TRACEWID
 40
26.0
  9
$TEXTSTYLE
  7
STANDARD
  9
$CLAYER
  8
BEM1
  9
$CELTYPE
  6
BYLAYER
  9
$CECOLOR
 62
   256
  9
$DIMSCALE
 40
1.0
  9
$DIMASZ
 40
3.5
  9
$DIMEXO
 40
0.8
  9
$DIMDLI
 40
8.0
  9
$DIMRND
 40
0.0
  9
$DIMDLE
 40
0.0
  9
$DIMEXE
 40
0.8
  9
$DIMTP
 40
0.0
  9
$DIMTM
 40
0.0
  9
$DIMTXT
 40
3.5
  9
$DIMCEN
 40
3.5
  9
$DIMTSZ
 40
0.0
  9
$DIMTOL
 70
     0
  9
$DIMLIM
 70
     0
  9
$DIMTIH
 70
     0
  9
$DIMTOH
 70
     0
  9
$DIMSE1
 70
     0
  9
$DIMSE2
 70
     0
  9
$DIMTAD
 70
     1
  9
$DIMZIN
 70
     0
  9
$DIMBLK
  1

  9
$DIMASO
 70
     0
  9
$DIMSHO
 70
     0
  9
$DIMPOST
  1

  9
$DIMAPOST
  1
DIMZIN 3 
  9
$DIMALT
 70
     1
  9
$DIMALTD
 70
     3
  9
$DIMALTF
 40
0.03937
  9
$DIMLFAC
 40
0.333333
  9
$DIMTOFL
 70
     0
  9
$DIMTVP
 40
0.0
  9
$DIMTIX
 70
     0
  9
$DIMSOXD
 70
     0
  9
$DIMSAH
 70
     0
  9
$DIMBLK1
  1

  9
$DIMBLK2
  1

  9
$DIMSTYLE
  2
STANDARD
  9
$DIMCLRD
 70
   256
  9
$DIMCLRE
 70
   256
  9
$DIMCLRT
 70
     3
  9
$DIMTFAC
 40
1.0
  9
$DIMGAP
 40
1.0
  9
$LUNITS
 70
     2
  9
$LUPREC
 70
     2
  9
$SKETCHINC
 40
1.0
  9
$FILLETRAD
 40
0.6
  9
$AUNITS
 70
     0
  9
$AUPREC
 70
     0
  9
$MENU
  1
acad
  9
$ELEVATION
 40
0.0
  9
$PELEVATION
 40
0.0
  9
$THICKNESS
 40
0.0
  9
$LIMCHECK
 70
     0
  9
$BLIPMODE
 70
     0
  9
$CHAMFERA
 40
0.0
  9
$CHAMFERB
 40
0.0
  9
$SKPOLY
 70
     0
  9
$TDCREATE
 40
2449224.554964
  9
$TDUPDATE
 40
2451085.489479
  9
$TDINDWG
 40
0.113539
  9
$TDUSRTIMER
 40
0.113539
  9
$USRTIMER
 70
     1
  9
$ANGBASE
 50
0.0
  9
$ANGDIR
 70
     0
  9
$PDMODE
 70
     0
  9
$PDSIZE
 40
0.0
  9
$PLINEWID
 40
0.0
  9
$COORDS
 70
     2
  9
$SPLFRAME
 70
     0
  9
$SPLINETYPE
 70
     6
  9
$SPLINESEGS
 70
     8
  9
$ATTDIA
 70
     1
  9
$ATTREQ
 70
     1
  9
$HANDLING
 70
     1
  9
$HANDSEED
  5
59B
  9
$SURFTAB1
 70
     6
  9
$SURFTAB2
 70
     6
  9
$SURFTYPE
 70
     6
  9
$SURFU
 70
     6
  9
$SURFV
 70
     6
  9
$UCSNAME
  2

  9
$UCSORG
 10
0.0
 20
0.0
 30
0.0
  9
$UCSXDIR
 10
1.0
 20
0.0
 30
0.0
  9
$UCSYDIR
 10
0.0
 20
1.0
 30
0.0
  9
$PUCSNAME
  2

  9
$PUCSORG
 10
0.0
 20
0.0
 30
0.0
  9
$PUCSXDIR
 10
1.0
 20
0.0
 30
0.0
  9
$PUCSYDIR
 10
0.0
 20
1.0
 30
0.0
  9
$USERI1
 70
     0
  9
$USERI2
 70
     0
  9
$USERI3
 70
     0
  9
$USERI4
 70
     0
  9
$USERI5
 70
     0
  9
$USERR1
 40
0.0
  9
$USERR2
 40
0.0
  9
$USERR3
 40
0.0
  9
$USERR4
 40
0.0
  9
$USERR5
 40
0.0
  9
$WORLDVIEW
 70
     1
  9
$SHADEDGE
 70
     3
  9
$SHADEDIF
 70
    70
  9
$TILEMODE
 70
     1
  9
$MAXACTVP
 70
    16
  9
$PLIMCHECK
 70
     0
  9
$PEXTMIN
 10
1.000000E+020
 20
1.000000E+020
 30
1.000000E+020
  9
$PEXTMAX
 10
-1.000000E+020
 20
-1.000000E+020
 30
-1.000000E+020
  9
$PLIMMIN
 10
0.0
 20
0.0
  9
$PLIMMAX
 10
12.0
 20
9.0
  9
$UNITMODE
 70
     0
  9
$VISRETAIN
 70
     0
  9
$PLINEGEN
 70
     0
  9
$PSLTSCALE
 70
     0
  0
ENDSEC
  0
SECTION
  2
TABLES
  0
TABLE
  2
VPORT
 70
     2
  0
VPORT
  2
*ACTIVE
 70
     0
 10
0.0
 20
0.0
 11
1.0
 21
1.0
 12
224.904988
 22
148.500001
 13
0.0
 23
0.0
 14
1.0
 24
1.0
 15
2.0
 25
2.0
 16
0.0
 26
0.0
 36
1.0
 17
0.0
 27
0.0
 37
0.0
 40
299.361618
 41
1.525
 42
50.0
 43
0.0
 44
0.0
 50
0.0
 51
0.0
 71
     0
 72
  1000
 73
     1
 74
     0
 75
     0
 76
     0
 77
     0
 78
     0
  0
ENDTAB
  0
TABLE
  2
LTYPE
 70
     2
  0
LTYPE
  2
AUSGEZOGEN
 70
     0
  3
Ausgezogene Linie
 72
    65
 73
     0
 40
0.0
  0
LTYPE
  2
CENTER
 70
     0
  3
____ _ ____ _ ____ _ ____ _ ____ _ ____ _ ____
 72
    65
 73
     4
 40
2.0
 49
1.25
 49
-0.25
 49
0.25
 49
-0.25
  0
ENDTAB
  0
TABLE
  2
LAYER
 70
     7
  0
LAYER
  2
0
 70
     0
 62
     3
  6
AUSGEZOGEN
  0
LAYER
  2
05
 70
     0
 62
     2
  6
AUSGEZOGEN
  0
LAYER
  2
BEM1
 70
     0
 62
     4
  6
AUSGEZOGEN
  0
LAYER
  2
MITTE
 70
     0
 62
     4
  6
CENTER
  0
LAYER
  2
RAHMEN
 70
     0
 62
     2
  6
AUSGEZOGEN
  0
LAYER
  2
035
 70
     0
 62
     3
  6
AUSGEZOGEN
  0
LAYER
  2
025
 70
     0
 62
     4
  6
AUSGEZOGEN
  0
ENDTAB
  0
TABLE
  2
STYLE
 70
     4
  0
STYLE
  2
STANDARD
 70
     0
 40
2.5
 41
0.7
 50
15.0
 71
     0
 42
2.5
  3
txt
  4

  0
STYLE
  2
HELV
 70
     0
 40
0.0
 41
1.0
 50
0.0
 71
     0
 42
2.0
  3
helv
  4

  0
STYLE
  2
ARIAL
 70
     0
 40
3.5
 41
1.0
 50
15.0
 71
     0
 42
2.5
  3
txt
  4

  0
STYLE
  2
HELVL
 70
     0
 40
0.0
 41
1.0
 50
0.0
 71
     0
 42
18.0
  3
helvl
  4

  0
ENDTAB
  0
TABLE
  2
VIEW
 70
     0
  0
ENDTAB
  0
TABLE
  2
UCS
 70
     0
  0
ENDTAB
  0
TABLE
  2
APPID
 70
     1
  0
APPID
  2
ACAD
 70
     0
  0
ENDTAB
  0
TABLE
  2
DIMSTYLE
 70
     1
  0
DIMSTYLE
  2
STANDARD
 70
     0
  3

  4
DIMZIN 3 
  5

  6

  7

 40
1.0
 41
3.5
 42
0.8
 43
8.0
 44
0.8
 45
0.0
 46
0.0
 47
0.0
 48
0.0
140
3.5
141
3.5
142
0.0
143
0.03937
144
0.333333
145
0.0
146
1.0
147
1.0
 71
     0
 72
     0
 73
     0
 74
     0
 75
     0
 76
     0
 77
     1
 78
     0
170
     1
171
     3
172
     0
173
     0
174
     0
175
     0
176
   256
177
   256
178
     3
  0
ENDTAB
  0
ENDSEC
  0
SECTION
  2
BLOCKS
  0
BLOCK
  8
0
  2
$MODEL_SPACE
 70
     0
 10
0.0
 20
0.0
 30
0.0
  3
$MODEL_SPACE
  1

  0
ENDBLK
  5
6
  8
0
  0
BLOCK
 67
     1
  8
0
  2
$PAPER_SPACE
 70
     0
 10
0.0
 20
0.0
 30
0.0
  3
$PAPER_SPACE
  1

  0
ENDBLK
  5
9
 67
     1
  8
0
  0
BLOCK
  8
0
  2
ZKOPF
 70
     2
 10
0.0
 20
0.0
 30
0.0
  3
ZKOPF
  1

  0
ATTDEF
  5
55
  8
0
 62
     4
 10
-14.958333
 20
37.0
 30
0.0
 40
2.5
  1
Dobler
 72
     1
 11
-8.5
 21
37.0
 31
0.0
  3
Name des Konstrukteurs ?
  2
NAME
 70
     0
  0
POLYLINE
  5
56
  8
0
 62
     2
 66
     1
 10
0.0
 20
0.0
 30
0.0
  0
VERTEX
  5
4B1
  8
0
 62
     2
 10
-51.0
 20
0.0
 30
0.0
  0
VERTEX
  5
4B2
  8
0
 62
     2
 10
-51.0
 20
46.0
 30
0.0
  0
SEQEND
  5
4B3
  8
0
 62
     2
  0
POLYLINE
  5
57
  8
0
 62
     2
 66
     1
 10
0.0
 20
0.0
 30
0.0
  0
VERTEX
  5
4B4
  8
0
 62
     2
 10
-17.0
 20
9.0
 30
0.0
  0
VERTEX
  5
4B5
  8
0
 62
     2
 10
-17.0
 20
46.0
 30
0.0
  0
SEQEND
  5
4B6
  8
0
 62
     2
  0
POLYLINE
  5
58
  8
0
 62
     2
 66
     1
 10
0.0
 20
0.0
 30
0.0
  0
VERTEX
  5
4B7
  8
0
 62
     2
 10
-32.0
 20
26.0
 30
0.0
  0
VERTEX
  5
4B8
  8
0
 62
     2
 10
-32.0
 20
46.0
 30
0.0
  0
SEQEND
  5
4B9
  8
0
 62
     2
  0
POLYLINE
  5
59
  8
0
 62
     2
 66
     1
 10
0.0
 20
0.0
 30
0.0
  0
VERTEX
  5
4BA
  8
0
 62
     2
 10
-133.0
 20
41.0
 30
0.0
  0
VERTEX
  5
4BB
  8
0
 62
     2
 10
-92.0
 20
41.0
 30
0.0
  0
SEQEND
  5
4BC
  8
0
 62
     2
  0
POLYLINE
  5
5A
  8
0
 62
     2
 66
     1
 10
0.0
 20
0.0
 30
0.0
  0
VERTEX
  5
4BD
  8
0
 62
     2
 10
-145.0
 20
0.0
 30
0.0
  0
VERTEX
  5
4BE
  8
0
 62
     2
 10
-145.0
 20
46.0
 30
0.0
  0
SEQEND
  5
4BF
  8
0
 62
     2
  0
POLYLINE
  5
5B
  8
0
 62
     2
 66
     1
 10
0.0
 20
0.0
 30
0.0
  0
VERTEX
  5
4C0
  8
0
 62
     2
 10
-158.0
 20
0.0
 30
0.0
  0
VERTEX
  5
4C1
  8
0
 62
     2
 10
-158.0
 20
46.0
 30
0.0
  0
SEQEND
  5
4C2
  8
0
 62
     2
  0
LINE
  5
5C
  8
0
 62
     2
 10
-200.0
 20
6.0
 30
0.0
 11
-133.0
 21
6.0
 31
0.0
  0
POLYLINE
  5
5D
  8
0
 62
     4
 66
     1
 10
0.0
 20
0.0
 30
0.0
  0
VERTEX
  5
4C3
  8
0
 62
     4
 10
-200.0
 20
11.0
 30
0.0
  0
VERTEX
  5
4C4
  8
0
 62
     4
 10
-133.0
 20
11.0
 30
0.0
  0
SEQEND
  5
4C5
  8
0
 62
     4
  0
POLYLINE
  5
5E
  8
0
 62
     4
 66
     1
 10
0.0
 20
0.0
 30
0.0
  0
VERTEX
  5
4C6
  8
0
 62
     4
 10
-200.0
 20
16.0
 30
0.0
  0
VERTEX
  5
4C7
  8
0
 62
     4
 10
-133.0
 20
16.0
 30
0.0
  0
SEQEND
  5
4C8
  8
0
 62
     4
  0
POLYLINE
  5
5F
  8
0
 62
     4
 66
     1
 10
0.0
 20
0.0
 30
0.0
  0
VERTEX
  5
4C9
  8
0
 62
     4
 10
-200.0
 20
21.0
 30
0.0
  0
VERTEX
  5
4CA
  8
0
 62
     4
 10
-133.0
 20
21.0
 30
0.0
  0
SEQEND
  5
4CB
  8
0
 62
     4
  0
POLYLINE
  5
60
  8
0
 62
     4
 66
     1
 10
0.0
 20
0.0
 30
0.0
  0
VERTEX
  5
4CC
  8
0
 62
     4
 10
-200.0
 20
26.0
 30
0.0
  0
VERTEX
  5
4CD
  8
0
 62
     4
 10
-133.0
 20
26.0
 30
0.0
  0
SEQEND
  5
4CE
  8
0
 62
     4
  0
POLYLINE
  5
61
  8
0
 62
     4
 66
     1
 10
0.0
 20
0.0
 30
0.0
  0
VERTEX
  5
4CF
  8
0
 62
     4
 10
-200.0
 20
31.0
 30
0.0
  0
VERTEX
  5
4D0
  8
0
 62
     4
 10
-133.0
 20
31.0
 30
0.0
  0
SEQEND
  5
4D1
  8
0
 62
     4
  0
POLYLINE
  5
62
  8
0
 62
     4
 66
     1
 10
0.0
 20
0.0
 30
0.0
  0
VERTEX
  5
4D2
  8
0
 62
     4
 10
-200.0
 20
36.0
 30
0.0
  0
VERTEX
  5
4D3
  8
0
 62
     4
 10
-133.0
 20
36.0
 30
0.0
  0
SEQEND
  5
4D4
  8
0
 62
     4
  0
POLYLINE
  5
63
  8
0
 62
     4
 66
     1
 10
0.0
 20
0.0
 30
0.0
  0
VERTEX
  5
4D5
  8
0
 62
     4
 10
-200.0
 20
41.0
 30
0.0
  0
VERTEX
  5
4D6
  8
0
 62
     4
 10
-133.0
 20
41.0
 30
0.0
  0
SEQEND
  5
4D7
  8
0
 62
     4
  0
TEXT
  5
64
  8
0
 62
     4
 10
-50.0
 20
6.0
 30
0.0
 40
1.5
  1
Zeichn. Nr.
 51
15.0
  0
TEXT
  5
65
  8
0
 62
     4
 10
-50.0
 20
23.0
 30
0.0
 40
1.5
  1
Ersetzt durch:         Blatt
 51
15.0
  0
TEXT
  5
66
  8
0
 62
     4
 10
-50.0
 20
38.0
 30
0.0
 40
1.5
  1
Gezeichnet
 51
15.0
  0
TEXT
  5
67
  8
0
 62
     4
 10
-50.0
 20
27.0
 30
0.0
 40
1.5
  1
Gesehen
 51
15.0
  0
TEXT
  5
68
  8
0
 62
     4
 10
-31.0
 20
42.0
 30
0.0
 40
1.5
  1
Datum     Name
 51
15.0
  0
TEXT
  5
69
  8
0
 62
     4
 10
-91.0
 20
42.0
 30
0.0
 40
1.5
  1
Werkstoff:      Massstab:
 51
15.0
  0
TEXT
  5
6A
  8
0
 62
     4
 10
-132.0
 20
23.0
 30
0.0
 40
1.5
  1
Benennung:
 51
15.0
  0
LINE
  5
6B
  8
0
 62
     2
 10
-133.0
 20
33.0
 30
0.0
 11
-92.0
 21
33.0
 31
0.0
  0
TEXT
  5
6C
  8
0
 62
     4
 10
-132.0
 20
39.0
 30
0.0
 40
1.5
  1
*)Lieferant darf ohne 
 51
15.0
  0
TEXT
  5
6D
  8
0
 62
     4
 10
-132.0
 20
36.5
 30
0.0
 40
1.5
  1
 Ruecksprache nicht 
 51
15.0
  0
TEXT
  5
6E
  8
0
 62
     4
 10
-132.0
 20
34.0
 30
0.0
 40
1.5
  1
 geaendert werden
 51
15.0
  0
TEXT
  5
6F
  8
0
 62
     4
 10
-132.0
 20
30.0
 30
0.0
 40
1.5
  1
Zeichnung urheberrechtlich
 51
15.0
  0
TEXT
  5
70
  8
0
 62
     4
 10
-132.0
 20
27.5
 30
0.0
 40
1.5
  1
geschuetzt (DIN 34) (C)
 51
15.0
  0
TEXT
  5
71
  8
0
 62
     4
 10
-50.0
 20
32.0
 30
0.0
 40
1.5
  1
Geprueft
 51
15.0
  0
TEXT
  5
72
  8
0
 62
     4
 10
-50.0
 20
15.0
 30
0.0
 40
1.5
  1
Ersatz fuer:           von  Blatt
 51
15.0
  0
TEXT
  5
73
  8
0
 62
     4
 10
-197.0
 20
1.0
 30
0.0
 40
1.5
  1
Ind.  Aenderung             Datum    Name
 51
15.0
  0
ATTDEF
  5
74
  8
0
 62
     4
 10
-28.875
 20
37.0
 30
0.0
 40
2.5
  1
01.10.91
 41
0.7
 51
15.0
 72
     1
 11
-24.5
 21
37.0
 31
0.0
  3
Datum der Zeichnung ?
  2
DATE
 70
     0
  0
ATTDEF
  5
75
  8
0
 62
     4
 10
-80.5
 20
36.0
 30
0.0
 40
2.5
  1

 41
0.7
 51
15.0
 72
     1
 11
-80.5
 21
36.0
 31
0.0
  3
Aus welchem Werkstoff ?
  2
WERKSTOFF
 70
     0
  0
ATTDEF
  5
76
  8
0
 62
     2
 10
-92.0
 20
12.5
 30
0.0
 40
5.0
  1

 41
0.7
 51
15.0
 72
     1
 11
-92.0
 21
12.5
 31
0.0
  3
Zeichnungsname ?
  2
BENENNUNG
 70
     0
  0
ATTDEF
  5
77
  8
0
 62
     3
 10
-90.265457
 20
21.082191
 30
0.0
 40
3.5
  1
()
 41
0.7
 51
15.0
 72
     1
 11
-89.040457
 21
21.082191
 31
0.0
  3
Zu welchem Produkt ?
  2
TEIL
 70
     0
  0
ATTDEF
  5
78
  8
0
 62
     3
 10
-20.550219
 20
1.976541
 30
0.0
 40
3.5
  1

 41
0.7
 51
15.0
 72
     1
 11
-20.550219
 21
1.976541
 31
0.0
  3
Zeichnungsnummer ?
  2
NUMMER
 70
     0
  0
ATTDEF
  5
79
  8
0
 62
     2
 10
-63.482672
 20
34.656056
 30
0.0
 40
5.0
  1
5:1
 41
0.7
 51
15.0
 72
     1
 11
-60.566005
 21
34.656056
 31
0.0
  3
Hauptmassstab:
  2
MASS
 70
     0
  0
ATTDEF
  5
7A
  8
0
 62
     3
 10
-60.480701
 20
28.210451
 30
0.0
 40
3.5
  1

 41
0.7
 51
15.0
 72
     1
 11
-60.480701
 21
28.210451
 31
0.0
  3
Nebenmassstab:
  2
MASS2
 70
     0
  0
ATTDEF
  5
7B
  8
0
 62
     4
 10
-81.0
 20
29.0
 30
0.0
 40
2.5
  1

 41
0.7
 51
15.0
 72
     1
 11
-81.0
 21
29.0
 31
0.0
  3
Werkstoffzusatz:
  2
TEIL
 70
     0
  0
ATTDEF
  5
7C
  8
0
 62
     3
 10
-107.711452
 20
59.004319
 30
0.0
 40
3.5
  1
Freimasstoleranzen %%p0.1
 41
0.7
 51
15.0
  3
Freimasstoleranzen:
  2
TOL
 70
     0
  0
ATTDEF
  5
7D
  8
0
 62
     3
 10
-107.711452
 20
54.004319
 30
0.0
 40
3.5
  1
nicht bemasste Radien R=0.2
 41
0.7
 51
15.0
  3
Nicht bemasste Radien:
  2
RADIEN
 70
     0
  0
ATTDEF
  5
7E
  8
0
 62
     3
 10
-107.711452
 20
49.004319
 30
0.0
 40
3.5
  1
nicht bemasste Facetten 0.5 x 45%%D
 41
0.7
 51
15.0
  3
nicht bemasste Facetten:
  2
FACETTE
 70
     0
  0
POLYLINE
  5
7F
  8
0
 62
     2
 66
     1
 10
0.0
 20
0.0
 30
0.0
  0
VERTEX
  5
4D8
  8
0
 62
     2
 10
-191.0
 20
0.0
 30
0.0
  0
VERTEX
  5
4D9
  8
0
 62
     2
 10
-191.0
 20
46.0
 30
0.0
  0
SEQEND
  5
4DA
  8
0
 62
     2
  0
POLYLINE
  5
80
  8
0
 62
     2
 66
     1
 10
0.0
 20
0.0
 30
0.0
  0
VERTEX
  5
4DB
  8
0
 62
     2
 10
-133.0
 20
0.0
 30
0.0
  0
VERTEX
  5
4DC
  8
0
 62
     2
 10
-133.0
 20
46.0
 30
0.0
  0
SEQEND
  5
4DD
  8
0
 62
     2
  0
POLYLINE
  5
81
  8
0
 62
     2
 66
     1
 10
0.0
 20
0.0
 30
0.0
  0
VERTEX
  5
4DE
  8
0
 62
     2
 10
-92.0
 20
26.0
 30
0.0
  0
VERTEX
  5
4DF
  8
0
 62
     2
 10
-92.0
 20
46.0
 30
0.0
  0
SEQEND
  5
4E0
  8
0
 62
     2
  0
POLYLINE
  5
82
  8
0
 62
     2
 66
     1
 10
0.0
 20
0.0
 30
0.0
  0
VERTEX
  5
4E1
  8
0
 62
     2
 10
-69.0
 20
26.0
 30
0.0
  0
VERTEX
  5
4E2
  8
0
 62
     2
 10
-69.0
 20
46.0
 30
0.0
  0
SEQEND
  5
4E3
  8
0
 62
     2
  0
ATTDEF
  5
83
  8
0
 62
     4
 10
-197.186267
 20
7.0
 30
0.0
 40
2.5
  1

 41
0.7
 51
15.0
  3
Index1:
  2
INDEX1
 70
     0
  0
ATTDEF
  5
84
  8
0
 62
     4
 10
-190.348743
 20
7.0
 30
0.0
 40
2.5
  1

 41
0.7
 51
15.0
  3
Aenderung1:
  2
A1
 70
     0
  0
ATTDEF
  5
85
  8
0
 62
     4
 10
-157.348743
 20
7.0
 30
0.0
 40
2.5
  1

 41
0.7
 51
15.0
  3
Datum1:
  2
DATUM1
 70
     0
  0
ATTDEF
  5
86
  8
0
 62
     4
 10
-144.46499
 20
7.0
 30
0.0
 40
2.5
  1

 41
0.7
 51
15.0
  3
Name1:
  2
NAME1
 70
     0
  0
ATTDEF
  5
87
  8
0
 62
     4
 10
-197.186267
 20
12.0
 30
0.0
 40
2.5
  1

 41
0.7
 51
15.0
  3
Index2:
  2
INDEX2
 70
     0
  0
ATTDEF
  5
88
  8
0
 62
     4
 10
-190.348743
 20
12.0
 30
0.0
 40
2.5
  1

 41
0.7
 51
15.0
  3
Aenderung2:
  2
A2
 70
     0
  0
ATTDEF
  5
89
  8
0
 62
     4
 10
-157.348743
 20
12.0
 30
0.0
 40
2.5
  1

 41
0.7
 51
15.0
  3
Datum2:
  2
DATUM2
 70
     0
  0
ATTDEF
  5
8A
  8
0
 62
     4
 10
-144.46499
 20
12.0
 30
0.0
 40
2.5
  1

 41
0.7
 51
15.0
  3
Name2
  2
NAME2
 70
     0
  0
ATTDEF
  5
8B
  8
0
 62
     4
 10
-197.186267
 20
17.0
 30
0.0
 40
2.5
  1

 41
0.7
 51
15.0
  3
Index3:
  2
INDEX3
 70
     0
  0
ATTDEF
  5
8C
  8
0
 62
     4
 10
-190.348743
 20
17.0
 30
0.0
 40
2.5
  1

 41
0.7
 51
15.0
  3
Aenderung3
  2
A3
 70
     0
  0
ATTDEF
  5
8D
  8
0
 62
     4
 10
-157.348743
 20
17.0
 30
0.0
 40
2.5
  1

 41
0.7
 51
15.0
  3
Datum3:
  2
DATUM3
 70
     0
  0
ATTDEF
  5
8E
  8
0
 62
     4
 10
-144.46499
 20
17.0
 30
0.0
 40
2.5
  1

 41
0.7
 51
15.0
  3
Name3:
  2
NAME3
 70
     0
  0
ATTDEF
  5
8F
  8
0
 62
     4
 10
-197.186267
 20
22.0
 30
0.0
 40
2.5
  1

 41
0.7
 51
15.0
  3
Index4:
  2
INDEX4
 70
     0
  0
ATTDEF
  5
90
  8
0
 62
     4
 10
-190.348743
 20
22.0
 30
0.0
 40
2.5
  1

 41
0.7
 51
15.0
  3
Aenderung4:
  2
A4
 70
     0
  0
ATTDEF
  5
91
  8
0
 62
     4
 10
-157.348743
 20
22.0
 30
0.0
 40
2.5
  1

 41
0.7
 51
15.0
  3
Datum4:
  2
DATUM4
 70
     0
  0
ATTDEF
  5
92
  8
0
 62
     4
 10
-144.46499
 20
22.0
 30
0.0
 40
2.5
  1

 41
0.7
 51
15.0
  3
Name4:
  2
NAME4
 70
     0
  0
ATTDEF
  5
93
  8
0
 62
     4
 10
-197.186267
 20
27.0
 30
0.0
 40
2.5
  1

 41
0.7
 51
15.0
  3
Index5:
  2
INDEX5
 70
     0
  0
ATTDEF
  5
94
  8
0
 62
     4
 10
-190.348743
 20
27.0
 30
0.0
 40
2.5
  1

 41
0.7
 51
15.0
  3
Aenderung5:
  2
A5
 70
     0
  0
ATTDEF
  5
95
  8
0
 62
     4
 10
-157.348743
 20
27.0
 30
0.0
 40
2.5
  1

 41
0.7
 51
15.0
  3
Datum5:
  2
DATUM5
 70
     0
  0
ATTDEF
  5
96
  8
0
 62
     4
 10
-144.46499
 20
27.0
 30
0.0
 40
2.5
  1

 41
0.7
 51
15.0
  3
Name5
  2
NAME5
 70
     0
  0
ATTDEF
  5
97
  8
0
 62
     4
 10
-197.186267
 20
32.0
 30
0.0
 40
2.5
  1

 41
0.7
 51
15.0
  3
Index6:
  2
INDEX6
 70
     0
  0
ATTDEF
  5
98
  8
0
 62
     4
 10
-190.348743
 20
32.0
 30
0.0
 40
2.5
  1

 41
0.7
 51
15.0
  3
Aenderung6:
  2
A6
 70
     0
  0
ATTDEF
  5
99
  8
0
 62
     4
 10
-157.348743
 20
32.0
 30
0.0
 40
2.5
  1

 41
0.7
 51
15.0
  3
Datum6:
  2
DATUM6
 70
     0
  0
ATTDEF
  5
9A
  8
0
 62
     4
 10
-144.46499
 20
32.0
 30
0.0
 40
2.5
  1

 41
0.7
 51
15.0
  3
Name6:
  2
NAME6
 70
     0
  0
ATTDEF
  5
9B
  8
0
 62
     4
 10
-197.186267
 20
37.0
 30
0.0
 40
2.5
  1

 41
0.7
 51
15.0
  3
Index7:
  2
INDEX7
 70
     0
  0
ATTDEF
  5
9C
  8
0
 62
     4
 10
-190.348743
 20
37.0
 30
0.0
 40
2.5
  1

 41
0.7
 51
15.0
  3
Aenderung7:
  2
A7
 70
     0
  0
ATTDEF
  5
9D
  8
0
 62
     4
 10
-157.348743
 20
37.0
 30
0.0
 40
2.5
  1

 41
0.7
 51
15.0
  3
Datum7:
  2
DATUM7
 70
     0
  0
ATTDEF
  5
9E
  8
0
 62
     4
 10
-144.46499
 20
37.0
 30
0.0
 40
2.5
  1

 41
0.7
 51
15.0
  3
Name7:
  2
NAME7
 70
     0
  0
ATTDEF
  5
9F
  8
0
 62
     4
 10
-197.186267
 20
42.0
 30
0.0
 40
2.5
  1

 41
0.7
 51
15.0
  3
Index8:
  2
INDEX8
 70
     0
  0
ATTDEF
  5
A0
  8
0
 62
     4
 10
-190.348743
 20
42.0
 30
0.0
 40
2.5
  1

 41
0.7
 51
15.0
  3
Aenderung8:
  2
A8
 70
     0
  0
ATTDEF
  5
A1
  8
0
 62
     4
 10
-157.348743
 20
42.0
 30
0.0
 40
2.5
  1

 41
0.7
 51
15.0
  3
Datum8:
  2
DATUM8
 70
     0
  0
ATTDEF
  5
A2
  8
0
 62
     4
 10
-144.46499
 20
42.0
 30
0.0
 40
2.5
  1

 41
0.7
 51
15.0
  3
Name8:
  2
NAME8
 70
     0
  0
POLYLINE
  5
A3
  8
0
 62
     2
 66
     1
 10
0.0
 20
0.0
 30
0.0
  0
VERTEX
  5
4E4
  8
0
 62
     2
 10
0.0
 20
0.0
 30
0.0
  0
VERTEX
  5
4E5
  8
0
 62
     2
 10
0.0
 20
46.0
 30
0.0
  0
SEQEND
  5
4E6
  8
0
 62
     2
  0
POLYLINE
  5
A4
  8
0
 62
     2
 66
     1
 10
0.0
 20
0.0
 30
0.0
  0
VERTEX
  5
4E7
  8
0
 62
     2
 10
-200.0
 20
46.0
 30
0.0
  0
VERTEX
  5
4E8
  8
0
 62
     2
 10
-200.0
 20
0.0
 30
0.0
  0
SEQEND
  5
4E9
  8
0
 62
     2
  0
POLYLINE
  5
A5
  8
0
 62
     2
 66
     1
 10
0.0
 20
0.0
 30
0.0
  0
VERTEX
  5
4EA
  8
0
 62
     2
 10
0.0
 20
9.0
 30
0.0
  0
VERTEX
  5
4EB
  8
0
 62
     2
 10
-133.0
 20
9.0
 30
0.0
  0
SEQEND
  5
4EC
  8
0
 62
     2
  0
POLYLINE
  5
A6
  8
0
 62
     2
 66
     1
 10
0.0
 20
0.0
 30
0.0
  0
VERTEX
  5
4ED
  8
0
 62
     2
 10
0.0
 20
18.0
 30
0.0
  0
VERTEX
  5
4EE
  8
0
 62
     2
 10
-51.0
 20
18.0
 30
0.0
  0
SEQEND
  5
4EF
  8
0
 62
     2
  0
POLYLINE
  5
A7
  8
0
 62
     2
 66
     1
 10
0.0
 20
0.0
 30
0.0
  0
VERTEX
  5
4F0
  8
0
 62
     2
 10
0.0
 20
26.0
 30
0.0
  0
VERTEX
  5
4F1
  8
0
 62
     2
 10
-133.0
 20
26.0
 30
0.0
  0
SEQEND
  5
4F2
  8
0
 62
     2
  0
POLYLINE
  5
A8
  8
0
 62
     2
 66
     1
 10
0.0
 20
0.0
 30
0.0
  0
VERTEX
  5
4F3
  8
0
 62
     2
 10
0.0
 20
31.0
 30
0.0
  0
VERTEX
  5
4F4
  8
0
 62
     2
 10
-51.0
 20
31.0
 30
0.0
  0
SEQEND
  5
4F5
  8
0
 62
     2
  0
POLYLINE
  5
A9
  8
0
 62
     2
 66
     1
 10
0.0
 20
0.0
 30
0.0
  0
VERTEX
  5
4F6
  8
0
 62
     2
 10
0.0
 20
36.0
 30
0.0
  0
VERTEX
  5
4F7
  8
0
 62
     2
 10
-51.0
 20
36.0
 30
0.0
  0
SEQEND
  5
4F8
  8
0
 62
     2
  0
POLYLINE
  5
AA
  8
0
 62
     2
 66
     1
 10
0.0
 20
0.0
 30
0.0
  0
VERTEX
  5
4F9
  8
0
 62
     2
 10
0.0
 20
41.0
 30
0.0
  0
VERTEX
  5
4FA
  8
0
 62
     2
 10
-51.0
 20
41.0
 30
0.0
  0
SEQEND
  5
4FB
  8
0
 62
     2
  0
POLYLINE
  5
AB
  8
0
 62
     2
 66
     1
 10
0.0
 20
0.0
 30
0.0
  0
VERTEX
  5
4FC
  8
0
 62
     2
 10
0.0
 20
46.0
 30
0.0
  0
VERTEX
  5
4FD
  8
0
 62
     2
 10
-200.0
 20
46.0
 30
0.0
  0
SEQEND
  5
4FE
  8
0
 62
     2
  0
TEXT
  5
AC
  8
0
 10
517.653158
 20
512.84859
 30
0.0
 40
3.5
  1
  
 41
0.7
 51
15.0
  0
LINE
  5
AD
  8
0
 10
-131.889278
 20
3.208952
 30
0.0
 11
-130.181445
 21
3.208952
 31
0.0
  0
LINE
  5
AE
  8
0
 10
-131.338562
 20
5.693072
 30
0.0
 11
-129.320214
 21
5.693072
 31
0.0
  0
LINE
  5
AF
  8
0
 10
-131.889278
 20
3.208952
 30
0.0
 11
-131.338562
 21
5.693072
 31
0.0
  0
LINE
  5
B0
  8
0
 10
-130.181445
 20
3.208952
 30
0.0
 11
-129.871668
 21
4.60627
 31
0.0
  0
LINE
  5
B1
  8
0
 10
-126.377637
 20
3.208952
 30
0.0
 11
-125.826921
 21
5.693072
 31
0.0
  0
LINE
  5
B2
  8
0
 10
-127.775692
 20
4.60627
 30
0.0
 11
-127.534753
 21
5.693072
 31
0.0
  0
LINE
  5
B3
  8
0
 10
-129.871668
 20
4.60627
 30
0.0
 11
-128.318356
 21
3.208952
 31
0.0
  0
LINE
  5
B4
  8
0
 10
-129.320214
 20
5.693072
 30
0.0
 11
-127.775692
 21
4.60627
 31
0.0
  0
LINE
  5
B5
  8
0
 10
-127.534753
 20
5.693072
 30
0.0
 11
-125.826921
 21
5.693072
 31
0.0
  0
LINE
  5
B6
  8
0
 10
-128.318356
 20
3.208952
 30
0.0
 11
-126.377637
 21
3.208952
 31
0.0
  0
LINE
  5
B7
  8
0
 10
-125.523721
 20
3.208952
 30
0.0
 11
-124.973005
 21
5.693072
 31
0.0
  0
LINE
  5
B8
  8
0
 10
-123.718348
 20
3.648931
 30
0.0
 11
-123.572674
 21
4.306023
 31
0.0
  0
LINE
  5
B9
  8
0
 10
-120.855668
 20
4.306023
 30
0.0
 11
-120.791381
 21
4.596001
 31
0.0
  0
LINE
  5
BA
  8
0
 10
-120.865996
 20
3.208952
 30
0.0
 11
-120.768456
 21
3.648931
 31
0.0
  0
LINE
  5
BB
  8
0
 10
-125.523721
 20
3.208952
 30
0.0
 11
-120.865996
 21
3.208952
 31
0.0
  0
LINE
  5
BC
  8
0
 10
-124.973005
 20
5.693072
 30
0.0
 11
-120.31528
 21
5.693072
 31
0.0
  0
LINE
  5
BD
  8
0
 10
-123.508387
 20
4.596001
 30
0.0
 11
-123.362713
 21
5.253094
 31
0.0
  0
LINE
  5
BE
  8
0
 10
-120.412821
 20
5.253094
 30
0.0
 11
-120.31528
 21
5.693072
 31
0.0
  0
LINE
  5
BF
  8
0
 10
-119.921488
 20
3.967747
 30
0.0
 11
-119.538993
 21
5.693072
 31
0.0
  0
LINE
  5
C0
  8
0
 10
-118.170584
 20
4.181432
 30
0.0
 11
-117.835462
 21
5.693072
 31
0.0
  0
LINE
  5
C1
  8
0
 10
-116.302927
 20
4.100887
 30
0.0
 11
-115.949949
 21
5.693072
 31
0.0
  0
LINE
  5
C2
  8
0
 10
-114.655674
 20
3.847099
 30
0.0
 11
-114.246432
 21
5.693072
 31
0.0
  0
LINE
  5
C3
  8
0
 10
-119.538993
 20
5.693072
 30
0.0
 11
-117.835462
 21
5.693072
 31
0.0
  0
POLYLINE
  5
C4
  8
0
 66
     1
 10
0.0
 20
0.0
 30
0.0
  0
VERTEX
  5
4FF
  8
0
 10
-119.921488
 20
3.967747
 30
0.0
 42
0.053304
  0
VERTEX
  5
500
  8
0
 10
-119.927918
 20
3.907611
 30
0.0
 42
0.242955
  0
SEQEND
  5
501
  8
0
  0
POLYLINE
  5
C5
  8
0
 66
     1
 10
0.0
 20
0.0
 30
0.0
  0
VERTEX
  5
502
  8
0
 10
-119.927918
 20
3.907611
 30
0.0
 42
0.242955
  0
VERTEX
  5
503
  8
0
 10
-119.808149
 20
3.675677
 30
0.0
 42
0.083039
  0
VERTEX
  5
504
  8
0
 10
-119.154862
 20
3.358693
 30
0.0
 42
0.041229
  0
VERTEX
  5
505
  8
0
 10
-118.372334
 20
3.197098
 30
0.0
 42
0.030317
  0
VERTEX
  5
506
  8
0
 10
-117.28854
 20
3.131323
 30
0.0
 42
0.030317
  0
VERTEX
  5
507
  8
0
 10
-116.204747
 20
3.197098
 30
0.0
 42
0.041229
  0
VERTEX
  5
508
  8
0
 10
-115.422219
 20
3.358693
 30
0.0
 42
0.083039
  0
VERTEX
  5
509
  8
0
 10
-114.768932
 20
3.675677
 30
0.0
 42
0.186877
  0
VERTEX
  5
50A
  8
0
 10
-114.655674
 20
3.847099
 30
0.0
 42
0.242955
  0
SEQEND
  5
50B
  8
0
  0
POLYLINE
  5
C6
  8
0
 66
     1
 10
0.0
 20
0.0
 30
0.0
  0
VERTEX
  5
50C
  8
0
 10
-118.175358
 20
4.140497
 30
0.0
 42
0.199105
  0
VERTEX
  5
50D
  8
0
 10
-118.123163
 20
4.014618
 30
0.0
 42
0.098437
  0
VERTEX
  5
50E
  8
0
 10
-117.900493
 20
3.866038
 30
0.0
 42
0.055684
  0
VERTEX
  5
50F
  8
0
 10
-117.619171
 20
3.784861
 30
0.0
 42
0.042444
  0
VERTEX
  5
510
  8
0
 10
-117.23691
 20
3.752353
 30
0.0
 42
0.042444
  0
VERTEX
  5
511
  8
0
 10
-116.854649
 20
3.784861
 30
0.0
 42
0.055684
  0
VERTEX
  5
512
  8
0
 10
-116.573327
 20
3.866038
 30
0.0
 42
0.098437
  0
VERTEX
  5
513
  8
0
 10
-116.350657
 20
4.014618
 30
0.0
 42
0.141327
  0
VERTEX
  5
514
  8
0
 10
-116.302927
 20
4.100887
 30
0.0
 42
0.199105
  0
SEQEND
  5
515
  8
0
  0
POLYLINE
  5
C7
  8
0
 66
     1
 10
0.0
 20
0.0
 30
0.0
  0
VERTEX
  5
516
  8
0
 10
-118.170584
 20
4.181432
 30
0.0
 42
0.058115
  0
VERTEX
  5
517
  8
0
 10
-118.175358
 20
4.140497
 30
0.0
 42
0.199105
  0
SEQEND
  5
518
  8
0
  0
LINE
  5
C8
  8
0
 10
-115.949949
 20
5.693072
 30
0.0
 11
-114.246432
 21
5.693072
 31
0.0
  0
LINE
  5
C9
  8
0
 10
-113.932145
 20
5.072042
 30
0.0
 11
-113.794466
 21
5.693072
 31
0.0
  0
LINE
  5
CA
  8
0
 10
-112.792607
 20
3.208952
 30
0.0
 11
-112.37957
 21
5.072042
 31
0.0
  0
LINE
  5
CB
  8
0
 10
-111.084775
 20
3.208952
 30
0.0
 11
-110.671738
 21
5.072042
 31
0.0
  0
LINE
  5
CC
  8
0
 10
-109.041534
 20
5.072042
 30
0.0
 11
-108.903855
 21
5.693072
 31
0.0
  0
LINE
  5
CD
  8
0
 10
-113.932145
 20
5.072042
 30
0.0
 11
-112.37957
 21
5.072042
 31
0.0
  0
LINE
  5
CE
  8
0
 10
-112.792607
 20
3.208952
 30
0.0
 11
-111.084775
 21
3.208952
 31
0.0
  0
LINE
  5
CF
  8
0
 10
-113.794466
 20
5.693072
 30
0.0
 11
-108.903855
 21
5.693072
 31
0.0
  0
LINE
  5
D0
  8
0
 10
-110.671738
 20
5.072042
 30
0.0
 11
-109.041534
 21
5.072042
 31
0.0
  0
LINE
  5
D1
  8
0
 10
-108.91117
 20
3.208952
 30
0.0
 11
-108.360454
 21
5.693072
 31
0.0
  0
LINE
  5
D2
  8
0
 10
-107.203338
 20
3.208952
 30
0.0
 11
-106.997985
 21
4.13524
 31
0.0
  0
LINE
  5
D3
  8
0
 10
-108.91117
 20
3.208952
 30
0.0
 11
-107.203338
 21
3.208952
 31
0.0
  0
LINE
  5
D4
  8
0
 10
-108.360454
 20
5.693072
 30
0.0
 11
-104.002078
 21
5.693072
 31
0.0
  0
LINE
  5
D5
  8
0
 10
-103.691866
 20
3.468914
 30
0.0
 11
-103.651414
 21
4.047405
 31
0.0
  0
LINE
  5
D6
  8
0
 10
-105.404037
 20
3.406868
 30
0.0
 11
-105.372771
 21
3.861921
 31
0.0
  0
LINE
  5
D7
  8
0
 10
-106.933698
 20
4.425218
 30
0.0
 11
-106.750163
 21
5.253094
 31
0.0
  0
ARC
  5
D8
  8
0
 10
-103.304668
 20
3.441838
 30
0.0
 40
0.388144
 50
176.0
 51
216.869898
  0
ARC
  5
D9
  8
0
 10
-105.030247
 20
3.411905
 30
0.0
 40
0.373824
 50
180.772005
 51
212.881875
  0
LINE
  5
DA
  8
0
 10
-105.344182
 20
3.208952
 30
0.0
 11
-103.615183
 21
3.208952
 31
0.0
  0
POLYLINE
  5
DB
  8
0
 66
     1
 10
0.0
 20
0.0
 30
0.0
  0
VERTEX
  5
519
  8
0
 10
-103.651414
 20
4.047405
 30
0.0
 42
0.084831
  0
VERTEX
  5
51A
  8
0
 10
-103.660284
 20
4.142982
 30
0.0
 42
0.153048
  0
VERTEX
  5
51B
  8
0
 10
-103.751613
 20
4.286875
 30
0.0
 42
0.025315
  0
VERTEX
  5
51C
  8
0
 10
-103.797537
 20
4.321852
 30
0.0
 42
0.067948
  0
SEQEND
  5
51D
  8
0
  0
POLYLINE
  5
DC
  8
0
 66
     1
 10
0.0
 20
0.0
 30
0.0
  0
VERTEX
  5
51E
  8
0
 10
-103.797537
 20
4.321852
 30
0.0
 42
0.015369
  0
VERTEX
  5
51F
  8
0
 10
-103.68387
 20
4.380025
 30
0.0
 42
0.073981
  0
VERTEX
  5
520
  8
0
 10
-103.356816
 20
4.629409
 30
0.0
 42
0.106894
  0
VERTEX
  5
521
  8
0
 10
-103.152297
 20
4.956595
 30
0.0
 42
0.153048
  0
VERTEX
  5
522
  8
0
 10
-103.140863
 20
5.229042
 30
0.0
 42
0.153048
  0
VERTEX
  5
523
  8
0
 10
-103.286988
 20
5.459272
 30
0.0
 42
0.106894
  0
VERTEX
  5
524
  8
0
 10
-103.627701
 20
5.640364
 30
0.0
 42
0.067948
  0
VERTEX
  5
525
  8
0
 10
-104.002078
 20
5.693072
 30
0.0
 42
0.060566
  0
SEQEND
  5
526
  8
0
  0
LINE
  5
DD
  8
0
 10
-102.856129
 20
3.208952
 30
0.0
 11
-102.305412
 21
5.693072
 31
0.0
  0
LINE
  5
DE
  8
0
 10
-101.148296
 20
3.208952
 30
0.0
 11
-100.59758
 21
5.693072
 31
0.0
  0
LINE
  5
DF
  8
0
 10
-102.856129
 20
3.208952
 30
0.0
 11
-101.148296
 21
3.208952
 31
0.0
  0
LINE
  5
E0
  8
0
 10
-102.305412
 20
5.693072
 30
0.0
 11
-100.59758
 21
5.693072
 31
0.0
  0
LINE
  5
E1
  8
0
 10
-100.139123
 20
3.208952
 30
0.0
 11
-99.588406
 21
5.693072
 31
0.0
  0
LINE
  5
E2
  8
0
 10
-98.508919
 20
3.208952
 30
0.0
 11
-98.37124
 21
3.829982
 31
0.0
  0
LINE
  5
E3
  8
0
 10
-99.588406
 20
5.693072
 30
0.0
 11
-97.958203
 21
5.693072
 31
0.0
  0
LINE
  5
E4
  8
0
 10
-100.139123
 20
3.208952
 30
0.0
 11
-98.508919
 21
3.208952
 31
0.0
  0
LINE
  5
E5
  8
0
 10
-98.37124
 20
3.829982
 30
0.0
 11
-97.642556
 21
4.140497
 31
0.0
  0
LINE
  5
E6
  8
0
 10
-98.144475
 20
4.852855
 30
0.0
 11
-96.172742
 21
5.693072
 31
0.0
  0
LINE
  5
E7
  8
0
 10
-96.172742
 20
5.693072
 30
0.0
 11
-93.999137
 21
5.693072
 31
0.0
  0
LINE
  5
E8
  8
0
 10
-97.642556
 20
4.140497
 30
0.0
 11
-96.723458
 21
3.208952
 31
0.0
  0
LINE
  5
E9
  8
0
 10
-96.003018
 20
4.839156
 30
0.0
 11
-94.394596
 21
3.208952
 31
0.0
  0
LINE
  5
EA
  8
0
 10
-96.003018
 20
4.839156
 30
0.0
 11
-93.999137
 21
5.693072
 31
0.0
  0
LINE
  5
EB
  8
0
 10
-98.144475
 20
4.852855
 30
0.0
 11
-97.958203
 21
5.693072
 31
0.0
  0
LINE
  5
EC
  8
0
 10
-96.723458
 20
3.208952
 30
0.0
 11
-94.394596
 21
3.208952
 31
0.0
  0
LINE
  5
ED
  8
0
 10
-91.535849
 20
3.208952
 30
0.0
 11
-89.859713
 21
3.208952
 31
0.0
  0
LINE
  5
EE
  8
0
 10
-89.672213
 20
5.693801
 30
0.0
 11
-86.717509
 21
5.693801
 31
0.0
  0
LINE
  5
EF
  8
0
 10
-91.535849
 20
3.208952
 30
0.0
 11
-89.672213
 21
5.693801
 31
0.0
  0
LINE
  5
F0
  8
0
 10
-86.717509
 20
5.693801
 30
0.0
 11
-86.096297
 21
3.208952
 31
0.0
  0
LINE
  5
F1
  8
0
 10
-89.499689
 20
3.688984
 30
0.0
 11
-87.773968
 21
3.688984
 31
0.0
  0
LINE
  5
F2
  8
0
 10
-89.219798
 20
4.062171
 30
0.0
 11
-87.867265
 21
4.062171
 31
0.0
  0
LINE
  5
F3
  8
0
 10
-85.384981
 20
3.719952
 30
0.0
 11
-85.11662
 21
5.241907
 31
0.0
  0
LINE
  5
F4
  8
0
 10
-80.632927
 20
3.208952
 30
0.0
 11
-80.440303
 21
4.301376
 31
0.0
  0
LINE
  5
F5
  8
0
 10
-83.773875
 20
4.049318
 30
0.0
 11
-83.613979
 21
4.956134
 31
0.0
  0
LINE
  5
F6
  8
0
 10
-82.185958
 20
3.208952
 30
0.0
 11
-82.180952
 21
3.237338
 31
0.0
  0
LINE
  5
F7
  8
0
 10
-82.653819
 20
4.078649
 30
0.0
 11
-82.614546
 21
4.301376
 31
0.0
  0
LINE
  5
F8
  8
0
 10
-82.653819
 20
4.078649
 30
0.0
 11
-82.032607
 21
4.078649
 31
0.0
  0
ARC
  5
F9
  8
0
 10
-82.531573
 20
-8.003128
 30
0.0
 40
13.697153
 50
81.659895
 51
99.80279
  0
ARC
  5
FA
  8
0
 10
-83.091534
 20
16.90419
 30
0.0
 40
13.697153
 50
261.461473
 51
273.811815
  0
ARC
  5
FB
  8
0
 10
-84.810733
 20
5.187971
 30
0.0
 40
0.310606
 50
99.80279
 51
170.0
  0
ARC
  5
FC
  8
0
 10
-85.079094
 20
3.666016
 30
0.0
 40
0.310606
 50
170.0
 51
261.461473
  0
ARC
  5
FD
  8
0
 10
-80.58987
 20
5.24185
 30
0.0
 40
0.310606
 50
350.0
 51
81.659895
  0
LINE
  5
FE
  8
0
 10
-81.898429
 20
4.963993
 30
0.0
 11
-80.323466
 21
4.963993
 31
0.0
  0
LINE
  5
FF
  8
0
 10
-80.323466
 20
4.963993
 30
0.0
 11
-80.283983
 21
5.187914
 31
0.0
  0
LINE
  5
100
  8
0
 10
-82.052147
 20
3.967832
 30
0.0
 11
-82.032607
 21
4.078649
 31
0.0
  0
ARC
  5
101
  8
0
 10
-82.755724
 20
1.698274
 30
0.0
 40
3.561797
 50
80.208339
 51
99.781825
  0
ARC
  5
102
  8
0
 10
-82.989141
 20
7.211117
 30
0.0
 40
3.561797
 50
261.530468
 51
281.193068
  0
ARC
  5
103
  8
0
 10
-83.308092
 20
4.902198
 30
0.0
 40
0.310606
 50
99.781825
 51
170.0
  0
ARC
  5
104
  8
0
 10
-82.202807
 20
4.902103
 30
0.0
 40
0.310606
 50
11.493425
 51
80.208339
  0
ARC
  5
105
  8
0
 10
-83.467988
 20
3.995382
 30
0.0
 40
0.310606
 50
170.0
 51
261.530468
  0
ARC
  5
106
  8
0
 10
-82.358034
 20
4.021768
 30
0.0
 40
0.310606
 50
281.193068
 51
350.0
  0
LINE
  5
107
  8
0
 10
-82.185958
 20
3.208952
 30
0.0
 11
-80.632927
 21
3.208952
 31
0.0
  0
LINE
  5
108
  8
0
 10
-87.65396
 20
3.208952
 30
0.0
 11
-86.096297
 21
3.208952
 31
0.0
  0
TEXT
  5
109
  8
0
 62
     4
 10
-77.576926
 20
3.264636
 30
0.0
 40
2.484848
  1
FL-9494 SCHAAN
 41
0.7
 51
15.0
  7
HELV
  0
LINE
  5
10B
  8
0
 10
-123.362713
 20
5.253094
 30
0.0
 11
-120.412821
 21
5.253094
 31
0.0
  0
LINE
  5
10C
  8
0
 10
-123.508387
 20
4.596001
 30
0.0
 11
-120.791381
 21
4.596001
 31
0.0
  0
LINE
  5
10D
  8
0
 10
-123.572674
 20
4.306023
 30
0.0
 11
-120.855668
 21
4.306023
 31
0.0
  0
LINE
  5
10E
  8
0
 10
-123.718348
 20
3.648931
 30
0.0
 11
-120.768456
 21
3.648931
 31
0.0
  0
LINE
  5
10F
  8
0
 62
     4
 10
-94.088306
 20
5.655074
 30
0.0
 11
-94.050308
 21
5.693072
 31
0.0
  0
LINE
  5
110
  8
0
 62
     4
 10
-94.413108
 20
3.208952
 30
0.0
 11
-94.40379
 21
3.21827
 31
0.0
  0
LINE
  5
111
  8
0
 10
-106.750163
 20
5.253094
 30
0.0
 11
-105.343603
 21
5.253094
 31
0.0
  0
LINE
  5
112
  8
0
 10
-106.933698
 20
4.425218
 30
0.0
 11
-105.573373
 21
4.425218
 31
0.0
  0
LINE
  5
113
  8
0
 10
-106.997985
 20
4.13524
 30
0.0
 11
-105.5491
 21
4.13524
 31
0.0
  0
LINE
  5
114
  8
0
 10
-105.343603
 20
5.253094
 30
0.0
 11
-105.232586
 21
5.23493
 31
0.0
  0
LINE
  5
115
  8
0
 10
-105.232586
 20
5.23493
 30
0.0
 11
-105.136389
 21
5.186199
 31
0.0
  0
LINE
  5
116
  8
0
 10
-105.136389
 20
5.186199
 30
0.0
 11
-105.090213
 21
5.111822
 31
0.0
  0
LINE
  5
117
  8
0
 10
-105.090213
 20
5.111822
 30
0.0
 11
-105.054301
 21
5.022057
 31
0.0
  0
LINE
  5
118
  8
0
 10
-105.054301
 20
5.022057
 30
0.0
 11
-105.053017
 21
4.9246
 31
0.0
  0
LINE
  5
119
  8
0
 10
-105.053017
 20
4.9246
 30
0.0
 11
-105.063278
 21
4.783539
 31
0.0
  0
LINE
  5
11A
  8
0
 10
-105.063278
 20
4.783539
 30
0.0
 11
-105.114586
 21
4.697624
 31
0.0
  0
LINE
  5
11B
  8
0
 10
-105.114586
 20
4.697624
 30
0.0
 11
-105.20565
 21
4.591186
 31
0.0
  0
LINE
  5
11C
  8
0
 10
-105.20565
 20
4.591186
 30
0.0
 11
-105.342894
 21
4.509116
 31
0.0
  0
LINE
  5
11D
  8
0
 10
-105.342894
 20
4.509116
 30
0.0
 11
-105.473724
 21
4.442434
 31
0.0
  0
LINE
  5
11E
  8
0
 10
-105.473724
 20
4.442434
 30
0.0
 11
-105.573373
 21
4.425218
 31
0.0
  0
LINE
  5
11F
  8
0
 10
-105.5491
 20
4.13524
 30
0.0
 11
-105.466219
 21
4.123579
 31
0.0
  0
LINE
  5
120
  8
0
 10
-105.466219
 20
4.123579
 30
0.0
 11
-105.413019
 21
4.089933
 31
0.0
  0
LINE
  5
121
  8
0
 10
-105.413019
 20
4.089933
 30
0.0
 11
-105.380449
 21
4.036745
 31
0.0
  0
LINE
  5
122
  8
0
 10
-105.380449
 20
4.036745
 30
0.0
 11
-105.365249
 21
3.972704
 31
0.0
  0
LINE
  5
123
  8
0
 10
-105.365249
 20
3.972704
 30
0.0
 11
-105.372771
 21
3.861921
 31
0.0
  0
LINE
  5
124
  8
0
 10
-88.205398
 20
5.414705
 30
0.0
 11
-87.867265
 21
4.062171
 31
0.0
  0
LINE
  5
125
  8
0
 10
-89.219798
 20
4.062171
 30
0.0
 11
-88.205398
 21
5.414705
 31
0.0
  0
LINE
  5
126
  8
0
 10
-87.773968
 20
3.688984
 30
0.0
 11
-87.65396
 21
3.208952
 31
0.0
  0
LINE
  5
127
  8
0
 10
-89.859713
 20
3.208952
 30
0.0
 11
-89.499689
 21
3.688984
 31
0.0
  0
LINE
  5
128
  8
0
 10
-82.614546
 20
4.301376
 30
0.0
 11
-80.440303
 21
4.301376
 31
0.0
  0
INSERT
  5
129
  8
0
 62
     4
  2
*X1
 10
-280.0
 20
-100.0
 30
0.0
1001
ACAD
1000
HATCH
1002
{
1070
    16
1000
ANSI37,I
1040
1.8
1040
0.0
1002
}
  0
ENDBLK
  5
333
  8
0
  0
BLOCK
  8
0
  2
*X1
 70
     1
 10
0.0
 20
0.0
 30
0.0
  3
*X1
  1

  0
LINE
  5
12B
  8
0
 62
     0
 10
172.576127
 20
103.208952
 30
0.0
 11
172.85948
 21
103.492304
 31
0.0
  0
LINE
  5
12C
  8
0
 62
     0
 10
174.620269
 20
105.253094
 30
0.0
 11
175.060247
 21
105.693072
 31
0.0
  0
LINE
  5
12D
  8
0
 62
     0
 10
173.502415
 20
104.13524
 30
0.0
 11
173.792393
 21
104.425218
 31
0.0
  0
LINE
  5
12E
  8
0
 62
     0
 10
172.257929
 20
103.208952
 30
0.0
 11
172.950116
 21
103.901139
 31
0.0
  0
LINE
  5
12F
  8
0
 62
     0
 10
174.302071
 20
105.253094
 30
0.0
 11
174.742049
 21
105.693072
 31
0.0
  0
LINE
  5
130
  8
0
 62
     0
 10
173.184217
 20
104.13524
 30
0.0
 11
173.474195
 21
104.425218
 31
0.0
  0
LINE
  5
131
  8
0
 62
     0
 10
171.939731
 20
103.208952
 30
0.0
 11
173.155997
 21
104.425218
 31
0.0
  0
LINE
  5
132
  8
0
 62
     0
 10
173.983873
 20
105.253094
 30
0.0
 11
174.423851
 21
105.693072
 31
0.0
  0
LINE
  5
133
  8
0
 62
     0
 10
171.621533
 20
103.208952
 30
0.0
 11
173.131389
 21
104.718808
 31
0.0
  0
LINE
  5
134
  8
0
 62
     0
 10
173.665675
 20
105.253094
 30
0.0
 11
174.105653
 21
105.693072
 31
0.0
  0
LINE
  5
135
  8
0
 62
     0
 10
171.303335
 20
103.208952
 30
0.0
 11
173.222025
 21
105.127642
 31
0.0
  0
LINE
  5
136
  8
0
 62
     0
 10
173.347477
 20
105.253094
 30
0.0
 11
173.787455
 21
105.693072
 31
0.0
  0
LINE
  5
137
  8
0
 62
     0
 10
171.118366
 20
103.342181
 30
0.0
 11
173.469257
 21
105.693072
 31
0.0
  0
LINE
  5
138
  8
0
 62
     0
 10
171.209002
 20
103.751015
 30
0.0
 11
173.151059
 21
105.693072
 31
0.0
  0
LINE
  5
139
  8
0
 62
     0
 10
171.299639
 20
104.15985
 30
0.0
 11
172.832861
 21
105.693072
 31
0.0
  0
LINE
  5
13A
  8
0
 62
     0
 10
171.390275
 20
104.568684
 30
0.0
 11
172.514663
 21
105.693072
 31
0.0
  0
LINE
  5
13B
  8
0
 62
     0
 10
171.480911
 20
104.977519
 30
0.0
 11
172.196465
 21
105.693072
 31
0.0
  0
LINE
  5
13C
  8
0
 62
     0
 10
171.571548
 20
105.386353
 30
0.0
 11
171.878267
 21
105.693072
 31
0.0
  0
LINE
  5
13D
  8
0
 62
     0
 10
170.939039
 20
105.072042
 30
0.0
 11
170.963999
 21
105.097002
 31
0.0
  0
LINE
  5
13E
  8
0
 62
     0
 10
168.757751
 20
103.208952
 30
0.0
 11
168.96008
 21
103.411282
 31
0.0
  0
LINE
  5
13F
  8
0
 62
     0
 10
170.620841
 20
105.072042
 30
0.0
 11
171.054636
 21
105.505837
 31
0.0
  0
LINE
  5
140
  8
0
 62
     0
 10
168.439553
 20
103.208952
 30
0.0
 11
169.050717
 21
103.820116
 31
0.0
  0
LINE
  5
141
  8
0
 62
     0
 10
170.302643
 20
105.072042
 30
0.0
 11
170.923673
 21
105.693072
 31
0.0
  0
LINE
  5
142
  8
0
 62
     0
 10
168.121355
 20
103.208952
 30
0.0
 11
169.141353
 21
104.228951
 31
0.0
  0
LINE
  5
143
  8
0
 62
     0
 10
169.984445
 20
105.072042
 30
0.0
 11
170.605474
 21
105.693072
 31
0.0
  0
LINE
  5
144
  8
0
 62
     0
 10
167.803157
 20
103.208952
 30
0.0
 11
169.23199
 21
104.637785
 31
0.0
  0
LINE
  5
145
  8
0
 62
     0
 10
169.666246
 20
105.072042
 30
0.0
 11
170.287276
 21
105.693072
 31
0.0
  0
LINE
  5
146
  8
0
 62
     0
 10
167.484959
 20
103.208952
 30
0.0
 11
169.322626
 21
105.04662
 31
0.0
  0
LINE
  5
147
  8
0
 62
     0
 10
169.348048
 20
105.072042
 30
0.0
 11
169.969078
 21
105.693072
 31
0.0
  0
LINE
  5
148
  8
0
 62
     0
 10
167.218966
 20
103.261158
 30
0.0
 11
169.65088
 21
105.693072
 31
0.0
  0
LINE
  5
149
  8
0
 62
     0
 10
167.309603
 20
103.669992
 30
0.0
 11
169.332682
 21
105.693072
 31
0.0
  0
LINE
  5
14A
  8
0
 62
     0
 10
167.400239
 20
104.078827
 30
0.0
 11
169.014484
 21
105.693072
 31
0.0
  0
LINE
  5
14B
  8
0
 62
     0
 10
167.490876
 20
104.487661
 30
0.0
 11
168.696286
 21
105.693072
 31
0.0
  0
LINE
  5
14C
  8
0
 62
     0
 10
167.581512
 20
104.896496
 30
0.0
 11
168.378088
 21
105.693072
 31
0.0
  0
LINE
  5
14D
  8
0
 62
     0
 10
167.43886
 20
105.072042
 30
0.0
 11
168.05989
 21
105.693072
 31
0.0
  0
LINE
  5
14E
  8
0
 62
     0
 10
167.120662
 20
105.072042
 30
0.0
 11
167.741692
 21
105.693072
 31
0.0
  0
LINE
  5
14F
  8
0
 62
     0
 10
166.802464
 20
105.072042
 30
0.0
 11
167.423494
 21
105.693072
 31
0.0
  0
LINE
  5
150
  8
0
 62
     0
 10
164.888376
 20
103.476152
 30
0.0
 11
165.368539
 21
103.956315
 31
0.0
  0
LINE
  5
151
  8
0
 62
     0
 10
166.484266
 20
105.072042
 30
0.0
 11
167.105296
 21
105.693072
 31
0.0
  0
LINE
  5
152
  8
0
 62
     0
 10
164.405466
 20
103.31144
 30
0.0
 11
165.459175
 21
104.365149
 31
0.0
  0
LINE
  5
153
  8
0
 62
     0
 10
166.166068
 20
105.072042
 30
0.0
 11
166.787098
 21
105.693072
 31
0.0
  0
LINE
  5
154
  8
0
 62
     0
 10
164.002769
 20
103.226941
 30
0.0
 11
165.549811
 21
104.773984
 31
0.0
  0
LINE
  5
155
  8
0
 62
     0
 10
166.130516
 20
105.354688
 30
0.0
 11
166.4689
 21
105.693072
 31
0.0
  0
LINE
  5
156
  8
0
 62
     0
 10
163.636859
 20
103.17923
 30
0.0
 11
165.640448
 21
105.182818
 31
0.0
  0
LINE
  5
157
  8
0
 62
     0
 10
163.289411
 20
103.149979
 30
0.0
 11
165.731084
 21
105.591652
 31
0.0
  0
LINE
  5
158
  8
0
 62
     0
 10
162.955891
 20
103.134657
 30
0.0
 11
165.514306
 21
105.693072
 31
0.0
  0
LINE
  5
159
  8
0
 62
     0
 10
162.634688
 20
103.131652
 30
0.0
 11
163.335119
 21
103.832084
 31
0.0
  0
LINE
  5
15A
  8
0
 62
     0
 10
163.723606
 20
104.22057
 30
0.0
 11
165.196108
 21
105.693072
 31
0.0
  0
LINE
  5
15B
  8
0
 62
     0
 10
162.324518
 20
103.139681
 30
0.0
 11
162.944469
 21
103.759631
 31
0.0
  0
LINE
  5
15C
  8
0
 62
     0
 10
163.814242
 20
104.629404
 30
0.0
 11
164.87791
 21
105.693072
 31
0.0
  0
LINE
  5
15D
  8
0
 62
     0
 10
162.024343
 20
103.157703
 30
0.0
 11
162.623312
 21
103.756673
 31
0.0
  0
LINE
  5
15E
  8
0
 62
     0
 10
163.904878
 20
105.038239
 30
0.0
 11
164.559711
 21
105.693072
 31
0.0
  0
LINE
  5
15F
  8
0
 62
     0
 10
161.733306
 20
103.184864
 30
0.0
 11
162.340799
 21
103.792357
 31
0.0
  0
LINE
  5
160
  8
0
 62
     0
 10
163.995515
 20
105.447073
 30
0.0
 11
164.241513
 21
105.693072
 31
0.0
  0
LINE
  5
161
  8
0
 62
     0
 10
161.452007
 20
103.221764
 30
0.0
 11
162.097229
 21
103.866985
 31
0.0
  0
LINE
  5
162
  8
0
 62
     0
 10
161.184171
 20
103.272125
 30
0.0
 11
161.902409
 21
103.990363
 31
0.0
  0
LINE
  5
163
  8
0
 62
     0
 10
160.928758
 20
103.33491
 30
0.0
 11
161.844836
 21
104.250989
 31
0.0
  0
LINE
  5
164
  8
0
 62
     0
 10
160.687321
 20
103.411671
 30
0.0
 11
161.935473
 21
104.659823
 31
0.0
  0
LINE
  5
165
  8
0
 62
     0
 10
160.466718
 20
103.509267
 30
0.0
 11
162.026109
 21
105.068658
 31
0.0
  0
LINE
  5
166
  8
0
 62
     0
 10
160.265103
 20
103.62585
 30
0.0
 11
162.116745
 21
105.477492
 31
0.0
  0
LINE
  5
167
  8
0
 62
     0
 10
160.101894
 20
103.780839
 30
0.0
 11
162.014127
 21
105.693072
 31
0.0
  0
LINE
  5
168
  8
0
 62
     0
 10
160.109248
 20
104.106391
 30
0.0
 11
161.695929
 21
105.693072
 31
0.0
  0
LINE
  5
169
  8
0
 62
     0
 10
158.893611
 20
103.208952
 30
0.0
 11
159.202478
 21
103.517819
 31
0.0
  0
LINE
  5
16A
  8
0
 62
     0
 10
160.199885
 20
104.515226
 30
0.0
 11
161.377731
 21
105.693072
 31
0.0
  0
LINE
  5
16B
  8
0
 62
     0
 10
158.575413
 20
103.208952
 30
0.0
 11
159.015392
 21
103.648931
 31
0.0
  0
LINE
  5
16C
  8
0
 62
     0
 10
160.290521
 20
104.92406
 30
0.0
 11
161.059533
 21
105.693072
 31
0.0
  0
LINE
  5
16D
  8
0
 62
     0
 10
158.257215
 20
103.208952
 30
0.0
 11
158.697194
 21
103.648931
 31
0.0
  0
LINE
  5
16E
  8
0
 62
     0
 10
160.381158
 20
105.332895
 30
0.0
 11
160.741335
 21
105.693072
 31
0.0
  0
LINE
  5
16F
  8
0
 62
     0
 10
157.939017
 20
103.208952
 30
0.0
 11
158.378996
 21
103.648931
 31
0.0
  0
LINE
  5
170
  8
0
 62
     0
 10
159.036088
 20
104.306023
 30
0.0
 11
159.175165
 21
104.4451
 31
0.0
  0
LINE
  5
171
  8
0
 62
     0
 10
157.620819
 20
103.208952
 30
0.0
 11
158.060797
 21
103.648931
 31
0.0
  0
LINE
  5
172
  8
0
 62
     0
 10
158.71789
 20
104.306023
 30
0.0
 11
159.007868
 21
104.596001
 31
0.0
  0
LINE
  5
173
  8
0
 62
     0
 10
157.302621
 20
103.208952
 30
0.0
 11
157.742599
 21
103.648931
 31
0.0
  0
LINE
  5
174
  8
0
 62
     0
 10
159.346762
 20
105.253094
 30
0.0
 11
159.65566
 21
105.561991
 31
0.0
  0
LINE
  5
175
  8
0
 62
     0
 10
158.399692
 20
104.306023
 30
0.0
 11
158.68967
 21
104.596001
 31
0.0
  0
LINE
  5
176
  8
0
 62
     0
 10
156.984423
 20
103.208952
 30
0.0
 11
157.424401
 21
103.648931
 31
0.0
  0
LINE
  5
177
  8
0
 62
     0
 10
159.028564
 20
105.253094
 30
0.0
 11
159.468543
 21
105.693072
 31
0.0
  0
LINE
  5
178
  8
0
 62
     0
 10
158.081494
 20
104.306023
 30
0.0
 11
158.371472
 21
104.596001
 31
0.0
  0
LINE
  5
179
  8
0
 62
     0
 10
156.666225
 20
103.208952
 30
0.0
 11
157.106203
 21
103.648931
 31
0.0
  0
LINE
  5
17A
  8
0
 62
     0
 10
158.710366
 20
105.253094
 30
0.0
 11
159.150345
 21
105.693072
 31
0.0
  0
LINE
  5
17B
  8
0
 62
     0
 10
157.763296
 20
104.306023
 30
0.0
 11
158.053274
 21
104.596001
 31
0.0
  0
LINE
  5
17C
  8
0
 62
     0
 10
156.348027
 20
103.208952
 30
0.0
 11
156.788005
 21
103.648931
 31
0.0
  0
LINE
  5
17D
  8
0
 62
     0
 10
158.392168
 20
105.253094
 30
0.0
 11
158.832147
 21
105.693072
 31
0.0
  0
LINE
  5
17E
  8
0
 62
     0
 10
157.445097
 20
104.306023
 30
0.0
 11
157.735076
 21
104.596001
 31
0.0
  0
LINE
  5
17F
  8
0
 62
     0
 10
156.029829
 20
103.208952
 30
0.0
 11
156.469807
 21
103.648931
 31
0.0
  0
LINE
  5
180
  8
0
 62
     0
 10
158.07397
 20
105.253094
 30
0.0
 11
158.513948
 21
105.693072
 31
0.0
  0
LINE
  5
181
  8
0
 62
     0
 10
157.126899
 20
104.306023
 30
0.0
 11
157.416878
 21
104.596001
 31
0.0
  0
LINE
  5
182
  8
0
 62
     0
 10
155.711631
 20
103.208952
 30
0.0
 11
156.318694
 21
103.816016
 31
0.0
  0
LINE
  5
183
  8
0
 62
     0
 10
157.755772
 20
105.253094
 30
0.0
 11
158.19575
 21
105.693072
 31
0.0
  0
LINE
  5
184
  8
0
 62
     0
 10
156.808701
 20
104.306023
 30
0.0
 11
157.09868
 21
104.596001
 31
0.0
  0
LINE
  5
185
  8
0
 62
     0
 10
155.393433
 20
103.208952
 30
0.0
 11
156.409331
 21
104.22485
 31
0.0
  0
LINE
  5
186
  8
0
 62
     0
 10
157.437574
 20
105.253094
 30
0.0
 11
157.877552
 21
105.693072
 31
0.0
  0
LINE
  5
187
  8
0
 62
     0
 10
156.490503
 20
104.306023
 30
0.0
 11
156.780482
 21
104.596001
 31
0.0
  0
LINE
  5
188
  8
0
 62
     0
 10
155.075235
 20
103.208952
 30
0.0
 11
156.499967
 21
104.633685
 31
0.0
  0
LINE
  5
189
  8
0
 62
     0
 10
157.119376
 20
105.253094
 30
0.0
 11
157.559354
 21
105.693072
 31
0.0
  0
LINE
  5
18A
  8
0
 62
     0
 10
154.757037
 20
103.208952
 30
0.0
 11
156.590603
 21
105.042519
 31
0.0
  0
LINE
  5
18B
  8
0
 62
     0
 10
156.801178
 20
105.253094
 30
0.0
 11
157.241156
 21
105.693072
 31
0.0
  0
LINE
  5
18C
  8
0
 62
     0
 10
154.486944
 20
103.257057
 30
0.0
 11
156.922958
 21
105.693072
 31
0.0
  0
LINE
  5
18D
  8
0
 62
     0
 10
154.57758
 20
103.665892
 30
0.0
 11
156.60476
 21
105.693072
 31
0.0
  0
LINE
  5
18E
  8
0
 62
     0
 10
154.668217
 20
104.074726
 30
0.0
 11
156.286562
 21
105.693072
 31
0.0
  0
LINE
  5
18F
  8
0
 62
     0
 10
153.484244
 20
103.208952
 30
0.0
 11
153.661705
 21
103.386413
 31
0.0
  0
LINE
  5
190
  8
0
 62
     0
 10
154.758853
 20
104.483561
 30
0.0
 11
155.968364
 21
105.693072
 31
0.0
  0
LINE
  5
191
  8
0
 62
     0
 10
153.166046
 20
103.208952
 30
0.0
 11
153.752341
 21
103.795247
 31
0.0
  0
LINE
  5
192
  8
0
 62
     0
 10
154.849489
 20
104.892395
 30
0.0
 11
155.650166
 21
105.693072
 31
0.0
  0
LINE
  5
193
  8
0
 62
     0
 10
152.847848
 20
103.208952
 30
0.0
 11
153.842978
 21
104.204082
 31
0.0
  0
LINE
  5
194
  8
0
 62
     0
 10
154.940126
 20
105.30123
 30
0.0
 11
155.331968
 21
105.693072
 31
0.0
  0
LINE
  5
195
  8
0
 62
     0
 10
152.52965
 20
103.208952
 30
0.0
 11
153.933614
 21
104.612916
 31
0.0
  0
LINE
  5
196
  8
0
 62
     0
 10
152.211452
 20
103.208952
 30
0.0
 11
154.024251
 21
105.021751
 31
0.0
  0
LINE
  5
197
  8
0
 62
     0
 10
151.893254
 20
103.208952
 30
0.0
 11
154.114887
 21
105.430585
 31
0.0
  0
LINE
  5
198
  8
0
 62
     0
 10
151.625533
 20
103.259429
 30
0.0
 11
154.059176
 21
105.693072
 31
0.0
  0
LINE
  5
199
  8
0
 62
     0
 10
151.458022
 20
103.410117
 30
0.0
 11
153.740978
 21
105.693072
 31
0.0
  0
LINE
  5
19A
  8
0
 62
     0
 10
151.290512
 20
103.560804
 30
0.0
 11
153.42278
 21
105.693072
 31
0.0
  0
LINE
  5
19B
  8
0
 62
     0
 10
151.123002
 20
103.711492
 30
0.0
 11
152.103081
 21
104.691571
 31
0.0
  0
LINE
  5
19C
  8
0
 62
     0
 10
152.283137
 20
104.871627
 30
0.0
 11
153.104582
 21
105.693072
 31
0.0
  0
LINE
  5
19D
  8
0
 62
     0
 10
150.955491
 20
103.86218
 30
0.0
 11
151.916307
 21
104.822995
 31
0.0
  0
LINE
  5
19E
  8
0
 62
     0
 10
152.373773
 20
105.280462
 30
0.0
 11
152.786384
 21
105.693072
 31
0.0
  0
LINE
  5
19F
  8
0
 62
     0
 10
150.787981
 20
104.012868
 30
0.0
 11
151.729532
 21
104.954419
 31
0.0
  0
LINE
  5
1A0
  8
0
 62
     0
 10
152.46441
 20
105.689296
 30
0.0
 11
152.468186
 21
105.693072
 31
0.0
  0
LINE
  5
1A1
  8
0
 62
     0
 10
149.665868
 20
103.208952
 30
0.0
 11
149.862046
 21
103.405131
 31
0.0
  0
LINE
  5
1A2
  8
0
 62
     0
 10
150.620471
 20
104.163555
 30
0.0
 11
151.542758
 21
105.085842
 31
0.0
  0
LINE
  5
1A3
  8
0
 62
     0
 10
149.34767
 20
103.208952
 30
0.0
 11
149.952683
 21
103.813965
 31
0.0
  0
LINE
  5
1A4
  8
0
 62
     0
 10
150.45296
 20
104.314243
 30
0.0
 11
151.355983
 21
105.217266
 31
0.0
  0
LINE
  5
1A5
  8
0
 62
     0
 10
149.029472
 20
103.208952
 30
0.0
 11
150.043319
 21
104.2228
 31
0.0
  0
LINE
  5
1A6
  8
0
 62
     0
 10
150.28545
 20
104.464931
 30
0.0
 11
151.169209
 21
105.34869
 31
0.0
  0
LINE
  5
1A7
  8
0
 62
     0
 10
148.711274
 20
103.208952
 30
0.0
 11
150.982435
 21
105.480113
 31
0.0
  0
LINE
  5
1A8
  8
0
 62
     0
 10
148.393076
 20
103.208952
 30
0.0
 11
150.79566
 21
105.611537
 31
0.0
  0
LINE
  5
1A9
  8
0
 62
     0
 10
148.120932
 20
103.255007
 30
0.0
 11
150.558997
 21
105.693072
 31
0.0
  0
LINE
  5
1AA
  8
0
 62
     0
 10
148.211569
 20
103.663842
 30
0.0
 11
150.240799
 21
105.693072
 31
0.0
  0
LINE
  5
1AB
  8
0
 62
     0
 10
148.302205
 20
104.072676
 30
0.0
 11
149.922601
 21
105.693072
 31
0.0
  0
LINE
  5
1AC
  8
0
 62
     0
 10
148.392842
 20
104.481511
 30
0.0
 11
149.604403
 21
105.693072
 31
0.0
  0
LINE
  5
1AD
  8
0
 62
     0
 10
148.483478
 20
104.890345
 30
0.0
 11
149.286205
 21
105.693072
 31
0.0
  0
LINE
  5
1AE
  8
0
 62
     0
 10
148.574115
 20
105.29918
 30
0.0
 11
148.968007
 21
105.693072
 31
0.0
  0
LINE
  5
1AF
  8
0
 62
     0
 10
173.820613
 20
104.13524
 30
0.0
 11
174.110591
 21
104.425218
 31
0.0
  0
LINE
  5
1B0
  8
0
 62
     0
 10
174.86666
 20
105.181287
 30
0.0
 11
175.378445
 21
105.693072
 31
0.0
  0
LINE
  5
1B1
  8
0
 62
     0
 10
174.138811
 20
104.13524
 30
0.0
 11
174.429241
 21
104.42567
 31
0.0
  0
LINE
  5
1B2
  8
0
 62
     0
 10
174.946739
 20
104.943167
 30
0.0
 11
175.696643
 21
105.693072
 31
0.0
  0
LINE
  5
1B3
  8
0
 62
     0
 10
174.456256
 20
104.134486
 30
0.0
 11
176.014671
 21
105.692902
 31
0.0
  0
LINE
  5
1B4
  8
0
 62
     0
 10
174.630516
 20
103.990548
 30
0.0
 11
176.298943
 21
105.658976
 31
0.0
  0
LINE
  5
1B5
  8
0
 62
     0
 10
174.613
 20
103.654835
 30
0.0
 11
176.535113
 21
105.576948
 31
0.0
  0
LINE
  5
1B6
  8
0
 62
     0
 10
174.605261
 20
103.328897
 30
0.0
 11
176.725075
 21
105.448711
 31
0.0
  0
LINE
  5
1B7
  8
0
 62
     0
 10
174.803514
 20
103.208952
 30
0.0
 11
176.8509
 21
105.256338
 31
0.0
  0
LINE
  5
1B8
  8
0
 62
     0
 10
175.121712
 20
103.208952
 30
0.0
 11
176.221213
 21
104.308453
 31
0.0
  0
LINE
  5
1B9
  8
0
 62
     0
 10
176.266083
 20
104.353323
 30
0.0
 11
176.834229
 21
104.921469
 31
0.0
  0
LINE
  5
1BA
  8
0
 62
     0
 10
175.43991
 20
103.208952
 30
0.0
 11
176.345758
 21
104.1148
 31
0.0
  0
LINE
  5
1BB
  8
0
 62
     0
 10
177.629233
 20
105.398275
 30
0.0
 11
177.92403
 21
105.693072
 31
0.0
  0
LINE
  5
1BC
  8
0
 62
     0
 10
175.758108
 20
103.208952
 30
0.0
 11
176.329942
 21
103.780786
 31
0.0
  0
LINE
  5
1BD
  8
0
 62
     0
 10
177.538596
 20
104.98944
 30
0.0
 11
178.242228
 21
105.693072
 31
0.0
  0
LINE
  5
1BE
  8
0
 62
     0
 10
176.076306
 20
103.208952
 30
0.0
 11
176.307193
 21
103.439839
 31
0.0
  0
LINE
  5
1BF
  8
0
 62
     0
 10
177.44796
 20
104.580606
 30
0.0
 11
178.560426
 21
105.693072
 31
0.0
  0
LINE
  5
1C0
  8
0
 62
     0
 10
177.357323
 20
104.171772
 30
0.0
 11
178.878624
 21
105.693072
 31
0.0
  0
LINE
  5
1C1
  8
0
 62
     0
 10
177.266687
 20
103.762937
 30
0.0
 11
179.196822
 21
105.693072
 31
0.0
  0
LINE
  5
1C2
  8
0
 62
     0
 10
177.176051
 20
103.354103
 30
0.0
 11
179.370347
 21
105.548399
 31
0.0
  0
LINE
  5
1C3
  8
0
 62
     0
 10
177.349098
 20
103.208952
 30
0.0
 11
179.27971
 21
105.139564
 31
0.0
  0
LINE
  5
1C4
  8
0
 62
     0
 10
177.667296
 20
103.208952
 30
0.0
 11
179.189074
 21
104.73073
 31
0.0
  0
LINE
  5
1C5
  8
0
 62
     0
 10
177.985494
 20
103.208952
 30
0.0
 11
179.098437
 21
104.321895
 31
0.0
  0
LINE
  5
1C6
  8
0
 62
     0
 10
180.395067
 20
105.618525
 30
0.0
 11
180.469614
 21
105.693072
 31
0.0
  0
LINE
  5
1C7
  8
0
 62
     0
 10
178.303692
 20
103.208952
 30
0.0
 11
179.007801
 21
103.913061
 31
0.0
  0
LINE
  5
1C8
  8
0
 62
     0
 10
180.30443
 20
105.20969
 30
0.0
 11
180.787812
 21
105.693072
 31
0.0
  0
LINE
  5
1C9
  8
0
 62
     0
 10
178.62189
 20
103.208952
 30
0.0
 11
178.917164
 21
103.504226
 31
0.0
  0
LINE
  5
1CA
  8
0
 62
     0
 10
180.213794
 20
104.800856
 30
0.0
 11
181.10601
 21
105.693072
 31
0.0
  0
LINE
  5
1CB
  8
0
 62
     0
 10
180.123158
 20
104.392021
 30
0.0
 11
181.424208
 21
105.693072
 31
0.0
  0
LINE
  5
1CC
  8
0
 62
     0
 10
180.032521
 20
103.983187
 30
0.0
 11
181.742406
 21
105.693072
 31
0.0
  0
LINE
  5
1CD
  8
0
 62
     0
 10
179.941885
 20
103.574352
 30
0.0
 11
182.03644
 21
105.668908
 31
0.0
  0
LINE
  5
1CE
  8
0
 62
     0
 10
179.894683
 20
103.208952
 30
0.0
 11
181.945804
 21
105.260073
 31
0.0
  0
LINE
  5
1CF
  8
0
 62
     0
 10
180.212881
 20
103.208952
 30
0.0
 11
181.857718
 21
104.853789
 31
0.0
  0
LINE
  5
1D0
  8
0
 62
     0
 10
180.531079
 20
103.208952
 30
0.0
 11
182.412196
 21
105.09007
 31
0.0
  0
LINE
  5
1D1
  8
0
 62
     0
 10
180.849277
 20
103.208952
 30
0.0
 11
182.966675
 21
105.326351
 31
0.0
  0
LINE
  5
1D2
  8
0
 62
     0
 10
181.167475
 20
103.208952
 30
0.0
 11
181.583258
 21
103.624735
 31
0.0
  0
LINE
  5
1D3
  8
0
 62
     0
 10
181.907125
 20
103.948602
 30
0.0
 11
183.521154
 21
105.562631
 31
0.0
  0
LINE
  5
1D4
  8
0
 62
     0
 10
181.485673
 20
103.208952
 30
0.0
 11
181.492621
 21
103.215901
 31
0.0
  0
LINE
  5
1D5
  8
0
 62
     0
 10
182.38713
 20
104.110409
 30
0.0
 11
183.969793
 21
105.693072
 31
0.0
  0
LINE
  5
1D6
  8
0
 62
     0
 10
182.545159
 20
103.95024
 30
0.0
 11
184.287991
 21
105.693072
 31
0.0
  0
LINE
  5
1D7
  8
0
 62
     0
 10
182.703188
 20
103.790071
 30
0.0
 11
184.606189
 21
105.693072
 31
0.0
  0
LINE
  5
1D8
  8
0
 62
     0
 10
182.861217
 20
103.629902
 30
0.0
 11
184.033479
 21
104.802165
 31
0.0
  0
LINE
  5
1D9
  8
0
 62
     0
 10
184.12504
 20
104.893725
 30
0.0
 11
184.924387
 21
105.693072
 31
0.0
  0
LINE
  5
1DA
  8
0
 62
     0
 10
183.019246
 20
103.469733
 30
0.0
 11
184.191508
 21
104.641995
 31
0.0
  0
LINE
  5
1DB
  8
0
 62
     0
 10
184.679519
 20
105.130006
 30
0.0
 11
185.242585
 21
105.693072
 31
0.0
  0
LINE
  5
1DC
  8
0
 62
     0
 10
183.177275
 20
103.309564
 30
0.0
 11
184.349537
 21
104.481826
 31
0.0
  0
LINE
  5
1DD
  8
0
 62
     0
 10
185.233998
 20
105.366287
 30
0.0
 11
185.560783
 21
105.693072
 31
0.0
  0
LINE
  5
1DE
  8
0
 62
     0
 10
183.394861
 20
103.208952
 30
0.0
 11
184.507566
 21
104.321657
 31
0.0
  0
LINE
  5
1DF
  8
0
 62
     0
 10
185.788476
 20
105.602567
 30
0.0
 11
185.878981
 21
105.693072
 31
0.0
  0
LINE
  5
1E0
  8
0
 62
     0
 10
183.713059
 20
103.208952
 30
0.0
 11
184.665595
 21
104.161488
 31
0.0
  0
LINE
  5
1E1
  8
0
 62
     0
 10
184.031257
 20
103.208952
 30
0.0
 11
184.823624
 21
104.001319
 31
0.0
  0
LINE
  5
1E2
  8
0
 62
     0
 10
184.349455
 20
103.208952
 30
0.0
 11
184.981653
 21
103.84115
 31
0.0
  0
LINE
  5
1E3
  8
0
 62
     0
 10
184.667653
 20
103.208952
 30
0.0
 11
185.139682
 21
103.680981
 31
0.0
  0
LINE
  5
1E4
  8
0
 62
     0
 10
184.985851
 20
103.208952
 30
0.0
 11
185.297711
 21
103.520812
 31
0.0
  0
LINE
  5
1E5
  8
0
 62
     0
 10
185.30405
 20
103.208952
 30
0.0
 11
185.45574
 21
103.360643
 31
0.0
  0
LINE
  5
1E6
  8
0
 62
     0
 10
190.307701
 20
105.66702
 30
0.0
 11
190.334482
 21
105.693801
 31
0.0
  0
LINE
  5
1E7
  8
0
 62
     0
 10
189.353107
 20
104.394227
 30
0.0
 11
190.65268
 21
105.693801
 31
0.0
  0
LINE
  5
1E8
  8
0
 62
     0
 10
188.48603
 20
103.208952
 30
0.0
 11
190.970879
 21
105.693801
 31
0.0
  0
LINE
  5
1E9
  8
0
 62
     0
 10
188.804228
 20
103.208952
 30
0.0
 11
191.289077
 21
105.693801
 31
0.0
  0
LINE
  5
1EA
  8
0
 62
     0
 10
189.122426
 20
103.208952
 30
0.0
 11
191.607275
 21
105.693801
 31
0.0
  0
LINE
  5
1EB
  8
0
 62
     0
 10
189.440624
 20
103.208952
 30
0.0
 11
191.925473
 21
105.693801
 31
0.0
  0
LINE
  5
1EC
  8
0
 62
     0
 10
189.758822
 20
103.208952
 30
0.0
 11
191.284682
 21
104.734812
 31
0.0
  0
LINE
  5
1ED
  8
0
 62
     0
 10
191.828596
 20
105.278726
 30
0.0
 11
192.243671
 21
105.693801
 31
0.0
  0
LINE
  5
1EE
  8
0
 62
     0
 10
190.07702
 20
103.208952
 30
0.0
 11
190.330088
 21
103.46202
 31
0.0
  0
LINE
  5
1EF
  8
0
 62
     0
 10
191.892236
 20
105.024168
 30
0.0
 11
192.561869
 21
105.693801
 31
0.0
  0
LINE
  5
1F0
  8
0
 62
     0
 10
190.557052
 20
103.688984
 30
0.0
 11
190.93024
 21
104.062171
 31
0.0
  0
LINE
  5
1F1
  8
0
 62
     0
 10
190.87525
 20
103.688984
 30
0.0
 11
191.248438
 21
104.062171
 31
0.0
  0
LINE
  5
1F2
  8
0
 62
     0
 10
191.955876
 20
104.76961
 30
0.0
 11
192.880067
 21
105.693801
 31
0.0
  0
LINE
  5
1F3
  8
0
 62
     0
 10
191.193448
 20
103.688984
 30
0.0
 11
191.566636
 21
104.062171
 31
0.0
  0
LINE
  5
1F4
  8
0
 62
     0
 10
192.019515
 20
104.515051
 30
0.0
 11
193.198265
 21
105.693801
 31
0.0
  0
LINE
  5
1F5
  8
0
 62
     0
 10
191.511646
 20
103.688984
 30
0.0
 11
191.884834
 21
104.062171
 31
0.0
  0
LINE
  5
1F6
  8
0
 62
     0
 10
192.083155
 20
104.260493
 30
0.0
 11
193.329286
 21
105.506623
 31
0.0
  0
LINE
  5
1F7
  8
0
 62
     0
 10
191.829844
 20
103.688984
 30
0.0
 11
193.392925
 21
105.252065
 31
0.0
  0
LINE
  5
1F8
  8
0
 62
     0
 10
192.148042
 20
103.688984
 30
0.0
 11
193.456565
 21
104.997506
 31
0.0
  0
LINE
  5
1F9
  8
0
 62
     0
 10
192.274074
 20
103.496817
 30
0.0
 11
193.520204
 21
104.742948
 31
0.0
  0
LINE
  5
1FA
  8
0
 62
     0
 10
192.337713
 20
103.242259
 30
0.0
 11
193.583844
 21
104.48839
 31
0.0
  0
LINE
  5
1FB
  8
0
 62
     0
 10
192.622605
 20
103.208952
 30
0.0
 11
193.647484
 21
104.233831
 31
0.0
  0
LINE
  5
1FC
  8
0
 62
     0
 10
192.940803
 20
103.208952
 30
0.0
 11
193.711123
 21
103.979273
 31
0.0
  0
LINE
  5
1FD
  8
0
 62
     0
 10
194.864033
 20
105.132182
 30
0.0
 11
195.244054
 21
105.512203
 31
0.0
  0
LINE
  5
1FE
  8
0
 62
     0
 10
193.259001
 20
103.208952
 30
0.0
 11
193.774763
 21
103.724714
 31
0.0
  0
LINE
  5
1FF
  8
0
 62
     0
 10
194.795915
 20
104.745866
 30
0.0
 11
195.618586
 21
105.568537
 31
0.0
  0
LINE
  5
200
  8
0
 62
     0
 10
193.577199
 20
103.208952
 30
0.0
 11
193.838402
 21
103.470156
 31
0.0
  0
LINE
  5
201
  8
0
 62
     0
 10
194.727797
 20
104.35955
 30
0.0
 11
195.981303
 21
105.613056
 31
0.0
  0
LINE
  5
202
  8
0
 62
     0
 10
193.895397
 20
103.208952
 30
0.0
 11
193.902042
 21
103.215597
 31
0.0
  0
LINE
  5
203
  8
0
 62
     0
 10
194.659679
 20
103.973234
 30
0.0
 11
196.333358
 21
105.646913
 31
0.0
  0
LINE
  5
204
  8
0
 62
     0
 10
194.615277
 20
103.610634
 30
0.0
 11
196.67571
 21
105.671067
 31
0.0
  0
LINE
  5
205
  8
0
 62
     0
 10
194.737894
 20
103.415053
 30
0.0
 11
197.009165
 21
105.686324
 31
0.0
  0
LINE
  5
206
  8
0
 62
     0
 10
194.983951
 20
103.342913
 30
0.0
 11
196.340819
 21
104.69978
 31
0.0
  0
LINE
  5
207
  8
0
 62
     0
 10
196.88271
 20
105.241671
 30
0.0
 11
197.334409
 21
105.69337
 31
0.0
  0
LINE
  5
208
  8
0
 62
     0
 10
195.265203
 20
103.305966
 30
0.0
 11
196.272701
 21
104.313464
 31
0.0
  0
LINE
  5
209
  8
0
 62
     0
 10
197.219219
 20
105.259982
 30
0.0
 11
197.652032
 21
105.692795
 31
0.0
  0
LINE
  5
20A
  8
0
 62
     0
 10
195.551822
 20
103.274387
 30
0.0
 11
196.225094
 21
103.947659
 31
0.0
  0
LINE
  5
20B
  8
0
 62
     0
 10
197.526321
 20
105.248886
 30
0.0
 11
197.962545
 21
105.68511
 31
0.0
  0
LINE
  5
20C
  8
0
 62
     0
 10
195.844088
 20
103.248455
 30
0.0
 11
196.343872
 21
103.748239
 31
0.0
  0
LINE
  5
20D
  8
0
 62
     0
 10
197.810421
 20
105.214788
 30
0.0
 11
198.266395
 21
105.670762
 31
0.0
  0
LINE
  5
20E
  8
0
 62
     0
 10
196.142312
 20
103.228481
 30
0.0
 11
196.588304
 21
103.674473
 31
0.0
  0
LINE
  5
20F
  8
0
 62
     0
 10
198.025995
 20
105.112164
 30
0.0
 11
198.563973
 21
105.650142
 31
0.0
  0
LINE
  5
210
  8
0
 62
     0
 10
196.446847
 20
103.214818
 30
0.0
 11
196.883622
 21
103.651593
 31
0.0
  0
LINE
  5
211
  8
0
 62
     0
 10
198.196022
 20
104.963993
 30
0.0
 11
198.855628
 21
105.623599
 31
0.0
  0
LINE
  5
212
  8
0
 62
     0
 10
197.353782
 20
104.121752
 30
0.0
 11
197.533406
 21
104.301376
 31
0.0
  0
LINE
  5
213
  8
0
 62
     0
 10
196.75809
 20
103.207862
 30
0.0
 11
197.204833
 21
103.654605
 31
0.0
  0
LINE
  5
214
  8
0
 62
     0
 10
198.51422
 20
104.963993
 30
0.0
 11
199.141667
 21
105.59144
 31
0.0
  0
LINE
  5
215
  8
0
 62
     0
 10
197.628876
 20
104.078649
 30
0.0
 11
197.851604
 21
104.301376
 31
0.0
  0
LINE
  5
216
  8
0
 62
     0
 10
197.076493
 20
103.208068
 30
0.0
 11
197.560393
 21
103.691967
 31
0.0
  0
LINE
  5
217
  8
0
 62
     0
 10
198.832418
 20
104.963993
 30
0.0
 11
199.422367
 21
105.553941
 31
0.0
  0
LINE
  5
218
  8
0
 62
     0
 10
197.947074
 20
104.078649
 30
0.0
 11
198.169802
 21
104.301376
 31
0.0
  0
LINE
  5
219
  8
0
 62
     0
 10
197.402575
 20
103.215952
 30
0.0
 11
198.488
 21
104.301376
 31
0.0
  0
LINE
  5
21A
  8
0
 62
     0
 10
199.150616
 20
104.963993
 30
0.0
 11
199.638742
 21
105.452118
 31
0.0
  0
LINE
  5
21B
  8
0
 62
     0
 10
197.736936
 20
103.232115
 30
0.0
 11
198.806198
 21
104.301376
 31
0.0
  0
LINE
  5
21C
  8
0
 62
     0
 10
199.468814
 20
104.963993
 30
0.0
 11
199.719549
 21
105.214728
 31
0.0
  0
LINE
  5
21D
  8
0
 62
     0
 10
198.031972
 20
103.208952
 30
0.0
 11
199.124396
 21
104.301376
 31
0.0
  0
LINE
  5
21E
  8
0
 62
     0
 10
198.35017
 20
103.208952
 30
0.0
 11
199.442594
 21
104.301376
 31
0.0
  0
LINE
  5
21F
  8
0
 62
     0
 10
198.668368
 20
103.208952
 30
0.0
 11
199.516647
 21
104.057232
 31
0.0
  0
LINE
  5
220
  8
0
 62
     0
 10
198.986566
 20
103.208952
 30
0.0
 11
199.448529
 21
103.670916
 31
0.0
  0
LINE
  5
221
  8
0
 62
     0
 10
199.304764
 20
103.208952
 30
0.0
 11
199.380411
 21
103.2846
 31
0.0
  0
LINE
  5
222
  8
0
 62
     0
 10
174.896145
 20
103.208952
 30
0.0
 11
174.602537
 21
103.50256
 31
0.0
  0
LINE
  5
223
  8
0
 62
     0
 10
173.177644
 20
104.927453
 30
0.0
 11
172.412025
 21
105.693072
 31
0.0
  0
LINE
  5
224
  8
0
 62
     0
 10
173.969857
 20
104.13524
 30
0.0
 11
173.679879
 21
104.425218
 31
0.0
  0
LINE
  5
225
  8
0
 62
     0
 10
173.651659
 20
104.13524
 30
0.0
 11
173.361681
 21
104.425218
 31
0.0
  0
LINE
  5
226
  8
0
 62
     0
 10
173.119903
 20
104.666996
 30
0.0
 11
172.093827
 21
105.693072
 31
0.0
  0
LINE
  5
227
  8
0
 62
     0
 10
173.333461
 20
104.13524
 30
0.0
 11
171.775629
 21
105.693072
 31
0.0
  0
LINE
  5
228
  8
0
 62
     0
 10
173.015263
 20
104.13524
 30
0.0
 11
171.606498
 21
105.544005
 31
0.0
  0
LINE
  5
229
  8
0
 62
     0
 10
172.946677
 20
103.885628
 30
0.0
 11
171.548757
 21
105.283548
 31
0.0
  0
LINE
  5
22A
  8
0
 62
     0
 10
172.888936
 20
103.625171
 30
0.0
 11
171.491015
 21
105.023092
 31
0.0
  0
LINE
  5
22B
  8
0
 62
     0
 10
171.046222
 20
105.467885
 30
0.0
 11
170.821035
 21
105.693072
 31
0.0
  0
LINE
  5
22C
  8
0
 62
     0
 10
172.831194
 20
103.364715
 30
0.0
 11
171.433273
 21
104.762636
 31
0.0
  0
LINE
  5
22D
  8
0
 62
     0
 10
170.98848
 20
105.207429
 30
0.0
 11
170.502837
 21
105.693072
 31
0.0
  0
LINE
  5
22E
  8
0
 62
     0
 10
172.668758
 20
103.208952
 30
0.0
 11
171.375531
 21
104.502179
 31
0.0
  0
LINE
  5
22F
  8
0
 62
     0
 10
170.805669
 20
105.072042
 30
0.0
 11
170.184639
 21
105.693072
 31
0.0
  0
LINE
  5
230
  8
0
 62
     0
 10
172.35056
 20
103.208952
 30
0.0
 11
171.317789
 21
104.241723
 31
0.0
  0
LINE
  5
231
  8
0
 62
     0
 10
170.487471
 20
105.072042
 30
0.0
 11
169.866441
 21
105.693072
 31
0.0
  0
LINE
  5
232
  8
0
 62
     0
 10
172.032362
 20
103.208952
 30
0.0
 11
171.260048
 21
103.981267
 31
0.0
  0
LINE
  5
233
  8
0
 62
     0
 10
170.169273
 20
105.072042
 30
0.0
 11
169.548243
 21
105.693072
 31
0.0
  0
LINE
  5
234
  8
0
 62
     0
 10
171.714164
 20
103.208952
 30
0.0
 11
171.202306
 21
103.720811
 31
0.0
  0
LINE
  5
235
  8
0
 62
     0
 10
169.851075
 20
105.072042
 30
0.0
 11
169.230045
 21
105.693072
 31
0.0
  0
LINE
  5
236
  8
0
 62
     0
 10
171.395966
 20
103.208952
 30
0.0
 11
171.144564
 21
103.460354
 31
0.0
  0
LINE
  5
237
  8
0
 62
     0
 10
169.532876
 20
105.072042
 30
0.0
 11
168.911847
 21
105.693072
 31
0.0
  0
LINE
  5
238
  8
0
 62
     0
 10
169.307651
 20
104.97907
 30
0.0
 11
168.593648
 21
105.693072
 31
0.0
  0
LINE
  5
239
  8
0
 62
     0
 10
169.249909
 20
104.718614
 30
0.0
 11
168.27545
 21
105.693072
 31
0.0
  0
LINE
  5
23A
  8
0
 62
     0
 10
169.192167
 20
104.458157
 30
0.0
 11
167.957252
 21
105.693072
 31
0.0
  0
LINE
  5
23B
  8
0
 62
     0
 10
169.134425
 20
104.197701
 30
0.0
 11
167.639054
 21
105.693072
 31
0.0
  0
LINE
  5
23C
  8
0
 62
     0
 10
169.076683
 20
103.937245
 30
0.0
 11
167.320856
 21
105.693072
 31
0.0
  0
LINE
  5
23D
  8
0
 62
     0
 10
169.018942
 20
103.676788
 30
0.0
 11
167.002658
 21
105.693072
 31
0.0
  0
LINE
  5
23E
  8
0
 62
     0
 10
168.9612
 20
103.416332
 30
0.0
 11
167.563279
 21
104.814253
 31
0.0
  0
LINE
  5
23F
  8
0
 62
     0
 10
167.30549
 20
105.072042
 30
0.0
 11
166.68446
 21
105.693072
 31
0.0
  0
LINE
  5
240
  8
0
 62
     0
 10
168.850382
 20
103.208952
 30
0.0
 11
167.505537
 21
104.553797
 31
0.0
  0
LINE
  5
241
  8
0
 62
     0
 10
166.987292
 20
105.072042
 30
0.0
 11
166.366262
 21
105.693072
 31
0.0
  0
LINE
  5
242
  8
0
 62
     0
 10
168.532184
 20
103.208952
 30
0.0
 11
167.447796
 21
104.29334
 31
0.0
  0
LINE
  5
243
  8
0
 62
     0
 10
166.669094
 20
105.072042
 30
0.0
 11
166.176959
 21
105.564177
 31
0.0
  0
LINE
  5
244
  8
0
 62
     0
 10
168.213986
 20
103.208952
 30
0.0
 11
167.390054
 21
104.032884
 31
0.0
  0
LINE
  5
245
  8
0
 62
     0
 10
165.749267
 20
105.673671
 30
0.0
 11
165.729866
 21
105.693072
 31
0.0
  0
LINE
  5
246
  8
0
 62
     0
 10
166.350896
 20
105.072042
 30
0.0
 11
166.119217
 21
105.303721
 31
0.0
  0
LINE
  5
247
  8
0
 62
     0
 10
167.895788
 20
103.208952
 30
0.0
 11
167.332312
 21
103.772428
 31
0.0
  0
LINE
  5
248
  8
0
 62
     0
 10
165.691525
 20
105.413214
 30
0.0
 11
165.411668
 21
105.693072
 31
0.0
  0
LINE
  5
249
  8
0
 62
     0
 10
167.57759
 20
103.208952
 30
0.0
 11
167.27457
 21
103.511971
 31
0.0
  0
LINE
  5
24A
  8
0
 62
     0
 10
165.633784
 20
105.152758
 30
0.0
 11
165.09347
 21
105.693072
 31
0.0
  0
LINE
  5
24B
  8
0
 62
     0
 10
167.259392
 20
103.208952
 30
0.0
 11
167.216829
 21
103.251515
 31
0.0
  0
LINE
  5
24C
  8
0
 62
     0
 10
165.576042
 20
104.892302
 30
0.0
 11
164.775272
 21
105.693072
 31
0.0
  0
LINE
  5
24D
  8
0
 62
     0
 10
165.5183
 20
104.631846
 30
0.0
 11
164.457074
 21
105.693072
 31
0.0
  0
LINE
  5
24E
  8
0
 62
     0
 10
165.460558
 20
104.371389
 30
0.0
 11
164.138876
 21
105.693072
 31
0.0
  0
LINE
  5
24F
  8
0
 62
     0
 10
165.402817
 20
104.110933
 30
0.0
 11
164.008428
 21
105.505322
 31
0.0
  0
LINE
  5
250
  8
0
 62
     0
 10
165.345075
 20
103.850477
 30
0.0
 11
163.950686
 21
105.244865
 31
0.0
  0
LINE
  5
251
  8
0
 62
     0
 10
165.213808
 20
103.663545
 30
0.0
 11
163.892945
 21
104.984409
 31
0.0
  0
LINE
  5
252
  8
0
 62
     0
 10
165.017448
 20
103.541707
 30
0.0
 11
163.835203
 21
104.723953
 31
0.0
  0
LINE
  5
253
  8
0
 62
     0
 10
164.802652
 20
103.438305
 30
0.0
 11
163.777461
 21
104.463496
 31
0.0
  0
LINE
  5
254
  8
0
 62
     0
 10
164.567173
 20
103.355586
 30
0.0
 11
163.719719
 21
104.20304
 31
0.0
  0
LINE
  5
255
  8
0
 62
     0
 10
164.315183
 20
103.289379
 30
0.0
 11
163.618712
 21
103.98585
 31
0.0
  0
LINE
  5
256
  8
0
 62
     0
 10
162.118619
 20
105.485943
 30
0.0
 11
161.911489
 21
105.693072
 31
0.0
  0
LINE
  5
257
  8
0
 62
     0
 10
164.051144
 20
103.235219
 30
0.0
 11
163.422176
 21
103.864188
 31
0.0
  0
LINE
  5
258
  8
0
 62
     0
 10
162.060877
 20
105.225486
 30
0.0
 11
161.593291
 21
105.693072
 31
0.0
  0
LINE
  5
259
  8
0
 62
     0
 10
163.77367
 20
103.194495
 30
0.0
 11
163.177404
 21
103.790761
 31
0.0
  0
LINE
  5
25A
  8
0
 62
     0
 10
162.003135
 20
104.96503
 30
0.0
 11
161.275093
 21
105.693072
 31
0.0
  0
LINE
  5
25B
  8
0
 62
     0
 10
163.485182
 20
103.164785
 30
0.0
 11
162.893835
 21
103.756132
 31
0.0
  0
LINE
  5
25C
  8
0
 62
     0
 10
161.945393
 20
104.704574
 30
0.0
 11
160.956895
 21
105.693072
 31
0.0
  0
LINE
  5
25D
  8
0
 62
     0
 10
163.187779
 20
103.14399
 30
0.0
 11
162.571275
 21
103.760495
 31
0.0
  0
LINE
  5
25E
  8
0
 62
     0
 10
161.887652
 20
104.444117
 30
0.0
 11
160.638697
 21
105.693072
 31
0.0
  0
LINE
  5
25F
  8
0
 62
     0
 10
162.88065
 20
103.132921
 30
0.0
 11
162.17665
 21
103.836921
 31
0.0
  0
LINE
  5
260
  8
0
 62
     0
 10
161.82991
 20
104.183661
 30
0.0
 11
160.43551
 21
105.578061
 31
0.0
  0
LINE
  5
261
  8
0
 62
     0
 10
162.562817
 20
103.132556
 30
0.0
 11
160.377768
 21
105.317605
 31
0.0
  0
LINE
  5
262
  8
0
 62
     0
 10
162.233074
 20
103.144101
 30
0.0
 11
160.320026
 21
105.057149
 31
0.0
  0
LINE
  5
263
  8
0
 62
     0
 10
159.684608
 20
105.692567
 30
0.0
 11
159.684103
 21
105.693072
 31
0.0
  0
LINE
  5
264
  8
0
 62
     0
 10
161.889919
 20
103.169058
 30
0.0
 11
160.262284
 21
104.796692
 31
0.0
  0
LINE
  5
265
  8
0
 62
     0
 10
159.626866
 20
105.432111
 30
0.0
 11
159.365905
 21
105.693072
 31
0.0
  0
LINE
  5
266
  8
0
 62
     0
 10
161.530904
 20
103.209875
 30
0.0
 11
160.204543
 21
104.536236
 31
0.0
  0
LINE
  5
267
  8
0
 62
     0
 10
159.487685
 20
105.253094
 30
0.0
 11
159.047707
 21
105.693072
 31
0.0
  0
LINE
  5
268
  8
0
 62
     0
 10
161.140832
 20
103.281749
 30
0.0
 11
160.146801
 21
104.27578
 31
0.0
  0
LINE
  5
269
  8
0
 62
     0
 10
159.169487
 20
105.253094
 30
0.0
 11
158.729509
 21
105.693072
 31
0.0
  0
LINE
  5
26A
  8
0
 62
     0
 10
160.695959
 20
103.408424
 30
0.0
 11
160.089059
 21
104.015324
 31
0.0
  0
LINE
  5
26B
  8
0
 62
     0
 10
158.851289
 20
105.253094
 30
0.0
 11
158.411311
 21
105.693072
 31
0.0
  0
LINE
  5
26C
  8
0
 62
     0
 10
159.205273
 20
104.580911
 30
0.0
 11
159.190183
 21
104.596001
 31
0.0
  0
LINE
  5
26D
  8
0
 62
     0
 10
158.533091
 20
105.253094
 30
0.0
 11
158.093113
 21
105.693072
 31
0.0
  0
LINE
  5
26E
  8
0
 62
     0
 10
159.147532
 20
104.320455
 30
0.0
 11
158.871985
 21
104.596001
 31
0.0
  0
LINE
  5
26F
  8
0
 62
     0
 10
158.214893
 20
105.253094
 30
0.0
 11
157.774915
 21
105.693072
 31
0.0
  0
LINE
  5
270
  8
0
 62
     0
 10
158.843766
 20
104.306023
 30
0.0
 11
158.553787
 21
104.596001
 31
0.0
  0
LINE
  5
271
  8
0
 62
     0
 10
157.896695
 20
105.253094
 30
0.0
 11
157.456717
 21
105.693072
 31
0.0
  0
LINE
  5
272
  8
0
 62
     0
 10
159.222674
 20
103.608917
 30
0.0
 11
159.18266
 21
103.648931
 31
0.0
  0
LINE
  5
273
  8
0
 62
     0
 10
157.578497
 20
105.253094
 30
0.0
 11
157.138519
 21
105.693072
 31
0.0
  0
LINE
  5
274
  8
0
 62
     0
 10
158.525568
 20
104.306023
 30
0.0
 11
158.235589
 21
104.596001
 31
0.0
  0
LINE
  5
275
  8
0
 62
     0
 10
159.164932
 20
103.348461
 30
0.0
 11
158.864462
 21
103.648931
 31
0.0
  0
LINE
  5
276
  8
0
 62
     0
 10
157.260299
 20
105.253094
 30
0.0
 11
156.820321
 21
105.693072
 31
0.0
  0
LINE
  5
277
  8
0
 62
     0
 10
158.20737
 20
104.306023
 30
0.0
 11
157.917391
 21
104.596001
 31
0.0
  0
LINE
  5
278
  8
0
 62
     0
 10
158.986242
 20
103.208952
 30
0.0
 11
158.546264
 21
103.648931
 31
0.0
  0
LINE
  5
279
  8
0
 62
     0
 10
156.942101
 20
105.253094
 30
0.0
 11
156.502123
 21
105.693072
 31
0.0
  0
LINE
  5
27A
  8
0
 62
     0
 10
157.889172
 20
104.306023
 30
0.0
 11
157.599193
 21
104.596001
 31
0.0
  0
LINE
  5
27B
  8
0
 62
     0
 10
158.668044
 20
103.208952
 30
0.0
 11
158.228066
 21
103.648931
 31
0.0
  0
LINE
  5
27C
  8
0
 62
     0
 10
156.634858
 20
105.242138
 30
0.0
 11
156.183924
 21
105.693072
 31
0.0
  0
LINE
  5
27D
  8
0
 62
     0
 10
157.570974
 20
104.306023
 30
0.0
 11
157.280995
 21
104.596001
 31
0.0
  0
LINE
  5
27E
  8
0
 62
     0
 10
158.349846
 20
103.208952
 30
0.0
 11
157.909868
 21
103.648931
 31
0.0
  0
LINE
  5
27F
  8
0
 62
     0
 10
156.577116
 20
104.981682
 30
0.0
 11
155.865726
 21
105.693072
 31
0.0
  0
LINE
  5
280
  8
0
 62
     0
 10
157.252775
 20
104.306023
 30
0.0
 11
156.962797
 21
104.596001
 31
0.0
  0
LINE
  5
281
  8
0
 62
     0
 10
158.031648
 20
103.208952
 30
0.0
 11
157.59167
 21
103.648931
 31
0.0
  0
LINE
  5
282
  8
0
 62
     0
 10
156.519374
 20
104.721226
 30
0.0
 11
155.547528
 21
105.693072
 31
0.0
  0
LINE
  5
283
  8
0
 62
     0
 10
156.934577
 20
104.306023
 30
0.0
 11
156.644599
 21
104.596001
 31
0.0
  0
LINE
  5
284
  8
0
 62
     0
 10
157.71345
 20
103.208952
 30
0.0
 11
157.273472
 21
103.648931
 31
0.0
  0
LINE
  5
285
  8
0
 62
     0
 10
156.616379
 20
104.306023
 30
0.0
 11
155.22933
 21
105.693072
 31
0.0
  0
LINE
  5
286
  8
0
 62
     0
 10
157.395252
 20
103.208952
 30
0.0
 11
156.955274
 21
103.648931
 31
0.0
  0
LINE
  5
287
  8
0
 62
     0
 10
156.403891
 20
104.200313
 30
0.0
 11
155.00597
 21
105.598234
 31
0.0
  0
LINE
  5
288
  8
0
 62
     0
 10
157.077054
 20
103.208952
 30
0.0
 11
156.637075
 21
103.648931
 31
0.0
  0
LINE
  5
289
  8
0
 62
     0
 10
156.346149
 20
103.939857
 30
0.0
 11
154.948228
 21
105.337778
 31
0.0
  0
LINE
  5
28A
  8
0
 62
     0
 10
156.758856
 20
103.208952
 30
0.0
 11
156.318877
 21
103.648931
 31
0.0
  0
LINE
  5
28B
  8
0
 62
     0
 10
156.288407
 20
103.679401
 30
0.0
 11
154.890487
 21
105.077322
 31
0.0
  0
LINE
  5
28C
  8
0
 62
     0
 10
156.440658
 20
103.208952
 30
0.0
 11
154.832745
 21
104.816865
 31
0.0
  0
LINE
  5
28D
  8
0
 62
     0
 10
154.133784
 20
105.515826
 30
0.0
 11
153.956538
 21
105.693072
 31
0.0
  0
LINE
  5
28E
  8
0
 62
     0
 10
156.12246
 20
103.208952
 30
0.0
 11
154.775003
 21
104.556409
 31
0.0
  0
LINE
  5
28F
  8
0
 62
     0
 10
154.076043
 20
105.255369
 30
0.0
 11
153.63834
 21
105.693072
 31
0.0
  0
LINE
  5
290
  8
0
 62
     0
 10
155.804262
 20
103.208952
 30
0.0
 11
154.717261
 21
104.295953
 31
0.0
  0
LINE
  5
291
  8
0
 62
     0
 10
154.018301
 20
104.994913
 30
0.0
 11
153.320142
 21
105.693072
 31
0.0
  0
LINE
  5
292
  8
0
 62
     0
 10
155.486064
 20
103.208952
 30
0.0
 11
154.65952
 21
104.035496
 31
0.0
  0
LINE
  5
293
  8
0
 62
     0
 10
153.960559
 20
104.734457
 30
0.0
 11
153.001944
 21
105.693072
 31
0.0
  0
LINE
  5
294
  8
0
 62
     0
 10
155.167866
 20
103.208952
 30
0.0
 11
154.601778
 21
103.77504
 31
0.0
  0
LINE
  5
295
  8
0
 62
     0
 10
153.902817
 20
104.474
 30
0.0
 11
152.683746
 21
105.693072
 31
0.0
  0
LINE
  5
296
  8
0
 62
     0
 10
154.849668
 20
103.208952
 30
0.0
 11
154.544036
 21
103.514584
 31
0.0
  0
LINE
  5
297
  8
0
 62
     0
 10
153.845076
 20
104.213544
 30
0.0
 11
152.447155
 21
105.611465
 31
0.0
  0
LINE
  5
298
  8
0
 62
     0
 10
154.53147
 20
103.208952
 30
0.0
 11
154.486294
 21
103.254128
 31
0.0
  0
LINE
  5
299
  8
0
 62
     0
 10
153.787334
 20
103.953088
 30
0.0
 11
152.389413
 21
105.351009
 31
0.0
  0
LINE
  5
29A
  8
0
 62
     0
 10
153.729592
 20
103.692632
 30
0.0
 11
152.331671
 21
105.090552
 31
0.0
  0
LINE
  5
29B
  8
0
 62
     0
 10
153.67185
 20
103.432175
 30
0.0
 11
152.27393
 21
104.830096
 31
0.0
  0
LINE
  5
29C
  8
0
 62
     0
 10
153.576875
 20
103.208952
 30
0.0
 11
152.073304
 21
104.712524
 31
0.0
  0
LINE
  5
29D
  8
0
 62
     0
 10
153.258677
 20
103.208952
 30
0.0
 11
150.999582
 21
105.468047
 31
0.0
  0
LINE
  5
29E
  8
0
 62
     0
 10
152.940479
 20
103.208952
 30
0.0
 11
150.45636
 21
105.693072
 31
0.0
  0
LINE
  5
29F
  8
0
 62
     0
 10
152.622281
 20
103.208952
 30
0.0
 11
150.138161
 21
105.693072
 31
0.0
  0
LINE
  5
2A0
  8
0
 62
     0
 10
152.304083
 20
103.208952
 30
0.0
 11
149.819963
 21
105.693072
 31
0.0
  0
LINE
  5
2A1
  8
0
 62
     0
 10
151.985885
 20
103.208952
 30
0.0
 11
149.501765
 21
105.693072
 31
0.0
  0
LINE
  5
2A2
  8
0
 62
     0
 10
151.542665
 20
103.333975
 30
0.0
 11
149.183567
 21
105.693072
 31
0.0
  0
LINE
  5
2A3
  8
0
 62
     0
 10
150.096365
 20
104.462076
 30
0.0
 11
148.865369
 21
105.693072
 31
0.0
  0
LINE
  5
2A4
  8
0
 62
     0
 10
150.038624
 20
104.20162
 30
0.0
 11
148.640703
 21
105.59954
 31
0.0
  0
LINE
  5
2A5
  8
0
 62
     0
 10
149.980882
 20
103.941163
 30
0.0
 11
148.582961
 21
105.339084
 31
0.0
  0
LINE
  5
2A6
  8
0
 62
     0
 10
149.92314
 20
103.680707
 30
0.0
 11
148.525219
 21
105.078628
 31
0.0
  0
LINE
  5
2A7
  8
0
 62
     0
 10
149.865398
 20
103.420251
 30
0.0
 11
148.467478
 21
104.818171
 31
0.0
  0
LINE
  5
2A8
  8
0
 62
     0
 10
149.758499
 20
103.208952
 30
0.0
 11
148.409736
 21
104.557715
 31
0.0
  0
LINE
  5
2A9
  8
0
 62
     0
 10
149.440301
 20
103.208952
 30
0.0
 11
148.351994
 21
104.297259
 31
0.0
  0
LINE
  5
2AA
  8
0
 62
     0
 10
149.122103
 20
103.208952
 30
0.0
 11
148.294252
 21
104.036803
 31
0.0
  0
LINE
  5
2AB
  8
0
 62
     0
 10
148.803905
 20
103.208952
 30
0.0
 11
148.236511
 21
103.776346
 31
0.0
  0
LINE
  5
2AC
  8
0
 62
     0
 10
148.485707
 20
103.208952
 30
0.0
 11
148.178769
 21
103.51589
 31
0.0
  0
LINE
  5
2AD
  8
0
 62
     0
 10
148.167508
 20
103.208952
 30
0.0
 11
148.121027
 21
103.255434
 31
0.0
  0
LINE
  5
2AE
  8
0
 62
     0
 10
175.214343
 20
103.208952
 30
0.0
 11
174.622995
 21
103.8003
 31
0.0
  0
LINE
  5
2AF
  8
0
 62
     0
 10
173.235386
 20
105.187909
 30
0.0
 11
172.730223
 21
105.693072
 31
0.0
  0
LINE
  5
2B0
  8
0
 62
     0
 10
174.288055
 20
104.13524
 30
0.0
 11
173.998077
 21
104.425218
 31
0.0
  0
LINE
  5
2B1
  8
0
 62
     0
 10
175.532541
 20
103.208952
 30
0.0
 11
174.316275
 21
104.425218
 31
0.0
  0
LINE
  5
2B2
  8
0
 62
     0
 10
173.4884
 20
105.253094
 30
0.0
 11
173.048421
 21
105.693072
 31
0.0
  0
LINE
  5
2B3
  8
0
 62
     0
 10
175.850739
 20
103.208952
 30
0.0
 11
174.586541
 21
104.47315
 31
0.0
  0
LINE
  5
2B4
  8
0
 62
     0
 10
173.806598
 20
105.253094
 30
0.0
 11
173.366619
 21
105.693072
 31
0.0
  0
LINE
  5
2B5
  8
0
 62
     0
 10
176.168937
 20
103.208952
 30
0.0
 11
174.789565
 21
104.588325
 31
0.0
  0
LINE
  5
2B6
  8
0
 62
     0
 10
174.124796
 20
105.253094
 30
0.0
 11
173.684817
 21
105.693072
 31
0.0
  0
LINE
  5
2B7
  8
0
 62
     0
 10
176.311422
 20
103.384665
 30
0.0
 11
174.927684
 21
104.768404
 31
0.0
  0
LINE
  5
2B8
  8
0
 62
     0
 10
174.442994
 20
105.253094
 30
0.0
 11
174.003015
 21
105.693072
 31
0.0
  0
LINE
  5
2B9
  8
0
 62
     0
 10
176.323639
 20
103.690647
 30
0.0
 11
174.914671
 21
105.099614
 31
0.0
  0
LINE
  5
2BA
  8
0
 62
     0
 10
174.791615
 20
105.22267
 30
0.0
 11
174.321213
 21
105.693072
 31
0.0
  0
LINE
  5
2BB
  8
0
 62
     0
 10
176.344435
 20
103.988048
 30
0.0
 11
174.639411
 21
105.693072
 31
0.0
  0
LINE
  5
2BC
  8
0
 62
     0
 10
177.441729
 20
103.208952
 30
0.0
 11
177.197922
 21
103.452759
 31
0.0
  0
LINE
  5
2BD
  8
0
 62
     0
 10
176.286615
 20
104.364066
 30
0.0
 11
174.95761
 21
105.693072
 31
0.0
  0
LINE
  5
2BE
  8
0
 62
     0
 10
177.759927
 20
103.208952
 30
0.0
 11
177.255664
 21
103.713216
 31
0.0
  0
LINE
  5
2BF
  8
0
 62
     0
 10
176.4817
 20
104.487179
 30
0.0
 11
175.275808
 21
105.693072
 31
0.0
  0
LINE
  5
2C0
  8
0
 62
     0
 10
178.078125
 20
103.208952
 30
0.0
 11
177.313406
 21
103.973672
 31
0.0
  0
LINE
  5
2C1
  8
0
 62
     0
 10
176.650286
 20
104.636791
 30
0.0
 11
175.594006
 21
105.693072
 31
0.0
  0
LINE
  5
2C2
  8
0
 62
     0
 10
178.396323
 20
103.208952
 30
0.0
 11
177.371148
 21
104.234128
 31
0.0
  0
LINE
  5
2C3
  8
0
 62
     0
 10
176.785346
 20
104.81993
 30
0.0
 11
175.912204
 21
105.693072
 31
0.0
  0
LINE
  5
2C4
  8
0
 62
     0
 10
178.714521
 20
103.208952
 30
0.0
 11
177.428889
 21
104.494584
 31
0.0
  0
LINE
  5
2C5
  8
0
 62
     0
 10
176.870902
 20
105.052571
 30
0.0
 11
176.255428
 21
105.668046
 31
0.0
  0
LINE
  5
2C6
  8
0
 62
     0
 10
178.884552
 20
103.35712
 30
0.0
 11
177.486631
 21
104.755041
 31
0.0
  0
LINE
  5
2C7
  8
0
 62
     0
 10
178.942294
 20
103.617576
 30
0.0
 11
177.544373
 21
105.015497
 31
0.0
  0
LINE
  5
2C8
  8
0
 62
     0
 10
179.000035
 20
103.878033
 30
0.0
 11
177.602115
 21
105.275953
 31
0.0
  0
LINE
  5
2C9
  8
0
 62
     0
 10
179.987314
 20
103.208952
 30
0.0
 11
179.883821
 21
103.312445
 31
0.0
  0
LINE
  5
2CA
  8
0
 62
     0
 10
179.057777
 20
104.138489
 30
0.0
 11
177.659856
 21
105.53641
 31
0.0
  0
LINE
  5
2CB
  8
0
 62
     0
 10
180.305512
 20
103.208952
 30
0.0
 11
179.941563
 21
103.572901
 31
0.0
  0
LINE
  5
2CC
  8
0
 62
     0
 10
179.115519
 20
104.398945
 30
0.0
 11
177.821392
 21
105.693072
 31
0.0
  0
LINE
  5
2CD
  8
0
 62
     0
 10
180.62371
 20
103.208952
 30
0.0
 11
179.999305
 21
103.833357
 31
0.0
  0
LINE
  5
2CE
  8
0
 62
     0
 10
179.173261
 20
104.659401
 30
0.0
 11
178.13959
 21
105.693072
 31
0.0
  0
LINE
  5
2CF
  8
0
 62
     0
 10
180.941908
 20
103.208952
 30
0.0
 11
180.057046
 21
104.093814
 31
0.0
  0
LINE
  5
2D0
  8
0
 62
     0
 10
179.231002
 20
104.919858
 30
0.0
 11
178.457788
 21
105.693072
 31
0.0
  0
LINE
  5
2D1
  8
0
 62
     0
 10
181.260106
 20
103.208952
 30
0.0
 11
180.114788
 21
104.35427
 31
0.0
  0
LINE
  5
2D2
  8
0
 62
     0
 10
179.288744
 20
105.180314
 30
0.0
 11
178.775986
 21
105.693072
 31
0.0
  0
LINE
  5
2D3
  8
0
 62
     0
 10
181.506909
 20
103.280347
 30
0.0
 11
180.17253
 21
104.614726
 31
0.0
  0
LINE
  5
2D4
  8
0
 62
     0
 10
179.346486
 20
105.44077
 30
0.0
 11
179.094184
 21
105.693072
 31
0.0
  0
LINE
  5
2D5
  8
0
 62
     0
 10
181.564651
 20
103.540804
 30
0.0
 11
180.230272
 21
104.875182
 31
0.0
  0
LINE
  5
2D6
  8
0
 62
     0
 10
181.622392
 20
103.80126
 30
0.0
 11
180.288014
 21
105.135639
 31
0.0
  0
LINE
  5
2D7
  8
0
 62
     0
 10
181.827275
 20
103.914576
 30
0.0
 11
180.345755
 21
105.396095
 31
0.0
  0
LINE
  5
2D8
  8
0
 62
     0
 10
182.050395
 20
104.009654
 30
0.0
 11
180.403497
 21
105.656551
 31
0.0
  0
LINE
  5
2D9
  8
0
 62
     0
 10
182.273514
 20
104.104732
 30
0.0
 11
180.685174
 21
105.693072
 31
0.0
  0
LINE
  5
2DA
  8
0
 62
     0
 10
183.487492
 20
103.208952
 30
0.0
 11
181.003372
 21
105.693072
 31
0.0
  0
LINE
  5
2DB
  8
0
 62
     0
 10
183.80569
 20
103.208952
 30
0.0
 11
182.070276
 21
104.944367
 31
0.0
  0
LINE
  5
2DC
  8
0
 62
     0
 10
181.911101
 20
105.103541
 30
0.0
 11
181.321571
 21
105.693072
 31
0.0
  0
LINE
  5
2DD
  8
0
 62
     0
 10
184.123888
 20
103.208952
 30
0.0
 11
182.293395
 21
105.039445
 31
0.0
  0
LINE
  5
2DE
  8
0
 62
     0
 10
181.968843
 20
105.363998
 30
0.0
 11
181.639769
 21
105.693072
 31
0.0
  0
LINE
  5
2DF
  8
0
 62
     0
 10
184.442086
 20
103.208952
 30
0.0
 11
182.516515
 21
105.134523
 31
0.0
  0
LINE
  5
2E0
  8
0
 62
     0
 10
182.026585
 20
105.624454
 30
0.0
 11
181.957967
 21
105.693072
 31
0.0
  0
LINE
  5
2E1
  8
0
 62
     0
 10
184.760284
 20
103.208952
 30
0.0
 11
182.739635
 21
105.229602
 31
0.0
  0
LINE
  5
2E2
  8
0
 62
     0
 10
185.078482
 20
103.208952
 30
0.0
 11
182.962755
 21
105.32468
 31
0.0
  0
LINE
  5
2E3
  8
0
 62
     0
 10
185.396681
 20
103.208952
 30
0.0
 11
183.185874
 21
105.419758
 31
0.0
  0
LINE
  5
2E4
  8
0
 62
     0
 10
184.058472
 20
104.865359
 30
0.0
 11
183.408994
 21
105.514837
 31
0.0
  0
LINE
  5
2E5
  8
0
 62
     0
 10
184.281592
 20
104.960437
 30
0.0
 11
183.632114
 21
105.609915
 31
0.0
  0
LINE
  5
2E6
  8
0
 62
     0
 10
184.504712
 20
105.055515
 30
0.0
 11
183.867155
 21
105.693072
 31
0.0
  0
LINE
  5
2E7
  8
0
 62
     0
 10
184.727831
 20
105.150593
 30
0.0
 11
184.185353
 21
105.693072
 31
0.0
  0
LINE
  5
2E8
  8
0
 62
     0
 10
184.950951
 20
105.245672
 30
0.0
 11
184.503551
 21
105.693072
 31
0.0
  0
LINE
  5
2E9
  8
0
 62
     0
 10
185.174071
 20
105.34075
 30
0.0
 11
184.821749
 21
105.693072
 31
0.0
  0
LINE
  5
2EA
  8
0
 62
     0
 10
185.397191
 20
105.435828
 30
0.0
 11
185.139947
 21
105.693072
 31
0.0
  0
LINE
  5
2EB
  8
0
 62
     0
 10
185.62031
 20
105.530907
 30
0.0
 11
185.458145
 21
105.693072
 31
0.0
  0
LINE
  5
2EC
  8
0
 62
     0
 10
185.84343
 20
105.625985
 30
0.0
 11
185.776343
 21
105.693072
 31
0.0
  0
LINE
  5
2ED
  8
0
 62
     0
 10
188.578661
 20
103.208952
 30
0.0
 11
188.513227
 21
103.274387
 31
0.0
  0
LINE
  5
2EE
  8
0
 62
     0
 10
188.896859
 20
103.208952
 30
0.0
 11
188.649597
 21
103.456214
 31
0.0
  0
LINE
  5
2EF
  8
0
 62
     0
 10
189.215057
 20
103.208952
 30
0.0
 11
188.785968
 21
103.638042
 31
0.0
  0
LINE
  5
2F0
  8
0
 62
     0
 10
189.533255
 20
103.208952
 30
0.0
 11
188.922338
 21
103.819869
 31
0.0
  0
LINE
  5
2F1
  8
0
 62
     0
 10
189.851453
 20
103.208952
 30
0.0
 11
189.058709
 21
104.001696
 31
0.0
  0
LINE
  5
2F2
  8
0
 62
     0
 10
190.152872
 20
103.225732
 30
0.0
 11
189.19508
 21
104.183524
 31
0.0
  0
LINE
  5
2F3
  8
0
 62
     0
 10
190.289242
 20
103.407559
 30
0.0
 11
189.33145
 21
104.365351
 31
0.0
  0
LINE
  5
2F4
  8
0
 62
     0
 10
190.425613
 20
103.589387
 30
0.0
 11
189.467821
 21
104.547179
 31
0.0
  0
LINE
  5
2F5
  8
0
 62
     0
 10
190.644214
 20
103.688984
 30
0.0
 11
189.604191
 21
104.729006
 31
0.0
  0
LINE
  5
2F6
  8
0
 62
     0
 10
190.962412
 20
103.688984
 30
0.0
 11
189.740562
 21
104.910834
 31
0.0
  0
LINE
  5
2F7
  8
0
 62
     0
 10
191.28061
 20
103.688984
 30
0.0
 11
190.907422
 21
104.062171
 31
0.0
  0
LINE
  5
2F8
  8
0
 62
     0
 10
190.834725
 20
104.134869
 30
0.0
 11
189.876933
 21
105.092661
 31
0.0
  0
LINE
  5
2F9
  8
0
 62
     0
 10
191.598808
 20
103.688984
 30
0.0
 11
191.22562
 21
104.062171
 31
0.0
  0
LINE
  5
2FA
  8
0
 62
     0
 10
190.971095
 20
104.316696
 30
0.0
 11
190.013303
 21
105.274489
 31
0.0
  0
LINE
  5
2FB
  8
0
 62
     0
 10
192.397038
 20
103.208952
 30
0.0
 11
192.329041
 21
103.276949
 31
0.0
  0
LINE
  5
2FC
  8
0
 62
     0
 10
191.107466
 20
104.498524
 30
0.0
 11
190.149674
 21
105.456316
 31
0.0
  0
LINE
  5
2FD
  8
0
 62
     0
 10
191.917006
 20
103.688984
 30
0.0
 11
191.543818
 21
104.062171
 31
0.0
  0
LINE
  5
2FE
  8
0
 62
     0
 10
192.715236
 20
103.208952
 30
0.0
 11
191.862016
 21
104.062171
 31
0.0
  0
LINE
  5
2FF
  8
0
 62
     0
 10
191.243837
 20
104.680351
 30
0.0
 11
190.286044
 21
105.638144
 31
0.0
  0
LINE
  5
300
  8
0
 62
     0
 10
193.033434
 20
103.208952
 30
0.0
 11
192.116909
 21
104.125477
 31
0.0
  0
LINE
  5
301
  8
0
 62
     0
 10
191.380207
 20
104.862179
 30
0.0
 11
190.548585
 21
105.693801
 31
0.0
  0
LINE
  5
302
  8
0
 62
     0
 10
193.351632
 20
103.208952
 30
0.0
 11
192.010843
 21
104.549741
 31
0.0
  0
LINE
  5
303
  8
0
 62
     0
 10
191.516578
 20
105.044006
 30
0.0
 11
190.866783
 21
105.693801
 31
0.0
  0
LINE
  5
304
  8
0
 62
     0
 10
193.66983
 20
103.208952
 30
0.0
 11
191.904777
 21
104.974005
 31
0.0
  0
LINE
  5
305
  8
0
 62
     0
 10
191.652948
 20
105.225834
 30
0.0
 11
191.184981
 21
105.693801
 31
0.0
  0
LINE
  5
306
  8
0
 62
     0
 10
193.875595
 20
103.321385
 30
0.0
 11
191.798711
 21
105.398269
 31
0.0
  0
LINE
  5
307
  8
0
 62
     0
 10
191.789319
 20
105.407661
 30
0.0
 11
191.503179
 21
105.693801
 31
0.0
  0
LINE
  5
308
  8
0
 62
     0
 10
193.769529
 20
103.745649
 30
0.0
 11
191.821377
 21
105.693801
 31
0.0
  0
LINE
  5
309
  8
0
 62
     0
 10
193.663463
 20
104.169913
 30
0.0
 11
192.139576
 21
105.693801
 31
0.0
  0
LINE
  5
30A
  8
0
 62
     0
 10
194.732492
 20
103.419082
 30
0.0
 11
194.673972
 21
103.477602
 31
0.0
  0
LINE
  5
30B
  8
0
 62
     0
 10
193.557397
 20
104.594177
 30
0.0
 11
192.457774
 21
105.693801
 31
0.0
  0
LINE
  5
30C
  8
0
 62
     0
 10
195.149298
 20
103.320474
 30
0.0
 11
194.635225
 21
103.834548
 31
0.0
  0
LINE
  5
30D
  8
0
 62
     0
 10
193.451331
 20
105.018441
 30
0.0
 11
192.775972
 21
105.693801
 31
0.0
  0
LINE
  5
30E
  8
0
 62
     0
 10
195.509282
 20
103.278689
 30
0.0
 11
194.682922
 21
104.105049
 31
0.0
  0
LINE
  5
30F
  8
0
 62
     0
 10
193.345265
 20
105.442705
 30
0.0
 11
193.09417
 21
105.693801
 31
0.0
  0
LINE
  5
310
  8
0
 62
     0
 10
195.858857
 20
103.247312
 30
0.0
 11
194.730618
 21
104.37555
 31
0.0
  0
LINE
  5
311
  8
0
 62
     0
 10
196.19894
 20
103.225426
 30
0.0
 11
194.778315
 21
104.646052
 31
0.0
  0
LINE
  5
312
  8
0
 62
     0
 10
196.530306
 20
103.212258
 30
0.0
 11
194.826012
 21
104.916553
 31
0.0
  0
LINE
  5
313
  8
0
 62
     0
 10
196.853616
 20
103.207147
 30
0.0
 11
194.873708
 21
105.187054
 31
0.0
  0
LINE
  5
314
  8
0
 62
     0
 10
197.169437
 20
103.209523
 30
0.0
 11
196.717543
 21
103.661418
 31
0.0
  0
LINE
  5
315
  8
0
 62
     0
 10
196.241642
 20
104.137319
 30
0.0
 11
194.970499
 21
105.408462
 31
0.0
  0
LINE
  5
316
  8
0
 62
     0
 10
197.478265
 20
103.218894
 30
0.0
 11
197.047649
 21
103.64951
 31
0.0
  0
LINE
  5
317
  8
0
 62
     0
 10
196.289339
 20
104.40782
 30
0.0
 11
195.193391
 21
105.503767
 31
0.0
  0
LINE
  5
318
  8
0
 62
     0
 10
197.78053
 20
103.234826
 30
0.0
 11
197.349867
 21
103.66549
 31
0.0
  0
LINE
  5
319
  8
0
 62
     0
 10
196.337035
 20
104.678321
 30
0.0
 11
195.468172
 21
105.547185
 31
0.0
  0
LINE
  5
31A
  8
0
 62
     0
 10
198.124603
 20
103.208952
 30
0.0
 11
197.630009
 21
103.703546
 31
0.0
  0
LINE
  5
31B
  8
0
 62
     0
 10
196.384732
 20
104.948823
 30
0.0
 11
195.748005
 21
105.58555
 31
0.0
  0
LINE
  5
31C
  8
0
 62
     0
 10
198.442801
 20
103.208952
 30
0.0
 11
197.855526
 21
103.796227
 31
0.0
  0
LINE
  5
31D
  8
0
 62
     0
 10
196.502999
 20
105.148753
 30
0.0
 11
196.033135
 21
105.618617
 31
0.0
  0
LINE
  5
31E
  8
0
 62
     0
 10
197.573104
 20
104.078649
 30
0.0
 11
197.380196
 21
104.271557
 31
0.0
  0
LINE
  5
31F
  8
0
 62
     0
 10
198.760999
 20
103.208952
 30
0.0
 11
197.955988
 21
104.013963
 31
0.0
  0
LINE
  5
320
  8
0
 62
     0
 10
196.745041
 20
105.22491
 30
0.0
 11
196.323833
 21
105.646118
 31
0.0
  0
LINE
  5
321
  8
0
 62
     0
 10
197.891302
 20
104.078649
 30
0.0
 11
197.668574
 21
104.301376
 31
0.0
  0
LINE
  5
322
  8
0
 62
     0
 10
199.079197
 20
103.208952
 30
0.0
 11
197.986772
 21
104.301376
 31
0.0
  0
LINE
  5
323
  8
0
 62
     0
 10
197.034275
 20
105.253874
 30
0.0
 11
196.620401
 21
105.667748
 31
0.0
  0
LINE
  5
324
  8
0
 62
     0
 10
199.371618
 20
103.234729
 30
0.0
 11
198.304971
 21
104.301376
 31
0.0
  0
LINE
  5
325
  8
0
 62
     0
 10
197.347781
 20
105.258566
 30
0.0
 11
196.923178
 21
105.683169
 31
0.0
  0
LINE
  5
326
  8
0
 62
     0
 10
199.419315
 20
103.50523
 30
0.0
 11
198.623169
 21
104.301376
 31
0.0
  0
LINE
  5
327
  8
0
 62
     0
 10
197.692832
 20
105.231713
 30
0.0
 11
197.232551
 21
105.691994
 31
0.0
  0
LINE
  5
328
  8
0
 62
     0
 10
199.467011
 20
103.775732
 30
0.0
 11
198.941367
 21
104.301376
 31
0.0
  0
LINE
  5
329
  8
0
 62
     0
 10
198.27875
 20
104.963993
 30
0.0
 11
197.548954
 21
105.693789
 31
0.0
  0
LINE
  5
32A
  8
0
 62
     0
 10
199.514708
 20
104.046233
 30
0.0
 11
199.259565
 21
104.301376
 31
0.0
  0
LINE
  5
32B
  8
0
 62
     0
 10
198.596948
 20
104.963993
 30
0.0
 11
197.872889
 21
105.688052
 31
0.0
  0
LINE
  5
32C
  8
0
 62
     0
 10
198.915146
 20
104.963993
 30
0.0
 11
198.204929
 21
105.67421
 31
0.0
  0
LINE
  5
32D
  8
0
 62
     0
 10
199.233344
 20
104.963993
 30
0.0
 11
198.545745
 21
105.651593
 31
0.0
  0
LINE
  5
32E
  8
0
 62
     0
 10
199.551542
 20
104.963993
 30
0.0
 11
198.896119
 21
105.619416
 31
0.0
  0
LINE
  5
32F
  8
0
 62
     0
 10
199.705495
 20
105.128239
 30
0.0
 11
199.256984
 21
105.57675
 31
0.0
  0
ENDBLK
  5
331
  8
0
  0
BLOCK
  8
0
  2
NT
 70
     0
 10
0.0
 20
0.0
 30
0.0
  3
NT
  1

  0
POLYLINE
  5
473
  8
0
 66
     1
 10
0.0
 20
0.0
 30
0.0
  0
VERTEX
  5
550
  8
0
 10
0.288675
 20
-0.166667
 30
0.0
 42
0.291473
  0
VERTEX
  5
551
  8
0
 10
0.273051
 20
0.191192
 30
0.0
 42
1.0
  0
VERTEX
  5
552
  8
0
 10
0.204788
 20
0.143394
 30
0.0
 42
-0.246577
  0
VERTEX
  5
553
  8
0
 10
0.234311
 20
-0.087167
 30
0.0
  0
VERTEX
  5
554
  8
0
 10
0.147129
 20
-0.036832
 30
0.0
 42
1.0
  0
VERTEX
  5
555
  8
0
 10
0.105462
 20
-0.109001
 30
0.0
  0
VERTEX
  5
556
  8
0
 10
0.231757
 20
-0.181918
 30
0.0
 42
0.414214
  0
VERTEX
  5
557
  8
0
 10
0.288675
 20
-0.166667
 30
0.0
  0
SEQEND
  5
558
  8
0
  0
POLYLINE
  5
474
  8
0
 66
     1
 10
0.0
 20
0.0
 30
0.0
 70
     1
  0
VERTEX
  5
559
  8
0
 10
0.166667
 20
0.288675
 30
0.0
 42
0.291473
  0
VERTEX
  5
55A
  8
0
 10
-0.191192
 20
0.273051
 30
0.0
 42
1.0
  0
VERTEX
  5
55B
  8
0
 10
-0.143394
 20
0.204788
 30
0.0
 42
-0.111311
  0
VERTEX
  5
55C
  8
0
 10
-0.041667
 20
0.246503
 30
0.0
  0
VERTEX
  5
55D
  8
0
 10
-0.041667
 20
-0.291667
 30
0.0
 42
1.0
  0
VERTEX
  5
55E
  8
0
 10
0.041667
 20
-0.291667
 30
0.0
  0
VERTEX
  5
55F
  8
0
 10
0.041667
 20
0.246503
 30
0.0
 42
-0.089274
  0
VERTEX
  5
560
  8
0
 10
0.125
 20
0.216506
 30
0.0
 42
1.0
  0
SEQEND
  5
561
  8
0
  0
POLYLINE
  5
475
  8
0
 66
     1
 10
0.0
 20
0.0
 30
0.0
  0
VERTEX
  5
562
  8
0
 10
-0.288675
 20
0.166667
 30
0.0
 42
0.291473
  0
VERTEX
  5
563
  8
0
 10
-0.273051
 20
-0.191192
 30
0.0
 42
1.0
  0
VERTEX
  5
564
  8
0
 10
-0.204788
 20
-0.143394
 30
0.0
 42
-0.246577
  0
VERTEX
  5
565
  8
0
 10
-0.234311
 20
0.087167
 30
0.0
  0
VERTEX
  5
566
  8
0
 10
-0.147129
 20
0.036832
 30
0.0
 42
1.0
  0
VERTEX
  5
567
  8
0
 10
-0.105462
 20
0.109001
 30
0.0
  0
VERTEX
  5
568
  8
0
 10
-0.231757
 20
0.181918
 30
0.0
 42
0.414214
  0
VERTEX
  5
569
  8
0
 10
-0.288675
 20
0.166667
 30
0.0
  0
SEQEND
  5
56A
  8
0
  0
CIRCLE
  5
476
  8
0
 10
0.0
 20
0.0
 30
0.0
 40
0.416667
  0
CIRCLE
  5
477
  8
0
 10
0.0
 20
0.0
 30
0.0
 40
0.5
  0
ENDBLK
  5
479
  8
0
  0
ENDSEC
  0
SECTION
  2
ENTITIES
  0
LINE
  5
1E
  8
035
 62
     3
 10
208.557739
 20
190.688681
 30
0.0
 11
210.357739
 21
190.688681
 31
0.0
  0
ARC
  5
20
  8
035
 62
     3
 10
209.457739
 20
190.988681
 30
0.0
 40
0.9
 50
360.0
 51
90.0
  0
LINE
  5
21
  8
035
 62
     3
 10
208.557739
 20
188.288681
 30
0.0
 11
226.557739
 21
188.288681
 31
0.0
  0
TEXT
  5
22
  8
05
 62
     3
 10
207.546771
 20
193.683881
 30
0.0
 40
5.4
  1
PUSH
  7
HELVL
  0
ARC
  5
25
  8
035
 62
     3
 10
217.557739
 20
178.088681
 30
0.0
 40
30.0
 50
67.975687
 51
112.024313
  0
LINE
  5
26
  8
05
 10
210.057739
 20
188.288681
 30
0.0
 11
206.088739
 21
188.288681
 31
0.0
  0
INSERT
  5
27
  8
05
 66
     1
  2
ZKOPF
 10
410.0
 20
10.0
 30
0.0
  0
ATTRIB
  5
28
  8
0
 62
     4
 10
395.041667
 20
47.0
 30
0.0
 40
2.5
  1
Dobler
 72
     1
 11
401.5
 21
47.0
 31
0.0
  2
NAME
 70
     0
  0
ATTRIB
  5
29
  8
0
 62
     4
 10
380.25
 20
47.0
 30
0.0
 40
2.5
  1
08.05.96
 41
0.7
 51
15.0
 72
     1
 11
385.5
 21
47.0
 31
0.0
  2
DATE
 70
     0
  0
ATTRIB
  5
2A
  8
0
 62
     4
 10
329.5
 20
46.0
 30
0.0
 40
2.5
  1

 41
0.7
 51
15.0
 72
     1
 11
329.5
 21
46.0
 31
0.0
  2
WERKSTOFF
 70
     0
  0
ATTRIB
  5
2B
  8
0
 62
     2
 10
299.916667
 20
22.5
 30
0.0
 40
5.0
  1
NC3FDM3-L-1
 41
0.7
 51
15.0
 72
     1
 11
318.0
 21
22.5
 31
0.0
  2
BENENNUNG
 70
     0
  0
ATTRIB
  5
2C
  8
0
 62
     3
 10
320.959543
 20
31.082191
 30
0.0
 40
3.5
  1

 41
0.7
 51
15.0
 72
     1
 11
320.959543
 21
31.082191
 31
0.0
  2
TEIL
 70
     0
  0
ATTRIB
  5
2D
  8
0
 62
     3
 10
375.158114
 20
11.976541
 30
0.0
 40
3.5
  1
3102 St 10 49
 41
0.7
 51
15.0
 72
     1
 11
389.449781
 21
11.976541
 31
0.0
  2
NUMMER
 70
     0
  0
ATTRIB
  5
2E
  8
0
 62
     2
 10
346.517328
 20
44.656056
 30
0.0
 40
5.0
  1
3:1
 41
0.7
 51
15.0
 72
     1
 11
349.433995
 21
44.656056
 31
0.0
  2
MASS
 70
     0
  0
ATTRIB
  5
2F
  8
0
 62
     3
 10
349.519299
 20
38.210451
 30
0.0
 40
3.5
  1

 41
0.7
 51
15.0
 72
     1
 11
349.519299
 21
38.210451
 31
0.0
  2
MASS2
 70
     0
  0
ATTRIB
  5
30
  8
0
 62
     4
 10
329.0
 20
39.0
 30
0.0
 40
2.5
  1

 41
0.7
 51
15.0
 72
     1
 11
329.0
 21
39.0
 31
0.0
  2
TEIL
 70
     0
  0
ATTRIB
  5
31
  8
0
 62
     3
 10
302.288548
 20
69.004319
 30
0.0
 40
3.5
  1

 41
0.7
 51
15.0
  2
TOL
 70
     0
  0
ATTRIB
  5
32
  8
0
 62
     3
 10
302.288548
 20
64.004319
 30
0.0
 40
3.5
  1

 41
0.7
 51
15.0
  2
RADIEN
 70
     0
  0
ATTRIB
  5
33
  8
0
 62
     3
 10
302.288548
 20
59.004319
 30
0.0
 40
3.5
  1

 41
0.7
 51
15.0
  2
FACETTE
 70
     0
  0
ATTRIB
  5
34
  8
0
 62
     4
 10
212.813733
 20
17.0
 30
0.0
 40
2.5
  1
A
 41
0.7
 51
15.0
  2
INDEX1
 70
     0
  0
ATTRIB
  5
35
  8
0
 62
     4
 10
219.651257
 20
17.0
 30
0.0
 40
2.5
  1
Aktuelle Zeichnung
 41
0.7
 51
15.0
  2
A1
 70
     0
  0
ATTRIB
  5
36
  8
0
 62
     4
 10
252.651257
 20
17.0
 30
0.0
 40
2.5
  1
04.03.98
 41
0.7
 51
15.0
  2
DATUM1
 70
     0
  0
ATTRIB
  5
37
  8
0
 62
     4
 10
265.53501
 20
17.0
 30
0.0
 40
2.5
  1
Alinjak
 41
0.7
 51
15.0
  2
NAME1
 70
     0
  0
ATTRIB
  5
38
  8
0
 62
     4
 10
212.813733
 20
22.0
 30
0.0
 40
2.5
  1

 41
0.7
 51
15.0
  2
INDEX2
 70
     0
  0
ATTRIB
  5
39
  8
0
 62
     4
 10
219.651257
 20
22.0
 30
0.0
 40
2.5
  1

 41
0.7
 51
15.0
  2
A2
 70
     0
  0
ATTRIB
  5
3A
  8
0
 62
     4
 10
252.651257
 20
22.0
 30
0.0
 40
2.5
  1

 41
0.7
 51
15.0
  2
DATUM2
 70
     0
  0
ATTRIB
  5
3B
  8
0
 62
     4
 10
265.53501
 20
22.0
 30
0.0
 40
2.5
  1

 41
0.7
 51
15.0
  2
NAME2
 70
     0
  0
ATTRIB
  5
3C
  8
0
 62
     4
 10
212.813733
 20
27.0
 30
0.0
 40
2.5
  1

 41
0.7
 51
15.0
  2
INDEX3
 70
     0
  0
ATTRIB
  5
3D
  8
0
 62
     4
 10
219.651257
 20
27.0
 30
0.0
 40
2.5
  1

 41
0.7
 51
15.0
  2
A3
 70
     0
  0
ATTRIB
  5
3E
  8
0
 62
     4
 10
252.651257
 20
27.0
 30
0.0
 40
2.5
  1

 41
0.7
 51
15.0
  2
DATUM3
 70
     0
  0
ATTRIB
  5
3F
  8
0
 62
     4
 10
265.53501
 20
27.0
 30
0.0
 40
2.5
  1

 41
0.7
 51
15.0
  2
NAME3
 70
     0
  0
ATTRIB
  5
40
  8
0
 62
     4
 10
212.813733
 20
32.0
 30
0.0
 40
2.5
  1

 41
0.7
 51
15.0
  2
INDEX4
 70
     0
  0
ATTRIB
  5
41
  8
0
 62
     4
 10
219.651257
 20
32.0
 30
0.0
 40
2.5
  1

 41
0.7
 51
15.0
  2
A4
 70
     0
  0
ATTRIB
  5
42
  8
0
 62
     4
 10
252.651257
 20
32.0
 30
0.0
 40
2.5
  1

 41
0.7
 51
15.0
  2
DATUM4
 70
     0
  0
ATTRIB
  5
43
  8
0
 62
     4
 10
265.53501
 20
32.0
 30
0.0
 40
2.5
  1

 41
0.7
 51
15.0
  2
NAME4
 70
     0
  0
ATTRIB
  5
44
  8
0
 62
     4
 10
212.813733
 20
37.0
 30
0.0
 40
2.5
  1

 41
0.7
 51
15.0
  2
INDEX5
 70
     0
  0
ATTRIB
  5
45
  8
0
 62
     4
 10
219.651257
 20
37.0
 30
0.0
 40
2.5
  1

 41
0.7
 51
15.0
  2
A5
 70
     0
  0
ATTRIB
  5
46
  8
0
 62
     4
 10
252.651257
 20
37.0
 30
0.0
 40
2.5
  1

 41
0.7
 51
15.0
  2
DATUM5
 70
     0
  0
ATTRIB
  5
47
  8
0
 62
     4
 10
265.53501
 20
37.0
 30
0.0
 40
2.5
  1

 41
0.7
 51
15.0
  2
NAME5
 70
     0
  0
ATTRIB
  5
48
  8
0
 62
     4
 10
212.813733
 20
42.0
 30
0.0
 40
2.5
  1

 41
0.7
 51
15.0
  2
INDEX6
 70
     0
  0
ATTRIB
  5
49
  8
0
 62
     4
 10
219.651257
 20
42.0
 30
0.0
 40
2.5
  1

 41
0.7
 51
15.0
  2
A6
 70
     0
  0
ATTRIB
  5
4A
  8
0
 62
     4
 10
252.651257
 20
42.0
 30
0.0
 40
2.5
  1

 41
0.7
 51
15.0
  2
DATUM6
 70
     0
  0
ATTRIB
  5
4B
  8
0
 62
     4
 10
265.53501
 20
42.0
 30
0.0
 40
2.5
  1

 41
0.7
 51
15.0
  2
NAME6
 70
     0
  0
ATTRIB
  5
4C
  8
0
 62
     4
 10
212.813733
 20
47.0
 30
0.0
 40
2.5
  1

 41
0.7
 51
15.0
  2
INDEX7
 70
     0
  0
ATTRIB
  5
4D
  8
0
 62
     4
 10
219.651257
 20
47.0
 30
0.0
 40
2.5
  1

 41
0.7
 51
15.0
  2
A7
 70
     0
  0
ATTRIB
  5
4E
  8
0
 62
     4
 10
252.651257
 20
47.0
 30
0.0
 40
2.5
  1

 41
0.7
 51
15.0
  2
DATUM7
 70
     0
  0
ATTRIB
  5
4F
  8
0
 62
     4
 10
265.53501
 20
47.0
 30
0.0
 40
2.5
  1

 41
0.7
 51
15.0
  2
NAME7
 70
     0
  0
ATTRIB
  5
50
  8
0
 62
     4
 10
212.813733
 20
52.0
 30
0.0
 40
2.5
  1

 41
0.7
 51
15.0
  2
INDEX8
 70
     0
  0
ATTRIB
  5
51
  8
0
 62
     4
 10
219.651257
 20
52.0
 30
0.0
 40
2.5
  1

 41
0.7
 51
15.0
  2
A8
 70
     0
  0
ATTRIB
  5
52
  8
0
 62
     4
 10
252.651257
 20
52.0
 30
0.0
 40
2.5
  1

 41
0.7
 51
15.0
  2
DATUM8
 70
     0
  0
ATTRIB
  5
53
  8
0
 62
     4
 10
265.53501
 20
52.0
 30
0.0
 40
2.5
  1

 41
0.7
 51
15.0
  2
NAME8
 70
     0
  0
SEQEND
  5
334
  8
05
  0
POLYLINE
  5
335
  8
RAHMEN
 66
     1
 10
0.0
 20
0.0
 30
0.0
 70
     1
  0
VERTEX
  5
527
  8
RAHMEN
 10
10.0
 20
10.0
 30
0.0
  0
VERTEX
  5
528
  8
RAHMEN
 10
410.0
 20
10.0
 30
0.0
  0
VERTEX
  5
529
  8
RAHMEN
 10
410.0
 20
287.0
 30
0.0
  0
VERTEX
  5
52A
  8
RAHMEN
 10
10.0
 20
287.0
 30
0.0
  0
SEQEND
  5
52B
  8
RAHMEN
  0
TEXT
  5
337
  8
BEM1
 62
     3
 10
203.829123
 20
220.73829
 30
0.0
 40
3.5
  1
26.00 [1.024"]
 41
0.7
 51
15.0
  0
LINE
  5
338
  8
BEM1
 10
178.557739
 20
218.98829
 30
0.0
 11
256.557739
 21
218.98829
 31
0.0
  0
ARC
  5
339
  8
05
 10
217.557739
 20
157.088681
 30
0.0
 40
35.4
 50
108.903975
 51
71.096025
  0
LINE
  5
33A
  8
05
 10
246.057739
 20
110.588681
 30
0.0
 11
189.057739
 21
110.588681
 31
0.0
  0
LINE
  5
33B
  8
MITTE
 10
176.330699
 20
157.088681
 30
0.0
 11
258.784778
 21
157.088681
 31
0.0
  0
ARC
  5
33E
  8
05
 10
217.557739
 20
157.088681
 30
0.0
 40
27.075
 50
106.081732
 51
142.328869
  0
ARC
  5
33F
  8
05
 10
217.557739
 20
157.088681
 30
0.0
 40
27.075
 50
142.328869
 51
37.671131
  0
LINE
  5
340
  8
05
 10
210.196969
 20
191.288681
 30
0.0
 11
208.418811
 21
191.288681
 31
0.0
  0
LINE
  5
341
  8
035
 10
208.557739
 20
190.688681
 30
0.0
 11
210.357739
 21
190.688681
 31
0.0
  0
LINE
  5
342
  8
05
 10
208.557739
 20
188.288681
 30
0.0
 11
210.057739
 21
188.288681
 31
0.0
  0
ARC
  5
343
  8
05
 10
217.557739
 20
157.088681
 30
0.0
 40
29.25
 50
104.857166
 51
75.142834
  0
ARC
  5
344
  8
05
 10
217.557739
 20
157.088681
 30
0.0
 40
23.7
 50
140.692696
 51
129.307304
  0
TEXT
  5
345
  8
BEM1
 62
     3
 10
60.014839
 20
146.246726
 30
0.0
 40
3.5
  1
%%c3.10 [0.122"]
 41
0.7
 51
15.0
  0
LINE
  5
346
  8
BEM1
 10
58.81038
 20
157.13733
 30
0.0
 11
58.81038
 21
141.632165
 31
0.0
  0
TEXT
  5
347
  8
BEM1
 62
     3
 10
164.856187
 20
143.935096
 30
0.0
 40
3.5
  1
31.00 [1.220"]
 50
90.0
 41
0.7
 51
15.0
  0
LINE
  5
348
  8
BEM1
 10
166.606187
 20
203.588681
 30
0.0
 11
166.606187
 21
110.588681
 31
0.0
  0
LINE
  5
349
  8
05
 10
178.557739
 20
121.088681
 30
0.0
 11
178.557739
 21
193.088681
 31
0.0
  0
CIRCLE
  5
34A
  8
05
 10
79.96038
 20
66.397378
 30
0.0
 40
3.0
  0
CIRCLE
  5
34B
  8
05
 10
79.96038
 20
90.397378
 30
0.0
 40
3.0
  0
LINE
  5
34C
  8
BEM1
 10
53.461893
 20
144.496726
 30
0.0
 11
86.206312
 21
144.496726
 31
0.0
  0
LINE
  5
34D
  8
05
 10
63.46038
 20
31.897378
 30
0.0
 11
120.46038
 21
31.897378
 31
0.0
  0
ARC
  5
34E
  8
035
 10
82.96038
 20
121.045974
 30
0.0
 40
6.0
 50
112.024313
 51
140.066299
  0
LINE
  5
34F
  8
05
 10
63.46038
 20
124.897378
 30
0.0
 11
91.96038
 21
124.897378
 31
0.0
  0
ARC
  5
350
  8
05
 10
91.96038
 20
78.397378
 30
0.0
 40
35.4
 50
64.929772
 51
115.070228
  0
LINE
  5
351
  8
MITTE
 10
51.844267
 20
78.636643
 30
0.0
 11
132.203072
 21
78.636643
 31
0.0
  0
LINE
  5
352
  8
035
 10
78.808194
 20
100.034846
 30
0.0
 11
70.322913
 21
91.549564
 31
0.0
  0
LINE
  5
353
  8
035
 10
79.868854
 20
98.974185
 30
0.0
 11
71.383573
 21
90.488904
 31
0.0
  0
CIRCLE
  5
354
  8
035
 10
79.81038
 20
78.397378
 30
0.0
 40
3.9
  0
CIRCLE
  5
355
  8
035
 10
79.81038
 20
78.397378
 30
0.0
 40
4.5
  0
ARC
  5
356
  8
05
 10
91.96038
 20
78.397378
 30
0.0
 40
27.075
 50
107.075333
 51
127.671131
  0
ARC
  5
357
  8
05
 10
91.96038
 20
78.397378
 30
0.0
 40
27.075
 50
142.328869
 51
37.671131
  0
CIRCLE
  5
358
  8
05
 10
91.96038
 20
78.397378
 30
0.0
 40
31.8
  0
LINE
  5
359
  8
05
 10
52.96038
 20
114.397378
 30
0.0
 11
52.96038
 21
42.397378
 31
0.0
  0
LINE
  5
35A
  8
BEM1
 10
59.522357
 20
35.43376
 30
0.0
 11
54.089904
 21
25.827537
 31
0.0
  0
ARC
  5
35B
  8
05
 10
63.46038
 20
42.397378
 30
0.0
 40
10.5
 50
180.0
 51
270.0
  0
TEXT
  5
35C
  8
BEM1
 62
     3
 10
49.461525
 20
27.091685
 30
0.0
 40
3.5
  1
M3
 41
0.7
 51
15.0
  0
LINE
  5
35D
  8
BEM1
 10
54.089904
 20
25.843001
 30
0.0
 11
49.229605
 21
25.843001
 31
0.0
  0
LINE
  5
35E
  8
MITTE
 10
57.734659
 20
42.397378
 30
0.0
 11
69.186102
 21
42.397378
 31
0.0
  0
ARC
  5
35F
  8
025
 10
63.46038
 20
42.397378
 30
0.0
 40
4.5
 50
68.294825
 51
344.340565
  0
CIRCLE
  5
361
  8
05
 10
63.46038
 20
42.397378
 30
0.0
 40
3.6
  0
SOLID
  5
362
  8
BEM1
 10
60.030121
 20
35.146613
 30
0.0
 11
59.014593
 21
35.720908
 31
0.0
 12
61.245242
 22
38.480343
 32
0.0
 13
61.245242
 23
38.480343
 33
0.0
  0
LINE
  5
363
  8
MITTE
 10
63.46038
 20
36.671657
 30
0.0
 11
63.46038
 21
48.1231
 31
0.0
  0
ARC
  5
364
  8
05
 10
61.058543
 20
78.268797
 30
0.0
 40
4.5
 50
97.686065
 51
262.790741
  0
TEXT
  5
365
  8
035
 10
70.891903
 20
74.19379
 30
0.0
 40
5.25
  1
1
  7
HELV
 72
     1
 11
71.516903
 21
74.19379
 31
0.0
  0
TEXT
  5
366
  8
035
 10
70.718018
 20
85.723049
 30
0.0
 40
5.25
  1
G
  7
HELV
  0
LINE
  5
367
  8
035
 10
70.322913
 20
91.549564
 30
0.0
 11
71.383573
 21
90.488904
 31
0.0
  0
LINE
  5
368
  8
05
 10
70.43987
 20
94.82672
 30
0.0
 11
72.019969
 21
93.246621
 31
0.0
  0
LINE
  5
369
  8
05
 10
73.292761
 20
94.943677
 30
0.0
 11
70.529664
 21
94.943677
 31
0.0
  0
LINE
  5
36A
  8
05
 10
75.414082
 20
97.064997
 30
0.0
 11
73.292761
 21
94.943677
 31
0.0
  0
LINE
  5
36B
  8
05
 10
78.171798
 20
99.39845
 30
0.0
 11
78.171798
 21
101.69825
 31
0.0
  0
LINE
  5
36C
  8
05
 10
75.414082
 20
97.064997
 30
0.0
 11
75.414082
 21
99.828095
 31
0.0
  0
ARC
  5
36D
  8
05
 10
63.46038
 20
114.397378
 30
0.0
 40
10.5
 50
90.0
 51
180.0
  0
LINE
  5
36E
  8
05
 10
76.96038
 20
106.43735
 30
0.0
 11
76.96038
 21
110.462312
 31
0.0
  0
SOLID
  5
36F
  8
BEM1
 10
55.31038
 20
143.913392
 30
0.0
 11
55.31038
 21
145.080059
 31
0.0
 12
58.81038
 22
144.496726
 32
0.0
 13
58.81038
 23
144.496726
 33
0.0
  0
SOLID
  5
370
  8
BEM1
 10
71.61038
 20
143.913392
 30
0.0
 11
71.61038
 21
145.080059
 31
0.0
 12
68.11038
 22
144.496726
 32
0.0
 13
68.11038
 23
144.496726
 33
0.0
  0
LINE
  5
371
  8
BEM1
 10
68.11038
 20
145.781339
 30
0.0
 11
68.11038
 21
141.632165
 31
0.0
  0
LINE
  5
372
  8
05
 10
130.96038
 20
42.397378
 30
0.0
 11
130.96038
 21
114.397378
 31
0.0
  0
TEXT
  5
373
  8
035
 10
90.046543
 20
55.499772
 30
0.0
 40
5.25
  1
3
  7
HELV
 72
     1
 11
91.796543
 21
55.499772
 31
0.0
  0
LINE
  5
374
  8
MITTE
 10
91.96038
 20
130.090381
 30
0.0
 11
91.96038
 21
30.021934
 31
0.0
  0
ARC
  5
375
  8
05
 10
91.96038
 20
47.497378
 30
0.0
 40
4.5
 50
187.475203
 51
352.524797
  0
ARC
  5
376
  8
05
 10
120.46038
 20
42.397378
 30
0.0
 40
10.5
 50
270.0
 51
360.0
  0
LINE
  5
377
  8
035
 10
88.96038
 20
101.497378
 30
0.0
 11
84.76038
 21
105.177478
 31
0.0
  0
LINE
  5
378
  8
035
 10
88.96038
 20
102.037961
 30
0.0
 11
84.76038
 21
105.718061
 31
0.0
  0
LINE
  5
379
  8
035
 10
94.96038
 20
102.037961
 30
0.0
 11
99.16038
 21
105.718061
 31
0.0
  0
LINE
  5
37A
  8
035
 10
94.96038
 20
101.497378
 30
0.0
 11
99.16038
 21
105.177478
 31
0.0
  0
LINE
  5
37B
  8
05
 10
84.01038
 20
93.397378
 30
0.0
 11
84.01038
 21
103.453777
 31
0.0
  0
LINE
  5
37C
  8
05
 10
99.91038
 20
93.397378
 30
0.0
 11
99.91038
 21
103.453777
 31
0.0
  0
LINE
  5
37D
  8
035
 10
99.16038
 20
97.747599
 30
0.0
 11
99.16038
 21
105.997378
 31
0.0
  0
LINE
  5
37E
  8
035
 10
84.76038
 20
97.747599
 30
0.0
 11
84.76038
 21
105.997378
 31
0.0
  0
ARC
  5
37F
  8
05
 10
91.96038
 20
78.397378
 30
0.0
 40
27.075
 50
52.328869
 51
72.924667
  0
LINE
  5
380
  8
05
 10
110.521933
 20
93.776951
 30
0.0
 11
114.243207
 21
93.776951
 31
0.0
  0
LINE
  5
381
  8
05
 10
110.627999
 20
94.943677
 30
0.0
 11
113.391097
 21
94.943677
 31
0.0
  0
LINE
  5
382
  8
MITTE
 10
104.11038
 20
72.397378
 30
0.0
 11
104.11038
 21
84.397378
 31
0.0
  0
LINE
  5
383
  8
MITTE
 10
79.81038
 20
72.397378
 30
0.0
 11
79.81038
 21
84.397378
 31
0.0
  0
CIRCLE
  5
384
  8
035
 10
104.11038
 20
78.397378
 30
0.0
 40
4.5
  0
CIRCLE
  5
385
  8
035
 10
104.11038
 20
78.397378
 30
0.0
 40
3.9
  0
LINE
  5
386
  8
MITTE
 10
85.96038
 20
66.547378
 30
0.0
 11
97.96038
 21
66.547378
 31
0.0
  0
CIRCLE
  5
387
  8
035
 10
91.96038
 20
66.547378
 30
0.0
 40
4.5
  0
CIRCLE
  5
388
  8
035
 10
91.96038
 20
66.547378
 30
0.0
 40
3.9
  0
LINE
  5
389
  8
035
 10
88.06038
 20
66.547378
 30
0.0
 11
87.46038
 21
66.547378
 31
0.0
  0
CIRCLE
  5
38A
  8
05
 10
103.96038
 20
66.397378
 30
0.0
 40
3.0
  0
LINE
  5
38B
  8
035
 10
95.86038
 20
66.547378
 30
0.0
 11
96.46038
 21
66.547378
 31
0.0
  0
LINE
  5
38C
  8
035
 10
84.76038
 20
97.747599
 30
0.0
 11
99.16038
 21
97.747599
 31
0.0
  0
ARC
  5
38D
  8
05
 10
91.96038
 20
91.897378
 30
0.0
 40
4.5
 50
17.104635
 51
162.895365
  0
ARC
  5
38E
  8
05
 10
87.31038
 20
92.797378
 30
0.0
 40
9.3
 50
321.312262
 51
356.525399
  0
LINE
  5
38F
  8
05
 10
87.482647
 20
92.638736
 30
0.0
 11
93.694837
 21
86.917862
 31
0.0
  0
ARC
  5
390
  8
05
 10
94.101289
 20
87.35922
 30
0.0
 40
0.6
 50
227.35769
 51
321.312262
  0
LINE
  5
391
  8
05
 10
84.61038
 20
92.797378
 30
0.0
 11
87.085957
 21
92.797378
 31
0.0
  0
ARC
  5
392
  8
05
 10
84.61038
 20
93.397378
 30
0.0
 40
0.6
 50
180.0
 51
270.0
  0
LINE
  5
393
  8
035
 10
78.808194
 20
100.034846
 30
0.0
 11
79.868854
 21
98.974185
 31
0.0
  0
ARC
  5
394
  8
05
 10
91.96038
 20
78.397378
 30
0.0
 40
23.7
 50
107.685831
 51
109.599481
  0
LINE
  5
395
  8
035
 10
87.46038
 20
97.747599
 30
0.0
 11
87.46038
 21
92.928542
 31
0.0
  0
ARC
  5
396
  8
05
 10
87.085957
 20
93.397378
 30
0.0
 40
0.6
 50
270.0
 51
342.895365
  0
ARC
  5
397
  8
05
 10
87.076195
 20
92.197378
 30
0.0
 40
0.6
 50
47.35769
 51
90.0
  0
LINE
  5
398
  8
035
 10
88.96038
 20
102.037961
 30
0.0
 11
94.96038
 21
102.037961
 31
0.0
  0
LINE
  5
399
  8
035
 10
88.96038
 20
101.497378
 30
0.0
 11
94.96038
 21
101.497378
 31
0.0
  0
CIRCLE
  5
39A
  8
05
 10
103.96038
 20
90.397378
 30
0.0
 40
3.0
  0
LINE
  5
39B
  8
035
 10
96.46038
 20
97.747599
 30
0.0
 11
96.46038
 21
92.928542
 31
0.0
  0
LINE
  5
39C
  8
05
 10
96.834803
 20
92.797378
 30
0.0
 11
99.31038
 21
92.797378
 31
0.0
  0
ARC
  5
39D
  8
05
 10
96.834803
 20
93.397378
 30
0.0
 40
0.6
 50
197.104635
 51
270.0
  0
ARC
  5
39E
  8
05
 10
97.192182
 20
92.197378
 30
0.0
 40
0.6
 50
90.0
 51
176.525399
  0
ARC
  5
39F
  8
05
 10
99.31038
 20
93.397378
 30
0.0
 40
0.6
 50
270.0
 51
0.0
  0
ARC
  5
3A0
  8
05
 10
91.96038
 20
78.397378
 30
0.0
 40
23.7
 50
70.400519
 51
72.314169
  0
LINE
  5
3A1
  8
05
 10
107.339953
 20
96.958931
 30
0.0
 11
110.521933
 21
93.776951
 31
0.0
  0
LINE
  5
3A2
  8
05
 10
108.506679
 20
97.064997
 30
0.0
 11
110.627999
 21
94.943677
 31
0.0
  0
LINE
  5
3A3
  8
05
 10
107.339953
 20
96.958931
 30
0.0
 11
107.339953
 21
100.680205
 31
0.0
  0
LINE
  5
3A4
  8
05
 10
108.506679
 20
97.064997
 30
0.0
 11
108.506679
 21
99.828095
 31
0.0
  0
TEXT
  5
3A5
  8
035
 10
111.669092
 20
75.609531
 30
0.0
 40
5.25
  1
2
  7
HELV
 72
     1
 11
113.419092
 21
75.609531
 31
0.0
  0
ARC
  5
3A6
  8
05
 10
122.862218
 20
78.268797
 30
0.0
 40
4.5
 50
277.209259
 51
82.313935
  0
LINE
  5
3A7
  8
05
 10
91.96038
 20
124.897378
 30
0.0
 11
120.46038
 21
124.897378
 31
0.0
  0
ARC
  5
3A8
  8
035
 10
100.96038
 20
121.045974
 30
0.0
 40
6.0
 50
39.933701
 51
67.975687
  0
LINE
  5
3A9
  8
035
 10
84.76038
 20
105.997378
 30
0.0
 11
99.16038
 21
105.997378
 31
0.0
  0
LINE
  5
3AA
  8
05
 10
84.01038
 20
108.397378
 30
0.0
 11
99.91038
 21
108.397378
 31
0.0
  0
LINE
  5
3AB
  8
05
 10
84.01038
 20
104.278899
 30
0.0
 11
84.01038
 21
108.397378
 31
0.0
  0
ARC
  5
3AC
  8
05
 10
83.41038
 20
103.453777
 30
0.0
 40
0.6
 50
0.0
 51
108.841191
  0
LINE
  5
3AD
  8
035
 10
87.46038
 20
105.997378
 30
0.0
 11
87.46038
 21
108.397378
 31
0.0
  0
LINE
  5
3AE
  8
035
 10
96.46038
 20
105.997378
 30
0.0
 11
96.46038
 21
108.397378
 31
0.0
  0
LINE
  5
3AF
  8
05
 10
99.91038
 20
104.278899
 30
0.0
 11
99.91038
 21
108.397378
 31
0.0
  0
ARC
  5
3B0
  8
05
 10
100.51038
 20
103.453777
 30
0.0
 40
0.6
 50
71.158809
 51
180.0
  0
LINE
  5
3B1
  8
05
 10
106.96038
 20
106.43735
 30
0.0
 11
106.96038
 21
110.462312
 31
0.0
  0
ARC
  5
3B2
  8
035
 10
91.96038
 20
98.797378
 30
0.0
 40
30.0
 50
67.975687
 51
112.024313
  0
ARC
  5
3B3
  8
05
 10
120.46038
 20
114.397378
 30
0.0
 40
10.5
 50
360.0
 51
90.0
  0
LINE
  5
3B4
  8
MITTE
 10
120.46038
 20
108.671657
 30
0.0
 11
120.46038
 21
120.1231
 31
0.0
  0
ARC
  5
3B5
  8
025
 10
120.46038
 20
114.397378
 30
0.0
 40
4.5
 50
68.294825
 51
344.340565
  0
CIRCLE
  5
3B6
  8
05
 10
120.46038
 20
114.397378
 30
0.0
 40
3.6
  0
LINE
  5
3B7
  8
MITTE
 10
114.734659
 20
114.397378
 30
0.0
 11
126.186102
 21
114.397378
 31
0.0
  0
LINE
  5
3B8
  8
BEM1
 10
187.807739
 20
110.588681
 30
0.0
 11
165.189481
 21
110.588681
 31
0.0
  0
ARC
  5
3B9
  8
05
 10
189.057739
 20
121.088681
 30
0.0
 40
10.5
 50
180.0
 51
270.0
  0
SOLID
  5
3BA
  8
BEM1
 10
167.18952
 20
114.088681
 30
0.0
 11
166.022854
 21
114.088681
 31
0.0
 12
166.606187
 22
110.588681
 32
0.0
 13
166.606187
 23
110.588681
 33
0.0
  0
LINE
  5
3BB
  8
MITTE
 10
189.057738
 20
130.088681
 30
0.0
 11
189.057738
 21
112.088681
 31
0.0
  0
CIRCLE
  5
3BC
  8
05
 10
189.057738
 20
121.088681
 30
0.0
 40
7.5
  0
LINE
  5
3BD
  8
MITTE
 10
198.057738
 20
121.088681
 30
0.0
 11
180.057738
 21
121.088681
 31
0.0
  0
LINE
  5
3BE
  8
05
 10
192.022359
 20
148.088681
 30
0.0
 11
189.726776
 21
148.088681
 31
0.0
  0
LINE
  5
3BF
  8
05
 10
192.601665
 20
146.588681
 30
0.0
 11
190.257327
 21
146.588681
 31
0.0
  0
LINE
  5
3C0
  8
05
 10
208.557739
 20
131.553301
 30
0.0
 11
208.557739
 21
129.257718
 31
0.0
  0
LINE
  5
3C1
  8
05
 10
207.057739
 20
132.132607
 30
0.0
 11
207.057739
 21
129.788269
 31
0.0
  0
TEXT
  5
3C2
  8
035
 62
     3
 10
52.96038
 20
267.329436
 30
0.0
 40
3.5
  1
Frontplattenausschnitt (Rckseite)
  7
ARIAL
  0
TEXT
  5
3C4
  8
035
 62
     3
 10
52.764599
 20
260.731087
 30
0.0
 40
3.0
  1
Panel cut out (rear side)
  7
ARIAL
  0
LINE
  5
3C5
  8
BEM1
 10
70.194444
 20
157.88733
 30
0.0
 11
141.176503
 21
157.88733
 31
0.0
  0
LINE
  5
3C6
  8
BEM1
 10
56.56038
 20
249.59803
 30
0.0
 11
127.36038
 21
249.59803
 31
0.0
  0
LINE
  5
3C7
  8
BEM1
 10
63.46038
 20
240.603294
 30
0.0
 11
120.46038
 21
240.603294
 31
0.0
  0
CIRCLE
  5
3C8
  8
05
 10
91.96038
 20
193.88733
 30
0.0
 40
35.4
  0
LINE
  5
3C9
  8
MITTE
 10
55.100926
 20
193.88733
 30
0.0
 11
128.809431
 21
193.88733
 31
0.0
  0
LINE
  5
3CA
  8
BEM1
 10
56.56038
 20
194.63733
 30
0.0
 11
56.56038
 21
250.520204
 31
0.0
  0
LINE
  5
3CB
  8
BEM1
 10
63.46038
 20
164.621393
 30
0.0
 11
63.46038
 21
241.95141
 31
0.0
  0
LINE
  5
3CC
  8
MITTE
 10
57.734659
 20
157.88733
 30
0.0
 11
69.186102
 21
157.88733
 31
0.0
  0
CIRCLE
  5
3CD
  8
05
 10
63.46038
 20
157.88733
 30
0.0
 40
4.65
  0
LINE
  5
3CE
  8
MITTE
 10
63.46038
 20
152.161608
 30
0.0
 11
63.46038
 21
163.613051
 31
0.0
  0
LINE
  5
3CF
  8
BEM1
 10
68.11038
 20
157.13733
 30
0.0
 11
68.11038
 21
150.36557
 31
0.0
  0
SOLID
  5
3D0
  8
BEM1
 10
66.96038
 20
240.019961
 30
0.0
 11
66.96038
 21
241.186627
 31
0.0
 12
63.46038
 22
240.603294
 32
0.0
 13
63.46038
 23
240.603294
 33
0.0
  0
SOLID
  5
3D1
  8
BEM1
 10
60.06038
 20
249.014697
 30
0.0
 11
60.06038
 21
250.181363
 31
0.0
 12
56.56038
 22
249.59803
 32
0.0
 13
56.56038
 23
249.59803
 33
0.0
  0
LINE
  5
3D2
  8
BEM1
 10
127.36038
 20
194.63733
 30
0.0
 11
127.36038
 21
250.520204
 31
0.0
  0
LINE
  5
3D3
  8
BEM1
 10
120.46038
 20
236.621393
 30
0.0
 11
120.46038
 21
241.95141
 31
0.0
  0
TEXT
  5
3D4
  8
BEM1
 62
     3
 10
137.894527
 20
181.468551
 30
0.0
 40
3.5
  1
24.00 [0.945"]
 50
90.0
 41
0.7
 51
15.0
  0
LINE
  5
3D5
  8
BEM1
 10
138.976503
 20
157.88733
 30
0.0
 11
138.976503
 21
229.88733
 31
0.0
  0
LINE
  5
3D6
  8
MITTE
 10
91.96038
 20
230.59359
 30
0.0
 11
91.96038
 21
156.715031
 31
0.0
  0
SOLID
  5
3D7
  8
BEM1
 10
139.559836
 20
161.38733
 30
0.0
 11
138.39317
 21
161.38733
 31
0.0
 12
138.976503
 22
157.88733
 32
0.0
 13
138.976503
 23
157.88733
 33
0.0
  0
LINE
  5
3D8
  8
BEM1
 10
127.194444
 20
229.88733
 30
0.0
 11
141.176503
 21
229.88733
 31
0.0
  0
LINE
  5
3D9
  8
MITTE
 10
120.46038
 20
224.161608
 30
0.0
 11
120.46038
 21
235.613051
 31
0.0
  0
CIRCLE
  5
3DA
  8
05
 10
120.46038
 20
229.88733
 30
0.0
 40
4.65
  0
SOLID
  5
3DB
  8
BEM1
 10
116.96038
 20
240.019961
 30
0.0
 11
116.96038
 21
241.186627
 31
0.0
 12
120.46038
 22
240.603294
 32
0.0
 13
120.46038
 23
240.603294
 33
0.0
  0
LINE
  5
3DC
  8
MITTE
 10
114.734659
 20
229.88733
 30
0.0
 11
126.186102
 21
229.88733
 31
0.0
  0
SOLID
  5
3DD
  8
BEM1
 10
139.559836
 20
226.38733
 30
0.0
 11
138.39317
 21
226.38733
 31
0.0
 12
138.976503
 22
229.88733
 32
0.0
 13
138.976503
 23
229.88733
 33
0.0
  0
ARC
  5
3DE
  8
05
 10
189.057739
 20
193.088681
 30
0.0
 40
10.5
 50
136.317892
 51
180.0
  0
ARC
  5
3DF
  8
035
 10
208.557739
 20
197.888681
 30
0.0
 40
6.0
 50
180.0
 51
270.0
  0
ARC
  5
3E0
  8
035
 62
     3
 10
208.557739
 20
197.888681
 30
0.0
 40
6.0
 50
180.0
 51
270.0
  0
ARC
  5
3E1
  8
025
 10
189.057739
 20
193.088681
 30
0.0
 40
4.5
 50
68.294825
 51
344.340565
  0
CIRCLE
  5
3E2
  8
05
 10
189.057739
 20
193.088681
 30
0.0
 40
3.6
  0
LINE
  5
3E3
  8
BEM1
 10
178.557739
 20
193.838681
 30
0.0
 11
178.557739
 21
201.133054
 31
0.0
  0
LINE
  5
3E4
  8
MITTE
 10
189.057739
 20
182.588681
 30
0.0
 11
189.057739
 21
203.588681
 31
0.0
  0
CIRCLE
  5
3E5
  8
05
 10
189.057739
 20
193.088681
 30
0.0
 40
5.25
  0
CIRCLE
  5
3E6
  8
05
 10
189.057739
 20
193.088681
 30
0.0
 40
9.0
  0
ARC
  5
3E7
  8
05
 10
201.223572
 20
173.422848
 30
0.0
 40
2.4
 50
22.975687
 51
247.024313
  0
LINE
  5
3E8
  8
05
 10
192.022359
 20
166.088681
 30
0.0
 11
189.726776
 21
166.088681
 31
0.0
  0
LINE
  5
3E9
  8
05
 10
192.601665
 20
167.588681
 30
0.0
 11
190.257327
 21
167.588681
 31
0.0
  0
LINE
  5
3EA
  8
MITTE
 10
205.407739
 20
151.088681
 30
0.0
 11
205.407739
 21
163.088681
 31
0.0
  0
CIRCLE
  5
3EB
  8
05
 10
205.407739
 20
157.088681
 30
0.0
 40
3.9
  0
TEXT
  5
3EC
  8
035
 10
204.234551
 20
163.377381
 30
0.0
 40
3.0
  1
2
  7
HELV
  0
LINE
  5
3ED
  8
MITTE
 10
178.557739
 20
193.088681
 30
0.0
 11
199.557739
 21
193.088681
 31
0.0
  0
LINE
  5
3EE
  8
05
 10
201.861085
 20
179.149295
 30
0.0
 11
200.303079
 21
180.707301
 31
0.0
  0
LINE
  5
3EF
  8
05
 10
201.01144
 20
175.813454
 30
0.0
 11
201.01144
 21
178.519398
 31
0.0
  0
LINE
  5
3F0
  8
05
 10
198.832965
 20
173.63498
 30
0.0
 11
196.127022
 21
173.63498
 31
0.0
  0
LINE
  5
3F1
  8
05
 10
195.497124
 20
172.785334
 30
0.0
 11
193.939118
 21
174.34334
 31
0.0
  0
LINE
  5
3F2
  8
035
 62
     3
 10
208.557739
 20
190.688681
 30
0.0
 11
208.557739
 21
188.288681
 31
0.0
  0
LINE
  5
3F3
  8
035
 10
208.557739
 20
188.288681
 30
0.0
 11
208.557739
 21
190.688681
 31
0.0
  0
LINE
  5
3F4
  8
05
 10
206.088739
 20
188.288681
 30
0.0
 11
206.088739
 21
190.579307
 31
0.0
  0
LINE
  5
3F5
  8
05
 10
208.257739
 20
188.288681
 30
0.0
 11
208.257739
 21
191.245232
 31
0.0
  0
LINE
  5
3F6
  8
035
 62
     3
 10
208.557739
 20
191.888681
 30
0.0
 11
209.457739
 21
191.888681
 31
0.0
  0
ARC
  5
3F7
  8
05
 10
217.557739
 20
157.088681
 30
0.0
 40
35.4
 50
104.961018
 51
108.903975
  0
LINE
  5
3F8
  8
BEM1
 10
187.807739
 20
203.588681
 30
0.0
 11
165.189481
 21
203.588681
 31
0.0
  0
SOLID
  5
3F9
  8
BEM1
 10
167.18952
 20
200.088681
 30
0.0
 11
166.022854
 21
200.088681
 31
0.0
 12
166.606187
 22
203.588681
 32
0.0
 13
166.606187
 23
203.588681
 33
0.0
  0
LINE
  5
3FA
  8
BEM1
 10
178.557739
 20
206.081228
 30
0.0
 11
178.557739
 21
220.226446
 31
0.0
  0
LINE
  5
3FB
  8
05
 10
203.957012
 20
203.588681
 30
0.0
 11
189.057739
 21
203.588681
 31
0.0
  0
ARC
  5
3FC
  8
05
 10
189.057739
 20
193.088681
 30
0.0
 40
10.5
 50
90.0
 51
135.0
  0
ARC
  5
3FD
  8
035
 62
     3
 10
208.557739
 20
200.337276
 30
0.0
 40
6.0
 50
112.024313
 51
180.0
  0
LINE
  5
3FE
  8
035
 62
     3
 10
202.557739
 20
200.337276
 30
0.0
 11
202.557739
 21
197.888681
 31
0.0
  0
SOLID
  5
3FF
  8
BEM1
 10
182.057739
 20
218.404957
 30
0.0
 11
182.057739
 21
219.571623
 31
0.0
 12
178.557739
 22
218.98829
 32
0.0
 13
178.557739
 23
218.98829
 33
0.0
  0
TEXT
  5
400
  8
BEM1
 62
     3
 10
78.672358
 20
251.34803
 30
0.0
 40
3.5
  1
%%c23.60 [0.929"]
 41
0.7
 51
15.0
  0
TEXT
  5
401
  8
BEM1
 62
     3
 10
80.306658
 20
242.353294
 30
0.0
 40
3.5
  1
19.00 [0.748"]
 41
0.7
 51
15.0
  0
SOLID
  5
402
  8
BEM1
 10
123.86038
 20
249.014697
 30
0.0
 11
123.86038
 21
250.181363
 31
0.0
 12
127.36038
 22
249.59803
 32
0.0
 13
127.36038
 23
249.59803
 33
0.0
  0
ARC
  5
403
  8
025
 10
311.148866
 20
157.088681
 30
0.0
 40
23.796429
 50
325.437003
 51
34.562997
  0
LINE
  5
404
  8
05
 10
330.745295
 20
170.588681
 30
0.0
 11
330.745295
 21
143.588681
 31
0.0
  0
LINE
  5
405
  8
05
 10
256.557739
 20
193.088681
 30
0.0
 11
256.557739
 21
121.088681
 31
0.0
  0
LINE
  5
406
  8
05
 10
367.345295
 20
203.588681
 30
0.0
 11
367.345295
 21
110.588681
 31
0.0
  0
LINE
  5
407
  8
05
 10
381.445295
 20
191.288681
 30
0.0
 11
381.445295
 21
121.688681
 31
0.0
  0
LINE
  5
408
  8
035
 10
304.345295
 20
149.738681
 30
0.0
 11
304.345295
 21
148.238681
 31
0.0
  0
LINE
  5
409
  8
05
 10
318.445295
 20
187.238681
 30
0.0
 11
318.445295
 21
123.938681
 31
0.0
  0
LINE
  5
40A
  8
05
 10
373.345295
 20
202.388681
 30
0.0
 11
373.345295
 21
111.788681
 31
0.0
  0
CIRCLE
  5
40B
  8
05
 10
217.557739
 20
145.238681
 30
0.0
 40
3.9
  0
LINE
  5
40C
  8
MITTE
 10
217.557739
 20
210.792818
 30
0.0
 11
217.557739
 21
108.597786
 31
0.0
  0
LINE
  5
40D
  8
05
 10
340.345295
 20
123.938681
 30
0.0
 11
346.648181
 21
123.938681
 31
0.0
  0
CIRCLE
  5
40E
  8
05
 10
246.057739
 20
121.088681
 30
0.0
 40
3.6
  0
ARC
  5
40F
  8
025
 10
246.057739
 20
121.088681
 30
0.0
 40
4.5
 50
68.294825
 51
344.340565
  0
LINE
  5
410
  8
MITTE
 10
235.557739
 20
121.088681
 30
0.0
 11
256.557739
 21
121.088681
 31
0.0
  0
CIRCLE
  5
411
  8
05
 10
246.057739
 20
121.088681
 30
0.0
 40
5.25
  0
CIRCLE
  5
412
  8
05
 10
246.057739
 20
121.088681
 30
0.0
 40
9.0
  0
LINE
  5
413
  8
05
 10
242.513813
 20
146.588681
 30
0.0
 11
244.858151
 21
146.588681
 31
0.0
  0
LINE
  5
414
  8
MITTE
 10
211.557739
 20
145.238681
 30
0.0
 11
223.557739
 21
145.238681
 31
0.0
  0
LINE
  5
415
  8
05
 10
226.557739
 20
131.553301
 30
0.0
 11
226.557739
 21
129.257718
 31
0.0
  0
LINE
  5
416
  8
05
 10
228.057739
 20
132.132607
 30
0.0
 11
228.057739
 21
129.788269
 31
0.0
  0
LINE
  5
417
  8
MITTE
 10
246.057739
 20
110.588681
 30
0.0
 11
246.057739
 21
131.588681
 31
0.0
  0
ARC
  5
418
  8
05
 10
246.057739
 20
121.088681
 30
0.0
 40
10.5
 50
270.0
 51
0.0
  0
LINE
  5
419
  8
05
 10
243.093119
 20
148.088681
 30
0.0
 11
245.388702
 21
148.088681
 31
0.0
  0
LINE
  5
41A
  8
035
 10
310.375295
 20
145.238681
 30
0.0
 11
307.345295
 21
145.238681
 31
0.0
  0
ARC
  5
41B
  8
035
 10
307.345295
 20
148.238681
 30
0.0
 40
3.0
 50
180.0
 51
270.0
  0
LINE
  5
41C
  8
05
 10
318.445295
 20
123.938681
 30
0.0
 11
330.445295
 21
123.938681
 31
0.0
  0
LINE
  5
41D
  8
05
 10
330.445295
 20
124.237609
 30
0.0
 11
340.345295
 21
123.938681
 31
0.0
  0
LINE
  5
41E
  8
05
 10
330.445295
 20
124.237609
 30
0.0
 11
330.445295
 21
123.938681
 31
0.0
  0
LINE
  5
41F
  8
035
 10
318.445295
 20
140.738681
 30
0.0
 11
314.845295
 21
140.738681
 31
0.0
  0
ARC
  5
420
  8
035
 10
310.375295
 20
140.768681
 30
0.0
 40
4.47
 50
0.0
 51
90.0
  0
LINE
  5
421
  8
035
 10
314.845295
 20
140.768681
 30
0.0
 11
314.845295
 21
140.738681
 31
0.0
  0
TEXT
  5
422
  8
BEM1
 62
     3
 10
345.872212
 20
98.9842
 30
0.0
 40
3.5
  1
2.00 [0.079"]
 41
0.7
 51
15.0
  0
LINE
  5
423
  8
BEM1
 10
373.345295
 20
111.038681
 30
0.0
 11
373.345295
 21
96.083649
 31
0.0
  0
TEXT
  5
424
  8
BEM1
 62
     3
 10
375.441014
 20
99.180333
 30
0.0
 40
3.5
  1
2.70 [0.106"]
 41
0.7
 51
15.0
  0
LINE
  5
425
  8
BEM1
 10
367.345295
 20
97.2342
 30
0.0
 11
398.817734
 21
97.2342
 31
0.0
  0
LINE
  5
426
  8
BEM1
 10
367.345295
 20
97.2342
 30
0.0
 11
346.274938
 21
97.2342
 31
0.0
  0
SOLID
  5
427
  8
BEM1
 10
363.845295
 20
96.650867
 30
0.0
 11
363.845295
 21
97.817534
 31
0.0
 12
367.345295
 22
97.2342
 32
0.0
 13
367.345295
 23
97.2342
 33
0.0
  0
LINE
  5
428
  8
BEM1
 10
367.345295
 20
98.348234
 30
0.0
 11
367.345295
 21
96.083649
 31
0.0
  0
POLYLINE
  5
429
  8
BEM1
 66
     1
 10
0.0
 20
0.0
 30
0.0
 70
     1
 40
0.25
 41
0.25
  0
VERTEX
  5
52C
  8
BEM1
 10
372.970295
 20
97.2342
 30
0.0
 42
1.0
  0
VERTEX
  5
52D
  8
BEM1
 10
373.720295
 20
97.2342
 30
0.0
 42
1.0
  0
SEQEND
  5
52E
  8
BEM1
  0
SOLID
  5
42A
  8
BEM1
 10
384.945295
 20
96.650867
 30
0.0
 11
384.945295
 21
97.817534
 31
0.0
 12
381.445295
 22
97.2342
 32
0.0
 13
381.445295
 23
97.2342
 33
0.0
  0
LINE
  5
42B
  8
BEM1
 10
381.445295
 20
98.062142
 30
0.0
 11
381.445295
 21
96.083649
 31
0.0
  0
LINE
  5
42C
  8
05
 10
381.445295
 20
121.688681
 30
0.0
 11
373.345295
 21
121.688681
 31
0.0
  0
LINE
  5
42D
  8
05
 10
367.345295
 20
124.195661
 30
0.0
 11
349.045295
 21
124.195661
 31
0.0
  0
LINE
  5
42E
  8
05
 10
367.345295
 20
121.688681
 30
0.0
 11
350.545295
 21
121.688681
 31
0.0
  0
ARC
  5
42F
  8
05
 10
350.545295
 20
126.188681
 30
0.0
 40
4.5
 50
210.0
 51
270.0
  0
POLYLINE
  5
430
  8
05
 66
     1
 10
0.0
 20
0.0
 30
0.0
  0
VERTEX
  5
52F
  8
05
 10
349.045295
 20
124.195661
 30
0.0
 42
0.011094
  0
VERTEX
  5
530
  8
05
 10
348.053554
 20
124.173652
 30
0.0
 42
0.015606
  0
VERTEX
  5
531
  8
05
 10
347.350279
 20
124.120393
 30
0.0
 42
0.036631
  0
VERTEX
  5
532
  8
05
 10
346.696779
 20
124.001458
 30
0.0
  0
VERTEX
  5
533
  8
05
 10
346.648181
 20
123.938681
 30
0.0
  0
SEQEND
  5
534
  8
05
  0
LINE
  5
431
  8
BEM1
 10
367.345295
 20
109.838681
 30
0.0
 11
367.345295
 21
103.569421
 31
0.0
  0
LINE
  5
432
  8
05
 10
372.145295
 20
110.588681
 30
0.0
 11
367.345295
 21
110.588681
 31
0.0
  0
ARC
  5
433
  8
05
 10
372.145295
 20
111.788681
 30
0.0
 40
1.2
 50
270.0
 51
0.0
  0
LINE
  5
434
  8
BEM1
 10
381.445295
 20
120.691181
 30
0.0
 11
381.445295
 21
103.927036
 31
0.0
  0
TEXT
  5
435
  8
BEM1
 62
     3
 10
330.028404
 20
220.195742
 30
0.0
 40
3.5
  1
16.30 [0.642"]
 41
0.7
 51
15.0
  0
LINE
  5
436
  8
BEM1
 10
318.445295
 20
218.969862
 30
0.0
 11
367.345295
 21
218.969862
 31
0.0
  0
LINE
  5
437
  8
MITTE
 10
302.754593
 20
157.088681
 30
0.0
 11
383.677683
 21
157.088681
 31
0.0
  0
LINE
  5
438
  8
05
 10
349.045295
 20
191.588356
 30
0.0
 11
331.345295
 21
191.588356
 31
0.0
  0
LINE
  5
439
  8
05
 10
367.345295
 20
183.478652
 30
0.0
 11
318.445295
 21
183.478652
 31
0.0
  0
LINE
  5
43A
  8
05
 10
367.345295
 20
189.16914
 30
0.0
 11
327.538562
 21
189.16914
 31
0.0
  0
ARC
  5
43B
  8
035
 62
     3
 10
226.557739
 20
197.888681
 30
0.0
 40
6.0
 50
270.0
 51
0.0
  0
POLYLINE
  5
43C
  8
0
 66
     1
 10
0.0
 20
0.0
 30
0.0
  0
VERTEX
  5
535
  8
0
 10
240.840718
 20
196.100729
 30
0.0
 42
0.291473
  0
VERTEX
  5
536
  8
0
 10
241.123087
 20
189.633401
 30
0.0
 42
1.0
  0
VERTEX
  5
537
  8
0
 10
242.35675
 20
190.497221
 30
0.0
 42
-0.246577
  0
VERTEX
  5
538
  8
0
 10
241.823194
 20
194.663993
 30
0.0
  0
VERTEX
  5
539
  8
0
 10
243.398786
 20
193.754324
 30
0.0
 42
1.0
  0
VERTEX
  5
53A
  8
0
 10
244.151798
 20
195.058579
 30
0.0
  0
VERTEX
  5
53B
  8
0
 10
241.869351
 20
196.37635
 30
0.0
 42
0.414214
  0
VERTEX
  5
53C
  8
0
 10
240.840718
 20
196.100729
 30
0.0
  0
SEQEND
  5
53D
  8
0
  0
POLYLINE
  5
43D
  8
0
 66
     1
 10
0.0
 20
0.0
 30
0.0
 70
     1
  0
VERTEX
  5
53E
  8
0
 10
249.069787
 20
198.305701
 30
0.0
 42
0.291473
  0
VERTEX
  5
53F
  8
0
 10
242.602459
 20
198.023331
 30
0.0
 42
1.0
  0
VERTEX
  5
540
  8
0
 10
243.466279
 20
196.789669
 30
0.0
 42
-0.111311
  0
VERTEX
  5
541
  8
0
 10
245.304726
 20
197.54356
 30
0.0
  0
VERTEX
  5
542
  8
0
 10
245.304726
 20
187.817596
 30
0.0
 42
1.0
  0
VERTEX
  5
543
  8
0
 10
246.81075
 20
187.817596
 30
0.0
  0
VERTEX
  5
544
  8
0
 10
246.81075
 20
197.54356
 30
0.0
 42
-0.089274
  0
VERTEX
  5
545
  8
0
 10
248.316774
 20
197.001446
 30
0.0
 42
1.0
  0
SEQEND
  5
546
  8
0
  0
POLYLINE
  5
43E
  8
0
 66
     1
 10
0.0
 20
0.0
 30
0.0
  0
VERTEX
  5
547
  8
0
 10
251.274759
 20
190.076632
 30
0.0
 42
0.291473
  0
VERTEX
  5
548
  8
0
 10
250.992389
 20
196.54396
 30
0.0
 42
1.0
  0
VERTEX
  5
549
  8
0
 10
249.758726
 20
195.68014
 30
0.0
 42
-0.246577
  0
VERTEX
  5
54A
  8
0
 10
250.292283
 20
191.513368
 30
0.0
  0
VERTEX
  5
54B
  8
0
 10
248.716691
 20
192.423037
 30
0.0
 42
1.0
  0
VERTEX
  5
54C
  8
0
 10
247.963679
 20
191.118782
 30
0.0
  0
VERTEX
  5
54D
  8
0
 10
250.246125
 20
189.801011
 30
0.0
 42
0.414214
  0
VERTEX
  5
54E
  8
0
 10
251.274759
 20
190.076632
 30
0.0
  0
SEQEND
  5
54F
  8
0
  0
CIRCLE
  5
43F
  8
05
 10
246.057738
 20
193.088681
 30
0.0
 40
7.5
  0
LINE
  5
440
  8
BEM1
 10
256.557739
 20
193.838681
 30
0.0
 11
256.557739
 21
220.226446
 31
0.0
  0
ARC
  5
441
  8
05
 10
246.057739
 20
193.088681
 30
0.0
 40
10.5
 50
0.0
 51
90.0
  0
LINE
  5
442
  8
05
 10
242.513813
 20
167.588681
 30
0.0
 11
244.858151
 21
167.588681
 31
0.0
  0
LINE
  5
443
  8
035
 10
236.302687
 20
171.590988
 30
0.0
 11
237.816348
 21
173.104649
 31
0.0
  0
CIRCLE
  5
444
  8
05
 10
229.707739
 20
157.088681
 30
0.0
 40
3.9
  0
TEXT
  5
445
  8
035
 10
216.458804
 20
151.081973
 30
0.0
 40
3.0
  1
3
  7
HELV
  0
LINE
  5
446
  8
MITTE
 10
229.707739
 20
151.088681
 30
0.0
 11
229.707739
 21
163.088681
 31
0.0
  0
TEXT
  5
447
  8
035
 10
228.757309
 20
163.377381
 30
0.0
 40
3.0
  1
1
  7
HELV
  0
LINE
  5
448
  8
035
 62
     3
 10
225.657739
 20
191.888681
 30
0.0
 11
226.557739
 21
191.888681
 31
0.0
  0
LINE
  5
449
  8
035
 62
     3
 10
224.757739
 20
190.688681
 30
0.0
 11
226.557739
 21
190.688681
 31
0.0
  0
ARC
  5
44A
  8
05
 10
217.557739
 20
157.088681
 30
0.0
 40
27.075
 50
37.671131
 51
73.918268
  0
LINE
  5
44B
  8
035
 10
224.757739
 20
190.688681
 30
0.0
 11
226.557739
 21
190.688681
 31
0.0
  0
LINE
  5
44C
  8
05
 10
225.057739
 20
188.288681
 30
0.0
 11
226.557739
 21
188.288681
 31
0.0
  0
LINE
  5
44D
  8
05
 10
229.026739
 20
188.288681
 30
0.0
 11
225.057739
 21
188.288681
 31
0.0
  0
LINE
  5
44E
  8
05
 10
226.696666
 20
191.288681
 30
0.0
 11
224.918508
 21
191.288681
 31
0.0
  0
ARC
  5
44F
  8
035
 62
     3
 10
221.007739
 20
183.188681
 30
0.0
 40
1.2
 50
0.0
 51
90.0
  0
ARC
  5
450
  8
035
 62
     3
 10
214.107739
 20
183.188681
 30
0.0
 40
1.2
 50
90.0
 51
180.0
  0
LINE
  5
451
  8
035
 62
     3
 10
224.607739
 20
188.288681
 30
0.0
 11
224.607739
 21
179.850041
 31
0.0
  0
LINE
  5
452
  8
035
 62
     3
 10
210.507739
 20
188.288681
 30
0.0
 11
210.507739
 21
179.850041
 31
0.0
  0
LINE
  5
453
  8
05
 10
225.057739
 20
183.104169
 30
0.0
 11
225.057739
 21
188.288681
 31
0.0
  0
LINE
  5
454
  8
05
 10
210.057739
 20
183.104169
 30
0.0
 11
210.057739
 21
188.288681
 31
0.0
  0
LINE
  5
455
  8
035
 10
212.907739
 20
182.818615
 30
0.0
 11
222.207739
 21
182.818615
 31
0.0
  0
LINE
  5
456
  8
035
 62
     3
 10
212.907739
 20
183.188681
 30
0.0
 11
212.907739
 21
180.462253
 31
0.0
  0
LINE
  5
457
  8
035
 62
     3
 10
222.207739
 20
183.188681
 30
0.0
 11
222.207739
 21
180.462253
 31
0.0
  0
LINE
  5
458
  8
035
 62
     3
 10
214.107739
 20
184.388681
 30
0.0
 11
221.007739
 21
184.388681
 31
0.0
  0
LINE
  5
459
  8
035
 10
210.057739
 20
188.288681
 30
0.0
 11
225.057739
 21
188.288681
 31
0.0
  0
LINE
  5
45A
  8
035
 10
214.107739
 20
184.388681
 30
0.0
 11
221.007739
 21
184.388681
 31
0.0
  0
LINE
  5
45B
  8
035
 62
     3
 10
210.357739
 20
190.988681
 30
0.0
 11
210.357739
 21
188.288681
 31
0.0
  0
LINE
  5
45C
  8
035
 10
210.357739
 20
188.288681
 30
0.0
 11
210.357739
 21
190.688681
 31
0.0
  0
LINE
  5
45D
  8
035
 10
210.507739
 20
188.288681
 30
0.0
 11
210.507739
 21
186.488681
 31
0.0
  0
LINE
  5
45E
  8
05
 10
210.507739
 20
187.088681
 30
0.0
 11
210.057739
 21
187.088681
 31
0.0
  0
LINE
  5
45F
  8
035
 62
     3
 10
224.757739
 20
190.988681
 30
0.0
 11
224.757739
 21
188.288681
 31
0.0
  0
LINE
  5
460
  8
035
 10
224.757739
 20
188.288681
 30
0.0
 11
224.757739
 21
190.688681
 31
0.0
  0
LINE
  5
461
  8
035
 10
224.607739
 20
188.288681
 30
0.0
 11
224.607739
 21
186.488681
 31
0.0
  0
LINE
  5
462
  8
05
 10
225.057739
 20
187.088681
 30
0.0
 11
224.607739
 21
187.088681
 31
0.0
  0
ARC
  5
463
  8
035
 62
     3
 10
225.657739
 20
190.988681
 30
0.0
 40
0.9
 50
90.0
 51
180.0
  0
ARC
  5
464
  8
035
 10
234.104037
 20
176.81696
 30
0.0
 40
0.75
 50
45.0
 51
135.0
  0
LINE
  5
465
  8
035
 10
232.060046
 20
175.833629
 30
0.0
 11
233.573707
 21
177.34729
 31
0.0
  0
LINE
  5
466
  8
05
 10
234.104037
 20
177.56696
 30
0.0
 11
234.104037
 21
178.519398
 31
0.0
  0
LINE
  5
467
  8
05
 10
238.036018
 20
173.63498
 30
0.0
 11
238.988456
 21
173.63498
 31
0.0
  0
ARC
  5
468
  8
035
 10
237.286018
 20
173.63498
 30
0.0
 40
0.75
 50
315.0
 51
45.0
  0
LINE
  5
469
  8
035
 10
237.816348
 20
174.16531
 30
0.0
 11
234.634367
 21
177.34729
 31
0.0
  0
LINE
  5
46A
  8
035
 62
     3
 10
226.557739
 20
190.688681
 30
0.0
 11
226.557739
 21
188.288681
 31
0.0
  0
LINE
  5
46B
  8
035
 10
226.557739
 20
188.288681
 30
0.0
 11
226.557739
 21
190.688681
 31
0.0
  0
LINE
  5
46C
  8
05
 10
229.026739
 20
188.288681
 30
0.0
 11
229.026739
 21
190.579307
 31
0.0
  0
LINE
  5
46D
  8
05
 10
226.857739
 20
188.288681
 30
0.0
 11
226.857739
 21
191.245232
 31
0.0
  0
ARC
  5
46E
  8
05
 10
217.557739
 20
157.088681
 30
0.0
 40
35.4
 50
71.096025
 51
75.038982
  0
LINE
  5
46F
  8
05
 10
243.093119
 20
166.088681
 30
0.0
 11
245.388702
 21
166.088681
 31
0.0
  0
LINE
  5
470
  8
05
 10
246.057739
 20
203.588681
 30
0.0
 11
231.158465
 21
203.588681
 31
0.0
  0
INSERT
  5
471
  8
035
 62
     3
  2
NT
 10
217.557739
 20
203.888681
 30
0.0
 41
7.5
 42
7.5
 43
7.5
  0
ARC
  5
47A
  8
035
 62
     3
 10
226.557739
 20
200.337276
 30
0.0
 40
6.0
 50
0.0
 51
67.975687
  0
LINE
  5
47B
  8
035
 62
     3
 10
232.557739
 20
200.337276
 30
0.0
 11
232.557739
 21
197.888681
 31
0.0
  0
SOLID
  5
47C
  8
BEM1
 10
253.057739
 20
218.404957
 30
0.0
 11
253.057739
 21
219.571623
 31
0.0
 12
256.557739
 22
218.98829
 32
0.0
 13
256.557739
 23
218.98829
 33
0.0
  0
LINE
  5
47D
  8
BEM1
 10
318.445295
 20
187.988681
 30
0.0
 11
318.445295
 21
220.226446
 31
0.0
  0
POLYLINE
  5
47E
  8
035
 66
     1
 10
0.0
 20
0.0
 30
0.0
  0
VERTEX
  5
56B
  8
035
 10
308.245295
 20
172.362187
 30
0.0
 42
0.071352
  0
VERTEX
  5
56C
  8
035
 10
309.433755
 20
172.532653
 30
0.0
 42
0.082828
  0
VERTEX
  5
56D
  8
035
 10
310.366615
 20
172.983508
 30
0.0
 42
0.106756
  0
VERTEX
  5
56E
  8
035
 10
311.036244
 20
173.713041
 30
0.0
 42
0.043668
  0
VERTEX
  5
56F
  8
035
 10
311.150066
 20
173.953178
 30
0.0
 42
0.133256
  0
SEQEND
  5
570
  8
035
  0
POLYLINE
  5
47F
  8
035
 66
     1
 10
0.0
 20
0.0
 30
0.0
 70
     1
  0
VERTEX
  5
571
  8
035
 10
308.245295
 20
171.301527
 30
0.0
 42
0.071352
  0
VERTEX
  5
572
  8
035
 10
309.433755
 20
171.471992
 30
0.0
 42
0.082828
  0
VERTEX
  5
573
  8
035
 10
310.366615
 20
171.922848
 30
0.0
 42
0.106756
  0
VERTEX
  5
574
  8
035
 10
311.036244
 20
172.652381
 30
0.0
 42
0.133256
  0
VERTEX
  5
575
  8
035
 10
311.245295
 20
173.422848
 30
0.0
 42
0.133256
  0
VERTEX
  5
576
  8
035
 10
311.036244
 20
174.193314
 30
0.0
 42
0.106756
  0
VERTEX
  5
577
  8
035
 10
310.366615
 20
174.922848
 30
0.0
 42
0.082828
  0
VERTEX
  5
578
  8
035
 10
309.433755
 20
175.373703
 30
0.0
 42
0.071352
  0
VERTEX
  5
579
  8
035
 10
308.245295
 20
175.544168
 30
0.0
 42
0.071352
  0
VERTEX
  5
57A
  8
035
 10
307.056834
 20
175.373703
 30
0.0
 42
0.082828
  0
VERTEX
  5
57B
  8
035
 10
306.123975
 20
174.922848
 30
0.0
 42
0.106756
  0
VERTEX
  5
57C
  8
035
 10
305.454346
 20
174.193314
 30
0.0
 42
0.133256
  0
VERTEX
  5
57D
  8
035
 10
305.245295
 20
173.422848
 30
0.0
 42
0.133256
  0
VERTEX
  5
57E
  8
035
 10
305.454346
 20
172.652381
 30
0.0
 42
0.106756
  0
VERTEX
  5
57F
  8
035
 10
306.123975
 20
171.922848
 30
0.0
 42
0.082828
  0
VERTEX
  5
580
  8
035
 10
307.056834
 20
171.471992
 30
0.0
 42
0.071352
  0
SEQEND
  5
581
  8
035
  0
LINE
  5
480
  8
035
 10
318.445295
 20
178.726148
 30
0.0
 11
304.645295
 21
178.726148
 31
0.0
  0
LINE
  5
481
  8
035
 10
318.445295
 20
177.665488
 30
0.0
 11
304.645295
 21
177.665488
 31
0.0
  0
LINE
  5
482
  8
035
 10
318.445295
 20
169.180207
 30
0.0
 11
304.645295
 21
169.180207
 31
0.0
  0
LINE
  5
483
  8
035
 10
318.445295
 20
149.738681
 30
0.0
 11
304.345295
 21
149.738681
 31
0.0
  0
LINE
  5
484
  8
035
 10
318.445295
 20
161.588681
 30
0.0
 11
304.345295
 21
161.588681
 31
0.0
  0
LINE
  5
485
  8
035
 10
310.375295
 20
157.088681
 30
0.0
 11
307.345295
 21
157.088681
 31
0.0
  0
LINE
  5
486
  8
035
 10
302.245295
 20
177.031874
 30
0.0
 11
302.245295
 21
170.877263
 31
0.0
  0
LINE
  5
487
  8
035
 10
304.345295
 20
161.588681
 30
0.0
 11
304.345295
 21
160.088681
 31
0.0
  0
ARC
  5
488
  8
035
 10
307.345295
 20
160.088681
 30
0.0
 40
3.0
 50
180.0
 51
270.0
  0
POLYLINE
  5
489
  8
035
 66
     1
 10
0.0
 20
0.0
 30
0.0
  0
VERTEX
  5
582
  8
035
 10
302.245295
 20
170.877263
 30
0.0
 42
0.133256
  0
VERTEX
  5
583
  8
035
 10
302.412536
 20
170.26089
 30
0.0
 42
0.106756
  0
VERTEX
  5
584
  8
035
 10
302.948239
 20
169.677263
 30
0.0
 42
0.082828
  0
VERTEX
  5
585
  8
035
 10
303.694527
 20
169.316579
 30
0.0
 42
0.071352
  0
VERTEX
  5
586
  8
035
 10
304.645295
 20
169.180207
 30
0.0
 42
0.071352
  0
SEQEND
  5
587
  8
035
  0
POLYLINE
  5
48A
  8
035
 66
     1
 10
0.0
 20
0.0
 30
0.0
  0
VERTEX
  5
588
  8
035
 10
304.645292
 20
178.726148
 30
0.0
 42
0.071352
  0
VERTEX
  5
589
  8
035
 10
303.694523
 20
178.589776
 30
0.0
 42
0.082828
  0
VERTEX
  5
58A
  8
035
 10
302.948235
 20
178.229092
 30
0.0
 42
0.106756
  0
VERTEX
  5
58B
  8
035
 10
302.412533
 20
177.645466
 30
0.0
 42
0.133256
  0
VERTEX
  5
58C
  8
035
 10
302.245292
 20
177.029092
 30
0.0
 42
0.133256
  0
SEQEND
  5
58D
  8
035
  0
POLYLINE
  5
48B
  8
035
 66
     1
 10
0.0
 20
0.0
 30
0.0
  0
VERTEX
  5
58E
  8
035
 10
304.645295
 20
177.665488
 30
0.0
 42
0.071352
  0
VERTEX
  5
58F
  8
035
 10
303.694527
 20
177.529116
 30
0.0
 42
0.082828
  0
VERTEX
  5
590
  8
035
 10
302.948239
 20
177.168432
 30
0.0
 42
0.106756
  0
VERTEX
  5
591
  8
035
 10
302.412536
 20
176.584805
 30
0.0
 42
0.133256
  0
VERTEX
  5
592
  8
035
 10
302.245295
 20
175.968432
 30
0.0
 42
0.133256
  0
SEQEND
  5
593
  8
035
  0
POLYLINE
  5
48C
  8
035
 66
     1
 10
0.0
 20
0.0
 30
0.0
  0
VERTEX
  5
594
  8
035
 10
305.340524
 20
173.953178
 30
0.0
 42
0.043668
  0
VERTEX
  5
595
  8
035
 10
305.454346
 20
173.713041
 30
0.0
 42
0.106756
  0
VERTEX
  5
596
  8
035
 10
306.123975
 20
172.983508
 30
0.0
 42
0.082828
  0
VERTEX
  5
597
  8
035
 10
307.056834
 20
172.532653
 30
0.0
 42
0.071352
  0
VERTEX
  5
598
  8
035
 10
308.245295
 20
172.362187
 30
0.0
 42
0.071352
  0
SEQEND
  5
599
  8
035
  0
LINE
  5
48D
  8
035
 10
318.445295
 20
152.588681
 30
0.0
 11
314.845295
 21
152.588681
 31
0.0
  0
ARC
  5
48E
  8
035
 10
310.375295
 20
152.618681
 30
0.0
 40
4.47
 50
0.0
 51
90.0
  0
LINE
  5
48F
  8
035
 10
314.845295
 20
152.618681
 30
0.0
 11
314.845295
 21
152.588681
 31
0.0
  0
LINE
  5
490
  8
05
 10
318.445295
 20
183.478652
 30
0.0
 11
327.538562
 21
189.16914
 31
0.0
  0
LINE
  5
491
  8
05
 10
318.445295
 20
187.238681
 30
0.0
 11
327.538562
 21
192.488681
 31
0.0
  0
LINE
  5
492
  8
05
 10
331.345295
 20
192.488681
 30
0.0
 11
327.538562
 21
192.488681
 31
0.0
  0
LINE
  5
493
  8
05
 10
327.538562
 20
192.488681
 30
0.0
 11
327.538562
 21
189.16914
 31
0.0
  0
LINE
  5
494
  8
05
 10
331.345295
 20
192.488681
 30
0.0
 11
331.345295
 21
191.588356
 31
0.0
  0
SOLID
  5
495
  8
BEM1
 10
321.945295
 20
218.386529
 30
0.0
 11
321.945295
 21
219.553196
 31
0.0
 12
318.445295
 22
218.969862
 32
0.0
 13
318.445295
 23
218.969862
 33
0.0
  0
LINE
  5
496
  8
BEM1
 10
381.445295
 20
192.038681
 30
0.0
 11
381.445295
 21
220.229846
 31
0.0
  0
LINE
  5
497
  8
035
 10
390.445295
 20
191.888681
 30
0.0
 11
390.445295
 21
207.488681
 31
0.0
  0
LINE
  5
498
  8
035
 10
388.045295
 20
191.888681
 30
0.0
 11
388.045295
 21
207.488681
 31
0.0
  0
LINE
  5
499
  8
05
 10
381.445295
 20
191.288681
 30
0.0
 11
373.345295
 21
191.288681
 31
0.0
  0
LINE
  5
49A
  8
05
 10
367.345295
 20
161.564582
 30
0.0
 11
351.196779
 21
161.564582
 31
0.0
  0
LINE
  5
49B
  8
05
 10
367.345295
 20
152.61278
 30
0.0
 11
351.196779
 21
152.61278
 31
0.0
  0
ARC
  5
49C
  8
05
 10
351.196779
 20
157.088681
 30
0.0
 40
4.475901
 50
90.0
 51
270.0
  0
LINE
  5
49D
  8
05
 10
367.345295
 20
191.250669
 30
0.0
 11
349.045295
 21
191.250669
 31
0.0
  0
LINE
  5
49E
  8
05
 10
349.045295
 20
191.588356
 30
0.0
 11
349.045295
 21
191.250669
 31
0.0
  0
LINE
  5
49F
  8
05
 10
367.345295
 20
192.488681
 30
0.0
 11
367.345295
 21
191.250669
 31
0.0
  0
ARC
  5
4A0
  8
035
 10
386.845295
 20
191.888681
 30
0.0
 40
3.6
 50
270.0
 51
0.0
  0
LINE
  5
4A1
  8
035
 10
381.445295
 20
188.288681
 30
0.0
 11
386.845295
 21
188.288681
 31
0.0
  0
LINE
  5
4A2
  8
035
 10
381.445295
 20
190.688681
 30
0.0
 11
386.845295
 21
190.688681
 31
0.0
  0
LINE
  5
4A3
  8
035
 10
385.045295
 20
188.288681
 30
0.0
 11
385.045295
 21
190.688681
 31
0.0
  0
LINE
  5
4A4
  8
035
 10
386.845295
 20
188.288681
 30
0.0
 11
386.845295
 21
190.688681
 31
0.0
  0
LINE
  5
4A5
  8
035
 10
388.045295
 20
191.888681
 30
0.0
 11
390.445295
 21
191.888681
 31
0.0
  0
ARC
  5
4A6
  8
035
 10
386.845295
 20
191.888681
 30
0.0
 40
1.2
 50
270.0
 51
0.0
  0
LINE
  5
4A7
  8
BEM1
 10
367.345295
 20
204.338681
 30
0.0
 11
367.345295
 21
220.226446
 31
0.0
  0
LINE
  5
4A8
  8
05
 10
372.145295
 20
203.588681
 30
0.0
 11
367.345295
 21
203.588681
 31
0.0
  0
ARC
  5
4A9
  8
05
 10
372.145295
 20
202.388681
 30
0.0
 40
1.2
 50
0.0
 51
90.0
  0
SOLID
  5
4AA
  8
BEM1
 10
363.845295
 20
218.386529
 30
0.0
 11
363.845295
 21
219.553196
 31
0.0
 12
367.345295
 22
218.969862
 32
0.0
 13
367.345295
 23
218.969862
 33
0.0
  0
LINE
  5
4AB
  8
BEM1
 10
390.445295
 20
208.238681
 30
0.0
 11
390.445295
 21
220.226446
 31
0.0
  0
LINE
  5
4AC
  8
035
 10
388.045295
 20
207.488681
 30
0.0
 11
390.445295
 21
207.488681
 31
0.0
  0
TEXT
  5
4AD
  8
BEM1
 62
     3
 10
382.485882
 20
220.719863
 30
0.0
 40
3.5
  1
3.00 [0.118"]
 41
0.7
 51
15.0
  0
SOLID
  5
4AE
  8
BEM1
 10
393.945295
 20
218.386529
 30
0.0
 11
393.945295
 21
219.553196
 31
0.0
 12
390.445295
 22
218.969862
 32
0.0
 13
390.445295
 23
218.969862
 33
0.0
  0
LINE
  5
4AF
  8
BEM1
 10
375.73731
 20
218.969862
 30
0.0
 11
405.530683
 21
218.969862
 31
0.0
  0
SOLID
  5
4B0
  8
BEM1
 10
377.945295
 20
218.386529
 30
0.0
 11
377.945295
 21
219.553196
 31
0.0
 12
381.445295
 22
218.969862
 32
0.0
 13
381.445295
 23
218.969862
 33
0.0
  0
ENDSEC
  0
EOF
